<?xml version="1.0" encoding="UTF-8"?>
<svg id="Capa_1" xmlns="http://www.w3.org/2000/svg" version="1.1" viewBox="0 0 50.99 49.07">
  <!-- Generator: Adobe Illustrator 29.6.1, SVG Export Plug-In . SVG Version: 2.1.1 Build 9)  -->
  <defs>
    <style>
      .st0 {
        fill: #fff;
      }
    </style>
  </defs>
  <path class="st0" d="M46.83,25.16v7.82c0,1.96-1.6,3.56-3.56,3.56h-4.96c.14,1.21.78,2.26,1.74,2.99.54.41.26,1.27-.42,1.28-3.19.02-6.2-1.39-7.74-4.27h-8.09c-1.96,0-3.56-1.6-3.56-3.56,0-.39.32-.71.71-.71s.71.32.71.71c0,1.18.96,2.13,2.13,2.13h8.53c.28,0,.53.16.64.41.93,1.99,2.65,3.23,4.84,3.68-.66-.99-1-2.17-.95-3.41.02-.38.33-.68.71-.68h5.7c1.18,0,2.13-.96,2.13-2.13v-7.82c0-1.18-.96-2.13-2.13-2.13h-8.98v3.73c0,1.96-1.6,3.56-3.56,3.56h-11.65c-1.52,2.84-4.49,4.29-7.74,4.27-.68,0-.96-.87-.42-1.28.97-.73,1.61-1.78,1.74-2.99h-4.96c-1.96,0-3.56-1.6-3.56-3.56v-14.93c0-1.96,1.6-3.56,3.56-3.56h23.02c1.96,0,3.56,1.6,3.56,3.56v5.87c0,.39-.32.71-.71.71s-.71-.32-.71-.71v-5.87c0-1.18-.96-2.13-2.13-2.13H7.72c-1.18,0-2.13.96-2.13,2.13v14.93c0,1.18.96,2.13,2.13,2.13h5.7c.38,0,.7.3.71.68.05,1.24-.29,2.42-.95,3.41,2.2-.45,3.91-1.69,4.84-3.68.12-.25.37-.41.64-.41h12.09c1.18,0,2.13-.96,2.13-2.13v-4.44c0-.4.33-.72.73-.71.05,0,9.62,0,9.67,0,1.96,0,3.56,1.6,3.56,3.56h0ZM25.23,21.16c.39,0,.71-.32.71-.71v-4.09c0-1.18-.96-2.13-2.13-2.13h-3.96v-1.24c0-.39-.32-.71-.71-.71s-.71.32-.71.71v1.24h-3.87c-1.18,0-2.13.96-2.13,2.13v6.93c0,1.18.96,2.13,2.13,2.13h9.24c.39,0,.71-.32.71-.71s-.32-.71-.71-.71h-9.24c-.39,0-.71-.32-.71-.71v-6.93c0-.39.32-.71.71-.71h9.24c.39,0,.71.32.71.71v4.09c0,.39.32.71.71.71ZM17.85,18.31v-.62c0-.39-.32-.71-.71-.71s-.71.32-.71.71v.62c0,.39.32.71.71.71s.71-.32.71-.71ZM22.03,18.31v-.62c0-.39-.32-.71-.71-.71s-.71.32-.71.71v.62c0,.39.32.71.71.71s.71-.32.71-.71ZM17.67,22.4h3.02c.39,0,.71-.32.71-.71s-.32-.71-.71-.71h-3.02c-.39,0-.71.32-.71.71s.32.71.71.71Z"/>
</svg>