<?xml version="1.0" encoding="UTF-8"?>
<svg id="Capa_1" xmlns="http://www.w3.org/2000/svg" version="1.1" viewBox="0 0 347.76 109.82">
  <!-- Generator: Adobe Illustrator 29.6.1, SVG Export Plug-In . SVG Version: 2.1.1 Build 9)  -->
  <defs>
    <style>
      .st0 {
        isolation: isolate;
      }

      .st1 {
        fill: #fff;
      }
    </style>
  </defs>
  <g class="st0">
    <g class="st0">
      <path class="st1" d="M3.31,19.38h5.34v27.62H3.31v-27.62Z"/>
      <path class="st1" d="M20.13,19.38h7.77l9.42,27.62h-5.41l-1.76-5.2h-11.97l-1.77,5.2h-5.49l6.33-19.15,2.88-8.47ZM19.35,37.79h9.53l-4.75-14.4h-.04l-4.75,14.4Z"/>
    </g>
    <g class="st0">
      <path class="st1" d="M19.8,72.84v-1.73c0-1.11-.27-1.93-.81-2.44-.56-.54-2.1-.81-4.6-.81h-.77c-1.4,0-2.46.08-3.18.25-.72.17-1.29.46-1.72.89-.76.74-1.14,2.27-1.14,4.6v7.22c0,2.77.46,4.46,1.37,5.08.55.43,1.19.69,1.92.8.73.11,1.75.16,3.05.16,1.57,0,2.62-.02,3.16-.07.95-.19,1.66-.51,2.14-.96.22-.22.38-.49.5-.82.12-.32.2-.65.24-.99.04-.34.07-.76.09-1.28.02-.52.04-1,.05-1.44h5.23v2.4c0,2.7-.68,4.66-2.03,5.89-1.19.94-3.01,1.49-5.45,1.65-.86.07-1.91.12-3.16.15s-1.98.06-2.18.07c-3.81,0-6.46-.75-7.96-2.25-.7-.71-1.21-1.6-1.54-2.68s-.52-2.26-.59-3.55c-.07-1.28-.11-3.08-.11-5.4s.03-4.17.09-5.38.24-2.32.52-3.31c.28-1,.75-1.92,1.41-2.76.64-.78,1.48-1.38,2.53-1.79,1.05-.41,2.17-.69,3.35-.82,1.18-.13,2.45-.2,3.8-.2,1.53,0,2.79.03,3.76.09.97.06,1.91.21,2.83.46.91.25,1.68.65,2.29,1.19.66.6,1.15,1.34,1.46,2.23.31.89.5,1.76.58,2.62.07.85.11,1.83.11,2.92h-5.23Z"/>
      <path class="st1" d="M39.61,63.34c1.44,0,2.78.06,4.02.18,1.24.12,2.43.39,3.56.81,1.13.42,1.96,1.05,2.51,1.89.29.31.65,1.01,1.08,2.11.43,1.09.65,2.7.65,4.81v8.91c0,1.67-.16,2.95-.47,3.87-.31.91-.76,1.78-1.33,2.62-.64.88-1.53,1.52-2.7,1.95-1.16.43-2.36.69-3.59.78s-2.71.14-4.43.14c-2.1,0-3.88-.15-5.32-.46-1.44-.31-2.61-.95-3.52-1.94-1.4-1.4-2.1-3.98-2.1-7.77v-7.55c0-1.6.1-3.02.31-4.27.21-1.25.63-2.34,1.27-3.27.6-.84,1.45-1.46,2.56-1.88,1.11-.41,2.26-.67,3.44-.77,1.18-.1,2.53-.15,4.05-.15ZM39.68,67.87c-1.71,0-3.03.12-3.96.37-.93.25-1.54.73-1.86,1.43-.36.8-.59,2.03-.7,3.69.05.22.07.5.07.84v6.55c0,2.27.26,3.82.77,4.67.43.64,1.05,1.04,1.85,1.2s2.04.26,3.71.31c1.62-.04,2.84-.16,3.67-.37.83-.21,1.47-.59,1.93-1.14.27-.4.49-.98.66-1.74.17-.76.26-1.58.26-2.46v-8.32c0-1.74-.31-2.99-.92-3.75-.61-.64-1.56-1.05-2.88-1.22-.81-.05-1.68-.07-2.62-.07Z"/>
      <path class="st1" d="M55.23,63.56h8.8l11.86,23.08h.14l-.44-23.08h5.34v27.62h-8.87l-11.71-23.08h-.22l.3,11.45.14,11.63h-5.34v-27.62Z"/>
      <path class="st1" d="M99.67,91.18h-7.96l-8.87-27.62h5.41l7.4,23.24h.07l7.41-23.24h5.48l-8.94,27.62Z"/>
      <path class="st1" d="M110.27,91.18v-27.62h18.97v4.53h-13.66v6.92h12.96v4.31h-12.96v7.33h13.74v4.53h-19.04Z"/>
      <path class="st1" d="M146.86,63.56c3.57,0,5.99.7,7.25,2.09,1.11,1.25,1.66,3.28,1.66,6.11,0,3.07-.41,5.08-1.22,6.04-.72.89-1.95,1.5-3.67,1.81v.11c1.62.16,2.84.71,3.67,1.65.66,1.06,1,2.62,1,4.68v5.12h-5.33v-4.16c0-.96-.05-1.75-.14-2.39-.09-.63-.33-1.16-.71-1.58-.38-.42-.82-.7-1.34-.82-.51-.12-1.2-.18-2.06-.18h-7.4v9.13h-5.3v-27.62h13.58ZM146.06,68.1h-7.48v9.42h7.63c.92,0,1.63-.07,2.13-.22.5-.15.94-.43,1.33-.84.52-.67.77-1.94.77-3.83,0-1.74-.21-2.92-.63-3.54-.34-.42-.81-.69-1.41-.81-.6-.12-1.38-.18-2.35-.18Z"/>
      <path class="st1" d="M169.36,63.34c2.45,0,4.21.05,5.26.15,1.7.22,2.99.7,3.86,1.44.92.75,1.52,1.66,1.78,2.72.26,1.07.4,2.42.4,4.04h-5.34v-1.11c0-1.03-.18-1.75-.55-2.14-.43-.49-1.54-.74-3.32-.74h-2.18c-2.1,0-3.46.25-4.08.74-.33.25-.57.57-.71.98-.14.41-.22,1.01-.22,1.82.05.92.13,1.58.24,1.99s.39.73.83.96c.36.19.8.34,1.33.44.53.1,1.16.18,1.88.23.72.05,1.41.1,2.05.14,2.19.14,3.99.31,5.42.52,1.42.21,2.51.6,3.27,1.17.46.37.82.82,1.09,1.33.26.52.45,1.06.57,1.62.12.56.19,1.05.21,1.46.02.41.05,1.1.09,2.07,0,1.53-.22,2.89-.65,4.08-.43,1.19-1.07,2.09-1.89,2.7-1.3.96-3.94,1.44-7.92,1.44h-1.99c-1.77,0-3.29-.1-4.57-.29-1.28-.19-2.37-.67-3.27-1.44-.66-.57-1.14-1.22-1.44-1.95-.3-.73-.49-1.48-.56-2.26-.07-.78-.1-1.79-.1-3.04h5.28c0,.32-.02.58-.07.77.04.85.12,1.5.22,1.94.1.44.31.8.62,1.08.35.32.82.54,1.41.65s1.42.19,2.49.23c.52,0,.9.03,1.14.08,1.35-.06,2.36-.13,3.04-.22.68-.08,1.25-.26,1.7-.52.81-.5,1.22-1.66,1.22-3.46,0-1.27-.26-2.18-.77-2.74-.19-.17-.43-.32-.73-.43-.29-.11-.59-.19-.89-.23-.3-.04-.67-.08-1.13-.1-.46-.03-.97-.06-1.54-.09-.98-.04-1.91-.08-2.78-.13-.87-.04-1.7-.11-2.48-.21-.79-.1-1.56-.26-2.34-.51s-1.42-.56-1.93-.96c-1.45-1.07-2.23-3.08-2.32-6.04,0-3.09.7-5.25,2.1-6.48,1.45-1.15,4.2-1.73,8.26-1.73Z"/>
      <path class="st1" d="M191.53,63.56h7.77l9.42,27.62h-5.41l-1.76-5.2h-11.97l-1.77,5.2h-5.49l6.33-19.15,2.88-8.47ZM190.75,81.97h9.53l-4.75-14.4h-.04l-4.75,14.4Z"/>
      <path class="st1" d="M227.43,72.84v-1.73c0-1.11-.27-1.93-.81-2.44-.56-.54-2.1-.81-4.6-.81h-.77c-1.4,0-2.46.08-3.18.25s-1.29.46-1.72.89c-.76.74-1.14,2.27-1.14,4.6v7.22c0,2.77.46,4.46,1.37,5.08.54.43,1.18.69,1.92.8.73.11,1.75.16,3.05.16,1.57,0,2.62-.02,3.17-.07.95-.19,1.66-.51,2.14-.96.22-.22.38-.49.5-.82.12-.32.2-.65.24-.99s.07-.76.09-1.28c.02-.52.04-1,.05-1.44h5.23v2.4c0,2.7-.68,4.66-2.03,5.89-1.19.94-3.01,1.49-5.45,1.65-.86.07-1.91.12-3.16.15s-1.98.06-2.18.07c-3.81,0-6.46-.75-7.96-2.25-.7-.71-1.21-1.6-1.54-2.68-.32-1.08-.52-2.26-.59-3.55-.07-1.28-.11-3.08-.11-5.4s.03-4.17.09-5.38c.06-1.21.24-2.32.52-3.31.28-1,.75-1.92,1.41-2.76.63-.78,1.48-1.38,2.53-1.79,1.05-.41,2.17-.69,3.35-.82s2.45-.2,3.8-.2c1.54,0,2.79.03,3.76.09.97.06,1.91.21,2.83.46.91.25,1.68.65,2.29,1.19.66.6,1.15,1.34,1.46,2.23s.5,1.76.58,2.62c.07.85.11,1.83.11,2.92h-5.23Z"/>
      <path class="st1" d="M236.52,63.56h5.34v27.62h-5.34v-27.62Z"/>
      <path class="st1" d="M257.36,63.34c1.44,0,2.78.06,4.02.18,1.24.12,2.43.39,3.56.81,1.13.42,1.96,1.05,2.51,1.89.29.31.65,1.01,1.08,2.11.43,1.09.65,2.7.65,4.81v8.91c0,1.67-.16,2.95-.47,3.87-.31.91-.76,1.78-1.33,2.62-.63.88-1.53,1.52-2.7,1.95s-2.36.69-3.59.78c-1.23.1-2.71.14-4.43.14-2.1,0-3.88-.15-5.32-.46s-2.62-.95-3.52-1.94c-1.4-1.4-2.1-3.98-2.1-7.77v-7.55c0-1.6.1-3.02.31-4.27.21-1.25.63-2.34,1.27-3.27.6-.84,1.45-1.46,2.56-1.88,1.11-.41,2.26-.67,3.44-.77,1.18-.1,2.54-.15,4.05-.15ZM257.43,67.87c-1.71,0-3.03.12-3.96.37-.93.25-1.54.73-1.86,1.43-.36.8-.59,2.03-.7,3.69.05.22.07.5.07.84v6.55c0,2.27.26,3.82.77,4.67.43.64,1.05,1.04,1.85,1.2.8.16,2.04.26,3.71.31,1.62-.04,2.84-.16,3.67-.37.83-.21,1.47-.59,1.93-1.14.27-.4.49-.98.66-1.74.17-.76.26-1.58.26-2.46v-8.32c0-1.74-.31-2.99-.92-3.75-.61-.64-1.56-1.05-2.88-1.22-.81-.05-1.68-.07-2.62-.07Z"/>
      <path class="st1" d="M272.97,63.56h8.8l11.86,23.08h.14l-.44-23.08h5.34v27.62h-8.87l-11.71-23.08h-.22l.3,11.45.14,11.63h-5.34v-27.62Z"/>
      <path class="st1" d="M310.08,63.56h7.77l9.42,27.62h-5.41l-1.76-5.2h-11.97l-1.77,5.2h-5.49l6.33-19.15,2.88-8.47ZM309.31,81.97h9.53l-4.75-14.4h-.04l-4.75,14.4Z"/>
      <path class="st1" d="M329.49,63.56h5.34v23.08h12.96v4.53h-18.3v-27.62Z"/>
    </g>
  </g>
</svg>