<?xml version="1.0" encoding="UTF-8"?>
<svg id="Capa_1" xmlns="http://www.w3.org/2000/svg" version="1.1" viewBox="0 0 145.68 145.68">
  <!-- Generator: Adobe Illustrator 29.6.1, SVG Export Plug-In . SVG Version: 2.1.1 Build 9)  -->
  <defs>
    <style>
      .st0 {
        fill: #fff;
      }

      .st1 {
        fill: #00a3c0;
        opacity: .7;
      }
    </style>
  </defs>
  <rect class="st1" width="145.68" height="145.68" rx="13.63" ry="13.63"/>
  <g>
    <path class="st0" d="M18.09,97.88c.09.51.66,5.07,8.98,9.16l.15.07c5.86,2.24,10.45,2.31,13.68,1.8,1.98-.24,3.84-.9,5.49-1.89.64-.44.86-1.19.57-1.82-.48-.92-.48-1.95,0-2.88,2.9-2.83,6.15-4.35,5.86-10.43,1.73,1.36,3.84,2.28,6.39,1.93l.2-.04c2.77-.42,4.92-2.33,5.27-4.7,1.98.48,4.13.04,5.67-1.19,2.02-1.67,2.48-4.04,1.41-6.43,2.46-.51,4.24-2.33,4.35-4.46l.29-26.31v-.33c-.09-2.35-2.44-4.11-5.23-3.93l-30.44.81h-.15c-2.75.07-5.01,2-5.07,4.35l-.2,9.53c-2.96,1.19-8.72,2.99-10.45,3.73-2.44,1.23-4.08,3.38-4.5,5.75-.22,1.84.97,16.89.31,20.18-.81,4.15-2.28,6.13-2.28,6.13-.22.29-.33.64-.31.99h0l.02-.02ZM72.42,76.99c-.07.83-.88,1.47-1.87,1.49l-13.18.15c4.02-5.07,8.26-7.29,5.73-11-2.64-3.8-9.49-2.68-13.79.29-3.54,2.46-6.85,7.97-9.82,10.5-.31-.31-.66-.57-1.03-.94l.61-25.96v-.11c.09-.66.77-1.19,1.56-1.14l30.57-.77h.26c.77.04,1.34.59,1.25,1.25l-.33,26.27h0l.02-.02ZM66.05,86.09c-.86-.07-3.43-.64-6.63-4.35l8.37-.09c.7,1.01,1.58,2.77.04,4.02-.48.37-1.14.53-1.78.42h0ZM58.72,90.72c-1.23.18-2.85-.11-5.56-3.4.35-1.82,1.01-3.62,1.95-5.29,1.56,2.2,3.62,4.11,6.04,5.64,0,.04,0,.07.02.11.26,1.36-.81,2.68-2.42,2.94,0,0-.04,0-.04,0ZM28.79,104.25c-5.31-2.59-6.72-5.29-7.09-6.3,1.23-2.13,2.04-4.41,2.44-6.76.75-3.69-.46-18.91-.29-20.42.26-1.32,1.16-2.5,2.48-3.27,1.27-.53,5.95-2.02,8.87-3.1l-.18,8.45c-.42-.2-.92-.24-1.41-.09-.94.26-1.47,1.14-1.19,1.93.83,2.02,2.15,3.84,3.87,5.38-1.34.37-2.75.55-4.13.55-.97-.04-1.82.61-1.89,1.47s.66,1.56,1.65,1.6c2.99.07,5.97-.64,8.56-2,3.89-2.24,7.49-8.92,11.09-11.4,2.35-1.63,7.12-3.03,8.43-1.05,1.21,1.76-2.55,3.16-7.18,9.9-2.81,4.13-4.04,8.89-3.54,13.62.33,4.33-4.41,6.54-5.34,7.88-.86,1.34-1.12,2.9-.72,4.39-2,.81-6.81,2-14.41-.79,0,0-.04,0-.04,0Z"/>
    <path class="st0" d="M109.07,73.7c-5.62-5.62-6.79-10.94-3.93-17.92.33-.83-.2-1.71-1.19-1.95-.99-.26-2.06.22-2.39,1.05-3.27,7.99-1.87,14.43,4.57,20.88h0c.66.68,1.87.75,2.68.18.81-.57.92-1.56.26-2.22v-.02Z"/>
    <path class="st0" d="M115.33,70.89c.77-.59.86-1.56.18-2.22-3.1-2.79-3.97-6.81-2.31-10.39h0c.4-.83-.11-1.73-1.1-2.04-.99-.29-2.11.13-2.48.97-2.17,4.68-1.01,9.93,3.01,13.57.7.64,1.91.7,2.7.11h0Z"/>
    <path class="st0" d="M101.32,80.29c.83-.55.99-1.54.35-2.24-6.96-7.66-8.45-14.6-5.18-23.92.29-.83-.29-1.69-1.27-1.91s-2.04.29-2.33,1.12c-3.6,10.26-1.89,18.21,5.75,26.66.61.7,1.82.81,2.66.29h.02Z"/>
    <path class="st0" d="M93.86,84.62c.83-.55.99-1.54.37-2.22-8.15-9.07-10.21-18.8-6.37-29.8h0c.29-.83-.26-1.69-1.25-1.89-.99-.22-2.02.29-2.31,1.12-4.13,11.81-1.82,22.75,6.92,32.5h0c.61.7,1.8.81,2.64.29h0Z"/>
    <path class="st0" d="M56.17,98.58c-.97-.22-1.98.29-2.24,1.14-.26.83.31,1.69,1.3,1.91,8.76,1.87,18.01,2.09,27.08.64,28.55-4.44,48.91-23.17,44.78-41.4-4.08-18.01-30.46-28.18-58.2-23.01-3.58.68-7.09,1.58-10.5,2.72-.13.02-.26.07-.37.13-.9.4-1.27,1.32-.83,2.06s1.52,1.01,2.42.61c3.23-1.08,6.54-1.93,9.93-2.55,25.76-4.77,50.07,4.39,53.76,20.67,3.71,16.47-15.17,33.47-41.62,37.62-8.54,1.38-17.24,1.19-25.5-.55h.02-.02Z"/>
  </g>
</svg>