<?xml version="1.0" encoding="UTF-8"?>
<svg id="Capa_1" xmlns="http://www.w3.org/2000/svg" version="1.1" viewBox="0 0 381.01 58.27">
  <!-- Generator: Adobe Illustrator 29.6.1, SVG Export Plug-In . SVG Version: 2.1.1 Build 9)  -->
  <defs>
    <style>
      .st0 {
        isolation: isolate;
      }

      .st1 {
        fill: #fff;
      }
    </style>
  </defs>
  <g class="st0">
    <g class="st0">
      <path class="st1" d="M15.48,35.81v8.91h-5.3v-27.62h12.08c2.16,0,4.02.2,5.56.61,1.55.4,2.68,1.31,3.42,2.71.67,1.53,1,3.54,1,6.03,0,3.4-.58,5.8-1.73,7.18-.56.7-1.51,1.24-2.83,1.61-1.32.37-2.7.56-4.13.56h-8.06ZM15.48,31.28h6.71c1.96,0,3.2-.25,3.71-.74.49-.4.79-.84.89-1.31.1-.47.17-1.32.22-2.55,0-1.74-.19-2.97-.58-3.69-.3-.5-.76-.85-1.38-1.05-.62-.2-1.52-.31-2.71-.31h-6.85v9.65Z"/>
      <path class="st1" d="M46.92,40.41c.44,0,.76.02.96.07,1.29-.04,2.28-.12,2.96-.25.68-.12,1.25-.38,1.71-.79.4-.34.65-.72.76-1.16s.16-1.14.16-2.11v-19.08h5.3v19.78c0,2.91-.81,5.02-2.43,6.33-.98.77-2.28,1.25-3.92,1.44-1.64.19-3.62.29-5.95.29-1.7,0-3.16-.08-4.37-.24-1.21-.16-2.32-.51-3.32-1.05-1.02-.61-1.78-1.52-2.28-2.75-.49-1.22-.74-2.62-.74-4.17v-19.62h5.34v20.06c0,.66.07,1.16.22,1.51s.43.65.85.93c.52.35,1.13.58,1.83.67s1.67.14,2.92.14Z"/>
      <path class="st1" d="M63.52,17.1h8.8l11.86,23.08h.14l-.44-23.08h5.34v27.62h-8.87l-11.71-23.08h-.22l.3,11.45.14,11.63h-5.34v-27.62Z"/>
      <path class="st1" d="M99.71,44.72v-23.08h-8.06v-4.53h21.5v4.53h-8.14v23.08h-5.3Z"/>
      <path class="st1" d="M126.29,16.88c1.44,0,2.78.06,4.02.18,1.24.12,2.43.39,3.56.81,1.13.42,1.96,1.05,2.51,1.89.29.31.65,1.01,1.08,2.11.43,1.09.65,2.7.65,4.81v8.91c0,1.67-.16,2.95-.47,3.87-.31.91-.76,1.78-1.33,2.62-.64.88-1.53,1.52-2.7,1.95-1.16.43-2.36.69-3.59.78s-2.71.14-4.43.14c-2.1,0-3.88-.15-5.32-.46-1.44-.31-2.61-.95-3.52-1.94-1.4-1.4-2.1-3.98-2.1-7.77v-7.55c0-1.6.1-3.02.31-4.27.21-1.25.63-2.34,1.27-3.27.6-.84,1.45-1.46,2.56-1.88,1.11-.41,2.26-.67,3.44-.77,1.18-.1,2.53-.15,4.05-.15ZM126.37,21.41c-1.71,0-3.03.12-3.96.37-.93.25-1.54.73-1.86,1.43-.36.8-.59,2.03-.7,3.69.05.22.07.5.07.84v6.55c0,2.27.26,3.82.77,4.67.43.64,1.05,1.04,1.85,1.2s2.04.26,3.71.31c1.62-.04,2.84-.16,3.67-.37.83-.21,1.47-.59,1.93-1.14.27-.4.49-.98.66-1.74.17-.76.26-1.58.26-2.46v-8.32c0-1.74-.31-2.99-.92-3.75-.61-.64-1.56-1.05-2.88-1.22-.81-.05-1.68-.07-2.62-.07Z"/>
      <path class="st1" d="M151.27,16.88c2.45,0,4.21.05,5.26.15,1.7.22,2.99.7,3.87,1.44.92.75,1.52,1.66,1.78,2.72.26,1.07.4,2.42.4,4.04h-5.34v-1.11c0-1.03-.18-1.75-.55-2.14-.43-.49-1.54-.74-3.32-.74h-2.18c-2.1,0-3.46.25-4.08.74-.33.25-.57.57-.71.98-.14.41-.22,1.01-.22,1.82.05.92.13,1.58.24,1.99s.39.73.83.96c.36.19.8.34,1.33.44.53.1,1.16.18,1.88.23.72.05,1.41.1,2.05.14,2.19.14,3.99.31,5.42.52s2.51.6,3.27,1.17c.46.37.82.82,1.09,1.33.26.52.45,1.06.57,1.62s.19,1.05.21,1.46c.02.41.05,1.1.09,2.07,0,1.53-.22,2.89-.65,4.08-.43,1.19-1.07,2.09-1.89,2.7-1.3.96-3.94,1.44-7.92,1.44h-1.99c-1.77,0-3.29-.1-4.57-.29-1.28-.19-2.37-.67-3.27-1.44-.66-.57-1.14-1.22-1.44-1.95-.3-.73-.49-1.48-.56-2.26-.07-.78-.1-1.79-.1-3.04h5.28c0,.32-.02.58-.07.77.04.85.12,1.5.22,1.94.1.44.31.8.62,1.08.35.32.82.54,1.41.65s1.42.19,2.49.23c.52,0,.9.03,1.14.08,1.35-.06,2.36-.13,3.04-.22.68-.08,1.25-.26,1.7-.52.81-.5,1.22-1.66,1.22-3.46,0-1.27-.26-2.18-.77-2.74-.19-.17-.43-.32-.73-.43-.29-.11-.59-.19-.89-.23-.3-.04-.67-.08-1.13-.1-.46-.03-.97-.06-1.54-.09-.98-.04-1.91-.08-2.78-.13-.87-.04-1.7-.11-2.48-.21-.79-.1-1.56-.26-2.34-.51s-1.42-.56-1.93-.96c-1.45-1.07-2.23-3.08-2.32-6.04,0-3.09.7-5.25,2.1-6.48,1.45-1.15,4.2-1.73,8.26-1.73Z"/>
      <path class="st1" d="M193.94,44.72h-14.36v-27.62h13.3c4.87,0,8.04,1.31,9.49,3.94.86,1.62,1.29,3.88,1.29,6.78v5.89c0,4.9-1.39,8.16-4.16,9.8-.64.37-1.5.67-2.56.89-1.07.22-2.07.33-3,.33ZM192.88,40.19c1.06,0,1.92-.12,2.59-.36.67-.24,1.26-.75,1.79-1.52.71-1,1.07-2.77,1.07-5.3v-4.96c0-1.63-.11-2.87-.32-3.73-.21-.86-.74-1.52-1.58-1.98-.84-.46-2.15-.7-3.92-.7h-7.62v18.55h7.99Z"/>
      <path class="st1" d="M207.12,44.72v-27.62h18.97v4.53h-13.66v6.92h12.96v4.31h-12.96v7.33h13.74v4.53h-19.04Z"/>
      <path class="st1" d="M257.23,44.72h-7.96l-8.87-27.62h5.41l7.4,23.24h.07l7.41-23.24h5.48l-8.94,27.62Z"/>
      <path class="st1" d="M267.83,44.72v-27.62h18.97v4.53h-13.66v6.92h12.96v4.31h-12.96v7.33h13.74v4.53h-19.04Z"/>
      <path class="st1" d="M290.95,17.1h8.8l11.86,23.08h.14l-.44-23.08h5.34v27.62h-8.87l-11.71-23.08h-.22l.3,11.45.14,11.63h-5.34v-27.62Z"/>
      <path class="st1" d="M327.14,44.72v-23.08h-8.06v-4.53h21.5v4.53h-8.14v23.08h-5.3Z"/>
      <path class="st1" d="M349.71,17.1h7.77l9.42,27.62h-5.41l-1.76-5.2h-11.97l-1.77,5.2h-5.48l6.33-19.15,2.88-8.47ZM348.94,35.51h9.53l-4.75-14.4h-.04l-4.75,14.4Z"/>
    </g>
  </g>
</svg>