<?xml version="1.0" encoding="UTF-8"?>
<svg id="Capa_1" xmlns="http://www.w3.org/2000/svg" xmlns:xlink="http://www.w3.org/1999/xlink" version="1.1" viewBox="0 0 298.35 76.16">
  <!-- Generator: Adobe Illustrator 29.6.1, SVG Export Plug-In . SVG Version: 2.1.1 Build 9)  -->
  <defs>
    <style>
      .st0 {
        fill: #fff;
      }

      .st1 {
        fill: url(#Degradado_sin_nombre_132);
      }
    </style>
    <linearGradient id="Degradado_sin_nombre_132" data-name="Degradado sin nombre 132" x1="149.17" y1="0" x2="149.17" y2="76.16" gradientUnits="userSpaceOnUse">
      <stop offset="0" stop-color="#5f40a2"/>
      <stop offset="1" stop-color="#4340a2"/>
    </linearGradient>
  </defs>
  <rect class="st1" width="298.35" height="76.16" rx="23.23" ry="23.23"/>
  <g>
    <path class="st0" d="M89.93,27.15c2.47,0,4.14.48,5.01,1.45.77.86,1.15,2.27,1.15,4.22,0,2.12-.28,3.51-.84,4.17-.5.62-1.35,1.03-2.54,1.25v.07c1.12.11,1.96.49,2.54,1.14.46.73.69,1.81.69,3.24v3.53h-3.68v-2.88c0-.66-.03-1.21-.1-1.65-.06-.44-.23-.8-.49-1.09-.26-.29-.57-.48-.92-.57-.35-.08-.83-.13-1.42-.13h-5.12v6.31h-3.67v-19.08h9.39ZM89.38,30.28h-5.17v6.51h5.27c.64,0,1.13-.05,1.47-.16.34-.1.65-.3.92-.58.36-.46.53-1.34.53-2.65,0-1.2-.15-2.02-.44-2.45-.24-.29-.56-.48-.97-.56-.41-.08-.95-.12-1.63-.12Z"/>
    <path class="st0" d="M98.78,46.23v-19.08h13.11v3.13h-9.44v4.78h8.96v2.98h-8.96v5.06h9.49v3.13h-13.16Z"/>
    <path class="st0" d="M130.64,39.82c0,1.2-.1,2.26-.31,3.18s-.65,1.63-1.34,2.14c-.77.59-1.99.97-3.64,1.14-.66.07-1.65.11-2.98.11-1.05,0-1.96-.03-2.71-.09-.76-.06-1.49-.2-2.19-.43-.71-.23-1.3-.57-1.79-1.03-1.14-.99-1.71-2.79-1.71-5.42v-4.76c0-1.04.06-1.94.18-2.7.12-.75.31-1.39.55-1.92.24-.52.55-.97.92-1.34.49-.5,1.1-.87,1.83-1.12.73-.25,1.48-.41,2.26-.48.78-.07,1.67-.11,2.66-.11h1.4c1.2,0,2.21.06,3.05.19.84.12,1.56.43,2.17.91,1.07.84,1.6,2.24,1.6,4.22v.62h-3.64c0-1.05-.23-1.78-.68-2.19-.29-.26-.72-.42-1.28-.5-.56-.08-1.35-.11-2.36-.11-1.25,0-2.17.05-2.77.15s-1.06.3-1.41.59c-.53.53-.79,1.69-.79,3.48v4.58c0,1.79.25,2.97.74,3.54.4.37,1.02.61,1.88.74.48.03,1.19.05,2.14.05.59,0,1.02.02,1.3.05.64-.03,1.14-.09,1.5-.19.36-.1.71-.29,1.05-.57.29-.26.48-.66.56-1.17s.12-1.17.12-1.96v-.53h-4.81v-2.77h8.5v3.71Z"/>
    <path class="st0" d="M142.57,27.15c2.47,0,4.14.48,5.01,1.45.77.86,1.15,2.27,1.15,4.22,0,2.12-.28,3.51-.84,4.17-.5.62-1.35,1.03-2.54,1.25v.07c1.12.11,1.96.49,2.54,1.14.46.73.69,1.81.69,3.24v3.53h-3.68v-2.88c0-.66-.03-1.21-.1-1.65-.06-.44-.23-.8-.49-1.09-.26-.29-.57-.48-.92-.57-.35-.08-.83-.13-1.42-.13h-5.12v6.31h-3.67v-19.08h9.39ZM142.01,30.28h-5.17v6.51h5.27c.64,0,1.13-.05,1.47-.16.34-.1.65-.3.92-.58.36-.46.53-1.34.53-2.65,0-1.2-.15-2.02-.44-2.45-.24-.29-.56-.48-.97-.56-.41-.08-.95-.12-1.63-.12Z"/>
    <path class="st0" d="M151.42,46.23v-19.08h13.11v3.13h-9.44v4.78h8.96v2.98h-8.96v5.06h9.49v3.13h-13.16Z"/>
    <path class="st0" d="M173.86,27c1.69,0,2.91.04,3.64.11,1.18.15,2.07.48,2.67.99.64.52,1.05,1.15,1.23,1.88.18.74.27,1.67.27,2.8h-3.69v-.77c0-.71-.13-1.21-.38-1.48-.3-.34-1.06-.51-2.29-.51h-1.5c-1.45,0-2.39.17-2.82.51-.23.17-.39.4-.49.68-.1.28-.15.7-.15,1.26.03.63.09,1.09.16,1.37s.27.5.57.67c.25.13.56.23.92.3.37.07.8.12,1.3.16.5.04.97.07,1.42.1,1.51.1,2.76.22,3.74.36s1.74.41,2.26.81c.32.26.57.56.75.92.18.36.31.73.39,1.12.08.39.13.73.15,1.01.02.29.04.76.06,1.43,0,1.06-.15,2-.45,2.82-.3.82-.74,1.44-1.31,1.86-.9.66-2.72.99-5.48.99h-1.37c-1.22,0-2.28-.07-3.16-.2-.88-.13-1.64-.47-2.26-1-.46-.39-.79-.84-1-1.35-.21-.5-.34-1.03-.39-1.56s-.07-1.24-.07-2.1h3.65c0,.22-.02.4-.05.53.03.59.08,1.04.15,1.34.07.3.22.55.43.75.24.22.57.37.98.45.41.08.98.13,1.72.16.36,0,.62.02.79.06.93-.04,1.63-.09,2.1-.15.47-.06.86-.18,1.18-.36.56-.35.84-1.15.84-2.39,0-.88-.18-1.51-.53-1.89-.13-.12-.3-.22-.5-.3-.2-.08-.41-.13-.61-.16-.21-.03-.46-.05-.78-.07-.31-.02-.67-.04-1.06-.06-.68-.03-1.32-.06-1.92-.09s-1.17-.08-1.72-.14c-.54-.07-1.08-.18-1.62-.35-.53-.17-.98-.39-1.34-.66-1-.74-1.54-2.13-1.61-4.18,0-2.14.48-3.63,1.45-4.48,1-.8,2.9-1.2,5.71-1.2Z"/>
    <path class="st0" d="M189.18,27.15h5.37l6.51,19.08h-3.74l-1.22-3.59h-8.27l-1.22,3.59h-3.79l4.37-13.23,1.99-5.85ZM188.65,39.87h6.59l-3.28-9.95h-.02l-3.28,9.95Z"/>
    <path class="st0" d="M211.9,27.15c2.47,0,4.14.48,5.01,1.45.77.86,1.15,2.27,1.15,4.22,0,2.12-.28,3.51-.84,4.17-.5.62-1.35,1.03-2.54,1.25v.07c1.12.11,1.96.49,2.54,1.14.46.73.69,1.81.69,3.24v3.53h-3.68v-2.88c0-.66-.03-1.21-.1-1.65-.06-.44-.23-.8-.49-1.09-.26-.29-.57-.48-.92-.57-.35-.08-.83-.13-1.42-.13h-5.12v6.31h-3.67v-19.08h9.39ZM211.35,30.28h-5.17v6.51h5.27c.64,0,1.13-.05,1.47-.16.34-.1.65-.3.92-.58.36-.46.53-1.34.53-2.65,0-1.2-.15-2.02-.44-2.45-.24-.29-.56-.48-.97-.56-.41-.08-.95-.12-1.63-.12Z"/>
  </g>
</svg>