<?xml version="1.0" encoding="UTF-8"?>
<svg id="Capa_1" xmlns="http://www.w3.org/2000/svg" version="1.1" viewBox="0 0 71.96 63.88">
  <!-- Generator: Adobe Illustrator 29.6.1, SVG Export Plug-In . SVG Version: 2.1.1 Build 9)  -->
  <path d="M5.75,24.51v-3.05C7.3,2.03,33.8-3.56,42.69,14.1c8.57,17.01-9.78,34.75-26.51,26.16l-6.13,2.15c-1.35.26-2.52-.86-2.34-2.22l1.9-5.62c-1.09-1.46-1.98-3.08-2.61-4.79-.57-1.54-1.13-3.65-1.25-5.27ZM27.22,25.6c6.83-1.78,8.03-11.09,1.71-14.46-4.31-2.3-9.73-.07-11.14,4.6-.08.27-.33,1.17-.33,1.38v2.87h3.9v-2.62c0-.97,1.3-2.42,2.17-2.83,3.96-1.9,7.51,3.06,4.6,6.19-1.04,1.12-1.97,1.01-3.27,1.25-.58.11-1.55.9-1.55,1.5v4.33h3.9v-2.2ZM24.87,31.73c-2.35.38-1.95,4.29.8,3.84,2.35-.38,1.95-4.29-.8-3.84Z"/>
  <path d="M46.37,19.14c7.23-.86,14.4,2.45,18.47,8.43,4.64,6.83,4.46,16-.5,22.61l1.9,5.62c.18,1.36-.99,2.48-2.34,2.22l-6.13-2.15c-10.83,5.67-24.65-.19-27.81-11.97,10.98-2.45,18.62-13.59,16.41-24.76Z"/>
</svg>