<?xml version="1.0" encoding="UTF-8"?>
<svg id="Capa_1" xmlns="http://www.w3.org/2000/svg" version="1.1" viewBox="0 0 62.46 50.31">
  <!-- Generator: Adobe Illustrator 29.6.1, SVG Export Plug-In . SVG Version: 2.1.1 Build 9)  -->
  <path d="M62.46,33.46c-.59,1.66-2.32,1.48-3.78,1.46.33,3.26-2.13,5.65-5.37,5.49.04,2.31.18,4.29-1.05,6.33-1.44,2.4-3.74,3.28-6.45,3.43-2.55.14-6.66.23-9.15,0-2.32-.22-3.01-2.49-.92-3.6,3.3-.28,6.8.17,10.07-.05,3.83-.26,4.06-2.73,3.82-6.03l-.1-.14c-1.01-.08-1.73-.67-1.84-1.7.24-3.58-.32-7.57,0-11.1.1-1.11.82-1.85,1.96-1.76.23-4.83-.17-9.24-2.76-13.41C39.97,1.21,23.91.68,16.25,11.34c-3.12,4.35-3.73,9.16-3.44,14.43,1.04-.11,1.84.62,1.95,1.65.37,3.5-.28,7.65,0,11.22-.07.74-.52,1.34-1.22,1.58-1.03.36-4.85.25-6.01.03-2.49-.48-4.02-2.85-3.75-5.34C2.36,35.01,0,35.01,0,33.03c0-2.1,2.35-1.81,3.79-1.77-.38-3.21,2.08-5.94,5.37-5.49-.36-6.07.58-11.65,4.17-16.63,9.19-12.74,28.44-12.05,36.69,1.32,2.91,4.72,3.58,9.82,3.29,15.31,3.29-.45,5.74,2.29,5.37,5.49,1.5.05,3.15-.44,3.78,1.34v.85Z"/>
</svg>