<?xml version="1.0" encoding="UTF-8"?>
<svg id="Capa_1" xmlns="http://www.w3.org/2000/svg" version="1.1" viewBox="0 0 85.61 31.38">
  <!-- Generator: Adobe Illustrator 29.6.1, SVG Export Plug-In . SVG Version: 2.1.1 Build 9)  -->
  <defs>
    <style>
      .st0 {
        isolation: isolate;
      }
    </style>
  </defs>
  <g class="st0">
    <g class="st0">
      <path d="M4.24,13.6V3.1h2.08l3.71,9,3.73-9h2.06v10.5h-1.18V4h-.03l-3.98,9.6h-1.18L5.47,4h-.03v9.6h-1.2Z"/>
      <path d="M22.73,12.86l-.03-.03c-.18.35-.46.58-.83.69-.37.11-.85.17-1.44.17-.73,0-1.31-.06-1.73-.19s-.73-.35-.93-.67c-.2-.32-.3-.77-.32-1.35.02-.05.03-.12.03-.2.02-.61.14-1.06.36-1.36.23-.3.54-.5.96-.6.41-.09.97-.14,1.69-.14h.18c.37,0,.74.03,1.12.1.52.14.81.35.85.63h.09v-1.3c0-.38-.05-.66-.14-.85-.1-.25-.29-.42-.57-.53-.28-.11-.7-.16-1.27-.16h-.24c-.5,0-.91.07-1.21.22-.3.15-.47.43-.48.84,0,.04.01.1.01.2h-1.15c0-.84.23-1.43.69-1.78.26-.16.59-.27.99-.31.4-.04.86-.07,1.36-.07.62,0,1.14.04,1.55.13.41.08.73.24.97.47.38.38.57,1.01.57,1.88v4.96h-1.09v-.74ZM18.87,10.39c-.08.11-.12.22-.14.31-.02.09-.03.23-.05.42s-.04.33-.08.43c.05.35.13.61.23.78.08.14.18.24.33.3.14.06.31.1.49.12.18.02.48.03.87.05.53,0,.95-.04,1.26-.12.31-.08.55-.22.7-.43.15-.23.23-.54.23-.95,0-.54-.2-.89-.6-1.04-.4-.15-.94-.22-1.61-.22-.46,0-.82.02-1.06.06-.25.04-.43.13-.56.29ZM19.47,4.77l2.08-1.58.55.74-2.24,1.42-.39-.57Z"/>
      <path d="M31.56,8.15h-1.15c0-.44-.07-.71-.21-.81-.2-.13-.63-.2-1.32-.2h-.46c-.4,0-.71.01-.94.04-.23.02-.43.09-.6.19-.18.11-.26.4-.26.87.01.42.09.7.22.83.13.13.37.21.7.24.11,0,.33,0,.64.03.31.02.55.03.71.03.57,0,1.04.04,1.41.12.37.08.65.2.87.38s.36.39.45.66c.09.27.14.61.15,1.01,0,.66-.14,1.15-.43,1.46s-.64.51-1.06.58c-.42.08-.98.11-1.66.11-.58,0-1.09-.03-1.54-.1-.45-.07-.83-.22-1.16-.48s-.49-.64-.49-1.15v-.69h1.15v.28c.02.32.05.53.07.65.02.11.1.2.23.28.14.07.34.12.58.16.24.03.47.05.68.06.21,0,.51.02.88.02.36,0,.65-.03.88-.08.23-.06.4-.17.53-.34.13-.17.19-.41.2-.73,0-.46-.08-.78-.25-.95-.1-.11-.26-.17-.45-.19s-.55-.04-1.07-.05c-.79-.04-1.31-.08-1.56-.1-.25-.02-.52-.1-.81-.22-.3-.13-.53-.34-.7-.63s-.26-.7-.26-1.22c0-.5.09-.89.26-1.18.16-.28.38-.49.65-.6.27-.12.53-.19.8-.21.27-.02.67-.04,1.22-.05.59,0,1.09.02,1.47.06s.72.15.99.31c.45.29.67.83.67,1.61Z"/>
    </g>
    <g class="st0">
      <path d="M4.21,17.1h1.12v1.23h-1.12v-1.23ZM4.21,20.25h1.12v7.35h-1.12v-7.35Z"/>
      <path d="M8.35,21.15h.03c.12-.26.29-.46.51-.6.23-.14.48-.24.75-.29.27-.05.57-.08.91-.1.73,0,1.31.08,1.73.24.42.16.72.42.9.77.18.35.27.83.27,1.42v5h-1.09v-4.97c0-.43-.06-.75-.18-.98-.12-.22-.3-.38-.55-.46-.25-.08-.6-.13-1.05-.13s-.78.03-1.04.08c-.26.06-.5.18-.71.38-.32.29-.48.85-.48,1.7v4.38h-1.09v-7.35h1.09v.9Z"/>
      <path d="M18.69,17.04v.91c-.17-.02-.39-.03-.68-.03-.43,0-.73.05-.91.15-.23.16-.35.51-.35,1.02v1.15h1.97v.9h-1.97v6.45h-1.09v-6.45h-1.12v-.9h1.12v-1.08c0-.8.17-1.36.52-1.67.38-.33.93-.49,1.66-.49.4,0,.69.01.85.03Z"/>
      <path d="M22.44,20.17c.72,0,1.29.04,1.74.11s.79.25,1.05.52c.3.31.49.72.57,1.23s.12,1.18.12,1.99c0,.76-.04,1.4-.13,1.9s-.3.92-.64,1.22c-.28.24-.63.39-1.08.45-.44.06-.97.09-1.58.09s-1.18-.06-1.62-.17c-.43-.11-.77-.35-1-.71-.33-.47-.49-1.35-.49-2.62,0-.8.03-1.45.09-1.96.06-.51.2-.91.43-1.22.25-.33.58-.55,1-.66.41-.1.93-.17,1.55-.18ZM22.63,21.06h-.35c-.68,0-1.13.14-1.37.41-.15.17-.25.42-.3.75-.05.33-.08.78-.1,1.36.02.08.03.18.03.32,0,.17,0,.3-.03.39.02.53.05.94.09,1.25.04.31.12.55.23.73.15.23.38.37.69.43.32.06.71.09,1.17.09.41,0,.76-.02,1.05-.07.29-.05.5-.16.64-.34.26-.3.39-.95.39-1.95v-.54c0-.61-.02-1.11-.06-1.52-.04-.4-.14-.7-.3-.89-.15-.19-.38-.31-.68-.36-.3-.05-.67-.08-1.1-.08Z"/>
      <path d="M28.48,21.17h.03c.21-.4.48-.66.83-.79.34-.13.75-.2,1.22-.22.87,0,1.45.24,1.75.73.22.36.33.92.33,1.65v.24h-1.04c0-.69-.06-1.13-.17-1.32-.17-.27-.55-.41-1.15-.41-.56.02-.99.16-1.28.42-.29.26-.44.79-.44,1.59v4.54h-1.12v-7.35h1.09l-.05.92Z"/>
      <path d="M34.85,21.4h.01c.34-.78,1.14-1.19,2.38-1.23.62,0,1.14.1,1.57.31s.69.51.78.92c.4-.78,1.26-1.19,2.58-1.23.53,0,.97.06,1.31.19s.61.3.79.52.32.49.39.8c.07.31.11.66.11,1.05v4.87h-1.13v-4.73c0-.49-.04-.86-.13-1.11-.09-.25-.25-.43-.47-.54-.22-.11-.55-.16-.98-.16-.45,0-.84.04-1.16.12-.32.08-.59.26-.79.54s-.31.7-.31,1.25v4.62h-1.09v-4.87c0-.46-.04-.8-.12-1.03-.08-.23-.24-.39-.48-.49s-.59-.15-1.06-.15c-.68,0-1.21.16-1.6.47-.39.31-.59.88-.59,1.69v4.38h-1.13v-7.35h1.13v1.15Z"/>
      <path d="M51.63,26.86l-.03-.03c-.18.35-.46.58-.83.69s-.85.17-1.44.17c-.73,0-1.31-.06-1.73-.19-.42-.13-.73-.35-.93-.67-.2-.32-.3-.77-.32-1.35.02-.05.03-.12.03-.2.02-.61.14-1.06.36-1.36.23-.3.54-.5.96-.6.41-.09.97-.14,1.69-.14h.18c.37,0,.74.03,1.12.1.52.14.81.35.85.63h.08v-1.3c0-.38-.05-.66-.14-.85-.1-.25-.29-.42-.57-.53-.28-.11-.7-.16-1.27-.16h-.24c-.5,0-.91.07-1.21.22-.3.15-.46.43-.48.84,0,.04.01.1.01.2h-1.15c0-.84.23-1.43.69-1.78.26-.16.59-.27.99-.31.41-.04.86-.07,1.36-.07.62,0,1.14.04,1.55.13.41.08.73.24.97.47.38.38.57,1.01.57,1.88v4.96h-1.09v-.74ZM47.77,24.39c-.08.11-.12.22-.14.31-.02.09-.03.23-.05.42-.02.19-.04.33-.08.43.05.35.13.61.23.78.08.14.18.24.33.3s.31.1.49.12c.18.02.48.03.88.05.53,0,.95-.04,1.26-.12.31-.08.55-.22.7-.43.15-.23.23-.54.23-.95,0-.54-.2-.89-.6-1.04-.4-.15-.94-.22-1.61-.22-.46,0-.82.02-1.06.06-.25.04-.43.13-.56.29Z"/>
      <path d="M59.5,22.64v-.15c0-.22-.03-.44-.09-.66-.06-.22-.14-.38-.26-.49-.25-.19-.75-.28-1.49-.28h-.26c-.39,0-.69.03-.91.08-.21.05-.41.17-.61.36-.14.15-.24.36-.29.64-.05.28-.09.65-.11,1.11.02.13.03.32.03.58,0,.37,0,.66-.03.85.02.44.06.79.12,1.06.06.27.17.49.34.66.27.25.84.38,1.72.38.48,0,.84-.02,1.09-.06.24-.04.43-.13.58-.26.21-.18.31-.61.31-1.26v-.24h1.09v.32c0,.83-.2,1.43-.6,1.8-.47.42-1.33.63-2.57.63-.45-.01-.81-.04-1.09-.07-.28-.04-.54-.1-.77-.2s-.45-.24-.65-.42c-.3-.3-.48-.65-.55-1.04-.07-.4-.11-1.05-.13-1.97,0-.61.02-1.11.05-1.48.03-.37.09-.68.18-.91.08-.24.21-.45.38-.64.21-.25.47-.44.77-.56.3-.12.6-.19.89-.22.3-.03.66-.04,1.1-.04.48,0,.92.04,1.31.13.39.09.68.21.88.35.3.23.5.51.58.85.09.34.13.72.13,1.14h-1.12Z"/>
      <path d="M62.26,17.1h1.12v1.23h-1.12v-1.23ZM62.26,20.25h1.12v7.35h-1.12v-7.35Z"/>
      <path d="M68.13,20.17c.71,0,1.29.04,1.74.11.44.08.79.25,1.05.52.3.31.49.72.57,1.23.08.51.12,1.18.12,1.99,0,.76-.04,1.4-.13,1.9-.09.51-.3.92-.64,1.22-.28.24-.63.39-1.08.45-.44.06-.97.09-1.58.09s-1.18-.06-1.62-.17c-.43-.11-.77-.35-1-.71-.33-.47-.49-1.35-.49-2.62,0-.8.03-1.45.09-1.96.06-.51.2-.91.43-1.22.25-.33.58-.55,1-.66s.93-.17,1.55-.18ZM68.31,21.06h-.35c-.68,0-1.13.14-1.37.41-.15.17-.25.42-.3.75-.05.33-.08.78-.1,1.36.02.08.03.18.03.32,0,.17,0,.3-.03.39.02.53.05.94.09,1.25.04.31.12.55.23.73.15.23.38.37.69.43.32.06.71.09,1.17.09.41,0,.76-.02,1.05-.07.29-.05.5-.16.64-.34.26-.3.39-.95.39-1.95v-.54c0-.61-.02-1.11-.06-1.52-.04-.4-.14-.7-.3-.89-.15-.19-.38-.31-.68-.36-.3-.05-.67-.08-1.1-.08ZM67.02,18.77l2.08-1.58.55.74-2.24,1.42-.39-.57Z"/>
      <path d="M74.37,21.15h.03c.12-.26.29-.46.51-.6.23-.14.48-.24.75-.29.27-.05.57-.08.91-.1.73,0,1.31.08,1.72.24s.72.42.9.77c.18.35.27.83.27,1.42v5h-1.09v-4.97c0-.43-.06-.75-.18-.98s-.3-.38-.55-.46c-.25-.08-.6-.13-1.05-.13s-.78.03-1.04.08c-.26.06-.5.18-.71.38-.32.29-.48.85-.48,1.7v4.38h-1.09v-7.35h1.09v.9Z"/>
    </g>
  </g>
</svg>