<?xml version="1.0" encoding="UTF-8"?>
<svg id="Capa_1" xmlns="http://www.w3.org/2000/svg" version="1.1" viewBox="0 0 50.99 49.07">
  <!-- Generator: Adobe Illustrator 29.6.1, SVG Export Plug-In . SVG Version: 2.1.1 Build 9)  -->
  <defs>
    <style>
      .st0 {
        fill: #fff;
      }
    </style>
  </defs>
  <path class="st0" d="M17.98,24.31c-.23,0-.46-.03-.69-.09-.68-.18-1.25-.62-1.6-1.22l-2.02-3.49c-.35-.61-.44-1.31-.26-1.99s.62-1.25,1.22-1.6l2.91-1.68c.11-.07.25-.08.38-.05s.24.12.3.23l4.15,7.18c.14.24.06.54-.18.68l-2.91,1.68c-.4.23-.85.35-1.3.35h0ZM15.14,16.78c-.37.22-.64.57-.76.99s-.06.86.16,1.24l2.02,3.49c.22.37.57.64.99.76s.86.06,1.24-.16l2.48-1.43-3.65-6.32-2.48,1.43Z"/>
  <path class="st0" d="M21.95,22.34c-.27,0-.49-.21-.5-.48,0-.27.21-.5.48-.51l12.74-.36L24.91,4.08l-6.68,10.85c-.14.23-.45.31-.68.16-.23-.14-.31-.45-.16-.68l7.12-11.56c.09-.15.25-.24.43-.24.18,0,.34.1.42.25l10.6,18.36c.09.15.09.34,0,.49-.09.15-.24.25-.42.25l-13.57.38h-.01Z"/>
  <path class="st0" d="M32.61,22.04c-.17,0-.34-.09-.43-.25l-9.21-15.95c-.14-.24-.06-.54.18-.68s.54-.06.68.18l9.21,15.95c.14.24.06.54-.18.68-.08.04-.16.07-.25.07h0Z"/>
  <path class="st0" d="M35.52,21.96c-.17,0-.34-.09-.43-.25-.14-.24-.06-.54.18-.68l1.04-.6c.16-.09.28-.24.33-.43s.02-.37-.07-.53L27.17,3.19c-.19-.34-.62-.45-.96-.26l-1.04.6c-.24.14-.54.06-.68-.18s-.06-.54.18-.68l1.04-.6c.81-.47,1.85-.19,2.32.62l9.4,16.28c.23.39.29.85.17,1.29s-.4.8-.79,1.03l-1.04.6c-.08.04-.16.07-.25.07Z"/>
  <path class="st0" d="M23.45,29.46c-.7,0-1.37-.36-1.74-1l-2.8-4.85c-.14-.24-.06-.54.18-.68s.54-.06.68.18l2.8,4.85c.28.48.9.65,1.39.37s.65-.9.37-1.39l-2.8-4.85c-.14-.24-.06-.54.18-.68s.54-.06.68.18l2.8,4.85c.55.96.22,2.19-.74,2.75-.32.18-.66.27-1,.27h0Z"/>
  <path class="st0" d="M41.3,37.99H9.68c-1.86,0-3.37-1.51-3.37-3.37V14.5c0-1.86,1.51-3.37,3.37-3.37h9.99c.27,0,.5.22.5.5s-.22.5-.5.5h-9.99c-1.31,0-2.38,1.07-2.38,2.38v20.12c0,1.31,1.07,2.38,2.38,2.38h31.62c1.31,0,2.38-1.07,2.38-2.38V14.5c0-1.31-1.07-2.38-2.38-2.38h-8.7c-.27,0-.5-.22-.5-.5s.22-.5.5-.5h8.7c1.86,0,3.37,1.51,3.37,3.37v20.12c0,1.86-1.51,3.37-3.37,3.37h0Z"/>
  <path class="st0" d="M41.07,32.7c-.27,0-.5-.22-.5-.5V15.23h-6.16c-.27,0-.5-.22-.5-.5s.22-.5.5-.5h6.66c.27,0,.5.22.5.5v17.47c0,.28-.22.5-.5.5ZM9.92,32.7c-.27,0-.5-.22-.5-.5V14.74c0-.27.22-.5.5-.5h7.76c.27,0,.5.22.5.5s-.22.5-.5.5h-7.26v16.97c0,.28-.22.5-.5.5Z"/>
  <path class="st0" d="M44.18,32.7H6.81c-.27,0-.5-.22-.5-.5s.22-.5.5-.5h37.37c.27,0,.5.22.5.5s-.22.5-.5.5h0Z"/>
  <path class="st0" d="M30.61,42.59c-.27,0-.5-.22-.5-.5v-4.6c0-.27.22-.5.5-.5s.5.22.5.5v4.6c0,.27-.22.5-.5.5ZM20.38,42.59c-.27,0-.5-.22-.5-.5v-4.6c0-.27.22-.5.5-.5s.5.22.5.5v4.6c0,.27-.22.5-.5.5Z"/>
  <path class="st0" d="M32.68,45.81h-14.37c-.65,0-1.19-.53-1.19-1.19v-.92c0-1.16.94-2.11,2.11-2.11h12.53c1.16,0,2.11.94,2.11,2.11v.92c0,.66-.53,1.19-1.19,1.19ZM19.23,42.59c-.61,0-1.11.5-1.11,1.11v.92c0,.1.09.19.19.19h14.37c.1,0,.19-.09.19-.19v-.92c0-.61-.5-1.11-1.11-1.11h-12.53Z"/>
</svg>