<?xml version="1.0" encoding="UTF-8"?>
<svg id="Capa_1" xmlns="http://www.w3.org/2000/svg" version="1.1" viewBox="0 0 115.62 26.71">
  <!-- Generator: Adobe Illustrator 29.6.1, SVG Export Plug-In . SVG Version: 2.1.1 Build 9)  -->
  <defs>
    <style>
      .st0 {
        isolation: isolate;
      }

      .st1 {
        fill: #fff;
      }
    </style>
  </defs>
  <g class="st0">
    <g class="st0">
      <path class="st1" d="M11.67,19.99h-1.7l-3.75-10.5h1.26l3.31,9.6h.05l3.29-9.6h1.24l-3.71,10.5Z"/>
      <path class="st1" d="M15.89,19.99v-10.5h6.75v1.04h-5.57v3.59h5.34v.98h-5.34v3.86h5.57v1.04h-6.75Z"/>
      <path class="st1" d="M24.09,9.49h1.97l5.88,9.6h.03v-9.6h1.2v10.5h-1.95l-5.91-9.52h-.03v9.52h-1.2v-10.5Z"/>
      <path class="st1" d="M37.57,19.99v-9.46h-3.39v-1.04h7.98v1.04h-3.39v9.46h-1.2Z"/>
      <path class="st1" d="M46.12,9.49h1.67l3.95,10.5h-1.23l-.85-2.21h-5.31l-.81,2.21h-1.23l3.82-10.5ZM44.68,16.78h4.65l-2.35-6.31-2.3,6.31Z"/>
      <path class="st1" d="M62.98,19.99h-5.43v-10.5h5.14c.8,0,1.45.13,1.93.4.49.27.87.64,1.15,1.13.34.63.51,1.49.51,2.58v2.24c0,1.91-.53,3.17-1.6,3.75-.43.27-.99.41-1.7.41ZM62.58,18.96c.49,0,.9-.06,1.22-.17s.58-.3.77-.57c.22-.3.37-.68.43-1.13.07-.45.1-.97.1-1.54v-2.32c0-.45-.07-.88-.2-1.28-.13-.4-.36-.74-.69-1.01s-.76-.4-1.31-.4h-4.16v8.43h3.84Z"/>
      <path class="st1" d="M67.95,9.49h1.18v10.5h-1.18v-10.5Z"/>
      <path class="st1" d="M79.42,17.06c0,1.17-.27,1.97-.81,2.41-.25.19-.53.33-.84.42-.31.09-.65.14-1,.16-.36.02-.87.03-1.53.03h-.84c-.42,0-.79-.02-1.12-.05-.33-.04-.63-.11-.92-.21s-.54-.27-.75-.48c-.29-.28-.5-.65-.64-1.11-.14-.46-.21-1.05-.21-1.79v-3.45c0-1.25.28-2.18.83-2.79.25-.26.56-.46.95-.6.39-.14.82-.21,1.29-.21h2.84c.86,0,1.53.2,2.01.6s.72.99.72,1.75v.8h-1.17v-.45c0-.62-.1-1.02-.29-1.22-.15-.16-.35-.28-.6-.33-.25-.06-.55-.09-.88-.1s-.68-.01-1.04-.02c-.52,0-.96,0-1.31.01-.35,0-.65.03-.91.09-.26.06-.49.16-.68.32-.19.15-.33.39-.42.71-.09.33-.13.79-.13,1.39v3.81c0,.91.21,1.51.63,1.82.23.18.5.29.8.35.3.06.68.1,1.14.12.16-.02.37-.03.64-.03s.48,0,.6.03c.52-.02.95-.06,1.27-.11s.57-.16.77-.31c.29-.21.43-.72.43-1.53v-1.32h-3.36v-1.06h4.54v2.32Z"/>
      <path class="st1" d="M80.89,9.49h1.18v10.5h-1.18v-10.5Z"/>
      <path class="st1" d="M86.53,19.99v-9.46h-3.39v-1.04h7.98v1.04h-3.39v9.46h-1.2Z"/>
      <path class="st1" d="M95.08,9.49h1.67l3.95,10.5h-1.23l-.86-2.21h-5.31l-.81,2.21h-1.23l3.82-10.5ZM93.64,16.78h4.65l-2.35-6.31-2.3,6.31Z"/>
      <path class="st1" d="M101.81,9.49h1.2v9.46h5.34v1.04h-6.54v-10.5Z"/>
    </g>
  </g>
</svg>