<?xml version="1.0" encoding="UTF-8"?>
<svg id="Capa_1" xmlns="http://www.w3.org/2000/svg" version="1.1" viewBox="0 0 145.68 145.68">
  <!-- Generator: Adobe Illustrator 29.6.1, SVG Export Plug-In . SVG Version: 2.1.1 Build 9)  -->
  <defs>
    <style>
      .st0 {
        fill: #fd7d70;
        opacity: .7;
      }

      .st1 {
        fill: #fff;
      }
    </style>
  </defs>
  <rect class="st0" width="145.68" height="145.68" rx="13.63" ry="13.63"/>
  <path class="st1" d="M107.39,88.37c-.5-.17-1-.31-1.49-.48v-4.9c2.68-2.45,4.52-5.83,4.52-8.86v-6.64c0-4.19-3.15-7.95-8.01-9.61-4.25-1.45-8.49-.77-10.77,1.66-2.32.42-5.6,2.26-5.5,9.42v4.44h0v.73c0,3.01,1.85,6.41,4.52,8.86v4.5h-20.61c-.27-.85-.62-1.68-1.04-2.47l.48-.48c.54-.54.83-1.25.83-2.01s-.29-1.47-.83-2.01l-3.47-3.47c-.54-.54-1.25-.83-2.01-.83s-1.47.29-2.01.83l-.48.48c-.81-.42-1.66-.77-2.53-1.06v-.66c0-1.58-1.27-2.84-2.84-2.84h-1.08v-6h8.84c1.29,0,2.32-1.04,2.32-2.32v-6.43h11.81c.77,0,1.37-.62,1.37-1.37v-4.79c0-4.13-2.41-7.8-6.02-9.53,1.83-1.89,2.97-4.46,2.97-7.3v-.79c0-3.51-1.12-6.5-3.26-8.61-1.91-1.91-4.46-2.99-7.22-3.03h-.04c-2.74.04-5.31,1.12-7.22,3.03-2.14,2.14-3.26,5.11-3.26,8.61v.79c0,2.84,1.14,5.42,2.97,7.3-1.97.93-3.57,2.47-4.63,4.32-1.06-1.87-2.68-3.38-4.65-4.32,1.83-1.89,2.97-4.46,2.97-7.3v-.79c0-3.51-1.12-6.5-3.26-8.61-1.91-1.91-4.46-2.99-7.22-3.03h-.04c-2.74.04-5.31,1.12-7.22,3.03-2.14,2.14-3.26,5.11-3.26,8.61v.79c0,2.84,1.12,5.42,2.97,7.3-3.59,1.72-6.02,5.37-6.02,9.53v4.79c0,.77.62,1.37,1.37,1.37h11.81v6.43c0,1.29,1.04,2.32,2.32,2.32h8.84v6h-1.08c-1.58,0-2.84,1.27-2.84,2.84v.66c-.87.29-1.72.64-2.53,1.06l-.48-.48c-.54-.54-1.25-.83-2.01-.83s-1.47.29-2.01.83l-3.47,3.47c-1.1,1.1-1.1,2.91,0,4.03l.48.48c-.42.81-.77,1.66-1.06,2.53h-.66c-1.58,0-2.84,1.27-2.84,2.84v4.92c0,1.56,1.27,2.84,2.84,2.84h.66c.29.87.64,1.72,1.06,2.53l-.48.48c-1.1,1.1-1.1,2.91,0,4.03l3.47,3.47c.54.54,1.25.83,2.01.83s1.47-.29,2.01-.83l.48-.48c.81.42,1.66.77,2.53,1.06v.66c0,1.58,1.27,2.84,2.84,2.84h4.9c1.58,0,2.84-1.27,2.84-2.84v-.66c.87-.27,1.72-.62,2.53-1.06l.48.48c.54.54,1.25.83,2.01.83s1.47-.29,2.01-.83l3.47-3.47c1.1-1.1,1.1-2.91,0-4.03l-.48-.48c.39-.75.71-1.54.98-2.35h11.5c.39,0,.71.33.71.71v13.63c0,2.18,1.76,3.94,3.94,3.94h10.27c.77,0,1.37-.62,1.37-1.37s-.62-1.37-1.37-1.37h-10.27c-.66,0-1.2-.56-1.2-1.2v-13.63c0-1.91-1.56-3.47-3.47-3.47h-15.79v-5.35h21.04l3.38,8.84c.15.39.48.71.89.83.12.04.25.06.39.06.29,0,.58-.08.81-.27l6.06-4.46,6.04,4.46c.25.17.52.27.81.27.12,0,.25,0,.39-.06.42-.12.75-.44.89-.83l2.76-7.22c4.79,1.72,7.62,3.8,7.62,11.81v9.01c0,.66-.56,1.2-1.2,1.2h-2.3v-11.64c0-.77-.62-1.37-1.37-1.37s-1.37.62-1.37,1.37v11.64h-7.76c-.77,0-1.37.62-1.37,1.37s.62,1.37,1.37,1.37h12.82c2.18,0,3.94-1.76,3.94-3.94v-9.01c0-11.39-5.62-13.2-12.16-15.29h.04ZM65.86,25.55c3.53.06,7.3,2.59,7.72,7.95-2.16.56-4.98-.17-7.72-.85-1.97-.5-3.98-1.02-5.79-1.02-.58,0-1.14.06-1.68.19.98-4.21,4.32-6.2,7.45-6.27h.02ZM58.1,34.98c1.18-1.06,3.59-.54,7.06.33,2.14.54,4.46,1.14,6.68,1.14.56,0,1.12-.04,1.68-.12-.33,2.32-1.68,4.32-3.59,5.52-.06.02-.1.06-.17.1-1.14.68-2.49,1.06-3.92,1.06s-2.76-.39-3.9-1.06c-.06-.04-.12-.08-.19-.12-2.2-1.37-3.65-3.8-3.65-6.58v-.27h0ZM60.93,44.5c1.47.79,3.15,1.22,4.92,1.22s3.47-.46,4.94-1.22c3.42.87,5.87,3.98,5.87,7.55v3.4h-21.6v-3.4c0-3.57,2.45-6.66,5.87-7.55h0ZM41.52,25.55c3.53.06,7.3,2.59,7.72,7.95-2.16.56-4.98-.17-7.72-.85-1.97-.5-3.98-1.02-5.79-1.02-.58,0-1.14.06-1.68.19.98-4.21,4.32-6.2,7.45-6.27h.02ZM33.78,34.98c1.18-1.06,3.59-.54,7.06.33,2.14.54,4.46,1.14,6.68,1.14.56,0,1.12-.04,1.68-.12-.33,2.32-1.68,4.32-3.59,5.52-.06.02-.1.06-.17.1-1.14.68-2.49,1.06-3.92,1.06s-2.76-.39-3.92-1.08c-.04-.04-.1-.06-.17-.1-2.2-1.37-3.67-3.8-3.67-6.58v-.27h.02ZM36.58,44.5c1.47.79,3.15,1.22,4.94,1.22s3.47-.46,4.94-1.22c3.42.87,5.87,3.98,5.87,7.55v3.4h-21.6v-3.4c0-3.57,2.43-6.66,5.87-7.55h-.02ZM43.91,58.22h19.57v6.02h-19.57v-6.02ZM92.45,62.2c.37-.04.73-.23.98-.54,1.66-2.16,5.25-2.16,8.09-1.18,2.84.98,6.16,3.38,6.16,7.01v3.74h-1.29c-2.57,0-4.63-1-6.6-1.95-1.62-.79-3.26-1.58-4.98-1.58-.95,0-1.91.25-2.93.85-1.64,1.02-1.85,1.16-2.66,1.81-.1.08-.21.17-.31.25v-1.72c-.06-4.25,1.14-6.52,3.57-6.72h0l-.04.04ZM88.88,74.14v-.04c1.06-.79,1.62-1.25,2.03-1.56.73-.58.85-.66,2.41-1.62,1.47-.91,2.82-.33,5.27.85,2.03,1,4.57,2.22,7.78,2.22h1.29v.15c0,3.36-3.42,7.68-7.18,9.07-.85.31-1.54.46-2.22.46s-1.37-.15-2.22-.46c-3.76-1.39-7.18-5.71-7.18-9.07h.02ZM95.1,85.78c1.16.44,2.16.62,3.18.62s2.01-.21,3.18-.62c.58-.21,1.14-.48,1.7-.79v3.2l-4.88,3.63-4.88-3.63v-3.2c.56.31,1.12.58,1.7.79ZM66.34,101.9l1.2,1.2s.02.04.02.06,0,.04-.02.06l-3.47,3.47s-.1.04-.12,0l-1.2-1.2c-.44-.44-1.14-.54-1.68-.21-1.18.71-2.47,1.22-3.78,1.58-.6.15-1.04.71-1.04,1.33v1.7s-.04.1-.1.1h-4.9s-.1-.04-.1-.1v-1.7c0-.62-.44-1.18-1.04-1.33-1.33-.33-2.59-.87-3.78-1.58-.54-.31-1.22-.23-1.68.21l-1.2,1.2s-.1.04-.12,0l-3.47-3.47s-.04-.1,0-.12l1.2-1.2c.44-.44.54-1.14.21-1.68-.71-1.16-1.22-2.45-1.58-3.78-.17-.6-.71-1.04-1.33-1.04h-1.7s-.1-.04-.1-.08v-4.92s.04-.1.1-.1h1.7c.62,0,1.18-.42,1.33-1.04.35-1.35.87-2.61,1.58-3.78.33-.54.23-1.22-.21-1.68l-1.2-1.2s-.04-.1,0-.12l3.47-3.47s.1-.04.12,0l1.2,1.2c.44.44,1.14.54,1.68.21,1.18-.71,2.45-1.22,3.8-1.58.6-.17,1.04-.71,1.04-1.33v-1.7s.04-.1.1-.1h4.9s.1.04.1.1v1.7c0,.62.42,1.18,1.04,1.33,1.33.33,2.59.87,3.78,1.58.54.31,1.22.23,1.68-.21l1.2-1.2s.1-.04.12,0l3.47,3.47s.04.1,0,.12l-1.2,1.2c-.44.44-.54,1.14-.21,1.68.37.64.71,1.33,1,2.01h-4.19c-1.89-3.26-5.44-5.31-9.23-5.31-1.89,0-3.74.5-5.35,1.43-.66.37-.87,1.22-.5,1.87.37.66,1.22.87,1.87.5,1.2-.71,2.57-1.06,3.96-1.06,2.24,0,4.36.98,5.83,2.57h-2.08c-2.99,0-5.42,2.43-5.42,5.42s2.43,5.42,5.42,5.42h1.93c-1.47,1.51-3.53,2.43-5.71,2.43-4.38,0-7.93-3.55-7.93-7.93,0-.95.17-1.89.5-2.78.27-.71-.1-1.49-.81-1.76-.71-.27-1.49.1-1.76.81-.46,1.2-.66,2.45-.66,3.74,0,5.89,4.79,10.67,10.67,10.67,3.74,0,7.24-2.01,9.15-5.19h4.23c-.27.64-.58,1.27-.93,1.87-.31.54-.23,1.22.21,1.68h0v.04ZM62.44,90.26v5.33c-.27-.08-.56-.06-.81,0h-4.17c-1.47,0-2.68-1.2-2.68-2.68s1.2-2.68,2.68-2.68h4.98v.02ZM92.05,96.42l-2.35-6.16h1.89l4.4,3.28-3.92,2.88h-.02ZM104.51,96.42l-3.92-2.88,4.19-3.11c.6.21,1.2.39,1.78.58h.02l-2.08,5.42Z"/>
</svg>