<?xml version="1.0" encoding="UTF-8"?>
<svg id="Capa_1" xmlns="http://www.w3.org/2000/svg" version="1.1" viewBox="0 0 277.98 48.75">
  <!-- Generator: Adobe Illustrator 29.6.1, SVG Export Plug-In . SVG Version: 2.1.1 Build 9)  -->
  <defs>
    <style>
      .st0 {
        isolation: isolate;
      }

      .st1 {
        fill: #fff;
      }
    </style>
  </defs>
  <g class="st0">
    <g class="st0">
      <path class="st1" d="M22.43,10.64c1.44,0,2.78.06,4.02.18,1.24.12,2.43.39,3.56.81,1.13.42,1.96,1.05,2.51,1.89.29.31.65,1.01,1.08,2.11.43,1.09.65,2.7.65,4.81v8.91c0,1.67-.16,2.95-.47,3.87-.31.91-.76,1.78-1.33,2.62-.64.88-1.53,1.53-2.7,1.95-1.16.43-2.36.69-3.59.78s-2.71.14-4.43.14c-2.1,0-3.88-.15-5.32-.46-1.44-.3-2.61-.95-3.52-1.94-1.4-1.4-2.1-3.98-2.1-7.77v-7.55c0-1.6.1-3.02.31-4.27.21-1.25.63-2.34,1.27-3.27.6-.84,1.45-1.46,2.56-1.88,1.11-.41,2.26-.67,3.44-.77,1.18-.1,2.53-.15,4.05-.15ZM22.5,15.17c-1.71,0-3.03.12-3.96.37-.93.25-1.54.73-1.86,1.43-.36.8-.59,2.03-.7,3.69.05.22.07.5.07.84v6.55c0,2.27.26,3.82.77,4.68.43.64,1.05,1.04,1.85,1.2.8.16,2.04.26,3.71.31,1.62-.04,2.84-.16,3.67-.37s1.47-.59,1.93-1.14c.27-.4.49-.98.66-1.74s.26-1.58.26-2.46v-8.32c0-1.74-.31-2.99-.92-3.75-.61-.64-1.56-1.05-2.88-1.22-.81-.05-1.68-.07-2.62-.07Z"/>
      <path class="st1" d="M38.04,10.86h8.8l11.86,23.08h.14l-.44-23.08h5.34v27.62h-8.87l-11.71-23.08h-.22l.3,11.45.14,11.63h-5.34V10.86Z"/>
      <path class="st1" d="M82.26,10.86c3.19,0,5.33.58,6.41,1.74,1.1,1,1.65,2.81,1.65,5.45,0,2.09-.38,3.62-1.14,4.6-.61.72-1.54,1.22-2.8,1.51v.14c1.38.16,2.42.58,3.09,1.28.68.7,1.1,1.47,1.26,2.31.16.84.25,1.81.25,2.89,0,2.98-.65,5.02-1.95,6.11-1.2,1.05-3.29,1.58-6.27,1.58h-14.36V10.86h13.84ZM81.05,15.4h-7.33v7.03h7.25c.83,0,1.41-.02,1.73-.07.89-.16,1.5-.56,1.83-1.22s.49-1.51.49-2.58-.17-1.8-.51-2.32c-.26-.32-.63-.55-1.12-.67-.49-.12-1.27-.18-2.34-.18ZM73.72,26.48v7.47h7.92c.96,0,1.72-.07,2.27-.21,1.16-.42,1.73-1.55,1.73-3.39,0-1.52-.23-2.55-.7-3.09-.54-.52-1.55-.77-3.02-.77h-8.21Z"/>
      <path class="st1" d="M105.57,10.64c1.44,0,2.78.06,4.02.18,1.24.12,2.43.39,3.56.81,1.13.42,1.96,1.05,2.51,1.89.29.31.65,1.01,1.08,2.11.43,1.09.65,2.7.65,4.81v8.91c0,1.67-.16,2.95-.47,3.87-.31.91-.76,1.78-1.33,2.62-.64.88-1.53,1.53-2.7,1.95-1.16.43-2.36.69-3.59.78s-2.71.14-4.43.14c-2.1,0-3.88-.15-5.32-.46-1.44-.3-2.61-.95-3.52-1.94-1.4-1.4-2.1-3.98-2.1-7.77v-7.55c0-1.6.1-3.02.31-4.27.21-1.25.63-2.34,1.27-3.27.6-.84,1.45-1.46,2.56-1.88,1.11-.41,2.26-.67,3.44-.77,1.18-.1,2.53-.15,4.05-.15ZM105.64,15.17c-1.71,0-3.03.12-3.96.37-.93.25-1.54.73-1.86,1.43-.36.8-.59,2.03-.7,3.69.05.22.07.5.07.84v6.55c0,2.27.26,3.82.77,4.68.43.64,1.05,1.04,1.85,1.2.8.16,2.04.26,3.71.31,1.62-.04,2.84-.16,3.67-.37s1.47-.59,1.93-1.14c.27-.4.49-.98.66-1.74s.26-1.58.26-2.46v-8.32c0-1.74-.31-2.99-.92-3.75-.61-.64-1.56-1.05-2.88-1.22-.81-.05-1.68-.07-2.62-.07Z"/>
      <path class="st1" d="M127.89,10.86h7.77l9.42,27.62h-5.41l-1.76-5.2h-11.97l-1.77,5.2h-5.49l6.33-19.15,2.88-8.47ZM127.11,29.28h9.53l-4.75-14.4h-.04l-4.75,14.4Z"/>
      <path class="st1" d="M160.77,10.86c3.57,0,5.99.7,7.25,2.09,1.11,1.25,1.66,3.28,1.66,6.11,0,3.07-.41,5.08-1.22,6.04-.72.89-1.95,1.49-3.67,1.81v.11c1.62.16,2.84.71,3.67,1.65.66,1.06,1,2.62,1,4.68v5.12h-5.33v-4.16c0-.96-.05-1.75-.14-2.39-.09-.63-.33-1.16-.71-1.58-.38-.42-.82-.7-1.34-.82s-1.2-.18-2.05-.18h-7.4v9.13h-5.3V10.86h13.58ZM159.96,15.4h-7.48v9.42h7.63c.92,0,1.63-.07,2.13-.22.5-.15.94-.43,1.33-.84.52-.67.77-1.94.77-3.83,0-1.74-.21-2.92-.63-3.54-.34-.42-.81-.69-1.41-.81-.6-.12-1.38-.18-2.35-.18Z"/>
      <path class="st1" d="M188.16,38.48h-14.36V10.86h13.29c4.87,0,8.04,1.31,9.49,3.94.86,1.62,1.29,3.88,1.29,6.78v5.89c0,4.9-1.39,8.16-4.16,9.8-.64.37-1.5.67-2.56.89-1.07.22-2.07.33-3,.33ZM187.1,33.95c1.06,0,1.92-.12,2.59-.36s1.26-.75,1.79-1.52c.71-1,1.07-2.77,1.07-5.3v-4.96c0-1.63-.11-2.87-.32-3.73-.21-.86-.74-1.52-1.58-1.98s-2.15-.7-3.92-.7h-7.62v18.55h7.99Z"/>
      <path class="st1" d="M201.67,10.86h5.34v27.62h-5.34V10.86Z"/>
      <path class="st1" d="M211.79,10.86h8.8l11.86,23.08h.14l-.44-23.08h5.34v27.62h-8.87l-11.71-23.08h-.22l.3,11.45.14,11.63h-5.34V10.86Z"/>
      <path class="st1" d="M265.18,29.2c0,1.73-.15,3.26-.45,4.6s-.95,2.37-1.94,3.1c-1.12.86-2.88,1.41-5.27,1.65-.96.1-2.39.15-4.31.15-1.52,0-2.83-.04-3.92-.13-1.09-.09-2.15-.29-3.17-.62s-1.88-.83-2.58-1.49c-1.65-1.43-2.47-4.04-2.47-7.85v-6.89c0-1.51.09-2.81.27-3.9s.44-2.01.8-2.77c.35-.76.8-1.4,1.33-1.94.71-.72,1.59-1.26,2.64-1.62s2.15-.59,3.28-.7c1.13-.1,2.41-.15,3.84-.15h2.02c1.73,0,3.2.09,4.41.27,1.21.18,2.26.62,3.14,1.32,1.55,1.21,2.32,3.25,2.32,6.1v.89h-5.27c0-1.52-.33-2.57-.99-3.16-.43-.37-1.04-.61-1.86-.72-.81-.11-1.95-.17-3.41-.17-1.81,0-3.14.07-4,.22-.86.15-1.54.43-2.04.85-.76.76-1.14,2.44-1.14,5.04v6.62c0,2.6.36,4.3,1.07,5.12.58.53,1.48.89,2.72,1.07.69.05,1.72.07,3.09.07.86,0,1.48.02,1.88.07.92-.04,1.65-.13,2.17-.27s1.03-.42,1.51-.83c.42-.38.69-.95.81-1.7.12-.75.18-1.69.18-2.84v-.77h-6.96v-4.01h12.3v5.38Z"/>
    </g>
  </g>
</svg>