<?xml version="1.0" encoding="UTF-8"?>
<svg id="Capa_1" xmlns="http://www.w3.org/2000/svg" version="1.1" viewBox="0 0 50.99 49.07">
  <!-- Generator: Adobe Illustrator 29.6.1, SVG Export Plug-In . SVG Version: 2.1.1 Build 9)  -->
  <defs>
    <style>
      .st0 {
        fill: #fff;
      }
    </style>
  </defs>
  <path class="st0" d="M37.67,15.33c-3.44-1.42-7.96-.34-10.64,2.7-1,1.14-1.94,2.35-2.87,3.54h0s0,0,0,0c-.68.87-1.37,1.74-2.09,2.58-1.28,1.48-2.59,3-4.14,4.17-1.73,1.31-4.38.78-5.7-.78-1.54-1.8-1.58-4.53-.1-6.27,1.26-1.48,3.64-1.82,5.58-.65.84.51,1.58,1.18,2.49,1.94l3.15-3.58c-.08-.31-.22-.62-.38-.81-3.27-3.79-9.55-4.54-13.37-1.65-4,3.03-4.95,9.08-2.09,13.38,3.45,5.2,10.8,5.91,15.27,1.25,2.89-3.01,5.37-6.42,8.1-9.58,1.87-2.16,4.86-2.17,6.66-.13,1.34,1.52,1.49,3.84.41,5.55-1.81,2.87-5.71,2.57-7.5-.07-.15-.22-.29-.44-.47-.72-.23-.35-.73-.39-1-.07-.71.84-1.35,1.58-1.98,2.33-1.31,1.54-.81,1.68.05,2.61,2.5,2.72,6.92,3.9,10.4,2.67,3.72-1.32,6.42-4.98,6.51-8.85.1-4.23-2.34-7.94-6.27-9.57Z"/>
</svg>