<?xml version="1.0" encoding="UTF-8"?>
<svg id="Capa_1" xmlns="http://www.w3.org/2000/svg" version="1.1" viewBox="0 0 117.86 20.82">
  <!-- Generator: Adobe Illustrator 29.6.1, SVG Export Plug-In . SVG Version: 2.1.1 Build 9)  -->
  <defs>
    <style>
      .st0 {
        isolation: isolate;
      }

      .st1 {
        fill: #fff;
      }
    </style>
  </defs>
  <g class="st0">
    <g class="st0">
      <path class="st1" d="M12.99,5.35h1.67l3.95,10.5h-1.23l-.85-2.21h-5.31l-.81,2.21h-1.23l3.82-10.5ZM11.55,12.64h4.65l-2.35-6.31-2.3,6.31Z"/>
      <path class="st1" d="M20.7,11.78v4.07h-1.18V5.35h5.32c1.03,0,1.73.33,2.08.98.29.5.43,1.24.43,2.24,0,1.12-.21,1.92-.63,2.41-.41.53-1.09.8-2.04.8h-3.99ZM20.7,10.71h3.36c.48,0,.85-.03,1.1-.08s.45-.16.59-.31c.18-.2.29-.42.35-.67s.09-.57.09-.97c0-.82-.08-1.38-.24-1.7-.23-.4-.73-.6-1.51-.6h-3.74v4.33Z"/>
      <path class="st1" d="M28.94,5.35h1.18v10.5h-1.18V5.35Z"/>
      <path class="st1" d="M43.64,8.62v-.4c0-.79-.14-1.31-.43-1.56-.18-.15-.39-.25-.65-.3-.25-.04-.58-.07-.98-.07h-.24c-.2,0-.47.01-.82.02-.35,0-.66.03-.95.07-.28.04-.54.1-.77.18-.23.08-.41.2-.56.35-.31.36-.46.88-.46,1.54v3.45c0,.74.05,1.3.15,1.69s.25.67.45.85c.15.15.3.25.46.31.16.06.34.1.53.12.19.02.4.03.62.05.18-.02.42-.03.71-.03.71,0,1.21,0,1.5-.03.57-.06.97-.2,1.2-.42.21-.19.33-.51.36-.95.02-.25.03-.65.03-1.2h1.18v.6c0,.52-.04.97-.11,1.34-.08.37-.25.69-.52.95-.29.32-.66.52-1.1.61-.44.09-.97.14-1.59.14h-1.93c-.48,0-.89-.05-1.22-.16-.33-.1-.68-.32-1.06-.64-.24-.22-.44-.55-.6-.99s-.24-.93-.24-1.44v-4.13c0-1.01.21-1.76.63-2.27.37-.44.86-.73,1.45-.85.59-.12,1.31-.19,2.16-.19h.38c.64,0,1.09.01,1.37.03.6.06,1.08.23,1.42.52.34.28.56.63.67,1.06s.16.92.16,1.49v.26h-1.2Z"/>
      <path class="st1" d="M49.96,5.26c.57,0,1.06.02,1.48.05s.82.12,1.21.26c.39.14.69.37.9.67.09.09.2.34.34.75.14.41.2,1.09.2,2.02v3.61c0,.58-.05,1.03-.14,1.37-.09.33-.23.64-.4.93-.18.29-.44.51-.78.66-.34.15-.69.25-1.05.29s-.76.06-1.19.06h-1.2c-.61,0-1.14-.05-1.6-.16s-.86-.33-1.18-.67c-.46-.5-.69-1.34-.69-2.5v-3.73c0-.38,0-.71.03-1,.02-.28.07-.56.14-.84.08-.28.19-.53.34-.77.21-.3.48-.52.82-.67s.69-.24,1.06-.28.81-.06,1.33-.06h.38ZM49.93,6.3h-.43c-.39,0-.71.02-.98.05-.27.03-.51.1-.71.2-.21.1-.37.26-.49.46-.13.26-.21.58-.24.96-.02.38-.04.62-.04.74v3.84c0,.73.12,1.3.35,1.72.15.25.38.42.68.49s.72.12,1.24.14h.68c.75,0,1.31-.03,1.68-.09.37-.06.65-.21.84-.46.27-.36.4-.94.4-1.72v-4.04c0-.87-.15-1.47-.46-1.79-.21-.24-.55-.39-1.02-.45-.18-.02-.44-.03-.8-.04-.36,0-.59,0-.7-.02Z"/>
      <path class="st1" d="M55.62,5.35h1.97l5.88,9.6h.03V5.35h1.2v10.5h-1.95l-5.91-9.52h-.03v9.52h-1.2V5.35Z"/>
      <path class="st1" d="M66.58,5.35h1.97l5.88,9.6h.03V5.35h1.2v10.5h-1.95l-5.91-9.52h-.03v9.52h-1.2V5.35Z"/>
      <path class="st1" d="M77.19,15.85V5.35h6.75v1.04h-5.57v3.59h5.33v.98h-5.33v3.86h5.57v1.04h-6.75Z"/>
      <path class="st1" d="M92.13,8.62v-.4c0-.79-.14-1.31-.43-1.56-.18-.15-.39-.25-.65-.3-.25-.04-.58-.07-.98-.07h-.24c-.2,0-.47.01-.82.02-.35,0-.66.03-.95.07-.28.04-.54.1-.77.18-.23.08-.42.2-.56.35-.31.36-.46.88-.46,1.54v3.45c0,.74.05,1.3.15,1.69s.25.67.45.85c.15.15.3.25.46.31.16.06.34.1.53.12.19.02.4.03.62.05.18-.02.42-.03.71-.03.71,0,1.21,0,1.5-.03.57-.06.97-.2,1.2-.42.21-.19.33-.51.36-.95.02-.25.03-.65.03-1.2h1.18v.6c0,.52-.04.97-.11,1.34-.08.37-.25.69-.52.95-.29.32-.66.52-1.1.61s-.97.14-1.59.14h-1.93c-.48,0-.89-.05-1.22-.16-.33-.1-.68-.32-1.06-.64-.24-.22-.44-.55-.6-.99-.16-.45-.24-.93-.24-1.44v-4.13c0-1.01.21-1.76.63-2.27.37-.44.86-.73,1.45-.85.59-.12,1.31-.19,2.16-.19h.38c.64,0,1.09.01,1.37.03.6.06,1.08.23,1.42.52.34.28.57.63.67,1.06.11.43.16.92.16,1.49v.26h-1.2Z"/>
      <path class="st1" d="M97.21,15.85V6.39h-3.39v-1.04h7.98v1.04h-3.39v9.46h-1.2Z"/>
    </g>
  </g>
</svg>