<?xml version="1.0" encoding="UTF-8"?>
<svg id="Capa_1" xmlns="http://www.w3.org/2000/svg" version="1.1" viewBox="0 0 50.99 49.07">
  <!-- Generator: Adobe Illustrator 29.6.1, SVG Export Plug-In . SVG Version: 2.1.1 Build 9)  -->
  <defs>
    <style>
      .st0 {
        fill: #fff;
      }
    </style>
  </defs>
  <path class="st0" d="M44.74,21.83c-.74,0-1.33-.6-1.33-1.33,0-5.11-1.99-9.9-5.6-13.52-.52-.52-.52-1.37,0-1.89s1.37-.52,1.89,0c4.11,4.11,6.38,9.58,6.38,15.4,0,.74-.6,1.33-1.33,1.33Z"/>
  <path class="st0" d="M8.29,21.83c-.74,0-1.33-.6-1.33-1.33,0-5.82,2.27-11.29,6.38-15.4.52-.52,1.37-.52,1.89,0s.52,1.37,0,1.89c-3.61,3.61-5.6,8.41-5.6,13.51,0,.74-.6,1.33-1.33,1.33Z"/>
  <path class="st0" d="M26.52,45.39c-3.68,0-6.67-2.99-6.67-6.67,0-.74.6-1.33,1.33-1.33s1.33.6,1.33,1.33c0,2.21,1.79,4,4,4s4-1.79,4-4c0-.74.6-1.33,1.33-1.33s1.33.6,1.33,1.33c0,3.68-2.99,6.67-6.67,6.67Z"/>
  <path class="st0" d="M41.18,40.05H11.85c-1.72,0-3.11-1.4-3.11-3.11,0-.91.4-1.77,1.09-2.36,2.7-2.28,4.25-5.61,4.25-9.12v-4.96c0-6.86,5.58-12.45,12.45-12.45s12.45,5.58,12.45,12.45v4.96c0,3.52,1.54,6.84,4.23,9.11.71.6,1.11,1.47,1.11,2.38,0,1.72-1.4,3.11-3.11,3.11ZM26.52,10.72c-5.39,0-9.78,4.39-9.78,9.78v4.96c0,4.3-1.89,8.37-5.17,11.15-.06.05-.16.16-.16.34,0,.24.2.44.44.44h29.34c.24,0,.44-.2.44-.44,0-.18-.1-.29-.16-.34-3.29-2.78-5.18-6.85-5.18-11.15v-4.96c0-5.39-4.39-9.78-9.78-9.78Z"/>
  <path class="st0" d="M26.52,10.72c-.74,0-1.33-.6-1.33-1.33v-5.33c0-.74.6-1.33,1.33-1.33s1.33.6,1.33,1.33v5.33c0,.74-.6,1.33-1.33,1.33Z"/>
</svg>