<?xml version="1.0" encoding="UTF-8"?>
<svg id="Capa_1" xmlns="http://www.w3.org/2000/svg" version="1.1" viewBox="0 0 117.86 36.05">
  <!-- Generator: Adobe Illustrator 29.6.1, SVG Export Plug-In . SVG Version: 2.1.1 Build 9)  -->
  <defs>
    <style>
      .st0 {
        isolation: isolate;
      }

      .st1 {
        fill: #fff;
      }
    </style>
  </defs>
  <g class="st0">
    <g class="st0">
      <path class="st1" d="M10.04,15.86V5.36h2.08l3.71,9,3.73-9h2.06v10.5h-1.18V6.26h-.03l-3.98,9.6h-1.18l-3.99-9.6h-.03v9.6h-1.2Z"/>
      <path class="st1" d="M23.18,15.86V5.36h6.75v1.04h-5.57v3.59h5.34v.98h-5.34v3.86h5.57v1.04h-6.75Z"/>
      <path class="st1" d="M31.38,5.36h1.97l5.88,9.6h.03V5.36h1.2v10.5h-1.95l-5.91-9.52h-.03v9.52h-1.2V5.36Z"/>
      <path class="st1" d="M45.81,5.27c.74,0,1.36.04,1.86.13.51.09.89.23,1.15.44.49.42.74,1.11.74,2.09v.29h-1.18c-.02-.42-.05-.73-.08-.94-.03-.21-.11-.39-.24-.53-.11-.13-.26-.23-.46-.3-.2-.06-.44-.1-.71-.12s-.63-.03-1.08-.03h-.29c-1.03,0-1.72.14-2.06.42-.13.11-.23.27-.28.5-.05.22-.07.51-.07.87,0,.85.2,1.38.6,1.6.19.11.42.18.69.22.27.04.56.06.86.06.3,0,.61,0,.94.01.92.07,1.54.12,1.87.17.33.04.62.16.89.35.34.23.56.55.65.95.09.4.15.88.17,1.43,0,.6-.07,1.13-.22,1.57-.15.45-.38.78-.69,1-.34.22-.78.35-1.3.41-.52.06-1.18.08-1.97.08h-.43c-.55,0-1.04-.04-1.47-.12-.43-.08-.79-.24-1.08-.48-.28-.21-.47-.49-.58-.85-.11-.35-.17-.78-.19-1.28.02-.15.03-.36.03-.63h1.2c0,.08,0,.16-.03.24.02.47.05.84.11,1.12.05.28.16.49.33.63.2.17.5.28.91.31.25.02.64.03,1.15.03.35,0,.61.01.8.03.88-.04,1.46-.16,1.75-.37.2-.13.33-.33.39-.6.06-.26.1-.6.1-1.02v-.17c0-.65-.12-1.1-.36-1.33-.14-.15-.35-.25-.62-.29-.27-.05-.67-.09-1.22-.13-.34-.01-.67-.02-1-.03-.33-.01-.67-.04-1.03-.07-.36-.04-.68-.1-.97-.18-.29-.08-.54-.2-.74-.34-.26-.2-.45-.47-.55-.8-.11-.33-.17-.75-.19-1.24,0-1.21.26-2.03.77-2.46.32-.27.73-.44,1.22-.52s1.13-.12,1.91-.12Z"/>
      <path class="st1" d="M54.13,5.36h1.67l3.95,10.5h-1.23l-.85-2.21h-5.31l-.81,2.21h-1.23l3.82-10.5ZM52.68,12.65h4.65l-2.35-6.31-2.3,6.31Z"/>
      <path class="st1" d="M65.54,5.36h1.18v7.95c0,.96-.25,1.62-.74,2-.49.42-1.43.63-2.81.63-.67-.02-1.19-.1-1.58-.24-.39-.14-.7-.35-.92-.65-.28-.33-.42-.83-.42-1.53v-1.5h1.18v.81c.02.58.04.98.08,1.21.04.23.13.41.28.54.24.2.71.31,1.42.34.15-.03.37-.05.68-.06.31,0,.56-.04.76-.08.19-.04.37-.13.53-.28.16-.15.27-.32.31-.5.04-.18.07-.45.07-.79v-7.87Z"/>
      <path class="st1" d="M68.3,15.86V5.36h6.75v1.04h-5.57v3.59h5.34v.98h-5.34v3.86h5.57v1.04h-6.75Z"/>
      <path class="st1" d="M81.57,5.36c1.17,0,1.99.26,2.46.77.41.43.62,1.22.62,2.35,0,.92-.14,1.58-.41,1.96-.3.39-.77.63-1.41.71v.03c.33.04.62.14.88.31s.46.39.6.66c.14.27.21.57.21.9v2.81h-1.2v-2.3c0-.69-.13-1.17-.39-1.46-.24-.29-.72-.43-1.44-.43h-3.78v4.19h-1.18V5.36h5.04ZM81.6,6.4h-3.86v4.21h3.72c.38,0,.7-.03.96-.1.26-.07.47-.2.65-.39.26-.28.39-.79.39-1.51v-.35c0-.69-.09-1.14-.28-1.37-.29-.33-.81-.49-1.58-.49Z"/>
      <path class="st1" d="M85.66,3.88l2.08-1.58.55.74-2.24,1.42-.39-.57ZM86.4,5.36h1.18v10.5h-1.18V5.36Z"/>
      <path class="st1" d="M92.5,5.36h1.67l3.95,10.5h-1.23l-.86-2.21h-5.31l-.81,2.21h-1.23l3.82-10.5ZM91.06,12.65h4.65l-2.35-6.31-2.3,6.31Z"/>
    </g>
    <g class="st0">
      <path class="st1" d="M17.38,25.38h-1.2c0-.21-.01-.38-.03-.49,0-.65-.06-1.09-.17-1.3-.08-.18-.25-.3-.51-.37s-.64-.1-1.16-.1c-.66,0-1.12.07-1.4.22-.38.2-.57.6-.57,1.2,0,.32.04.58.13.77s.27.41.56.65l4.16,3.5c0-.09,0-.22.02-.38.01-.17.02-.31.02-.43,0-.11,0-.23-.02-.35,0-.12-.02-.21-.02-.25h1.09c0,.08,0,.23.01.43,0,.2.01.36.01.47,0,.55-.04,1.02-.11,1.4l1.89,1.5-.63.82-1.56-1.29c-.25.6-.75.99-1.48,1.17-.21.06-.44.11-.69.14-.25.03-.5.05-.74.05s-.55,0-.92,0h-.67c-.94,0-1.64-.1-2.11-.31-.85-.38-1.29-1.39-1.3-3.02,0-1.02.16-1.72.49-2.09.15-.17.33-.29.54-.37.22-.08.59-.19,1.12-.34-.26-.18-.45-.37-.59-.55-.14-.19-.24-.4-.29-.63-.06-.23-.08-.52-.08-.86,0-1.1.32-1.79.97-2.09.46-.27,1.2-.41,2.21-.41,1.29,0,2.13.26,2.55.77.33.45.49,1.07.49,1.86v.67ZM12.87,27.27c-.69.16-1.14.34-1.34.52-.15.13-.25.32-.29.56s-.07.6-.07,1.09c0,.52.02.92.08,1.19.05.27.13.47.24.6.11.13.28.23.51.31.24.09.75.16,1.52.2.23-.02.5-.03.83-.03.78,0,1.33-.05,1.64-.14.55-.17.88-.47.99-.91l-4.1-3.39Z"/>
      <path class="st1" d="M28.86,22.16h1.67l3.95,10.5h-1.23l-.85-2.21h-5.31l-.81,2.21h-1.23l3.82-10.5ZM27.41,29.45h4.65l-2.35-6.31-2.3,6.31Z"/>
      <path class="st1" d="M35.59,22.16h1.2v9.46h5.34v1.04h-6.54v-10.5Z"/>
      <path class="st1" d="M42.96,32.66v-10.5h6.75v1.04h-5.57v3.59h5.34v.98h-5.34v3.86h5.57v1.04h-6.75Z"/>
      <path class="st1" d="M56.23,22.16c1.17,0,1.99.26,2.46.77.41.43.62,1.22.62,2.35,0,.92-.14,1.58-.41,1.96-.3.39-.77.63-1.41.71v.03c.33.04.62.14.88.31.26.17.46.39.6.66.14.27.21.57.21.9v2.81h-1.2v-2.3c0-.69-.13-1.17-.39-1.46-.24-.29-.72-.43-1.44-.43h-3.78v4.19h-1.18v-10.5h5.04ZM56.26,23.2h-3.86v4.21h3.72c.38,0,.7-.03.96-.1.26-.07.47-.2.65-.39.26-.28.39-.79.39-1.51v-.35c0-.69-.09-1.14-.28-1.37-.29-.33-.81-.49-1.58-.49Z"/>
      <path class="st1" d="M63.5,32.66v-9.46h-3.39v-1.04h7.98v1.04h-3.39v9.46h-1.2Z"/>
      <path class="st1" d="M72.05,22.16h1.67l3.95,10.5h-1.23l-.86-2.21h-5.31l-.81,2.21h-1.23l3.82-10.5ZM70.6,29.45h4.65l-2.35-6.31-2.3,6.31Z"/>
      <path class="st1" d="M82.14,22.07c.74,0,1.36.04,1.86.13.51.09.89.23,1.15.44.5.42.74,1.11.74,2.09v.29h-1.18c-.02-.42-.05-.73-.08-.94-.03-.21-.11-.39-.24-.53-.11-.13-.26-.23-.46-.3-.2-.06-.44-.1-.71-.12-.27-.02-.63-.03-1.08-.03h-.29c-1.03,0-1.72.14-2.06.42-.13.11-.23.27-.28.5-.05.22-.07.51-.07.87,0,.85.2,1.38.6,1.6.19.11.42.18.69.22.27.04.56.06.86.06.3,0,.61,0,.94.01.92.07,1.54.12,1.87.17.33.04.62.16.89.35.34.23.56.55.65.95.09.4.15.88.17,1.43,0,.6-.07,1.13-.22,1.57-.15.45-.38.78-.69,1-.34.22-.78.35-1.3.41s-1.18.08-1.97.08h-.43c-.55,0-1.04-.04-1.47-.12-.43-.08-.79-.24-1.08-.48-.28-.21-.47-.49-.58-.85-.11-.35-.17-.78-.19-1.28.02-.15.03-.36.03-.63h1.2c0,.08,0,.16-.03.24.02.47.05.84.11,1.12.05.28.16.49.33.63.2.17.5.28.91.31.25.02.64.03,1.15.03.35,0,.61.01.8.03.88-.04,1.46-.16,1.75-.37.2-.13.33-.33.39-.6.06-.26.1-.6.1-1.02v-.17c0-.65-.12-1.1-.36-1.33-.14-.15-.35-.25-.62-.29-.27-.05-.67-.09-1.22-.13-.34-.01-.67-.02-1-.03-.33-.01-.67-.04-1.03-.07-.36-.04-.68-.1-.97-.18-.29-.08-.54-.2-.74-.34-.26-.2-.45-.47-.55-.8-.11-.33-.17-.75-.19-1.24,0-1.21.26-2.03.77-2.46.32-.27.73-.44,1.22-.52.5-.08,1.13-.12,1.91-.12Z"/>
    </g>
  </g>
</svg>