<svg id="Capa_1" data-name="Capa 1" xmlns="http://www.w3.org/2000/svg" xmlns:xlink="http://www.w3.org/1999/xlink" viewBox="0 0 904 909"><defs><style>.cls-1,.cls-10,.cls-11,.cls-12,.cls-13,.cls-14,.cls-15,.cls-16,.cls-17,.cls-18,.cls-19,.cls-2,.cls-20,.cls-21,.cls-22,.cls-23,.cls-24,.cls-25,.cls-26,.cls-27,.cls-28,.cls-29,.cls-3,.cls-30,.cls-4,.cls-5,.cls-6,.cls-7,.cls-8,.cls-9{fill:none;}.cls-1,.cls-10,.cls-11,.cls-12,.cls-13,.cls-14,.cls-15,.cls-16,.cls-17,.cls-18,.cls-19,.cls-2,.cls-20,.cls-21,.cls-22,.cls-23,.cls-24,.cls-25,.cls-26,.cls-27,.cls-28,.cls-29,.cls-3,.cls-30,.cls-5,.cls-6,.cls-7,.cls-8,.cls-9{stroke-miterlimit:10;}.cls-1{opacity:0;stroke:url(#Degradado_sin_nombre_41);}.cls-2{opacity:0.03;stroke:url(#Degradado_sin_nombre_41-2);}.cls-3{opacity:0.07;stroke:url(#Degradado_sin_nombre_41-3);}.cls-4{stroke-miterlimit:10;opacity:0.1;stroke:url(#Degradado_sin_nombre_41-4);}.cls-5{opacity:0.14;stroke:url(#Degradado_sin_nombre_41-5);}.cls-6{opacity:0.17;stroke:url(#Degradado_sin_nombre_41-6);}.cls-7{opacity:0.21;stroke:url(#Degradado_sin_nombre_41-7);}.cls-8{opacity:0.24;stroke:url(#Degradado_sin_nombre_41-8);}.cls-9{opacity:0.28;stroke:url(#Degradado_sin_nombre_41-9);}.cls-10{opacity:0.31;stroke:url(#Degradado_sin_nombre_41-10);}.cls-11{opacity:0.34;stroke:url(#Degradado_sin_nombre_41-11);}.cls-12{opacity:0.38;stroke:url(#Degradado_sin_nombre_41-12);}.cls-13{opacity:0.41;stroke:url(#Degradado_sin_nombre_41-13);}.cls-14{opacity:0.45;stroke:url(#Degradado_sin_nombre_41-14);}.cls-15{opacity:0.48;stroke:url(#Degradado_sin_nombre_41-15);}.cls-16{opacity:0.52;stroke:url(#Degradado_sin_nombre_41-16);}.cls-17{opacity:0.55;stroke:url(#Degradado_sin_nombre_41-17);}.cls-18{opacity:0.59;stroke:url(#Degradado_sin_nombre_41-18);}.cls-19{opacity:0.62;stroke:url(#Degradado_sin_nombre_41-19);}.cls-20{opacity:0.66;stroke:url(#Degradado_sin_nombre_41-20);}.cls-21{opacity:0.69;stroke:url(#Degradado_sin_nombre_41-21);}.cls-22{opacity:0.72;stroke:url(#Degradado_sin_nombre_41-22);}.cls-23{opacity:0.76;stroke:url(#Degradado_sin_nombre_41-23);}.cls-24{opacity:0.79;stroke:url(#Degradado_sin_nombre_41-24);}.cls-25{opacity:0.83;stroke:url(#Degradado_sin_nombre_41-25);}.cls-26{opacity:0.86;stroke:url(#Degradado_sin_nombre_41-26);}.cls-27{opacity:0.9;stroke:url(#Degradado_sin_nombre_41-27);}.cls-28{opacity:0.93;stroke:url(#Degradado_sin_nombre_41-28);}.cls-29{opacity:0.97;stroke:url(#Degradado_sin_nombre_41-29);}.cls-30{stroke:url(#Degradado_sin_nombre_41-30);}.cls-31{fill:url(#Degradado_sin_nombre_41-31);}.cls-32{fill:#fff;}</style><linearGradient id="Degradado_sin_nombre_41" x1="-2.31" y1="451.55" x2="901.5" y2="451.55" gradientUnits="userSpaceOnUse"><stop offset="0" stop-color="#2af598"/><stop offset="1" stop-color="#009efd"/></linearGradient><linearGradient id="Degradado_sin_nombre_41-2" x1="8.58" y1="451.55" x2="890.63" y2="451.55" xlink:href="#Degradado_sin_nombre_41"/><linearGradient id="Degradado_sin_nombre_41-3" x1="19.47" y1="451.55" x2="879.76" y2="451.55" xlink:href="#Degradado_sin_nombre_41"/><linearGradient id="Degradado_sin_nombre_41-4" x1="30.36" y1="451.55" x2="868.89" y2="451.55" xlink:href="#Degradado_sin_nombre_41"/><linearGradient id="Degradado_sin_nombre_41-5" x1="41.24" y1="451.55" x2="858.02" y2="451.55" xlink:href="#Degradado_sin_nombre_41"/><linearGradient id="Degradado_sin_nombre_41-6" x1="52.13" y1="451.55" x2="847.15" y2="451.55" xlink:href="#Degradado_sin_nombre_41"/><linearGradient id="Degradado_sin_nombre_41-7" x1="63.02" y1="451.55" x2="836.28" y2="451.55" xlink:href="#Degradado_sin_nombre_41"/><linearGradient id="Degradado_sin_nombre_41-8" x1="73.91" y1="451.55" x2="825.41" y2="451.55" xlink:href="#Degradado_sin_nombre_41"/><linearGradient id="Degradado_sin_nombre_41-9" x1="84.8" y1="451.55" x2="814.54" y2="451.55" xlink:href="#Degradado_sin_nombre_41"/><linearGradient id="Degradado_sin_nombre_41-10" x1="95.69" y1="451.55" x2="803.67" y2="451.55" xlink:href="#Degradado_sin_nombre_41"/><linearGradient id="Degradado_sin_nombre_41-11" x1="106.57" y1="451.55" x2="792.8" y2="451.55" xlink:href="#Degradado_sin_nombre_41"/><linearGradient id="Degradado_sin_nombre_41-12" x1="117.46" y1="451.55" x2="781.92" y2="451.55" xlink:href="#Degradado_sin_nombre_41"/><linearGradient id="Degradado_sin_nombre_41-13" x1="128.35" y1="451.55" x2="771.05" y2="451.55" xlink:href="#Degradado_sin_nombre_41"/><linearGradient id="Degradado_sin_nombre_41-14" x1="139.24" y1="451.55" x2="760.18" y2="451.55" xlink:href="#Degradado_sin_nombre_41"/><linearGradient id="Degradado_sin_nombre_41-15" x1="150.13" y1="451.55" x2="749.31" y2="451.55" xlink:href="#Degradado_sin_nombre_41"/><linearGradient id="Degradado_sin_nombre_41-16" x1="161.01" y1="451.55" x2="738.44" y2="451.55" xlink:href="#Degradado_sin_nombre_41"/><linearGradient id="Degradado_sin_nombre_41-17" x1="171.9" y1="451.55" x2="727.57" y2="451.55" xlink:href="#Degradado_sin_nombre_41"/><linearGradient id="Degradado_sin_nombre_41-18" x1="182.79" y1="451.55" x2="716.7" y2="451.55" xlink:href="#Degradado_sin_nombre_41"/><linearGradient id="Degradado_sin_nombre_41-19" x1="193.68" y1="451.55" x2="705.83" y2="451.55" xlink:href="#Degradado_sin_nombre_41"/><linearGradient id="Degradado_sin_nombre_41-20" x1="204.57" y1="451.55" x2="694.96" y2="451.55" xlink:href="#Degradado_sin_nombre_41"/><linearGradient id="Degradado_sin_nombre_41-21" x1="215.46" y1="451.55" x2="684.09" y2="451.55" xlink:href="#Degradado_sin_nombre_41"/><linearGradient id="Degradado_sin_nombre_41-22" x1="226.34" y1="451.55" x2="673.22" y2="451.55" xlink:href="#Degradado_sin_nombre_41"/><linearGradient id="Degradado_sin_nombre_41-23" x1="237.23" y1="451.55" x2="662.35" y2="451.55" xlink:href="#Degradado_sin_nombre_41"/><linearGradient id="Degradado_sin_nombre_41-24" x1="248.12" y1="451.55" x2="651.48" y2="451.55" xlink:href="#Degradado_sin_nombre_41"/><linearGradient id="Degradado_sin_nombre_41-25" x1="259.01" y1="451.55" x2="640.61" y2="451.55" xlink:href="#Degradado_sin_nombre_41"/><linearGradient id="Degradado_sin_nombre_41-26" x1="269.9" y1="451.55" x2="629.74" y2="451.55" xlink:href="#Degradado_sin_nombre_41"/><linearGradient id="Degradado_sin_nombre_41-27" x1="280.78" y1="451.55" x2="618.87" y2="451.55" xlink:href="#Degradado_sin_nombre_41"/><linearGradient id="Degradado_sin_nombre_41-28" x1="291.67" y1="451.55" x2="608" y2="451.55" xlink:href="#Degradado_sin_nombre_41"/><linearGradient id="Degradado_sin_nombre_41-29" x1="302.56" y1="451.55" x2="597.13" y2="451.55" xlink:href="#Degradado_sin_nombre_41"/><linearGradient id="Degradado_sin_nombre_41-30" x1="313.45" y1="451.55" x2="586.26" y2="451.55" xlink:href="#Degradado_sin_nombre_41"/><linearGradient id="Degradado_sin_nombre_41-31" x1="312.99" y1="451.55" x2="586.2" y2="451.55" xlink:href="#Degradado_sin_nombre_41"/></defs><circle class="cls-1" cx="449.6" cy="451.55" r="451.4"/><circle class="cls-2" cx="449.6" cy="451.55" r="440.53"/><circle class="cls-3" cx="449.61" cy="451.55" r="429.65"/><circle class="cls-4" cx="449.62" cy="451.55" r="418.77"/><circle class="cls-5" cx="449.63" cy="451.55" r="407.89"/><circle class="cls-6" cx="449.64" cy="451.55" r="397.01"/><circle class="cls-7" cx="449.65" cy="451.55" r="386.13"/><circle class="cls-8" cx="449.66" cy="451.55" r="375.25"/><circle class="cls-9" cx="449.67" cy="451.55" r="364.37"/><circle class="cls-10" cx="449.68" cy="451.55" r="353.49"/><circle class="cls-11" cx="449.68" cy="451.55" r="342.61"/><circle class="cls-12" cx="449.69" cy="451.55" r="331.73"/><circle class="cls-13" cx="449.7" cy="451.55" r="320.85"/><circle class="cls-14" cx="449.71" cy="451.55" r="309.97"/><circle class="cls-15" cx="449.72" cy="451.55" r="299.09"/><circle class="cls-16" cx="449.73" cy="451.55" r="288.21"/><circle class="cls-17" cx="449.74" cy="451.55" r="277.33"/><circle class="cls-18" cx="449.75" cy="451.55" r="266.46"/><circle class="cls-19" cx="449.76" cy="451.55" r="255.58"/><circle class="cls-20" cx="449.76" cy="451.55" r="244.7"/><circle class="cls-21" cx="449.77" cy="451.55" r="233.82"/><circle class="cls-22" cx="449.78" cy="451.55" r="222.94"/><circle class="cls-23" cx="449.79" cy="451.55" r="212.06"/><circle class="cls-24" cx="449.8" cy="451.55" r="201.18"/><circle class="cls-25" cx="449.81" cy="451.55" r="190.3"/><circle class="cls-26" cx="449.82" cy="451.55" r="179.42"/><circle class="cls-27" cx="449.83" cy="451.55" r="168.54"/><circle class="cls-28" cx="449.83" cy="451.55" r="157.66"/><circle class="cls-29" cx="449.84" cy="451.55" r="146.78"/><circle class="cls-30" cx="449.85" cy="451.55" r="135.9"/><circle class="cls-31" cx="449.6" cy="451.55" r="136.61"/><path class="cls-32" d="M506.11,475a79.73,79.73,0,0,0-30.37-19,46.21,46.21,0,1,0-52.29,0,80.07,80.07,0,0,0-53.77,75.56h12.49a67.43,67.43,0,1,1,134.85,0h12.49A79.39,79.39,0,0,0,506.11,475Zm-90.23-57.12a33.72,33.72,0,1,1,33.72,33.71A33.76,33.76,0,0,1,415.88,417.84Z"/></svg>