<svg id="Capa_1" data-name="Capa 1" xmlns="http://www.w3.org/2000/svg" xmlns:xlink="http://www.w3.org/1999/xlink" viewBox="0 0 1640 377"><defs><style>.cls-1{fill:url(#Degradado_sin_nombre_40);}.cls-2{fill:url(#Degradado_sin_nombre_40-2);}.cls-3{fill:url(#Degradado_sin_nombre_40-3);}.cls-4{fill:url(#Degradado_sin_nombre_40-4);}.cls-5{fill:url(#Degradado_sin_nombre_40-5);}.cls-6{fill:url(#Degradado_sin_nombre_40-6);}.cls-7{fill:url(#Degradado_sin_nombre_40-7);}.cls-8{fill:url(#Degradado_sin_nombre_40-8);}.cls-9{fill:url(#Degradado_sin_nombre_40-9);}.cls-10{fill:url(#Degradado_sin_nombre_40-10);}.cls-11{fill:url(#Degradado_sin_nombre_40-11);}.cls-12{fill:url(#Degradado_sin_nombre_40-12);}.cls-13{fill:url(#Degradado_sin_nombre_40-13);}.cls-14{fill:url(#Degradado_sin_nombre_40-14);}.cls-15{fill:url(#Degradado_sin_nombre_40-15);}.cls-16{fill:url(#Degradado_sin_nombre_40-16);}.cls-17{fill:url(#Degradado_sin_nombre_40-17);}.cls-18{fill:url(#Degradado_sin_nombre_40-18);}.cls-19{fill:url(#Degradado_sin_nombre_40-19);}.cls-20{fill:url(#Degradado_sin_nombre_40-20);}.cls-21{fill:url(#Degradado_sin_nombre_40-21);}.cls-22{fill:url(#Degradado_sin_nombre_40-23);}.cls-23{fill:url(#Degradado_sin_nombre_40-24);}.cls-24{fill:url(#Degradado_sin_nombre_40-25);}.cls-25{fill:url(#Degradado_sin_nombre_40-26);}.cls-26{fill:url(#Degradado_sin_nombre_40-27);}.cls-27{fill:url(#Degradado_sin_nombre_40-28);}.cls-28{fill:url(#Degradado_sin_nombre_40-29);}.cls-29{fill:url(#Degradado_sin_nombre_40-30);}.cls-30{fill:url(#Degradado_sin_nombre_40-31);}.cls-31{fill:url(#Degradado_sin_nombre_40-33);}.cls-32{fill:url(#Degradado_sin_nombre_40-34);}.cls-33{fill:url(#Degradado_sin_nombre_40-35);}.cls-34{fill:url(#Degradado_sin_nombre_40-36);}.cls-35{fill:url(#Degradado_sin_nombre_40-37);}.cls-36{fill:url(#Degradado_sin_nombre_40-38);}.cls-37{fill:url(#Degradado_sin_nombre_40-39);}.cls-38{fill:url(#Degradado_sin_nombre_40-40);}.cls-39{fill:url(#Degradado_sin_nombre_40-41);}.cls-40{fill:url(#Degradado_sin_nombre_40-42);}.cls-41{fill:url(#Degradado_sin_nombre_40-43);}.cls-42{fill:url(#Degradado_sin_nombre_40-44);}.cls-43{fill:url(#Degradado_sin_nombre_40-45);}.cls-44{fill:url(#Degradado_sin_nombre_40-46);}.cls-45{fill:url(#Degradado_sin_nombre_40-47);}.cls-46{fill:url(#Degradado_sin_nombre_40-48);}.cls-47{fill:url(#Degradado_sin_nombre_40-49);}.cls-48{fill:url(#Degradado_sin_nombre_40-50);}.cls-49{fill:url(#Degradado_sin_nombre_40-51);}.cls-50{fill:url(#Degradado_sin_nombre_40-52);}.cls-51{fill:url(#Degradado_sin_nombre_40-53);}.cls-52{fill:url(#Degradado_sin_nombre_40-54);}.cls-53{fill:url(#Degradado_sin_nombre_40-55);}.cls-54{fill:url(#Degradado_sin_nombre_40-56);}.cls-55{fill:url(#Degradado_sin_nombre_40-57);}.cls-56{fill:url(#Degradado_sin_nombre_40-58);}.cls-57{fill:url(#Degradado_sin_nombre_40-59);}.cls-58{fill:url(#Degradado_sin_nombre_40-60);}.cls-59{fill:url(#Degradado_sin_nombre_40-61);}.cls-60{fill:url(#Degradado_sin_nombre_40-62);}.cls-61{fill:url(#Degradado_sin_nombre_40-63);}.cls-62{fill:url(#Degradado_sin_nombre_40-64);}.cls-63{fill:url(#Degradado_sin_nombre_40-65);}.cls-64{fill:url(#Degradado_sin_nombre_40-66);}.cls-65{fill:url(#Degradado_sin_nombre_40-67);}.cls-66{fill:url(#Degradado_sin_nombre_40-68);}.cls-67{fill:url(#Degradado_sin_nombre_40-69);}.cls-68{fill:url(#Degradado_sin_nombre_40-70);}.cls-69{fill:url(#Degradado_sin_nombre_40-71);}.cls-70{fill:url(#Degradado_sin_nombre_40-72);}.cls-71{fill:url(#Degradado_sin_nombre_40-73);}.cls-72{fill:url(#Degradado_sin_nombre_40-74);}.cls-73{fill:url(#Degradado_sin_nombre_40-75);}.cls-74{fill:url(#Degradado_sin_nombre_40-76);}.cls-75{fill:url(#Degradado_sin_nombre_40-77);}.cls-76{fill:url(#Degradado_sin_nombre_40-78);}.cls-77{fill:url(#Degradado_sin_nombre_40-79);}.cls-78{fill:url(#Degradado_sin_nombre_40-80);}.cls-79{fill:url(#Degradado_sin_nombre_40-81);}.cls-80{fill:url(#Degradado_sin_nombre_40-82);}.cls-81{fill:url(#Degradado_sin_nombre_40-83);}.cls-82{fill:url(#Degradado_sin_nombre_40-84);}.cls-83{fill:url(#Degradado_sin_nombre_40-90);}.cls-84{fill:url(#Degradado_sin_nombre_40-91);}.cls-85{fill:url(#Degradado_sin_nombre_40-92);}.cls-86{fill:url(#Degradado_sin_nombre_40-93);}.cls-87{fill:url(#Degradado_sin_nombre_40-94);}.cls-88{fill:url(#Degradado_sin_nombre_40-95);}.cls-89{fill:url(#Degradado_sin_nombre_40-96);}.cls-90{fill:url(#Degradado_sin_nombre_40-97);}.cls-91{fill:url(#Degradado_sin_nombre_40-98);}.cls-92{fill:url(#Degradado_sin_nombre_40-101);}.cls-93{fill:url(#Degradado_sin_nombre_40-102);}.cls-94{fill:url(#Degradado_sin_nombre_40-113);}.cls-95{fill:url(#Degradado_sin_nombre_40-114);}.cls-96{fill:url(#Degradado_sin_nombre_40-115);}.cls-97{fill:url(#Degradado_sin_nombre_40-116);}.cls-98{fill:url(#Degradado_sin_nombre_40-117);}.cls-99{fill:url(#Degradado_sin_nombre_40-118);}.cls-100{fill:url(#Degradado_sin_nombre_40-119);}.cls-101{fill:url(#Degradado_sin_nombre_40-120);}.cls-102{fill:url(#Degradado_sin_nombre_40-121);}.cls-103{fill:url(#Degradado_sin_nombre_40-122);}.cls-104{fill:url(#Degradado_sin_nombre_40-123);}.cls-105{fill:url(#Degradado_sin_nombre_40-124);}.cls-106{fill:url(#Degradado_sin_nombre_40-125);}.cls-107{fill:url(#Degradado_sin_nombre_40-126);}.cls-108{fill:url(#Degradado_sin_nombre_40-127);}.cls-109{fill:url(#Degradado_sin_nombre_40-128);}.cls-110{fill:url(#Degradado_sin_nombre_40-129);}.cls-111{fill:url(#Degradado_sin_nombre_40-130);}</style><linearGradient id="Degradado_sin_nombre_40" x1="13.81" y1="240.39" x2="1603.86" y2="240.39" gradientUnits="userSpaceOnUse"><stop offset="0" stop-color="#f15a24"/><stop offset="0.22" stop-color="#f77122"/><stop offset="0.47" stop-color="#fb8420"/><stop offset="0.73" stop-color="#fe8f1e"/><stop offset="1" stop-color="#ff931e"/></linearGradient><linearGradient id="Degradado_sin_nombre_40-2" x1="13.81" y1="257.81" x2="1603.86" y2="257.81" xlink:href="#Degradado_sin_nombre_40"/><linearGradient id="Degradado_sin_nombre_40-3" x1="13.81" y1="257.78" x2="1603.86" y2="257.78" xlink:href="#Degradado_sin_nombre_40"/><linearGradient id="Degradado_sin_nombre_40-4" x1="13.81" y1="338.4" x2="1603.86" y2="338.4" xlink:href="#Degradado_sin_nombre_40"/><linearGradient id="Degradado_sin_nombre_40-5" x1="13.81" y1="338.39" x2="1603.86" y2="338.39" xlink:href="#Degradado_sin_nombre_40"/><linearGradient id="Degradado_sin_nombre_40-6" x1="13.81" y1="197.28" x2="1603.86" y2="197.28" xlink:href="#Degradado_sin_nombre_40"/><linearGradient id="Degradado_sin_nombre_40-7" x1="13.81" y1="197.28" x2="1603.86" y2="197.28" xlink:href="#Degradado_sin_nombre_40"/><linearGradient id="Degradado_sin_nombre_40-8" x1="13.81" y1="197.32" x2="1603.86" y2="197.32" xlink:href="#Degradado_sin_nombre_40"/><linearGradient id="Degradado_sin_nombre_40-9" x1="13.81" y1="217.39" x2="1603.86" y2="217.39" xlink:href="#Degradado_sin_nombre_40"/><linearGradient id="Degradado_sin_nombre_40-10" x1="13.81" y1="217.38" x2="1603.86" y2="217.38" xlink:href="#Degradado_sin_nombre_40"/><linearGradient id="Degradado_sin_nombre_40-11" x1="13.81" y1="217.38" x2="1603.86" y2="217.38" xlink:href="#Degradado_sin_nombre_40"/><linearGradient id="Degradado_sin_nombre_40-12" x1="13.81" y1="217.35" x2="1603.86" y2="217.35" xlink:href="#Degradado_sin_nombre_40"/><linearGradient id="Degradado_sin_nombre_40-13" x1="13.81" y1="318.24" x2="1603.86" y2="318.24" xlink:href="#Degradado_sin_nombre_40"/><linearGradient id="Degradado_sin_nombre_40-14" x1="13.81" y1="318.3" x2="1603.86" y2="318.3" xlink:href="#Degradado_sin_nombre_40"/><linearGradient id="Degradado_sin_nombre_40-15" x1="13.81" y1="318.25" x2="1603.86" y2="318.25" xlink:href="#Degradado_sin_nombre_40"/><linearGradient id="Degradado_sin_nombre_40-16" x1="13.81" y1="318.25" x2="1603.86" y2="318.25" xlink:href="#Degradado_sin_nombre_40"/><linearGradient id="Degradado_sin_nombre_40-17" x1="13.81" y1="298.14" x2="1603.86" y2="298.14" xlink:href="#Degradado_sin_nombre_40"/><linearGradient id="Degradado_sin_nombre_40-18" x1="13.81" y1="298.14" x2="1603.86" y2="298.14" xlink:href="#Degradado_sin_nombre_40"/><linearGradient id="Degradado_sin_nombre_40-19" x1="13.81" y1="257.75" x2="1603.86" y2="257.75" xlink:href="#Degradado_sin_nombre_40"/><linearGradient id="Degradado_sin_nombre_40-20" x1="13.81" y1="257.8" x2="1603.86" y2="257.8" xlink:href="#Degradado_sin_nombre_40"/><linearGradient id="Degradado_sin_nombre_40-21" x1="13.81" y1="277.87" x2="1603.86" y2="277.87" xlink:href="#Degradado_sin_nombre_40"/><linearGradient id="Degradado_sin_nombre_40-23" x1="13.81" y1="277.9" x2="1603.86" y2="277.9" xlink:href="#Degradado_sin_nombre_40"/><linearGradient id="Degradado_sin_nombre_40-24" x1="13.81" y1="277.85" x2="1603.86" y2="277.85" xlink:href="#Degradado_sin_nombre_40"/><linearGradient id="Degradado_sin_nombre_40-25" x1="13.81" y1="298.16" x2="1603.86" y2="298.16" xlink:href="#Degradado_sin_nombre_40"/><linearGradient id="Degradado_sin_nombre_40-26" x1="13.81" y1="298.18" x2="1603.86" y2="298.18" xlink:href="#Degradado_sin_nombre_40"/><linearGradient id="Degradado_sin_nombre_40-27" x1="13.81" y1="197.27" x2="1603.86" y2="197.27" xlink:href="#Degradado_sin_nombre_40"/><linearGradient id="Degradado_sin_nombre_40-28" x1="13.81" y1="338.46" x2="1603.86" y2="338.46" xlink:href="#Degradado_sin_nombre_40"/><linearGradient id="Degradado_sin_nombre_40-29" x1="13.81" y1="338.36" x2="1603.86" y2="338.36" xlink:href="#Degradado_sin_nombre_40"/><linearGradient id="Degradado_sin_nombre_40-30" x1="13.81" y1="237.62" x2="1603.86" y2="237.62" xlink:href="#Degradado_sin_nombre_40"/><linearGradient id="Degradado_sin_nombre_40-31" x1="13.81" y1="237.64" x2="1603.86" y2="237.64" xlink:href="#Degradado_sin_nombre_40"/><linearGradient id="Degradado_sin_nombre_40-33" x1="13.81" y1="237.64" x2="1603.86" y2="237.64" xlink:href="#Degradado_sin_nombre_40"/><linearGradient id="Degradado_sin_nombre_40-34" x1="13.81" y1="177.07" x2="1603.86" y2="177.07" xlink:href="#Degradado_sin_nombre_40"/><linearGradient id="Degradado_sin_nombre_40-35" x1="13.81" y1="177.04" x2="1603.86" y2="177.04" xlink:href="#Degradado_sin_nombre_40"/><linearGradient id="Degradado_sin_nombre_40-36" x1="13.81" y1="177.03" x2="1603.86" y2="177.03" xlink:href="#Degradado_sin_nombre_40"/><linearGradient id="Degradado_sin_nombre_40-37" x1="13.81" y1="177.06" x2="1603.86" y2="177.06" xlink:href="#Degradado_sin_nombre_40"/><linearGradient id="Degradado_sin_nombre_40-38" x1="13.81" y1="362.48" x2="1603.86" y2="362.48" xlink:href="#Degradado_sin_nombre_40"/><linearGradient id="Degradado_sin_nombre_40-39" x1="13.81" y1="248.4" x2="1603.86" y2="248.4" xlink:href="#Degradado_sin_nombre_40"/><linearGradient id="Degradado_sin_nombre_40-40" x1="13.81" y1="231.21" x2="1603.86" y2="231.21" xlink:href="#Degradado_sin_nombre_40"/><linearGradient id="Degradado_sin_nombre_40-41" x1="13.81" y1="255.36" x2="1603.86" y2="255.36" xlink:href="#Degradado_sin_nombre_40"/><linearGradient id="Degradado_sin_nombre_40-42" x1="13.81" y1="255.36" x2="1603.86" y2="255.36" xlink:href="#Degradado_sin_nombre_40"/><linearGradient id="Degradado_sin_nombre_40-43" x1="13.81" y1="255.36" x2="1603.86" y2="255.36" xlink:href="#Degradado_sin_nombre_40"/><linearGradient id="Degradado_sin_nombre_40-44" x1="13.81" y1="255.36" x2="1603.86" y2="255.36" xlink:href="#Degradado_sin_nombre_40"/><linearGradient id="Degradado_sin_nombre_40-45" x1="13.81" y1="303.65" x2="1603.86" y2="303.65" xlink:href="#Degradado_sin_nombre_40"/><linearGradient id="Degradado_sin_nombre_40-46" x1="13.81" y1="231.22" x2="1603.86" y2="231.22" xlink:href="#Degradado_sin_nombre_40"/><linearGradient id="Degradado_sin_nombre_40-47" x1="13.81" y1="279.5" x2="1603.86" y2="279.5" xlink:href="#Degradado_sin_nombre_40"/><linearGradient id="Degradado_sin_nombre_40-48" x1="13.81" y1="279.5" x2="1603.86" y2="279.5" xlink:href="#Degradado_sin_nombre_40"/><linearGradient id="Degradado_sin_nombre_40-49" x1="13.81" y1="279.5" x2="1603.86" y2="279.5" xlink:href="#Degradado_sin_nombre_40"/><linearGradient id="Degradado_sin_nombre_40-50" x1="13.81" y1="279.5" x2="1603.86" y2="279.5" xlink:href="#Degradado_sin_nombre_40"/><linearGradient id="Degradado_sin_nombre_40-51" x1="13.81" y1="303.65" x2="1603.86" y2="303.65" xlink:href="#Degradado_sin_nombre_40"/><linearGradient id="Degradado_sin_nombre_40-52" x1="13.81" y1="303.65" x2="1603.86" y2="303.65" xlink:href="#Degradado_sin_nombre_40"/><linearGradient id="Degradado_sin_nombre_40-53" x1="13.81" y1="303.65" x2="1603.86" y2="303.65" xlink:href="#Degradado_sin_nombre_40"/><linearGradient id="Degradado_sin_nombre_40-54" x1="13.81" y1="342.41" x2="1603.86" y2="342.41" xlink:href="#Degradado_sin_nombre_40"/><linearGradient id="Degradado_sin_nombre_40-55" x1="13.81" y1="304.97" x2="1603.86" y2="304.97" xlink:href="#Degradado_sin_nombre_40"/><linearGradient id="Degradado_sin_nombre_40-56" x1="13.81" y1="271.75" x2="1603.86" y2="271.75" xlink:href="#Degradado_sin_nombre_40"/><linearGradient id="Degradado_sin_nombre_40-57" x1="13.81" y1="351.61" x2="1603.86" y2="351.61" xlink:href="#Degradado_sin_nombre_40"/><linearGradient id="Degradado_sin_nombre_40-58" x1="13.81" y1="351.62" x2="1603.86" y2="351.62" xlink:href="#Degradado_sin_nombre_40"/><linearGradient id="Degradado_sin_nombre_40-59" x1="13.81" y1="336.49" x2="1603.86" y2="336.49" xlink:href="#Degradado_sin_nombre_40"/><linearGradient id="Degradado_sin_nombre_40-60" x1="13.81" y1="336.49" x2="1603.86" y2="336.49" xlink:href="#Degradado_sin_nombre_40"/><linearGradient id="Degradado_sin_nombre_40-61" x1="13.81" y1="297.04" x2="1603.86" y2="297.04" xlink:href="#Degradado_sin_nombre_40"/><linearGradient id="Degradado_sin_nombre_40-62" x1="13.81" y1="297.24" x2="1603.86" y2="297.24" xlink:href="#Degradado_sin_nombre_40"/><linearGradient id="Degradado_sin_nombre_40-63" x1="13.81" y1="265.36" x2="1603.86" y2="265.36" xlink:href="#Degradado_sin_nombre_40"/><linearGradient id="Degradado_sin_nombre_40-64" x1="13.81" y1="209.79" x2="1603.86" y2="209.79" xlink:href="#Degradado_sin_nombre_40"/><linearGradient id="Degradado_sin_nombre_40-65" x1="13.81" y1="221.94" x2="1603.86" y2="221.94" xlink:href="#Degradado_sin_nombre_40"/><linearGradient id="Degradado_sin_nombre_40-66" x1="13.81" y1="311.59" x2="1603.86" y2="311.59" xlink:href="#Degradado_sin_nombre_40"/><linearGradient id="Degradado_sin_nombre_40-67" x1="13.81" y1="25.68" x2="1603.86" y2="25.68" xlink:href="#Degradado_sin_nombre_40"/><linearGradient id="Degradado_sin_nombre_40-68" x1="13.81" y1="298.15" x2="1603.86" y2="298.15" xlink:href="#Degradado_sin_nombre_40"/><linearGradient id="Degradado_sin_nombre_40-69" x1="13.81" y1="324.22" x2="1603.86" y2="324.22" xlink:href="#Degradado_sin_nombre_40"/><linearGradient id="Degradado_sin_nombre_40-70" x1="13.81" y1="169.47" x2="1603.86" y2="169.47" xlink:href="#Degradado_sin_nombre_40"/><linearGradient id="Degradado_sin_nombre_40-71" x1="13.81" y1="142.88" x2="1603.86" y2="142.88" xlink:href="#Degradado_sin_nombre_40"/><linearGradient id="Degradado_sin_nombre_40-72" x1="13.81" y1="134.21" x2="1603.86" y2="134.21" xlink:href="#Degradado_sin_nombre_40"/><linearGradient id="Degradado_sin_nombre_40-73" x1="13.81" y1="125.72" x2="1603.86" y2="125.72" xlink:href="#Degradado_sin_nombre_40"/><linearGradient id="Degradado_sin_nombre_40-74" x1="13.81" y1="125.72" x2="1603.86" y2="125.72" xlink:href="#Degradado_sin_nombre_40"/><linearGradient id="Degradado_sin_nombre_40-75" x1="13.81" y1="125.75" x2="1603.86" y2="125.75" xlink:href="#Degradado_sin_nombre_40"/><linearGradient id="Degradado_sin_nombre_40-76" x1="13.81" y1="125.71" x2="1603.86" y2="125.71" xlink:href="#Degradado_sin_nombre_40"/><linearGradient id="Degradado_sin_nombre_40-77" x1="13.81" y1="125.73" x2="1603.86" y2="125.73" xlink:href="#Degradado_sin_nombre_40"/><linearGradient id="Degradado_sin_nombre_40-78" x1="13.81" y1="125.73" x2="1603.86" y2="125.73" xlink:href="#Degradado_sin_nombre_40"/><linearGradient id="Degradado_sin_nombre_40-79" x1="13.81" y1="334.13" x2="1603.86" y2="334.13" xlink:href="#Degradado_sin_nombre_40"/><linearGradient id="Degradado_sin_nombre_40-80" x1="13.81" y1="320.37" x2="1603.86" y2="320.37" xlink:href="#Degradado_sin_nombre_40"/><linearGradient id="Degradado_sin_nombre_40-81" x1="13.81" y1="339.6" x2="1603.86" y2="339.6" xlink:href="#Degradado_sin_nombre_40"/><linearGradient id="Degradado_sin_nombre_40-82" x1="13.81" y1="253.67" x2="1603.86" y2="253.67" xlink:href="#Degradado_sin_nombre_40"/><linearGradient id="Degradado_sin_nombre_40-83" x1="13.81" y1="314.74" x2="1603.86" y2="314.74" xlink:href="#Degradado_sin_nombre_40"/><linearGradient id="Degradado_sin_nombre_40-84" x1="13.81" y1="322.31" x2="1603.86" y2="322.31" xlink:href="#Degradado_sin_nombre_40"/><linearGradient id="Degradado_sin_nombre_40-90" x1="13.81" y1="321.95" x2="1603.86" y2="321.95" xlink:href="#Degradado_sin_nombre_40"/><linearGradient id="Degradado_sin_nombre_40-91" x1="13.81" y1="333.67" x2="1603.86" y2="333.67" xlink:href="#Degradado_sin_nombre_40"/><linearGradient id="Degradado_sin_nombre_40-92" x1="13.81" y1="343.84" x2="1603.86" y2="343.84" xlink:href="#Degradado_sin_nombre_40"/><linearGradient id="Degradado_sin_nombre_40-93" x1="13.81" y1="296.05" x2="1603.86" y2="296.05" xlink:href="#Degradado_sin_nombre_40"/><linearGradient id="Degradado_sin_nombre_40-94" x1="13.81" y1="343.84" x2="1603.86" y2="343.84" xlink:href="#Degradado_sin_nombre_40"/><linearGradient id="Degradado_sin_nombre_40-95" x1="13.81" y1="305.78" x2="1603.86" y2="305.78" xlink:href="#Degradado_sin_nombre_40"/><linearGradient id="Degradado_sin_nombre_40-96" x1="13.81" y1="305.71" x2="1603.86" y2="305.71" xlink:href="#Degradado_sin_nombre_40"/><linearGradient id="Degradado_sin_nombre_40-97" x1="13.81" y1="313.68" x2="1603.86" y2="313.68" xlink:href="#Degradado_sin_nombre_40"/><linearGradient id="Degradado_sin_nombre_40-98" x1="13.81" y1="313.68" x2="1603.86" y2="313.68" xlink:href="#Degradado_sin_nombre_40"/><linearGradient id="Degradado_sin_nombre_40-101" x1="13.81" y1="338.61" x2="1603.86" y2="338.61" xlink:href="#Degradado_sin_nombre_40"/><linearGradient id="Degradado_sin_nombre_40-102" x1="13.81" y1="338.61" x2="1603.86" y2="338.61" xlink:href="#Degradado_sin_nombre_40"/><linearGradient id="Degradado_sin_nombre_40-113" x1="13.81" y1="118.7" x2="1603.86" y2="118.7" xlink:href="#Degradado_sin_nombre_40"/><linearGradient id="Degradado_sin_nombre_40-114" x1="13.81" y1="118.7" x2="1603.86" y2="118.7" xlink:href="#Degradado_sin_nombre_40"/><linearGradient id="Degradado_sin_nombre_40-115" x1="13.81" y1="154.33" x2="1603.86" y2="154.33" xlink:href="#Degradado_sin_nombre_40"/><linearGradient id="Degradado_sin_nombre_40-116" x1="13.81" y1="154.33" x2="1603.86" y2="154.33" xlink:href="#Degradado_sin_nombre_40"/><linearGradient id="Degradado_sin_nombre_40-117" x1="13.81" y1="162.66" x2="1603.86" y2="162.66" xlink:href="#Degradado_sin_nombre_40"/><linearGradient id="Degradado_sin_nombre_40-118" x1="13.81" y1="122.23" x2="1603.86" y2="122.23" xlink:href="#Degradado_sin_nombre_40"/><linearGradient id="Degradado_sin_nombre_40-119" x1="13.81" y1="79.81" x2="1603.86" y2="79.81" xlink:href="#Degradado_sin_nombre_40"/><linearGradient id="Degradado_sin_nombre_40-120" x1="13.81" y1="79.81" x2="1603.86" y2="79.81" xlink:href="#Degradado_sin_nombre_40"/><linearGradient id="Degradado_sin_nombre_40-121" x1="13.81" y1="83.33" x2="1603.86" y2="83.33" xlink:href="#Degradado_sin_nombre_40"/><linearGradient id="Degradado_sin_nombre_40-122" x1="13.81" y1="309.67" x2="1603.86" y2="309.67" xlink:href="#Degradado_sin_nombre_40"/><linearGradient id="Degradado_sin_nombre_40-123" x1="13.81" y1="273.08" x2="1603.86" y2="273.08" xlink:href="#Degradado_sin_nombre_40"/><linearGradient id="Degradado_sin_nombre_40-124" x1="13.81" y1="273.08" x2="1603.86" y2="273.08" xlink:href="#Degradado_sin_nombre_40"/><linearGradient id="Degradado_sin_nombre_40-125" x1="13.81" y1="273.1" x2="1603.86" y2="273.1" xlink:href="#Degradado_sin_nombre_40"/><linearGradient id="Degradado_sin_nombre_40-126" x1="13.81" y1="273.07" x2="1603.86" y2="273.07" xlink:href="#Degradado_sin_nombre_40"/><linearGradient id="Degradado_sin_nombre_40-127" x1="13.81" y1="273.08" x2="1603.86" y2="273.08" xlink:href="#Degradado_sin_nombre_40"/><linearGradient id="Degradado_sin_nombre_40-128" x1="13.81" y1="327.23" x2="1603.86" y2="327.23" xlink:href="#Degradado_sin_nombre_40"/><linearGradient id="Degradado_sin_nombre_40-129" x1="13.81" y1="329.94" x2="1603.86" y2="329.94" xlink:href="#Degradado_sin_nombre_40"/><linearGradient id="Degradado_sin_nombre_40-130" x1="13.81" y1="304.07" x2="1603.86" y2="304.07" xlink:href="#Degradado_sin_nombre_40"/></defs><g id="y6qYar"><path class="cls-1" d="M132.46,368H22.4V355.27h5.33l0-89q0-54.82,0-109.67c0-.37,0-.76,0-1.15a7.46,7.46,0,0,1,.71-4.65c.94-1.46,2.64-2,4-2.39a10.71,10.71,0,0,0,1.09-.36L85,127.75q12.69-5,25.38-10c2.72-1.08,5.42-2.18,8.13-3.28l4.1-1.66h3V115c0,4.53.24,39.88.51,80.81.43,63,.95,141.07,1,159.52h5.31ZM27,363.46H127.9v-3.53h-5l-.24-2.49a8.75,8.75,0,0,1-.08-1.09c0-16.48-.54-96.32-1-160.47-.25-37-.46-67.29-.51-77.58l-.87.35q-4.08,1.66-8.17,3.3-12.69,5-25.39,10L35.14,152.3c-.44.18-.94.33-1.43.48a7.2,7.2,0,0,0-1.58.6c0,.16,0,1.17.08,1.77s.07,1,.07,1.47q0,54.82,0,109.66l0,93.54H27Zm41.91-17.59c-2,0-3.9,0-5.84-.05a3.34,3.34,0,0,1-2.9-3.17c0-2.36,0-4.7,0-7.14v-4.46H74.87v14.81h-6Zm-4.2-4.58c1.87,0,3.75,0,5.64,0V335.6H64.65C64.65,337.54,64.65,339.42,64.67,341.29Zm30.51,4.49H80.44V331h4.19c2.5,0,5,0,7.46.05a3.32,3.32,0,0,1,3,3c0,2.46,0,4.92,0,7.43ZM85,341.22h5.63c0-1.92,0-3.8,0-5.69-1.87,0-3.74,0-5.61,0Zm7-5.67h0Zm23.28,10.22H100.52V331h14.76Zm-10.2-4.56h5.64V335.6h-5.64Zm-50.32,4.54H40V331H54.76ZM44.6,341.2h5.61v-5.61H44.6Zm50.45-15.53H80.46V310.92H95.05Zm-10-4.56H90.5v-5.63H85Zm-10.18,4.52H60.21V310.87H74.84Zm-10.07-4.56h5.51v-5.65H64.77Zm-10,4.54H40V310.89h14.7ZM44.6,321.05h5.58v-5.61H44.6Zm70.66,4.54H100.54V310.88h14.72ZM105.1,321h5.6v-5.59h-5.6ZM86.83,305.57H80.4V290.79H95.17V295c0,2.56,0,5.11,0,7.66A3.31,3.31,0,0,1,92,305.54C90.24,305.56,88.55,305.57,86.83,305.57ZM85,301H90.6c0-1.88,0-3.76,0-5.65H85Zm-16.24,4.55c-1.86,0-3.72,0-5.57,0a3.35,3.35,0,0,1-3-3.07c0-2.4,0-4.79,0-7.26v-4.43H74.84v14.8H68.72Zm-4-4.57c1.87,0,3.73,0,5.61,0v-5.69H64.65C64.65,297.24,64.65,299.12,64.67,301Zm-9.9,4.48H40V290.81H54.77Zm-10.19-4.56h5.63v-5.55H44.58Zm70.66,4.53H100.48V290.83h14.76ZM105,300.88h5.64v-5.49H105Zm-10-15.63H80.42v-14.7H95.09ZM85,280.69h5.55v-5.58H85Zm-10.1,4.54H60.1v-4.38c0-2.46,0-4.86,0-7.27a3.35,3.35,0,0,1,3-3.06c2.48,0,5,0,7.48,0h4.24Zm-10.23-4.56h5.67V275H64.67C64.65,276.91,64.65,278.77,64.65,280.67Zm0-7Zm50.54,11.54h-14.7V270.52h14.7Zm-10.14-4.56h5.58v-5.57h-5.58Zm-50.35,4.56H40V270.53h14.7ZM44.6,280.65h5.58v-5.57H44.6Zm50.47-15.47H80.45V250.42H95.07ZM85,260.62h5.5V255H85Zm-30.28,4.54H40v-14.7H54.73ZM44.58,260.6h5.59V255H44.58Zm30.25,4.53H60.22V250.37H74.83Zm-10-4.56h5.49v-5.65H64.78Zm50.47,4.55H100.52V250.44h14.73Zm-10.17-4.56h5.61V255h-5.61ZM74.85,245H60.21V230.27H74.85Zm-10.08-4.56h5.52v-5.63H64.77ZM115.25,245H100.54V230.29h14.71Zm-10.15-4.56h5.59v-5.59H105.1Zm-10,4.55H80.4V230.28H95.06ZM85,240.44H90.5v-5.6H85ZM54.74,245H40V230.25H54.74Zm-10.16-4.56h5.6v-5.62h-5.6Zm10.16-15.66H40V210h14.7ZM44.6,220.21h5.58v-5.65H44.6Zm50.51,4.54H80.44V210H95.11ZM85,220.19h5.56v-5.62H85Zm-10.15,4.55H60.17V210H74.84Zm-10.11-4.55h5.55v-5.61H64.73Zm50.49,4.55h-14.7V210h14.7Zm-10.14-4.56h5.58v-5.66h-5.58Zm10.16-15.49H100.57V190h14.67Zm-10.11-4.56h5.55v-5.62h-5.55Zm-30.3,4.5H60.16v-14.7H74.83Zm-10.11-4.55h5.55v-5.59H64.72Zm-9.94,4.55H40.08V189.92h14.7Zm-10.15-4.55h5.59v-5.6H44.63Zm50.47,4.53H80.4V189.94H95.1ZM85,200.06h5.58v-5.57H85Zm-10.1-15.65H60.17V169.72H74.86Zm-10.13-4.56H70.3v-5.57H64.73Zm30.35,4.56H80.42v-14.7H95.08ZM85,179.85h5.54v-5.58H85Zm30.24,4.54H100.51V169.66h14.71Zm-10.15-4.55h5.59v-5.62h-5.59Zm-50.31,4.54H40V169.69H54.76ZM44.6,179.82h5.61v-5.57H44.6Z"/><path class="cls-2" d="M54.73,265.16H40v-14.7H54.73ZM44.58,260.6h5.59V255H44.58Z"/><path class="cls-3" d="M115.25,265.12H100.52V250.44h14.73Zm-10.17-4.56h5.61V255h-5.61Z"/><path class="cls-4" d="M115.28,345.77H100.52V331h14.76Zm-10.2-4.56h5.64V335.6h-5.64Z"/><path class="cls-5" d="M54.76,345.75H40V331H54.76ZM44.6,341.2h5.61v-5.61H44.6Z"/><path class="cls-6" d="M54.78,204.63H40.08V189.92h14.7Zm-10.15-4.55h5.59v-5.6H44.63Z"/><path class="cls-7" d="M74.83,204.63H60.16v-14.7H74.83Zm-10.11-4.55h5.55v-5.59H64.72Z"/><path class="cls-8" d="M115.24,204.69H100.57V190h14.67Zm-10.11-4.56h5.55v-5.62h-5.55Z"/><path class="cls-9" d="M54.74,224.77H40V210h14.7ZM44.6,220.21h5.58v-5.65H44.6Z"/><path class="cls-10" d="M74.84,224.74H60.17V210H74.84Zm-10.11-4.55h5.55v-5.61H64.73Z"/><path class="cls-11" d="M95.11,224.75H80.44V210H95.11ZM85,220.19h5.56v-5.62H85Z"/><path class="cls-12" d="M115.22,224.74h-14.7V210h14.7Zm-10.14-4.56h5.58v-5.66h-5.58Z"/><path class="cls-13" d="M115.26,325.59H100.54V310.88h14.72ZM105.1,321h5.6v-5.59h-5.6Z"/><path class="cls-14" d="M95.05,325.67H80.46V310.92H95.05Zm-10-4.56H90.5v-5.63H85Z"/><path class="cls-15" d="M74.84,325.63H60.21V310.87H74.84Zm-10.07-4.56h5.51v-5.65H64.77Z"/><path class="cls-16" d="M54.74,325.61H40V310.89h14.7ZM44.6,321.05h5.58v-5.61H44.6Z"/><path class="cls-17" d="M115.24,305.44H100.48V290.83h14.76ZM105,300.88h5.64v-5.49H105Z"/><path class="cls-18" d="M54.77,305.47H40V290.81H54.77Zm-10.19-4.56h5.63v-5.55H44.58Z"/><path class="cls-19" d="M74.83,265.13H60.22V250.37H74.83Zm-10-4.56h5.49v-5.65H64.78Z"/><path class="cls-20" d="M95.07,265.18H80.45V250.42H95.07ZM85,260.62h5.5V255H85Z"/><path class="cls-21" d="M54.74,285.21H40V270.53h14.7ZM44.6,280.65h5.58v-5.57H44.6Z"/><path class="cls-21" d="M115.23,285.21h-14.7V270.52h14.7Zm-10.14-4.56h5.58v-5.57h-5.58Z"/><path class="cls-22" d="M95.09,285.25H80.42v-14.7H95.09ZM85,280.69h5.55v-5.58H85Z"/><path class="cls-23" d="M74.88,285.23H60.1v-4.38c0-2.46,0-4.86,0-7.27a3.35,3.35,0,0,1,3-3.06c2.48,0,5,0,7.48,0h4.24Zm-10.23-4.56h5.67V275c-1.9,0-3.78,0-5.65,0C64.65,276.91,64.65,278.77,64.65,280.67Zm0-7Z"/><path class="cls-24" d="M68.71,305.56c-1.86,0-3.71,0-5.56,0a3.35,3.35,0,0,1-3-3.07c0-2.4,0-4.79,0-7.26v-4.43H74.84v14.8H68.71Zm-4-4.57c1.87,0,3.73,0,5.61,0v-5.69H64.65C64.65,297.24,64.65,299.12,64.67,301Z"/><path class="cls-25" d="M86.83,305.57H80.4V290.79H95.17V295c0,2.56,0,5.11,0,7.66A3.31,3.31,0,0,1,92,305.54C90.25,305.56,88.55,305.57,86.83,305.57ZM85,301H90.6c0-1.88,0-3.76,0-5.65H85Z"/><path class="cls-26" d="M95.1,204.61H80.4V189.94H95.1ZM85,200.06h5.58v-5.57H85Z"/><path class="cls-27" d="M68.87,345.87c-2,0-3.9,0-5.84-.05a3.34,3.34,0,0,1-2.9-3.17c0-2.36,0-4.7,0-7.14v-4.46H74.87v14.81h-6Zm-4.2-4.58c1.87,0,3.75,0,5.64,0V335.6H64.65C64.65,337.54,64.65,339.42,64.67,341.29Z"/><path class="cls-28" d="M95.18,345.78H80.44V331h4.19c2.49,0,5,0,7.46.05a3.32,3.32,0,0,1,3,3c0,2.46,0,4.92,0,7.43ZM85,341.22h5.63c0-1.92,0-3.8,0-5.69-1.87,0-3.74,0-5.61,0Zm7-5.67h0Z"/><path class="cls-29" d="M54.74,245H40V230.25H54.74Zm-10.16-4.56h5.6v-5.62h-5.6Z"/><path class="cls-30" d="M74.85,245H60.21V230.27H74.85Zm-10.08-4.56h5.52v-5.63H64.77Z"/><path class="cls-30" d="M115.25,245H100.54V230.29h14.71Zm-10.15-4.56h5.59v-5.59H105.1Z"/><path class="cls-31" d="M95.06,245H80.4V230.28H95.06ZM85,240.44H90.5v-5.6H85Z"/><path class="cls-32" d="M74.86,184.41H60.17V169.72H74.86Zm-10.13-4.56H70.3v-5.57H64.73Z"/><path class="cls-33" d="M54.76,184.38H40V169.69H54.76ZM44.6,179.82h5.61v-5.57H44.6Z"/><path class="cls-34" d="M115.22,184.39H100.51V169.66h14.71Zm-10.15-4.55h5.59v-5.62h-5.59Z"/><path class="cls-35" d="M95.08,184.41H80.42v-14.7H95.08ZM85,179.85h5.54v-5.58H85Z"/></g><rect class="cls-36" x="23.23" y="359.45" width="1594.05" height="6.06"/><g id="QT2uCI.tif"><path class="cls-37" d="M785.33,364.21c-1.12,1.17-2.58.94-4,.94H562.67c-5.3,0-10.59,0-15.89,0-1.54,0-3-.25-3-2.16s1.41-2.16,3-2.15h11.87c5.09,0,5.09,0,5.22-5.11,0-2.34.63-2.92,3-2.93,3.35,0,6.71,0,10.06,0,3,0,3,0,3-2.92V199c0-.4,0-.81,0-1.21.1-1.22-.45-1.67-1.65-1.65-2.55.05-5.1,0-7.65,0-2.11,0-2.75-.67-2.76-2.8,0-7.65,0-15.29,0-22.94,0-1.84.85-2.71,2.69-2.7,2.41,0,4.83-.05,7.24,0,1.45,0,2.22-.24,2.19-2s-.83-1.82-2.14-1.81c-6.3,0-12.61,0-18.91,0-2.86,0-2.86,0-2.86,2.85V293.54c0,.41,0,.81,0,1.21-.13,1.34.5,1.75,1.78,1.73,3.75-.05,7.51,0,11.26,0,2.42,0,3,.6,3.05,2.94q0,19.3,0,38.62c0,2.36-.62,3-3,3-10.19,0-20.39,0-30.58,0a3.77,3.77,0,0,1-2.76-.95V297.41a3.89,3.89,0,0,1,3-1c3.55,0,7.11-.08,10.66.05,1.89.08,2.37-.57,2.37-2.4q-.08-40,0-80.05V166.59c0-2.63,0-2.63-2.66-2.64-2.22,0-4.43,0-6.64,0-2.49-.05-3.36-1.43-2.29-3.73s2.33-4.68,3.49-7a2.41,2.41,0,0,1,2.56-1.57c5.62.83,10.45-1.43,15.35-3.69,7.9-3.65,15.88-7.15,23.88-10.6,2.08-.9,3.74-2,4.49-4.21a7.13,7.13,0,0,1,1-1.5h2.41a8.51,8.51,0,0,1,1,1.5,4.59,4.59,0,0,0,3.74,3.1c19.72,3.86,39.41,7.91,59.14,11.74,7.15,1.38,14.17,3.56,21.54,3.67a2.12,2.12,0,0,1,1.46.6c2.67,2.65,5.33,5.29,8,8a2.14,2.14,0,0,1,.47,2.42,2.06,2.06,0,0,1-2.07,1.31c-1.28,0-2.56.09-3.83,0-1.48-.1-2,.45-2,2q.07,12.77,0,25.55a3.69,3.69,0,0,0,1.25,2.81c2.73,2.67,5.45,5.36,8.1,8.11a4.53,4.53,0,0,0,3.69,1.59c2.5-.09,3.06.56,3.07,3.07,0,5,.06,10.06,0,15.09,0,1.51.52,2,2,2s1.82-.62,1.8-1.95c-.06-3.55,0-7.1,0-10.66,0-3.2.34-3.52,3.62-3.52h61.16c3.6,0,3.91.3,3.91,3.88v82.69q0,32,0,64c0,1.82.47,2.48,2.36,2.41,3.55-.14,7.11,0,10.66-.05a3.86,3.86,0,0,1,3,1ZM660.44,243.82c0-3.4.29-3.69,3.66-3.69,8.78,0,17.56,0,26.35,0,1.62,0,2.3-.42,2.22-2.14-.13-2.55-.12-5.1,0-7.64.07-1.61-.52-2.08-2.08-2.07-8.79.06-17.57,0-26.36,0-3.42,0-3.78-.36-3.78-3.82,0-5.84,0-11.67,0-17.5,0-2.52.57-3.16,3.08-3.07a4.48,4.48,0,0,0,3.68-1.6c2.7-2.8,5.46-5.53,8.24-8.25a3.41,3.41,0,0,0,1.1-2.67q0-12.78,0-25.55c0-1.51-.52-1.95-2-1.95q-34.1,0-68.19,0c-1.43,0-2,.37-2,1.92s.71,1.89,2.09,1.86c3.35-.06,6.7,0,10.06,0a3.31,3.31,0,0,1,3.25,1.86q3.88,6.81,7.92,13.55a8,8,0,0,1,.88,4.45c0,1.94,0,3.89,0,5.83,0,2.11-.67,2.75-2.8,2.76-6.31,0-12.61.09-18.91,0-2,0-2.46.63-2.46,2.52q.07,75.84,0,151.68c0,2.12.68,2.62,2.65,2.54,3.48-.14,7-.06,10.46,0,2.4,0,3,.6,3,2.95.12,5.09.12,5.09,5.24,5.09,10.8,0,21.6,0,32.39,0,1.89,0,2.37-.58,2.37-2.41-.06-19.24,0-38.49,0-57.73Zm104.63-28.57c0-3,0-3-3.1-3H707.66c-2.66,0-2.67,0-2.67,2.63s0,5,0,7.44c0,1.33.5,1.83,1.79,1.73a16.86,16.86,0,0,1,2,0,2.1,2.1,0,0,1,2.23,2.31q0,4.81,0,9.65a2.12,2.12,0,0,1-2.38,2.36c-3.61-.06-7.24.33-10.83-.23-.69-.1-.85.07-.85.65,0,.81,0,1.61,0,2.42,0,2.81-.43,3.22-3.31,3.22-8.85,0-17.7.06-26.55,0-1.89,0-2.37.59-2.37,2.41q.07,55.82,0,111.63c0,2,.62,2.46,2.52,2.46q47.67-.09,95.33,0c2.11,0,2.55-.67,2.55-2.65-.07-23.93,0-47.87,0-71.8ZM540,334.77c0,1.5.5,2,2,2q12-.08,23.94,0c1.45,0,2-.4,2-1.93q-.07-16.1,0-32.19c0-1.41-.49-1.87-1.88-1.86q-12.07.08-24.14,0c-1.56,0-1.92.62-1.91,2,.06,5.36,0,10.73,0,16.09S540.05,329.47,540,334.77Zm82-142.9c1.76,0,2.28-.5,2.31-2.27a11,11,0,0,0-1.73-6.44c-2-3.16-3.85-6.44-5.69-9.71a2.62,2.62,0,0,0-2.58-1.47q-20.1,0-40.2,0c-1.56,0-1.92.61-1.91,2,.06,5.22.08,10.45,0,15.68,0,1.66.5,2.2,2.18,2.18,8-.07,15.94,0,23.92,0S614.07,191.79,622,191.87Zm52.09-36.05q-62.16.19-124.32,0a3.42,3.42,0,0,0-3.69,2.56c-.34.9-.11,1.26.82,1.23.47,0,.94,0,1.41,0H681.11A7.58,7.58,0,0,0,674.06,155.82Zm16.56,68.23c1.42,0,2.07-.34,2-1.9-.08-4-.07-8.05,0-12.07,0-1.39-.44-1.89-1.85-1.88q-12.07.06-24.14,0c-1.54,0-2,.57-1.94,2q.12,5.94,0,11.87c0,1.48.46,2,2,2,4-.08,8.05,0,12.07,0S686.67,224,690.62,224.05Zm-79-80.63-11.22-2.25c-.52-.1-1.14-.42-1.52,0s.13,1,.35,1.45c1.18,2.41,2.46,4.76,3.56,7.2a2.76,2.76,0,0,0,3,1.78c15.27,0,30.54,0,45.81,0v-.19ZM600,320.59l-.54-.43c-1.36,1.53-2.66,3.11-4.09,4.57-2.94,3-5.94,6-8.93,8.95-.58.59-1.19,1.12-.32,2,4.55,4.5,9.07,9,13.88,13.82Zm-15.62,8.83,2.47-2.45q5.53-5.54,11.08-11.06c.67-.67,1.19-1.22.26-2.14-4.51-4.46-9-9-13.81-13.8Zm15.63-49c-.61-.23-.83.32-1.12.61-4.13,4.1-8.23,8.23-12.36,12.33-.74.73-1.23,1.31-.23,2.29,4.39,4.31,8.72,8.68,13.08,13a2.41,2.41,0,0,0,.63.28Zm-13.92-67.08c-.64.63-.46,1.14.1,1.69,4.5,4.48,9,9,13.74,13.71V199.54C595.15,204.27,590.61,208.8,586.06,213.32Zm-1.69,35.15.48.37c1.24-1.36,2.43-2.77,3.72-4.08,3.09-3.15,6.23-6.25,9.36-9.37.58-.59,1.2-1.11.33-2-4.54-4.51-9.07-9-13.89-13.86Zm0,40.19c.55.24.75-.23,1-.48l12.5-12.48c.63-.63,1.3-1.18.33-2.13-4.5-4.46-9-9-13.83-13.82ZM600,240.12l-.45-.36c-1.15,1.27-2.26,2.56-3.46,3.78-3.19,3.24-6.42,6.44-9.64,9.66-.58.58-1.21,1.11-.33,2,4.55,4.51,9.07,9,13.88,13.83Zm-29.66,117c-1.45,0-2.22.24-2.19,2s.82,1.82,2.14,1.81q21.88,0,43.78,0c1.45,0,2.22-.24,2.19-2s-.82-1.81-2.14-1.81c-7.29,0-14.59,0-21.89,0S577.61,357.13,570.31,357.09Zm26.61-205.48c1.2,0,1.63-.29,1-1.51-1.71-3.34-3.37-6.7-5-10.06-.53-1-1-.94-1.44,0q-2.51,5-5,10.07c-.5,1-.39,1.49.86,1.46,1.67,0,3.35,0,5,0S595.38,151.56,596.92,151.61ZM584.3,340.82c0,3.57,0,7.28,0,11,0,.65.44,1,1.06,1,3.66,0,7.32,0,10.82,0Zm11.86-144.64c-3.47,0-7.18,0-10.9,0a.94.94,0,0,0-1,1c0,3.67,0,7.33,0,10.82Zm-16.55-44.59a1.49,1.49,0,0,0,1.48-.82l4.29-8.54-20.2,9,0,.39Zm18.83,16.12c1.4,0,1.68-.64,1.66-1.85s-.11-1.94-1.58-1.92q-6.3.08-12.61,0c-1.4,0-1.65.64-1.67,1.84s.32,2,1.79,1.93c2.07-.08,4.14,0,6.21,0S596.38,167.64,598.44,167.71Zm86.9,36.08-6-5.95a.87.87,0,0,0-1.39,0l-6,5.9Zm18.56,30.3c2.82,0,2.82,0,2.82-3,0-2.73,0-2.73-3.14-2.72-2.62,0-2.62,0-2.61,3C701,234.09,701,234.09,703.9,234.09Z"/><path class="cls-38" d="M731.14,235.89a2.21,2.21,0,0,1-2.47,2.5q-4.71,0-9.44,0a2.21,2.21,0,0,1-2.44-2.52c0-3.14,0-6.29,0-9.43a2.13,2.13,0,0,1,2.35-2.39c3.21,0,6.43,0,9.64,0a2.14,2.14,0,0,1,2.34,2.41c0,1.53,0,3.07,0,4.61Zm-7.22-1.8c2.92,0,2.92,0,2.92-3,0-2.77,0-2.77-2.94-2.77s-2.81,0-2.81,2.89S721.09,234.09,723.92,234.09Z"/><path class="cls-39" d="M748.65,248.18a2.27,2.27,0,0,1,2.61,2.56V260a2.27,2.27,0,0,1-2.61,2.56h-9.23a2.2,2.2,0,0,1-2.51-2.45c0-3.15,0-6.29,0-9.44a2.21,2.21,0,0,1,2.5-2.46h9.24Zm-7.44,7.13c0,2.93,0,2.93,3,2.93,2.77,0,2.77,0,2.77-2.93s0-2.83-2.88-2.83S741.21,252.48,741.21,255.31Z"/><path class="cls-40" d="M716.79,250.72a2.2,2.2,0,0,1,2.42-2.53h9.44a2.2,2.2,0,0,1,2.48,2.47c0,3.15,0,6.29,0,9.44a2.13,2.13,0,0,1-2.32,2.42c-3.21,0-6.43,0-9.64,0a2.13,2.13,0,0,1-2.37-2.36c0-1.54,0-3.08,0-4.62Zm7.3,7.52c2.75,0,2.75,0,2.75-2.91s0-2.85-3-2.85c-2.76,0-2.76,0-2.75,2.91S721.09,258.24,724.09,258.24Z"/><path class="cls-41" d="M696.68,250.55a2.14,2.14,0,0,1,2.38-2.36c3.21,0,6.42,0,9.64,0a2.06,2.06,0,0,1,2.29,2.23q.06,4.9,0,9.83a2.07,2.07,0,0,1-2.27,2.26c-3.22,0-6.43,0-9.64,0a2.21,2.21,0,0,1-2.43-2.54c0-1.6,0-3.21,0-4.82S696.65,252.09,696.68,250.55Zm7.27,7.69c2.77,0,2.77,0,2.77-3.14,0-2.62,0-2.62-3.09-2.62-2.67,0-2.67,0-2.66,3C701,258.24,701,258.24,704,258.24Z"/><path class="cls-42" d="M676.54,250.74a2.27,2.27,0,0,1,2.61-2.56h9.24a2.21,2.21,0,0,1,2.5,2.46c0,3.15,0,6.29,0,9.44a2.2,2.2,0,0,1-2.5,2.45h-9.24a2.27,2.27,0,0,1-2.61-2.56c0-1.54,0-3.08,0-4.62S676.55,252.28,676.54,250.74Zm4.3,4.85c0,2.65,0,2.65,3,2.65,2.74,0,2.74,0,2.74-3.12,0-2.64,0-2.64-3-2.64C680.84,252.49,680.84,252.49,680.84,255.59Z"/><path class="cls-43" d="M688.29,296.47A2.27,2.27,0,0,1,690.9,299q0,4.62,0,9.24c0,1.75-.89,2.56-2.61,2.56h-9.24a2.2,2.2,0,0,1-2.5-2.46c0-3.14,0-6.29,0-9.43a2.22,2.22,0,0,1,2.51-2.46h9.23Zm-1.69,7.14c0-2.84,0-2.84-3.07-2.84-2.69,0-2.69,0-2.69,3,0,2.74,0,2.74,3,2.73C686.6,306.52,686.6,306.52,686.6,303.61Z"/><path class="cls-44" d="M736.91,226.58a2.2,2.2,0,0,1,2.42-2.53c3.14,0,6.29,0,9.43,0a2.2,2.2,0,0,1,2.49,2.47c0,3.15,0,6.29,0,9.44a2.13,2.13,0,0,1-2.31,2.42q-4.83,0-9.64,0a2.14,2.14,0,0,1-2.38-2.36c0-1.54,0-3.08,0-4.62Zm7.22,1.76c-2.93,0-2.93,0-2.92,3,0,2.77,0,2.77,2.92,2.77s2.83,0,2.83-2.88S747,228.34,744.13,228.34Z"/><path class="cls-45" d="M748.77,272.33a2.22,2.22,0,0,1,2.49,2.48c0,3.14,0,6.29,0,9.43a2.13,2.13,0,0,1-2.32,2.42c-3.21,0-6.43,0-9.64,0a2.14,2.14,0,0,1-2.37-2.37c0-3.21,0-6.42,0-9.64a2.15,2.15,0,0,1,2.41-2.33h9.44Zm-4.65,10.05c2.84,0,2.84,0,2.84-3.07,0-2.69,0-2.69-3-2.68-2.74,0-2.74,0-2.73,3C741.21,282.38,741.21,282.38,744.12,282.38Z"/><path class="cls-46" d="M716.78,274.88c0-1.75.89-2.56,2.62-2.56h9.23a2.2,2.2,0,0,1,2.5,2.46c0,3.14,0,6.29,0,9.43a2.2,2.2,0,0,1-2.5,2.46h-9.24a2.27,2.27,0,0,1-2.61-2.56c0-1.54,0-3.08,0-4.62S716.79,276.42,716.78,274.88Zm7,7.5c3.06,0,3.06,0,3.06-2.79,0-3,0-3-2.89-3s-2.86,0-2.86,2.79C721.08,282.38,721.08,282.38,723.78,282.38Z"/><path class="cls-47" d="M699.23,286.68c-1.75,0-2.57-.87-2.57-2.6,0-3.08,0-6.16,0-9.24a2.21,2.21,0,0,1,2.45-2.51h9.43a2.22,2.22,0,0,1,2.47,2.5c0,3.08,0,6.16,0,9.24,0,1.72-.8,2.62-2.55,2.61h-9.24Zm4.43-4.3c3.06,0,3.06,0,3.06-2.79,0-3,0-3-2.89-3s-2.86,0-2.86,2.79C701,282.38,701,282.38,703.66,282.38Z"/><path class="cls-48" d="M676.54,279.69c0-1.53,0-3.07,0-4.61,0-1.81.75-2.77,2.62-2.76,3.08,0,6.16,0,9.24,0a2.2,2.2,0,0,1,2.49,2.46q0,4.72,0,9.44a2.2,2.2,0,0,1-2.51,2.45c-3.15,0-6.29,0-9.44,0a2.14,2.14,0,0,1-2.38-2.36c0-1.54,0-3.08,0-4.62Zm7.27,2.69c2.79,0,2.79,0,2.79-2.86s0-2.89-3-2.89c-2.79,0-2.79,0-2.8,2.86S680.84,282.38,683.81,282.38Z"/><path class="cls-49" d="M711,303.64c0,1.6,0,3.21,0,4.82a2.14,2.14,0,0,1-2.39,2.35c-3.15,0-6.29,0-9.44,0a2.2,2.2,0,0,1-2.51-2.44q0-4.72,0-9.44a2.21,2.21,0,0,1,2.49-2.47h9.24c1.87,0,2.66.94,2.63,2.75,0,1.47,0,2.95,0,4.42ZM704,306.52c2.77,0,2.77,0,2.77-2.88s0-2.87-3-2.87c-2.76,0-2.76,0-2.76,2.89S701,306.53,704,306.52Z"/><path class="cls-50" d="M728.59,296.47c1.75,0,2.56.89,2.55,2.62,0,3.07,0,6.15,0,9.23a2.22,2.22,0,0,1-2.46,2.5h-9.44a2.21,2.21,0,0,1-2.45-2.51c0-3.08,0-6.16,0-9.24,0-1.73.82-2.61,2.57-2.6h9.24Zm-1.75,7.1c0-2.8,0-2.8-3.1-2.8-2.66,0-2.66,0-2.65,3.05,0,2.71,0,2.71,3,2.7C726.84,306.52,726.84,306.52,726.84,303.57Z"/><path class="cls-51" d="M744.07,310.83c-1.47,0-2.94,0-4.41,0-1.81,0-2.77-.76-2.76-2.62,0-3.08,0-6.16,0-9.24a2.2,2.2,0,0,1,2.46-2.49h9.44a2.2,2.2,0,0,1,2.45,2.51c0,3.14,0,6.29,0,9.44a2.14,2.14,0,0,1-2.36,2.38c-1.6,0-3.21,0-4.82,0Zm0-4.31c2.89,0,2.89,0,2.89-3,0-2.74,0-2.74-3-2.74-2.79,0-2.79,0-2.78,2.92S741.21,306.52,744.07,306.52Z"/></g><path class="cls-52" d="M1322.35,347.9a7.23,7.23,0,0,0,0,7.25,6.77,6.77,0,0,0,5.65,3.53c.36,0,.73,0,1.11,0h106.51a7.1,7.1,0,0,0,6.1-2.81,6.88,6.88,0,0,0,.67-7.66,6.71,6.71,0,0,0-6.27-3.89q-7.85,0-15.7,0h-6.25a10.73,10.73,0,0,0,3.5-7,10.31,10.31,0,0,0-2.64-7.83,10.59,10.59,0,0,0-7.48-3.39,10.43,10.43,0,0,0-7.18,18.14H1366.3a10.45,10.45,0,0,0-.39-15.88,10.41,10.41,0,0,0-16.91,8.94,10.69,10.69,0,0,0,3.48,7h-23.76A7.25,7.25,0,0,0,1322.35,347.9Zm42-16.38a7.06,7.06,0,0,1,2.13,4.94,7.08,7.08,0,0,1-12,5,7.07,7.07,0,0,1,4.92-12.05h.05A7,7,0,0,1,1364.32,331.52Zm36,5a7,7,0,0,1,7-7.05h0a7.12,7.12,0,0,1,5,2.11,6.92,6.92,0,0,1,2.09,4.85,7.09,7.09,0,0,1-2.1,5,7,7,0,0,1-5,2.07h0A6.94,6.94,0,0,1,1400.37,336.49ZM1327,348.08a5.25,5.25,0,0,1,2.45-.42h106.75a4,4,0,0,1,3.23,1.95,3.77,3.77,0,0,1,.09,3.6,3.86,3.86,0,0,1-3.83,2.16H1329.28c-.27,0-.55,0-.82,0a3.83,3.83,0,0,1-1.51-7.28Z"/><path class="cls-53" d="M1442.21,314.07q0-3.52,0-7.05a5.92,5.92,0,0,0-6.12-6.18h-6.3c-1.17,0-2.35,0-3.52,0a1.1,1.1,0,0,1-1.11-.54l-1.46-1.89c-1.62-2.11-3.3-4.3-5.07-6.34a17,17,0,0,0-11.83-5.87c-2.75-.22-5.54-.18-8.24-.15l-3.57,0q-7.83,0-15.66,0h-3.61a19.29,19.29,0,0,0-13.33,5.14c-2.18,1.94-4.5,3.81-6.75,5.62l-3.1,2.53a1.56,1.56,0,0,1-.72.25l-4.83.94c-3.51.69-7,1.38-10.53,2a14.16,14.16,0,0,0-11.63,13.95v.33a7,7,0,0,0,1,4.52,5.54,5.54,0,0,0,4.69,2.5h0c5,0,10.08-.07,15.13-.12l2.24,0c1.28,0,1.82-.54,1.94-1.86a9.06,9.06,0,0,1,7.3-8.5,8.71,8.71,0,0,1,6.84,1.45,9.5,9.5,0,0,1,3.84,6.62c.21,1.59.79,2.12,2.4,2.11l26.65-.2c1.62,0,2.11-.45,2.36-2.1.6-3.88,2.66-6.42,6.12-7.56a8.63,8.63,0,0,1,9.47,2.45,8.92,8.92,0,0,1,2.32,5c.25,1.54.72,1.94,2.26,1.94h.06l13.84-.08C1438.63,323,1442.21,319.4,1442.21,314.07Zm-113-2.2a1.56,1.56,0,0,1,.11-.24,10.51,10.51,0,0,1,1.23-1.84.63.63,0,0,1,.55-.29.7.7,0,0,0,.25,0h2.49c.58,0,1.15,0,1.72,0a1.21,1.21,0,0,1,1.28,1.21,1.18,1.18,0,0,1-1.31,1.15h-6.32Zm6.75-5.68a12.61,12.61,0,0,1,1.38-.33l15.1-3a4.32,4.32,0,0,0,2-.79c1-.85,2.07-1.69,3.11-2.53,2.18-1.76,4.44-3.59,6.58-5.48a16.4,16.4,0,0,1,11.54-4.63c6.71.06,13.53,0,20.14,0h9.27a14.54,14.54,0,0,1,11.8,5.81c1.69,2.11,3.34,4.24,5,6.38l1.19,1.53a2.4,2.4,0,0,0,1.84,1l6.56,0h3.76a7.09,7.09,0,0,1,1.87.26,2.13,2.13,0,0,1,1,.72h-1.42a2.91,2.91,0,0,0-2.9,1.88,3.1,3.1,0,0,0,.91,3.51l1.6,1.5c.7.66,1.4,1.32,2.11,2a1,1,0,0,1,.35,1,5.12,5.12,0,0,1-5,4.59l-5.17.06c-2.55,0-5.09.06-7.64.11-.62,0-.76-.09-.91-.68a12.21,12.21,0,0,0-12.26-9.23c-5.91.23-10.18,3.76-11.72,9.68-.09.38-.17.41-.51.41-.84,0-1.67,0-2.5.06l-2.57.05h-.44a3.06,3.06,0,0,1-.8,0,4.44,4.44,0,0,0,0-.8v-11.6a2,2,0,0,0,1,.26h3.62l.87,0a1.65,1.65,0,0,0,1.77-1.57,1.6,1.6,0,0,0-.41-1.21,1.81,1.81,0,0,0-1.33-.6l-.57,0a31.74,31.74,0,0,0-4.13.08,1.93,1.93,0,0,0-1.17.52,1.59,1.59,0,0,0-1.33-.79,1.55,1.55,0,0,0-1.55,1.22,1.64,1.64,0,0,0-1.58-1c-1.56,0-3-.07-4.4,0a2.05,2.05,0,0,0-1.53.59,1.63,1.63,0,0,0-.4,1.19c0,.47.27,1.59,2,1.61h4.23a2,2,0,0,0,1.39-.61,1.63,1.63,0,0,0,.11-.17v3.32q0,4.57,0,9.13c0,.37-.06.45-.07.46a1.11,1.11,0,0,1-.44.07c-2.53,0-5.09,0-7.58,0h-1.66c-1.35,0-2.75,0-4.12.1-1,.06-1,.06-1.23-.89a12.26,12.26,0,0,0-12.12-9.48h0a12.24,12.24,0,0,0-11.92,9.87c-.12.64-.27.76-.91.73s-1.42,0-2.14,0l-3,0h-.87l-3.49,0c-1.82,0-3.63.06-5.45.07h0a2.49,2.49,0,0,1-2.72-2.72c0-.62,0-1.25,0-1.87a1.9,1.9,0,0,1,.08-.66,10.65,10.65,0,0,1,1.27,0h3.36q1.35,0,2.7,0a4.65,4.65,0,0,0,4.74-4.6A4.48,4.48,0,0,0,1336,306.19Zm102.32,2.28a1.54,1.54,0,0,1,.53,0,7,7,0,0,1,0,1v.3l-.1-.09c-.33-.31-.66-.62-1-1a1.76,1.76,0,0,0-.28-.25,1.22,1.22,0,0,0,.33,0Z"/><path class="cls-54" d="M1425.66,288.64a1.72,1.72,0,0,0-.42-2.9q-8.22-5.46-16.46-10.9l-3.45-2.29-10.85-7.17c-.16-.11-.21-.15-.16-.42a4.6,4.6,0,0,0-2.66-5.34c-.22-.11-.26-.17-.26-.48,0-1.29,0-2.11-.5-2.63s-1.32-.55-2.59-.55h-3.91c-3.34,0-6.68,0-10,0h0c-.62,0-.79-.13-1-.68-1-2.88-3.41-4.47-6.85-4.48h-63.75c-.53,0-1.06,0-1.59.07a1.58,1.58,0,0,0-1.56,1.72,1.63,1.63,0,0,0,1.65,1.62c.29,0,.58,0,.86,0h63.75a3.29,3.29,0,0,0-1.32.83,3.25,3.25,0,0,0-.94,2.31,3.32,3.32,0,0,0,5.71,2.3,3.27,3.27,0,0,0,1-2.34,3.32,3.32,0,0,0-.63-1.92,2.84,2.84,0,0,1,.56.95,3.29,3.29,0,0,1-2.54,4.42,7,7,0,0,1-1.35.1h-64.26a5.81,5.81,0,0,0-1.22.08,1.51,1.51,0,0,0-1.24,1.56,1.56,1.56,0,0,0,1.28,1.61,5.1,5.1,0,0,0,1,.07h64.78a6.61,6.61,0,0,0,6.71-4.5c.13-.31.21-.35.47-.35H1388a1.07,1.07,0,0,1-.32.24,4.6,4.6,0,0,0-2.66,5.17.55.55,0,0,1-.3.65q-10,6.65-20,13.33l-10.09,6.73a2,2,0,0,0-.39,3.52l1.23,1.3c.51.55,1,1.1,1.55,1.64a1.78,1.78,0,0,0,2.52.3,1.67,1.67,0,0,0,0-2.54,21.44,21.44,0,0,0-1.81-1.91c-.1-.1-.14-.16-.17-.19l.2-.14,4-2.65,19.14-12.78c1.9-1.26,3.81-2.53,5.7-3.82a.78.78,0,0,1,1-.1,4.51,4.51,0,0,0,4.51-.08c.2-.11.28-.12.56.07q11.78,7.83,23.57,15.64l1,.67c1.53,1,3.06,2,4.61,3a1.35,1.35,0,0,1,.26.2s-.08.09-.23.22c-.64.59-1.25,1.25-1.77,1.82a1.78,1.78,0,0,0-.12,2.48,1.63,1.63,0,0,0,1.18.5,1.91,1.91,0,0,0,1.39-.62C1423.45,291.07,1424.57,289.89,1425.66,288.64Zm-35-23.72a1.39,1.39,0,0,1-1,.42h0a1.5,1.5,0,0,1-1.33-1.38h0a1.34,1.34,0,0,1,1.36-1.41h0a1.38,1.38,0,0,1,1.37,1.32A1.49,1.49,0,0,1,1390.66,264.92Z"/><path class="cls-55" d="M1435.72,348.06a3.55,3.55,0,0,1,3.55,3.59,3.59,3.59,0,0,1-3.58,3.51h0a3.48,3.48,0,0,1-2.44-1.1,3.6,3.6,0,0,1-1-2.5A3.55,3.55,0,0,1,1435.72,348.06Z"/><path class="cls-56" d="M1329.19,348.07a3.5,3.5,0,0,1,3.46,3.54,3.57,3.57,0,0,1-3.55,3.56h0a3.7,3.7,0,0,1-3.52-3.55,3.45,3.45,0,0,1,1.05-2.48A3.65,3.65,0,0,1,1329.19,348.07Z"/><path class="cls-57" d="M1404,333.09a4.75,4.75,0,0,0-1.41,3.4,4.8,4.8,0,0,0,4.76,4.8h0a4.75,4.75,0,0,0,3.38-1.37,4.84,4.84,0,0,0-3.31-8.22h0A4.77,4.77,0,0,0,1404,333.09Zm3.38,4.76h0a1.39,1.39,0,0,1-1.42-1.36,1.34,1.34,0,0,1,.4-.95,1.5,1.5,0,0,1,1.06-.44h0a1.43,1.43,0,0,1,1.36,1.37A1.38,1.38,0,0,1,1407.38,337.85Z"/><path class="cls-58" d="M1364.13,336.42a4.78,4.78,0,0,0-4.75-4.74h-.06a4.81,4.81,0,0,0-3.28,8.24,4.73,4.73,0,0,0,3.36,1.37h.07A4.78,4.78,0,0,0,1364.13,336.42Zm-6.18.07a1.33,1.33,0,0,1,.4-.95,1.47,1.47,0,0,1,1-.45,1.44,1.44,0,0,1,1.43,1.4,1.41,1.41,0,0,1-.45,1,1.23,1.23,0,0,1-.95.44A1.49,1.49,0,0,1,1358,336.49Z"/><path class="cls-59" d="M1388.06,291.83c0,3.39,0,6.75.08,10.75,0,.76.34,1.68,1.86,1.7h29a2,2,0,0,0,2-.93,2.08,2.08,0,0,0-.49-2.27l-1.61-2-1.9-2.35c-.55-.7-1.11-1.4-1.68-2.08a12.67,12.67,0,0,0-9.86-4.84c-3.83-.05-7.73,0-11.49,0h-3.9C1388.65,289.81,1388.07,290.38,1388.06,291.83Zm3.8,1.29h5.24c2.8,0,5.61,0,8.41,0a9.35,9.35,0,0,1,6.68,3,29.59,29.59,0,0,1,2.27,2.73c.51.66,1,1.32,1.57,1.95l0,0h-18.48c-1.87,0-3.74,0-5.61,0-.35,0-.45-.07-.46-.08s-.08-.09-.07-.44c0-2.05,0-4.21,0-6.8,0-.32,0-.38,0-.38S1391.54,293.09,1391.86,293.12Z"/><path class="cls-60" d="M1356.35,301.46a1.84,1.84,0,0,0-.68,2.06,1.73,1.73,0,0,0,1.84,1.14h0l24.48-.22c.74,0,1.48,0,2.22-.08l.71,0c1.19-.05,1.8-.63,1.81-1.74,0-3.67,0-7.33,0-11a1.7,1.7,0,0,0-1.92-1.76c-1.32,0-2.63,0-3.92,0h-1.53c-.89,0-1.77,0-2.65,0a38.07,38.07,0,0,0-4,.13,12.09,12.09,0,0,0-7,3q-2.88,2.55-5.74,5.13Zm27-.9c0,.32,0,.39-.06.4s-.09.07-.44.07c-2.82,0-5.63.05-8.45.09l-6.15.06c-1.74,0-3.48,0-5.26,0h-1.26l1.35-1.25c1.69-1.53,3.38-3.06,5.1-4.55a8.31,8.31,0,0,1,5.41-2.1l3.08-.05c2.07,0,4.13-.05,6.19-.11h.07a.69.69,0,0,1,.37.06s.06.07.06.39C1383.34,295.82,1383.34,298.17,1383.37,300.56Z"/><g id="wyLmOZ"><path class="cls-61" d="M880.26,276.44q4.43-21.19,8.88-42.4c.29-1.39-.39-1.48-1.42-1.48-5.55,0-11.09,0-16.64,0-1.16,0-2.41.06-2.92-1.3s.4-2,1.22-2.8c6.27-6,12.5-12.05,18.79-18a4.22,4.22,0,0,0,1.48-3.41c-.08-4.24,0-8.48,0-12.72,0-2.49,0-2.49-2.51-2.49h-16.8c-.86,0-1.73-.06-2.12-1a2.17,2.17,0,0,1,.66-2.55c.22-.22.44-.45.67-.66,5.58-5.37,11.23-10.66,16.72-16.12a10.87,10.87,0,0,1,8.65-3.42c7,.24,14,.1,21,.05,2,0,4-.13,5,2.18.18.4.64.68,1,1q8.9,8.28,17.81,16.57c.84.78,1.57,1.61,1.1,2.85s-1.65,1.09-2.68,1.1c-5.34,0-10.68,0-16,0-1.31,0-1.89.33-1.87,1.76.07,5.08,0,10.15,0,15.23a3.69,3.69,0,0,0,1.29,2.9c2.59,2.36,5.16,4.75,7.73,7.13l10.82,10a2,2,0,0,1-1.34,3.71c-.52,0-1,0-1.57,0-4.92,0-9.84,0-14.76,0-1.23,0-1.66.32-1.38,1.66,3.36,16.08,6.65,32.18,10,48.26q7.5,36.12,15,72.22c.34,1.64.7,3.28,1,4.93a1.87,1.87,0,0,1-1.12,2.2,1.75,1.75,0,0,1-2.23-.65,4.22,4.22,0,0,0-2.07-1.34L906,344.71a2.47,2.47,0,0,0-2.11,0c-3.79,1.64-7.59,3.28-11.4,4.87-1,.42-1.48,1-1.22,2.14.64,2.89.42,5.83.44,8.76,0,1.16-.39,2.13-1.72,2.19s-1.93-.85-2.06-2.09c-.06-.62,0-1.25,0-1.88,0-2.39,0-2.4-2.46-2.4h-56c-.53,0-1.05,0-1.57,0-1-.05-1.4.44-1.37,1.43s0,2.09,0,3.14a1.69,1.69,0,0,1-1.77,1.8,1.59,1.59,0,0,1-1.81-1.72,51.15,51.15,0,0,1,.07-7.53c.68-4.92,1.46-9.83,2.22-14.74q4.11-26.83,8.27-53.66c.22-1.4-.14-1.88-1.58-1.86-4.24.06-8.48,0-12.72,0-2.09,0-2.1,0-2.1,2.08v36.27c0,2.93-.42,3.36-3.35,3.37-9.42,0-18.84,0-28.26,0-1.61,0-2.05.51-2,2.07.07,8.85,0,17.69,0,26.54,0,2.14,0,4.29,0,6.43a1.78,1.78,0,0,1-1.78,2,1.85,1.85,0,0,1-2-1.82,5.16,5.16,0,0,1,0-.79q0-17.73,0-35.48c0-2.17.64-2.74,2.87-2.75,2.82,0,5.65-.05,8.47,0,1.32,0,1.92-.33,1.88-1.76-.08-2.88-.05-5.76,0-8.63a1.58,1.58,0,0,0-1.41-1.85,8,8,0,0,1-6.51-8.28c0-10.05,0-20.1,0-30.15a7.61,7.61,0,0,1,2.47-5.9,3.69,3.69,0,0,0,1.33-3.31,10.7,10.7,0,0,1,0-2c.15-1.4-.24-2.16-1.85-2.09-1,.05-1.61-.67-1.63-1.72a1.67,1.67,0,0,1,1.49-1.89,10,10,0,0,1,1.55-.15q6.76,0,13.51,0a5.18,5.18,0,0,1,1.24.14,1.76,1.76,0,0,1,1.48,1.93,1.58,1.58,0,0,1-1.7,1.69c-2-.14-2.25.89-2.1,2.48.08.88,0,1.78,0,2.67a1.58,1.58,0,0,0,.54,1.41c2.69,1.93,3.53,4.68,3.51,7.82a1.38,1.38,0,0,0,.91,1.47c3.8,1.5,5.09,4.49,5.08,8.35,0,12.4,0,24.81,0,37.21,0,.52,0,1,0,1.57,0,.73.43,1,1.11,1,1.49.09,1.37-.93,1.37-1.89V282.89c0-3,.55-3.54,3.59-3.54q7.84,0,15.7,0c1,0,1.81-.09,2-1.4.9-6,1.81-12,1.62-18.09-.2-6.43,0-12.88,0-19.31,0-2.5.51-3,3.06-3h36.12c2.76,0,3.26.5,3.26,3.32q0,12.63,0,25.28c0,3.66,1,7.19,1.62,10.81A3.33,3.33,0,0,0,880.26,276.44Zm5.2,76.05c1.57,0,2-.41,1.74-1.94-.93-5.25-1.71-10.53-2.49-15.8-1-7-2.13-14.07-3.17-21.1-1.37-9.26-2.83-18.51-4.24-27.77-.72-4.7-1.47-9.4-2.09-14.12-.21-1.61-.79-2.17-2.48-2.16q-15.47.12-30.93,0c-1.67,0-2.4.44-2.65,2.18-2.13,14.33-4.34,28.65-6.53,43q-2.72,17.83-5.46,35.68c-.3,1.95-.26,2,1.78,2q14.2,0,28.42,0C866.73,352.46,876.1,352.43,885.46,352.49Zm40-29.61c-6-2.59-12-5.14-18-7.79a4.52,4.52,0,0,0-4.14,0c-4.94,2.29-9.92,4.47-14.92,6.61a1.92,1.92,0,0,0-1.36,2.41q.64,3.87,1.2,7.76a1.93,1.93,0,0,0,1.26,1.64l14.44,6.15a2.57,2.57,0,0,0,2.12-.1l27.54-11.83a1.88,1.88,0,0,0,1.09-.85Zm-83.55-74.29c-1.52,0-2.14.36-2.1,2,.1,4.5.07,9,0,13.5,0,1.3.45,1.73,1.74,1.72q15.71,0,31.4,0c1.18,0,1.7-.33,1.68-1.6q-.08-7,0-14c0-1.23-.42-1.65-1.64-1.64-5.29,0-10.57,0-15.86,0C852,248.62,847,248.67,841.88,248.59ZM903.1,289.8q-9.12,4-18.22,8.06c-.72.32-1.7.44-1.64,1.6s.89,1.45,1.71,1.81c6.29,2.71,12.59,5.41,18.86,8.15a3.35,3.35,0,0,0,3,0c6.83-3.05,13.68-6,20.53-9,.36-.16.93-.21,1-.69s-.56-.56-.92-.72l-21.72-9.45a9.1,9.1,0,0,0-1-.32C904.07,289.42,903.57,289.59,903.1,289.8ZM788.61,300c0,3.54,1.78,5.29,5.31,5.32a23,23,0,0,0,2.35,0,4.66,4.66,0,0,0,4.5-4.75q.06-14.9,0-29.8c0-3-1.94-4.81-5-4.86-.88,0-1.78,0-2.66,0a4.43,4.43,0,0,0-4.51,4.63c0,5,0,10,0,15.05h0C788.61,290.39,788.6,295.2,788.61,300Zm153.58,55.91a35.7,35.7,0,0,0-1.15-6.7c-1.15-5.79-2.41-11.55-3.61-17.33-.17-.83-.22-1.55-1.44-1-8.39,3.64-16.8,7.23-25.2,10.84-.18.08-.34.22-.85.54Zm-29.52-83.55c-2.25-1-4.52-1.93-6.77-2.91a3,3,0,0,0-2.56-.12Q895.18,273,887,276.56l-.71.35c3,1.33,5.68,2.51,8.35,3.67,3,1.29,6,2.55,8.92,3.85a2.26,2.26,0,0,0,1.95.12q8.22-3.69,16.45-7.35a4.56,4.56,0,0,0,.64-.48C919.15,275.2,915.92,273.78,912.67,272.37ZM895,232.91c-1.41,0-1.93.5-2.13,1.84-.25,1.75-.7,3.48-1.1,5.21a1.73,1.73,0,0,0,1.12,2.25c3.49,1.53,7,3.1,10.45,4.68a2,2,0,0,0,1.79,0q6.2-2.85,12.41-5.67a1.2,1.2,0,0,0,.78-1.61c-.41-1.73-.74-3.48-1.07-5.22a1.6,1.6,0,0,0-1.85-1.46c-3.45.05-6.9,0-10.36,0S898.34,233,895,232.91Zm23.73,82.91c5,2.18,10.07,4.38,15.11,6.55.45.19,1,.67,1.44.26s.05-.89,0-1.33c-1.15-5.58-2.35-11.15-3.47-16.74-.28-1.39-.73-1.69-2.09-1.07-6,2.75-12.14,5.39-18.21,8.08-.31.14-.73.17-.9.75C913.27,313.48,916,314.64,918.72,315.82Zm-112-34.7a5.49,5.49,0,0,0-.64-3c-.27-.43-.54-1.06-1.13-.89s-.35.8-.36,1.24c0,2.15,0,4.29,0,6.44,0,5-.09,9.94,0,14.91s-3.1,8.73-7.07,9.16c-.8.09-1,.58-1,1.3v9.57c0,.85.41,1.23,1.26,1.23,2.56,0,5.12,0,7.69,0,1.24,0,1.29-.74,1.29-1.65q0-8.09,0-16.16V300Q806.77,290.53,806.77,281.12Zm98.32-29.25a1.58,1.58,0,0,0-1.36-.07l-14,6.46c2,.89,3.63,1.63,5.29,2.35l8.21,3.53a2.28,2.28,0,0,0,2,.14l12.89-5.74a4.46,4.46,0,0,0,.72-.55Zm17.53,40.87c2.06.9,4.13,1.77,6.18,2.69.92.41,1.11.13.92-.78q-1.47-6.88-2.88-13.8c-.18-.88-.52-1.33-1.49-.91l-15.45,6.82,0,.42Zm-26.12-7.17c-3.87-1.71-7.74-3.39-11.6-5.11-1-.45-1.54-.29-1.75.88-.4,2.21-1,4.38-1.34,6.6-.34,2,.32,3.93.61,5.87.15,1.05,1,.5,1.47.27,3.3-1.44,6.59-2.91,9.88-4.37l6-2.68Zm-54.86-44.22c-1.32,0-1.88.36-1.86,1.78s.56,1.68,1.79,1.68q15.6-.06,31.21,0c1.32,0,1.85-.36,1.85-1.77s-.71-1.69-1.94-1.68c-5.17,0-10.35,0-15.52,0S846.82,241.41,841.64,241.35Zm46.85-12.63c.79,0,1.12-.44,1.12-1.19,0-3.87,0-7.75,0-11.62,0-.67-.23-1.27-1-.54-4.55,4.32-9.07,8.65-13.61,13l.18.38ZM876.87,188c3.77,0,7.53,0,11.3.05,1.13,0,1.47-.4,1.46-1.45,0-3.66,0-7.32,0-11,0-.36.1-.79-.24-1s-.69.12-.93.35q-6.51,6.22-13,12.5c-.06.05,0,.19-.05.31C875.83,188.15,876.38,188,876.87,188ZM887.5,306.53a5.89,5.89,0,0,0-.59-.21c-.84-.25-1.79-1.25-2.41-.77s0,1.74.08,2.63c.42,3,.93,6,1.39,9,.11.74.34,1.24,1.2.87L900,312.4,900,312Zm24.85-38.41q5.39,2.34,10.8,4.64c.55.24,1.17.77,1.74.32s.1-1.08,0-1.62c-.63-3.12-1.28-6.24-1.92-9.36-.16-.77-.4-1.32-1.35-.89l-12.3,5.45C910.51,267.24,911.42,267.71,912.35,268.12Zm9-51.4c-.23-.21-.47-.51-.8-.41s-.31.61-.31.95c0,3.29,0,6.58,0,9.87,0,.86.16,1.59,1.25,1.59h12.68Zm11.15-28.62c.36,0,.82.07,1-.3s-.24-.63-.49-.87L921.56,176.3c-.26-.24-.5-.66-.89-.56-.55.16-.34.71-.35,1.08,0,3.35,0,6.69,0,10,0,1.05.48,1.32,1.47,1.27,1.77-.07,3.55,0,5.32,0h5.48Zm-33,78.71c-1.22-.57-2-1-2.88-1.34-2.69-1.16-5.38-2.31-8.07-3.48-.69-.3-1.29-.52-1.51.53-.73,3.47-1.48,6.94-2.32,10.86Zm20.8-12.35c.92.41,1-.05.84-.79-.56-2.65-1.13-5.31-1.66-8-.14-.69-.38-1.08-1.15-.72l-9.46,4.41ZM916.63,175c0-.94-.45-.77-1-.39l-6.64,5c-.62.46-.61.88,0,1.35l7.58,5.7Zm0,20.59c0-.67-.33-1.06-1-.58-2.27,1.68-4.51,3.39-6.76,5.09-.55.42-.33.77.13,1.11l7.62,5.72C916.6,202.84,916.61,199.2,916.59,195.55Zm0,20.24c0-.85-.29-1.06-1-.51q-3.25,2.44-6.54,4.86c-.6.44-.69.84,0,1.34,2.13,1.6,4.24,3.22,6.35,4.83.9.69,1.17.28,1.17-.65v-5h.07Zm-15.58-35c.55-.4.3-.82-.13-1.14l-6.73-5.11c-.68-.52-.91-.22-.9.51v11.42C896.28,184.57,898.59,182.56,901.05,180.75Zm-7.58,24.39c0,.39-.24.92.24,1.14s.76-.25,1.07-.48c2-1.46,3.9-3,5.89-4.4.9-.65.91-1.07,0-1.72-1.92-1.35-3.76-2.8-5.66-4.18-.45-.32-.88-1.06-1.41-.81s-.19,1.12-.31,1.61C893.61,199.31,893.41,202.23,893.47,205.14Zm0,20.65c0,.82.35,1.06,1.06.52,2.08-1.58,4.17-3.13,6.24-4.72.5-.37.86-.79.12-1.34-2.38-1.77-4.74-3.56-7.43-5.58C893.48,218.63,893.47,222.21,893.49,225.79Zm10.72-7.91c.38.29.81.53,1.28.18l7.07-5.36H897.94l-.09.38Zm8.4-29.47c-2.65-2-5-3.69-7.29-5.39a.82.82,0,0,0-1,.1l-7,5.29Zm-8.42-11.14a1.12,1.12,0,0,0,1.55,0c2.13-1.66,4.28-3.3,6.7-5.16h-15Zm-14.26,76.65,8.54-3.93c.81-.38.79-.74,0-1.1l-6.85-3.08c-.64-.29-1,0-1.14.6-.5,2.3-1,4.6-1.49,7C888.9,254.14,889.33,254.2,889.93,253.92Zm2.3,85c-1-.37-2.1-1.47-2.79-.92s0,1.93.17,2.94c.15,1.4.41,2.78.65,4.17.09.53.26,1.12,1,.81,2.76-1.16,5.5-2.36,8.71-3.74C897.08,341,894.68,339.89,892.23,338.93ZM912.5,229l-7.12-5.37a.65.65,0,0,0-.86,0L897.4,229Zm-14.9-36.5c1.47,1.13,2.65,2,3.79,2.91,3.49,2.79,3.49,2.8,7.07.07l3.92-3Zm14.24,16.1.17-.33c-2.22-1.65-4.43-3.32-6.67-5-.45-.32-.9.06-1.27.34-2,1.52-4.07,3.06-6.09,4.6l.09.34ZM796.09,262a1,1,0,0,0,.62-1c0-.73,0-1.47,0-2.19.13-1.34-.48-1.71-1.74-1.69-2.61,0-2.61,0-2.6,2.55C792.4,261.86,794,262.82,796.09,262Z"/><path class="cls-62" d="M850.21,208.23a27.45,27.45,0,0,0-7.25,1.22c-1.11.31-2.23.59-3.36.79-5.35.94-9-1.09-11.15-6.12a21.49,21.49,0,0,1-1.52-7.81,9.77,9.77,0,0,0-.16-1.87,1.84,1.84,0,0,0-3.6.13c-.42,5,1.18,14.41,7.27,17.9,4.08,2.34,8.3,2.18,12.61.95a25.84,25.84,0,0,1,8-1.3c3.41.1,5.55,1.87,6.87,4.83a13.26,13.26,0,0,1,1,5.67,13.42,13.42,0,0,0,.07,2.2,1.86,1.86,0,0,0,1.93,1.71c1,0,1.49-.66,1.73-1.54C864.94,216.79,858.59,208.27,850.21,208.23Z"/><path class="cls-63" d="M845.5,215.51a21.59,21.59,0,0,0-6.3,1c-2.5.72-5,1.16-7.39-.48a7.76,7.76,0,0,1-1.46-1.4c-.82-1-1.87-1.33-2.88-.44s-.78,2,0,3a9.89,9.89,0,0,0,9.93,3.66c1.64-.26,3.25-.76,4.88-1.13a11.69,11.69,0,0,1,1.55-.27c4.83-.48,7.28,1.65,7.56,6.52a19.49,19.49,0,0,0,.16,2.66,1.71,1.71,0,0,0,1.84,1.58,1.77,1.77,0,0,0,1.78-1.68c.33-3.71-.19-7.24-2.74-10.15A8.45,8.45,0,0,0,845.5,215.51Z"/><path class="cls-64" d="M867.39,316.42h-3.3c-2,0-2.08.1-1.32,1.89,1.62,3.86,3.28,7.7,4.91,11.56.42,1,.68,2.06-.39,2.83s-2.06.26-2.92-.57c-3.92-3.77-7.87-7.51-11.77-11.3-3.56-3.47-7.07-7-10.61-10.47a2.07,2.07,0,0,1-.72-2.39,2,2,0,0,1,2.18-1.16c2.93,0,5.86-.07,8.79-.12,1.6,0,1.71-.16,1-1.59q-2.76-6-5.56-12c-.46-1-.55-2,.43-2.68s2-.33,2.8.49q10.86,10.88,21.73,21.77a2.18,2.18,0,0,1,.64,2.43,2.1,2.1,0,0,1-2.17,1.24c-1.26,0-2.51,0-3.77,0Zm-9.61-.09c-1.16-2.69-.52-3.74,2.36-3.74h6.57l-10.38-10.23A21.66,21.66,0,0,0,858,306c1.75,3.7,1.25,4.55-2.81,4.55h-7.55l12.5,12.13.24-.17C859.51,320.43,858.66,318.37,857.78,316.33Z"/></g><path class="cls-65" d="M1186.59,31.06a14.73,14.73,0,0,0-7.92-10.1,14.67,14.67,0,0,0-.42-8.24,14.78,14.78,0,0,0-8-9A14.69,14.69,0,0,0,1159,3.14a15.06,15.06,0,0,0-8.47,7.08,11.12,11.12,0,0,0-9.25-.2,11.33,11.33,0,0,0-7.06,9c0,.18,0,.4,0,.36a3,3,0,0,1-.46.13,14.24,14.24,0,0,0-9.39,7.09,14.5,14.5,0,0,0,.48,15.72,14.21,14.21,0,0,0,6.42,5.44,16.59,16.59,0,0,0,6.49,1.3c4.07,0,8.15,0,12.22,0h21.15a22.82,22.82,0,0,0,4.5-.44,13.42,13.42,0,0,0,9-6.1A14.56,14.56,0,0,0,1186.59,31.06ZM1149.9,44.61q-6,0-12,0a10.94,10.94,0,0,1-7.28-2.39,10.36,10.36,0,0,1-3.8-7.09,10.25,10.25,0,0,1,3.07-8.59,10.13,10.13,0,0,1,6.55-3l.47-.05.73-.07a1,1,0,0,0,.94-1.09l0-.71a12.34,12.34,0,0,1,0-1.72,7.28,7.28,0,0,1,5.34-6.08,7,7,0,0,1,6.33,1.46l1.24,1a.89.89,0,0,0,1.57-.46l.25-.74a13.78,13.78,0,0,1,.73-1.93c2-4.1,5.19-6.17,9.63-6.3a10.18,10.18,0,0,1,7.95,3.28,10.53,10.53,0,0,1,3,7.09,12,12,0,0,1-1.08,5.26,1.14,1.14,0,0,0-.11,1,1.17,1.17,0,0,0,.83.55,12.11,12.11,0,0,1,4.33,2.14,10.25,10.25,0,0,1,3.86,9.47,10.16,10.16,0,0,1-3.11,6.34,9.05,9.05,0,0,1-5.16,2.42,18,18,0,0,1-3.08.25h-15.53v0Z"/><path class="cls-66" d="M1079,360.8l-8.6-4.8a25.92,25.92,0,0,1-5.81-3.1c-3.36-3.13-6.39-5.34-10.22-6l-2.37-.38,5.72-16.13q5-14,10-28c.6-1.7.52-2.47.35-2.81-.24-.5-1-1-2.42-1.45l-1.77-.62c-1.42-.5-3-1.07-4.6-1.48a5.06,5.06,0,0,1-4-4.45c-1.25-7.06-2.52-14.11-3.83-21.31l-.58-3.17c-.78-4.33-1.57-8.65-2.34-13-.72-4.05-.86-4.17-5-4.17h-15.63l0-5.73c0-2.64,0-5.14,0-7.63,0-2.19-.61-2.73-2.87-2.75-2.86,0-5.73,0-8.59,0h-4.88c-3.54,0-3.86.33-3.87,3.88V250H990.86c-2.73,0-3.14.35-3.62,3q-1.22,6.6-2.4,13.2l-3.38,18.66a23.78,23.78,0,0,0-.28,2.39c-.24,2.64-.45,5.13-2,7s-4.16,2.55-6.61,3.19c-.8.22-1.62.43-2.38.69-1.52.53-2.44,1.07-2.68,1.56s-.08,1.51.45,3l15.16,42.54-4.17,2.42c-1.89,1.09-3.85,2.22-5.72,3.4-1.46.91-2.88,1.92-4.43,3l-13.08,8.49,11.58-3.43.42-.13a21.73,21.73,0,0,0,8.83-5.5c3.51-3.43,8.46-3.41,12.34.05a23.07,23.07,0,0,0,9.27,5.54l4.18,0,.09,0a21.43,21.43,0,0,0,9.14-5.59,8.87,8.87,0,0,1,12.51,0,20.94,20.94,0,0,0,9.13,5.59l4.18,0,.09,0a22.86,22.86,0,0,0,9.27-5.55c3.85-3.49,8.81-3.48,12.34,0a21.23,21.23,0,0,0,8.83,5.47l2.28,1.54Zm-67.18-111V238h11.88v11.74Zm33.57,99.43h0a24.24,24.24,0,0,1-2.12,1.95c-.45.38-.84.71-1.2,1.05a9.65,9.65,0,0,1-6.65,2.76,10.34,10.34,0,0,1-6.7-2.63,37.08,37.08,0,0,0-3.68-2.65c-1-.69-2.21-1.46-3.31-2.32a5.53,5.53,0,0,1-1.87-4c0-10.67,0-21.52,0-32V287.09l43.85,14.64-11.2,31.5c-1.42,4-2.89,8.18-4.45,12.26A11.67,11.67,0,0,1,1045.35,349.18ZM1015.61,283l-.06,0c-6.11,1.91-12.21,4-18.1,5.94l-7.12,2.39c-.62.2-1.25.38-2,.59l-4.28,1.24,7.1-39.05h53.22l7.1,39.26-16.2-5.35c-1.5-.49-3-1-4.5-1.52-3.59-1.22-7.3-2.48-10.89-3.52a7.76,7.76,0,0,0-2.18-.29A6.92,6.92,0,0,0,1015.61,283Zm-43.54,18.69,43.64-14.56v16.5c0,14.06,0,26.73,0,39.4a5.09,5.09,0,0,1-3.24,5.15,24.15,24.15,0,0,0-5.23,3.8c-4,3.69-9,3.79-13.78.28-4.62-3.39-6.46-7.87-8.08-12.55-2.63-7.61-5.37-15.21-8-22.56l-4-11.22c-.17-.45-.3-.92-.46-1.46Zm73.51,47.74Z"/><path class="cls-67" d="M1618,291.34c0-2.35-.62-3-3-3h-62.45c-2.34,0-3,.65-3,3,0,1.92,0,3.84,0,5.89v3.93h-3.18l-4.56,0c-3.42,0-7.29.05-11.08-.06h-.33a3.69,3.69,0,0,0-3.79,2.52c-2.18,4.53-4.53,9.13-6.61,13.19l-.56,1.09-2,3.84,0,27,0,.15c.59,1.09,1.52,1.52,3.07,1.49.8,0,1.62,0,2.45,0s1.87,0,2.79,0c1.81-.13,5.18-.37,6.15,3.76a5.59,5.59,0,0,0,1.46,2l.46.5c1.8,2,4.27,2.79,6.76,3.4h3.19l.08-.05a1.46,1.46,0,0,1,.51-.23,11.68,11.68,0,0,0,8.71-7.62,3.36,3.36,0,0,1,2.83-1.71c2.4,0,4.93,0,8.22,0h1.38c3.08,0,6.26,0,9.39-.06,2.25,0,3.82.46,4.9,3.08,1.43,3.47,4.25,5.57,9,6.62h3.37l.07,0c.43-.2.88-.38,1.34-.56l.15-.06a11.06,11.06,0,0,0,3.25-1.69,24.36,24.36,0,0,0,4.22-5.48,3.09,3.09,0,0,1,3-1.87c3.59.07,7.06.05,10.88,0,2.39,0,3-.64,3-3Q1618,319.37,1618,291.34Zm-4.34,1.42v53.37h-3.39c-2.35,0-4.57,0-6.84-.07a3,3,0,0,1-2.26-1.88,11.7,11.7,0,0,0-10.91-7.61h-.18c-4.71,0-8.88,2.92-10.9,7.66a3.35,3.35,0,0,1-2.65,1.84c-2,.06-3.92.07-5.41.07h-17.25V292.76Zm-28.86,50.36a7.56,7.56,0,0,1,5.4-2.29,7.49,7.49,0,0,1,.21,15h-.2a7.61,7.61,0,0,1-7.53-7.39A7.26,7.26,0,0,1,1584.79,343.12ZM1542,340.83a7.4,7.4,0,0,1,7.47,7.28,7.53,7.53,0,0,1-2.15,5.47,7.34,7.34,0,0,1-5.28,2.24,7.59,7.59,0,0,1-5.31-2.24,7.41,7.41,0,0,1-2.24-5.31A7.54,7.54,0,0,1,1542,340.83Zm-1.1-35.21h8.59V336.2a3.59,3.59,0,0,1-.13.84l-.29.89-.88.07a1.65,1.65,0,0,1-.72-.08c-7.76-3-12.88-.92-16.6,6.74a2.58,2.58,0,0,1-1.95,1.43c-.86,0-1.77.05-3,.05h-4.21V324.7h15.84c2.82,0,3.32-.49,3.32-3.24s0-5.39,0-8.09Zm-17.9,14.8,1.87-3.75c1.71-3.43,3.34-6.7,5-10a2.28,2.28,0,0,1,1.72-1.2c1-.06,1.94,0,2.87,0h2v14.94Z"/><path class="cls-68" d="M781.07,185.53a35.1,35.1,0,0,0-2.77-2.68,5.14,5.14,0,0,1-1.91-4.62c.11-3.71.09-7.49.07-11.14,0-1.51,0-3,0-4.52,0-.21,0-.42,0-.55l.53.24c1,.49,2.06,1,3.1,1.43a2.23,2.23,0,0,0,1.74.12,1.7,1.7,0,0,0,.93-.93,1.66,1.66,0,0,0,0-1.31,2.27,2.27,0,0,0-1.31-1.18c-1.13-.46-2.24-1-3.32-1.54l-1.08-.52a1,1,0,0,1-.64-1.08c0-1.72,0-3.44,0-5.16,0-2,0-4,0-6a3.25,3.25,0,0,0-1.05-2.5c-1.81-1.77-3.6-3.57-5.39-5.36l-2.43-2.44a2.69,2.69,0,0,0-1.9-1c-.59,0-1.14.43-1.78,1.27a8,8,0,0,0,8.36,12.71c.41-.1.49-.06.5-.05s.07.07.07.49q0,8.85,0,17.69V177s0,.11,0,.16a.42.42,0,0,1,0,.28l-.15-.21a3.37,3.37,0,0,0-.42-.5q-23.65-23.68-47.36-47.37a8.27,8.27,0,0,0-1.34-1.16A4.33,4.33,0,0,0,719,128a4.28,4.28,0,0,0-2.43,3.9,56.74,56.74,0,0,0,1.07,12,61.3,61.3,0,0,0,9.22,22.63c.36.55.35.76-.09,1.16-1.12,1-2.21,2.16-3.14,3.13a11.82,11.82,0,0,0,0,16.56,1.09,1.09,0,0,1,.28,1.38c-2.56,6.72-4.84,12.81-7,18.61-.2.55-.44.69-1,.7-1.39,0-2.24,0-3.09,0s-1.66,0-3,0a2.17,2.17,0,0,0-2.18,1.16l0,.07v.08c0,.11,0,.22,0,.33a3.27,3.27,0,0,1,0,.63,1.13,1.13,0,0,0,.16.9,1.23,1.23,0,0,0,1,.3h0c6.16,0,11,0,16.61,0H730l.08-.06a1.82,1.82,0,0,0-1.18-3.38h-3.1c-1.61,0-3.23,0-4.84,0h-.06a1,1,0,0,1-.37,0,1.28,1.28,0,0,1,.13-.44c.77-2,1.56-4.11,2.41-6.47a.82.82,0,0,1,.94-.64c5.43,0,10.95,0,16.38,0h0a.81.81,0,0,1,.93.63c.7,1.94,1.53,4.23,2.42,6.47a1.19,1.19,0,0,1,.12.43s-.1.06-.51.05c-1.6,0-3.2,0-4.79,0-1.13,0-2.27,0-3.4,0h0a1.82,1.82,0,0,0-2,1.12,1.85,1.85,0,0,0,.79,2.26l.09.06H757.2l.09-.1a2,2,0,0,0,.63-2.31,2,2,0,0,0-2.14-1H748.4c-.54,0-.74,0-.89-.45-2.12-5.68-4.4-11.76-7.18-19.13a.75.75,0,0,1,.26-1c.93-.89,2-1.95,3.07-3.08.36-.38.54-.4,1-.09A60,60,0,0,0,755.34,190a61.2,61.2,0,0,0,9.95,3.15,1.79,1.79,0,1,0,.9-3.45l-.72-.18-.37-.09a59.18,59.18,0,0,1-44.41-49.15l-.09-.58a7,7,0,0,1-.16-1.84l.39.37,2.72,2.72,9.52,9.52.07.06a3.82,3.82,0,0,0,.84.7,1.75,1.75,0,0,0,2.25-2.6,6.06,6.06,0,0,0-.6-.64l-15-15c-.78-.78-.48-1.27-.18-1.56a1.07,1.07,0,0,1,1.55.13c.12.1.22.21.33.32l.12.12,56.84,56.85a4.78,4.78,0,0,1,.73.84.83.83,0,0,1-.17,1.18.9.9,0,0,1-1.28,0,5.93,5.93,0,0,1-.44-.43l-37.24-37.24-.2-.2a4.07,4.07,0,0,0-.72-.65,1.67,1.67,0,0,0-2.23.15,1.64,1.64,0,0,0-.26,2.23,6,6,0,0,0,.78.88l34.89,34.89.19.18.19.18-.22,0-.3-.05c-.37,0-.75-.07-1.12-.08-1.22,0-2.11.56-2.19,1.59s.63,1.74,1.81,1.91a54.09,54.09,0,0,0,7.28.52h.09a4.61,4.61,0,0,0,4.55-2.84,4.49,4.49,0,0,0-1.22-5.19ZM770.6,145.42l-.4.05a4.43,4.43,0,0,1-4.28-5.48l0-.18c0-.25.08-.34.16-.37h0s.12.09.21.19a1.07,1.07,0,0,0,.14.16c1.7,1.69,3.39,3.37,5.07,5.07a2.28,2.28,0,0,1,.29.32l-.41.12A6.86,6.86,0,0,1,770.6,145.42Zm-35.22,41.33a8.07,8.07,0,0,1-3.13.65h-.06a8.45,8.45,0,0,1-3.27-.66.61.61,0,0,1-.33-.24.52.52,0,0,1,.06-.36c.11-.27.22-.54.32-.81a10.27,10.27,0,0,1,.46-1.13,2.79,2.79,0,0,1,2.72-1.63h.05a2.8,2.8,0,0,1,2.68,1.65,10.11,10.11,0,0,1,.46,1.12c.11.28.21.55.32.82a.43.43,0,0,1,.05.35A.57.57,0,0,1,735.38,186.75ZM727,190.58c.11-.3.21-.46.32-.51a.72.72,0,0,1,.54.08,11.37,11.37,0,0,0,8.65,0q.4-.17.54-.09c.1,0,.19.19.28.44.63,1.77,1.33,3.63,2.27,6a1.57,1.57,0,0,1,.11.4.91.91,0,0,1-.4,0c-1.08,0-2.15,0-3.22,0H725.11a1,1,0,0,1-.47,0s0-.1.1-.42C725.48,194.64,726.24,192.65,727,190.58Zm11.79-6.36a2.17,2.17,0,0,1-.11-.26,6.79,6.79,0,0,0-3.73-4.41,7,7,0,0,0-2.81-.61,6.6,6.6,0,0,0-2.4.46,6.81,6.81,0,0,0-3.74,3.73c-.06.14-.11.27-.16.42a2.81,2.81,0,0,1-.24.59,6.91,6.91,0,0,1-1.54-3.39,8,8,0,0,1,2-7.24q.78-.82,1.59-1.62c.49-.48,1-1,1.44-1.46.21-.21.3-.24.33-.24s.11,0,.3.25a62.94,62.94,0,0,0,11.22,11.2c.18.13.19.19.19.19s0,.06-.16.21c-.57.55-1.31,1.27-2,2A1.68,1.68,0,0,1,738.76,184.22Z"/><path class="cls-69" d="M764.42,154.09c1.23,1,2.5,2,3.8,2.94a1.83,1.83,0,0,0,1.12.38,1.71,1.71,0,0,0,1.36-.66,1.75,1.75,0,0,0-.27-2.47c-.28-.25-.58-.48-.88-.7l-.23-.17a56.64,56.64,0,0,1-13.39-14.17,57.52,57.52,0,0,1-5-9.34,2.13,2.13,0,0,0-1.89-1.56h0a1.82,1.82,0,0,0-1,.35c-1.06.75-.73,1.9-.39,2.69A60.91,60.91,0,0,0,764.42,154.09Z"/><path class="cls-70" d="M788.13,143a5.94,5.94,0,0,0-.67-.33l-.11,0a36.13,36.13,0,0,1-14.83-11.92,38.82,38.82,0,0,1-4-7.14,2,2,0,0,0-1.72-1.4h0a1.58,1.58,0,0,0-1.44.7,2.31,2.31,0,0,0,0,2.22A39.63,39.63,0,0,0,782.1,144a33.1,33.1,0,0,0,4.51,2.2,2.39,2.39,0,0,0,.8.15,1.66,1.66,0,0,0,1.53-1A1.73,1.73,0,0,0,788.13,143Z"/><path class="cls-71" d="M1080.1,129.61c-1.06-1-2.11-2.1-3.16-3.15l-.35-.35c-.93-.94-1.87-1.88-2.81-2.81a26.59,26.59,0,0,0-18.21-8.21c-4.69-.15-9.47-.15-14.08-.13h-3.75a2.54,2.54,0,0,1-2.44-1.33c-1.42-2.32-2.86-4.63-4.3-6.94l-.6-1q-2.39-3.8-4.73-7.6a2.58,2.58,0,0,0-2.51-1.4c-1.13,0-2.26,0-3.32,0h-.25c-.68,0-1.37,0-2.05,0a2.32,2.32,0,0,0-1.8.66,2.17,2.17,0,0,0-.18,1.9c.27,1.15.56,2.3.85,3.45l3,12.19h-6.24c-3.65,0-7.53,0-11.39,0a2.06,2.06,0,0,1-2.28-1.73c-1.68-5.74-3.44-11.56-5.14-17.19l-.62-2c-.45-1.5-.83-1.79-2.39-1.79-3.33,0-6.67,0-10,0-1.89,0-2.44.55-2.44,2.45v12q0,4.55,0,9.07a3.43,3.43,0,0,0,1.07,2.66c3,3,6,5.94,8.94,8.92l4.46,4.46a30.33,30.33,0,0,0,15.17,8.48,49.09,49.09,0,0,0,5,.73l.38.05,2,.25.79.11-.48,1.15c-.1.26-.21.53-.32.78l-1.61,3.61c-1.07,2.41-2.13,4.81-3.19,7.23A2.36,2.36,0,0,0,1011,156a2.33,2.33,0,0,0,1.48,1.09c1.25.43,2.51.84,3.76,1.25l1.67.55a5.58,5.58,0,0,0,1.56.37c.67,0,1-.42,1.78-1.47l2.43-3.46c2.69-3.83,5.47-7.79,8.16-11.73a3.2,3.2,0,0,1,3-1.53q12.15,0,24.31,0h16.21c3.3,0,5.45-1.31,6.57-4S1082.43,131.91,1080.1,129.61Zm-60.84-29.2.62-.13c2.49-.54,3-.37,4.19,1.61l6.76,10.82c.15.24.29.49.44.77l.8,1.4h-9.2Zm17,36a2,2,0,0,0,.46-2.19,2.42,2.42,0,0,0-2.48-1c-3.93.18-8,.1-11.65,0a2.53,2.53,0,0,0-2.92,1.79c-1.14,2.78-1.47,2.85-4.23,2.78A28.17,28.17,0,0,1,995.33,129c-1.81-1.87-3.69-3.73-5.5-5.53l-3-2.95c-.21-.21-.4-.42-.64-.69l-1.29-1.4,1.89-.1c.36,0,.66,0,.95,0h65.61a22.17,22.17,0,0,1,14.36,4.7l1.38,1.09h-17.26v3.33h5.28c4.71,0,9.72,0,14.63,0a3.93,3.93,0,0,1,2.36.95c.86.76,1.69,1.61,2.49,2.43l.15.16,1,1a3.25,3.25,0,0,1,1.1,3.74,3.35,3.35,0,0,1-3.49,2h-39.15l-.09-.55A.83.83,0,0,1,1036.24,136.37Zm-12.1.13c1.3,0,2.61,0,4,0H1032l-6.27,8.95c-1.8,2.55-3.84,5.44-5.73,8.29a2.75,2.75,0,0,1-2.2,1.51,3.09,3.09,0,0,1-1.47-.43,2.5,2.5,0,0,0-.41-.16l-1.07-.38.3-.82a5.67,5.67,0,0,1,.23-.62l1.87-4.21c1.59-3.57,3.18-7.14,4.74-10.73A2.14,2.14,0,0,1,1024.14,136.5ZM991.05,96.57c1.61,5.29,3.2,10.67,4.74,15.88l.45,1.52-.27.81-.45.1H982.36V95.52h2.24c1.81,0,3.42,0,5,0A1.69,1.69,0,0,1,991.05,96.57Z"/><rect class="cls-72" x="1015.45" y="124.14" width="3.2" height="3.16"/><rect class="cls-73" x="1024.54" y="124.17" width="3.2" height="3.16"/><rect class="cls-74" x="1006.39" y="124.14" width="3.12" height="3.14"/><rect class="cls-75" x="1033.66" y="124.14" width="3.13" height="3.19"/><rect class="cls-76" x="1042.7" y="124.18" width="3.19" height="3.11"/><path class="cls-77" d="M1504.3,322.15c-.15-.51-.29-1-.43-1.54l-.23-.84a3.3,3.3,0,0,0-.68-1.42l-.76-.85c-.82-.9-1.63-1.8-2.46-2.69a2.14,2.14,0,0,0-2.51-.39,10.19,10.19,0,0,0-1.68-1.11,16.33,16.33,0,0,0-3.49-1.32,12.56,12.56,0,0,0-1.89-.38,1.45,1.45,0,0,0-1.09.3,1.41,1.41,0,0,0-.51.94,1.43,1.43,0,0,0,1.26,1.57,16.05,16.05,0,0,1,2.85.71,9.58,9.58,0,0,1,2.33,1.17,2.14,2.14,0,0,0-.26,1.14,2.1,2.1,0,0,0,.31,1l-.87.49-.17.1a1.88,1.88,0,0,0-1,1.27,7.25,7.25,0,0,0-.14,1.41,1.79,1.79,0,0,0,1,1.7,3.5,3.5,0,0,0,.16,2,5.35,5.35,0,0,0,.72,1.13l.2.26a2.16,2.16,0,0,0,2.15.74l.26-.08c.49-.14,1-.28,1.51-.45a1.93,1.93,0,0,0,.61.56v.31c0,.22,0,.45,0,.67v20.58a2.24,2.24,0,0,1-.68,1.77,2.44,2.44,0,0,1-1.72.51,2,2,0,0,1-2-2v-2a2.53,2.53,0,0,0,0-.65,4.11,4.11,0,0,0-4.15-3.25h-3V309.84a2.53,2.53,0,0,0-2.42-2.42h-27.82a1.76,1.76,0,0,0-.67.11,2.51,2.51,0,0,0-1.73,2.52v42.79a2.87,2.87,0,0,0-2.45,3c0,.5,0,1,0,1.51v.78a2.79,2.79,0,0,0,2.74,2.75h32a2.82,2.82,0,0,0,2-.88,2.7,2.7,0,0,0,.8-1.92c0-.56,0-1.13,0-1.69v-.76a2,2,0,0,0-.09-.67,2.84,2.84,0,0,0-2.34-2.08v-6h2.89a1.67,1.67,0,0,1,.49.05.8.8,0,0,1,.53.8c0,.72,0,1.45,0,2.18A3.42,3.42,0,0,0,1492,351a5.41,5.41,0,0,0,6.43,3.6,5.26,5.26,0,0,0,4.31-5.29q0-7.17,0-14.36v-7.57a2.11,2.11,0,0,0,1.43-2.5c-.08-.38-.18-.76-.27-1.13l-.11-.4A.92.92,0,0,0,1504.3,322.15Zm-6.43-4.63,0,0,.11-.08.2-.14.32.37c.53.6,1.07,1.22,1.67,1.78a3.73,3.73,0,0,1,1,1.9,1,1,0,0,0-.52,1.21c.14.53.27,1.07.4,1.61l.18.71-.15,0c-.34-1.15-.68-2.29-1-3.43a1.89,1.89,0,0,0-1.83-1.41,2.28,2.28,0,0,0-.44,0,2.14,2.14,0,0,0,.57-1.49A1.87,1.87,0,0,0,1497.87,317.52Zm-39.43,35.93-.29-.65a.48.48,0,0,1,.29.13v.52Zm.1-.65V310.69h26V352.8Zm28.43,3.27v1.5h-30.92v-1.5Zm2.25-43.16Z"/><path class="cls-78" d="M1483,314.22a2.11,2.11,0,0,0-2.15-2.15h-18.61a2.1,2.1,0,0,0-2.13,2.11v12.36a2.14,2.14,0,0,0,.65,1.5,2.11,2.11,0,0,0,1.47.63h0c2.23,0,4.47,0,6.69,0h5.18c2.24,0,4.48,0,6.73,0h0a2.16,2.16,0,0,0,1.5-.65,2.12,2.12,0,0,0,.66-1.53c0-2.68,0-5.35,0-8Zm-9.69,9.62a1.87,1.87,0,0,0-1.81-1.88.53.53,0,0,1-.26-.07l-5.63-3a.75.75,0,0,0-.85,1.24l4.85,4.22a1.86,1.86,0,0,0,.75,1h-6.93V315.34h16.23v10.05h-7.22A1.81,1.81,0,0,0,1473.29,323.84Z"/><path class="cls-79" d="M1477.39,340.3a9.26,9.26,0,0,0-1.15-2.82,29.76,29.76,0,0,0-3.94-5.23,1.11,1.11,0,0,0-.77-.42h0a1,1,0,0,0-.77.45l-.39.44c-.31.34-.62.69-.92,1a22.88,22.88,0,0,0-3.16,4.74,6,6,0,0,0-.68,3.11,6.39,6.39,0,0,0,1.54,3.69,5.78,5.78,0,0,0,4.39,2.06,5.49,5.49,0,0,0,1.6-.24,6.14,6.14,0,0,0,4.33-6V341A4.73,4.73,0,0,0,1477.39,340.3Zm-4.79,3.53a2.5,2.5,0,0,1-1.08.25h0a2.67,2.67,0,0,1-2.31-1.63,2.78,2.78,0,0,1,0-2.47,18.66,18.66,0,0,1,2-3.15l.29-.38a18,18,0,0,1,2.41,3.81A3,3,0,0,1,1472.6,343.83Z"/><path class="cls-80" d="M1306,356c-3.35-2-3.31-4.91-3.28-7.24V254.81c0-1.78,0-4.21-.32-4.66a36.38,36.38,0,0,0-4.25,2l-9.5,4.73c-10.14,5.05-20.28,10.1-30.38,15.24-1.63.83-3.33,1.49-4.7.66s-1.58-2.7-1.59-4.41c0-3.38-.28-6.82-.51-10.16-.13-1.87-.26-3.73-.36-5.6l-4.22-81.6c-.34-6.58-.69-13.17-1.14-19.75-.21-3.06-.92-3.91-3.23-3.91-9.68.12-19.43.07-27.8,0-2.13.06-2.82.67-3,2.92q-1.1,18.3-2.3,36.6l-1.71,26.58q-1.47,22.76-2.88,45.52a6.68,6.68,0,0,1-4.14,6.07c-2.82,1.37-5.61,2.77-8.41,4.18l-4,2c-3.08,1.54-5,2.45-6.59,1.57s-1.75-2.95-2-6.29l-1.24-17c-1.6-21.77-3.25-44.29-4.73-66.44-.21-3.07-1-3.88-4.21-3.8-8.1.13-16.47.26-24.86-.05-3.58-.19-4.8,1-5.12,4.79q-1.08,13.06-2.22,26.12c-1.3,15.2-2.66,30.93-3.85,46.4-.35,4.56-2.08,7.19-6,9.08-6.06,2.95-12.08,6-18.1,9-7.15,3.59-14.55,7.31-21.89,10.82-3.76,1.8-5,3.79-5,7.9.18,12.78.15,25.76.13,38.32q0,8.61,0,17.22v.28c0,2.35,0,5.78-3.74,6.5,0,2.08.07,3.55.48,4s2.42.48,5.11.48h222c0-.23,0-.47.07-.69C1306.79,357.42,1306.8,356.46,1306,356Zm-84.33-204q6.91,0,13.83,0a4.7,4.7,0,0,1,3.9,1.31,4.6,4.6,0,0,1,1.16,3.49c-.06,2.86-1.77,4.46-4.81,4.49-1.75,0-3.49,0-5.24,0l-4.5,0h-4.61a5.13,5.13,0,0,1-3.85-1.31,4.72,4.72,0,0,1-1.17-3.53C1216.47,152,1220.37,152,1221.67,152Zm-5,16a4.37,4.37,0,0,1,3.2-1.18c5.77,0,11.53,0,17.3,0a4.28,4.28,0,0,1,3.16,1.19,5.08,5.08,0,0,1,1.2,3.76c0,2.68-1.67,4.23-4.44,4.25h-7.64l-9.15,0h0c-4,0-4.81-2.38-4.83-4.38A5,5,0,0,1,1216.63,168Zm-6.33,85.55q.72-11.62,1.38-23.27.51-8.6,1-17.19c.18-2.93.37-5.87.57-8.8.39-5.68.79-11.55,1-17.32.08-2.24.53-3.69,1.46-4.7s2.58-1.61,4.83-1.54c4.58.18,9.59.17,15.75,0,4.11,0,6,1.65,6.25,5.72,1.12,22.73,2.39,45.83,3.62,68.17l.4,7.36c.17,3.1.43,5.79.79,8.24.78,5.26-1.22,8.72-5.94,10.27a20,20,0,0,0-3.32,1.58c-.46.25-.91.5-1.37.73a5.86,5.86,0,0,1-2.56.75,2.82,2.82,0,0,1-1.48-.4c-1.55-.95-1.54-3.15-1.54-3.87q0-4.87,0-9.75l0-8c0-3,0-6,0-9,0-1.84-.36-2.14-.37-2.14s-.47-.24-2.22.69c-1.94,1-3.91,2-5.88,2.94-2.18,1.07-4.36,2.13-6.49,3.28-1.39.74-3.16,1.47-4.55.58S1210.2,255.07,1210.3,253.51Zm-65-67.46a3.76,3.76,0,0,1,2.67-1.19c5-.2,10.33-.23,17.34-.07,2.51.05,3.74,1.73,3.66,5a3.83,3.83,0,0,1-4,4.07c-2.09,0-4.19,0-6.27,0h-1.44l-3.35,0h-2.15l-3.13,0c-2.86,0-4.37-1.22-4.47-3.54A5.76,5.76,0,0,1,1145.35,186.05Zm2.36,12.62c4.22,0,8.44,0,12.66,0h5.06c2.93,0,4.62,1.68,4.63,4.62s-1.68,4.62-4.64,4.65c-2.19,0-4.37,0-6.55,0h-11.18a4.73,4.73,0,0,1-3.55-1.28,4.43,4.43,0,0,1-1.1-3.33C1143.13,200.38,1144.83,198.69,1147.71,198.67Zm-8.83,53.74.94-10.69q1-11.91,2.06-23.81c.38-4.62,4.31-4.57,5.75-4.6l3.88,0c4.41,0,9,0,13.43-.06,4-.11,6.09,1.72,6.36,5.72.47,6.87,1,13.74,1.59,20.61.38,4.64.76,9.27,1.11,13.91.51,6.79.87,12.78,1.11,18.32.1,2.35-1.52,5.31-4.32,7.9-2.59,2.4-5.4,3.77-7.66,3.77a4.3,4.3,0,0,1-.62,0c-2.65-.32-2.78-2.48-2.85-3.52a5.79,5.79,0,0,0-.05-.61,5.22,5.22,0,0,1,0-1V266.58l0-1.31v-4c0-3.13,0-6.25,0-9.38,0-1.19-.26-1.66-.39-1.74s-.69-.1-1.8.46c-1.49.75-3,1.48-4.48,2.21-2.46,1.2-5,2.45-7.45,3.77-1.43.77-3.51,1.67-5.09.64S1138.74,254,1138.88,252.41ZM1103.12,353.6a3.9,3.9,0,0,1-2.83,1.71,28.86,28.86,0,0,1-3.56.23l-1.49,0-1.35.07v-.23c-.92,0-1.84,0-2.75,0-1.8-.15-3.88-1.12-3.66-4.94a4.57,4.57,0,0,1,1.5-3.4c1.53-1.27,3.67-1,5.09-.8a9.85,9.85,0,0,0,2.3-.12c2.32-.29,5.84-.74,7.15,3.78A4.45,4.45,0,0,1,1103.12,353.6Zm63.83.46c-1.36,1.37-3.41,1.47-4.85,1.49-5.66-.08-11.32-.07-17-.05h-6.8c-2.25.05-4.5,0-6.76,0-5.25,0-10.68-.06-16,.09h-.41c-2.14,0-3.62-.49-4.64-1.52s-1.54-2.72-1.44-5.1c.21-4.95.12-9.95,0-14.78a6,6,0,0,1,1.41-4.49,5.64,5.64,0,0,1,4.21-1.44h0q24,.09,48.08,0h0a5.53,5.53,0,0,1,4.06,1.4,5.61,5.61,0,0,1,1.4,4.19v1.71c0,4.63-.06,9.42,0,14.11A5.74,5.74,0,0,1,1167,354.06Zm126.93,1.39c-1.34.05-2.68.07-4,.07h-108c-1.39,0-3,0-4.57-.15-1.34-.12-3.59-.85-3.57-4.47,0-3.41,1.9-4.35,3.49-4.53a38.09,38.09,0,0,1,4.6-.21q54,0,108,0c1.35,0,2.69,0,4,.1,2.62.17,4.08,1.8,4.1,4.6C1298,354.7,1295.42,355.38,1293.88,355.45Zm2.57-16.21c-1.18,1.17-2.93,1.61-5.63,1.65-13.39-.14-27-.12-40.19-.1l-14.84,0-15.08,0c-12.93,0-26.3,0-39.45.1h-.32c-2,0-4.23-.23-5.7-1.7-1.19-1.18-1.73-3-1.7-5.73,0-1.6,0-3,.09-4.19.09-3.12.15-5.18-.43-5.76s-3-.6-6.53-.58l-3.63,0c-15.7-.05-31.41,0-47.12,0H1109c-5.17,0-5.17,0-5.22,5,0,.86,0,1.72,0,2.58v1.87c0,7.82-.64,8.33-8.57,8.42-7.07,0-7.8-.74-7.81-7.61,0-4.08,0-8.17,0-12.25,0-7.84,0-16-.07-23.92-.06-4.2,1.48-6.76,5.15-8.55,16.55-8.11,34.53-17.09,55-27.45,1.84-.93,3.75-1.66,5.23-.74s1.63,3,1.59,4.85c-.14,7-.09,14.18,0,21.1l0,3.16c0,.83,0,3.38.39,3.82.5.09,2.89-1.11,3.67-1.51q17.6-8.76,35.18-17.55l24.71-12.34c3-1.5,4.82-2.4,6.22-1.54s1.4,2.82,1.41,6.06q0,4.42,0,8.86c0,5,0,9.95,0,14.92,0,2.35.25,3,.38,3.1a9.44,9.44,0,0,0,3-1.18q18.94-9.42,37.85-18.89l23.37-11.67c2.85-1.42,4.74-2.36,6.17-1.49s1.42,3,1.42,6.13q0,10.32,0,20.62c0,15.34,0,31.2.1,46.79C1298.14,336.32,1297.62,338.07,1296.45,339.24Z"/><path class="cls-81" d="M1169.83,312.1H1107.7c-1.39,0-2.79.05-3.4.67a3,3,0,0,0-.54,2.09c0,2.43,1,2.56,3.88,2.56h62.1c1.44,0,2.77,0,3.37-.6a3,3,0,0,0,.55-2.15C1173.62,312.21,1172.75,312.17,1169.83,312.1Z"/><path class="cls-82" d="M1226.83,312.15h0a2.5,2.5,0,0,0-1.84.54,2.65,2.65,0,0,0-.48,1.81c0,1.64,0,3.27,0,4.91V324c0,2,0,4.08,0,6.12A2.75,2.75,0,0,0,1225,332c.33.34.86.41,1.8.52a2.49,2.49,0,0,0,1.83-.52,2.65,2.65,0,0,0,.48-1.81q0-7.78,0-15.57a2.73,2.73,0,0,0-.5-1.89A2.4,2.4,0,0,0,1226.83,312.15Z"/><path class="cls-82" d="M1208.36,312.15h0a2.5,2.5,0,0,0-1.84.54,2.55,2.55,0,0,0-.48,1.81c0,1.64,0,3.27,0,4.91V324c0,2,0,4.08,0,6.12a2.8,2.8,0,0,0,.48,1.87c.33.34.86.41,1.8.52a2.5,2.5,0,0,0,1.83-.52,2.61,2.61,0,0,0,.47-1.81q0-7.78,0-15.57a2.78,2.78,0,0,0-.5-1.89A2.4,2.4,0,0,0,1208.36,312.15Z"/><path class="cls-82" d="M1190.49,312.15h0a2.47,2.47,0,0,0-1.83.54,2.55,2.55,0,0,0-.48,1.81c0,1.64,0,3.27,0,4.91V324q0,3.06,0,6.12a2.8,2.8,0,0,0,.48,1.87c.33.34.85.41,1.8.52a2.5,2.5,0,0,0,1.83-.52,2.71,2.71,0,0,0,.47-1.81q0-7.78,0-15.57a2.78,2.78,0,0,0-.5-1.89A2.4,2.4,0,0,0,1190.49,312.15Z"/><path class="cls-82" d="M1281.62,312.15h0a2.5,2.5,0,0,0-1.84.54,2.6,2.6,0,0,0-.48,1.81c0,1.64,0,3.27,0,4.91V324c0,2,0,4.08,0,6.12a2.8,2.8,0,0,0,.48,1.87c.33.34.86.41,1.8.52a2.5,2.5,0,0,0,1.83-.52,2.65,2.65,0,0,0,.48-1.81q0-7.78,0-15.57a2.73,2.73,0,0,0-.5-1.89A2.4,2.4,0,0,0,1281.62,312.15Z"/><path class="cls-82" d="M1263.15,312.15h0a2.47,2.47,0,0,0-1.83.54,2.55,2.55,0,0,0-.48,1.81c0,1.64,0,3.27,0,4.91V324c0,2,0,4.08,0,6.12a2.8,2.8,0,0,0,.48,1.87c.33.34.86.41,1.8.52a2.5,2.5,0,0,0,1.83-.52,2.61,2.61,0,0,0,.47-1.81q0-7.78,0-15.57a2.78,2.78,0,0,0-.5-1.89A2.4,2.4,0,0,0,1263.15,312.15Z"/><path class="cls-82" d="M1245.28,312.15h0a2.5,2.5,0,0,0-1.84.54,2.61,2.61,0,0,0-.47,1.81c0,1.64,0,3.27,0,4.91V324q0,3.06,0,6.12a2.75,2.75,0,0,0,.48,1.87c.33.34.85.41,1.8.52a2.5,2.5,0,0,0,1.83-.52,2.71,2.71,0,0,0,.47-1.81q0-7.78,0-15.57a2.78,2.78,0,0,0-.5-1.89A2.4,2.4,0,0,0,1245.28,312.15Z"/><path class="cls-83" d="M524.44,300.92a6.21,6.21,0,0,0,2.88-3.9l0-2.08-.19-.52a5.84,5.84,0,0,0-5.93-4.44q-8.37,0-16.73,0h-6.87v-2.81c0-1.9,0-3.8,0-5.7a3.94,3.94,0,0,0-4.22-4.18H464.33a4,4,0,0,0-4.26,4.24c0,2.05,0,4.09,0,6.19V290H440.89c-1.6,0-3.41-.05-5.19,0a5.88,5.88,0,0,0-2.34,11c.37.2.44.33.44.8q0,30.34,0,60.67c0,.49-.07.61-.44.82a6,6,0,0,0-2.39,2.39l-.5.95h96.71l-.52-1a5.85,5.85,0,0,0-2.67-2.59.61.61,0,0,1-.09-.21,1.13,1.13,0,0,1,0-.32v-7.79q0-26.37,0-52.74C523.89,301.33,524,301.14,524.44,300.92Zm-1.2-5.12a1.85,1.85,0,0,1-1.52,1.84h0a3.07,3.07,0,0,1-.64,0H497.66v-3.59H521c.23,0,.46,0,.69,0A1.79,1.79,0,0,1,523.24,295.8Zm-29.72.36v3.59c0,3.51,0,7,0,10.52a1.06,1.06,0,0,1-.05.43.81.81,0,0,1-.41.05l-14.25,0-14.24,0c-.31,0-.39,0-.39,0a.94.94,0,0,1,0-.38q0-14.29,0-28.59c0-.24,0-.33,0-.34a1,1,0,0,1,.33,0h0q14.34,0,28.68,0h0c.2,0,.28,0,.29,0a1.1,1.1,0,0,1,0,.38q0,5.4,0,10.79Zm22,30.07c0-3.27-1.89-5.16-5.15-5.16H485.57c-3.2,0-5.11,1.92-5.12,5.12v36.25H438V301.83h22.1v2.9c0,1.95,0,3.89,0,5.83a4,4,0,0,0,4.23,4.28h29.07a4,4,0,0,0,4.25-4.26c0-2.22,0-4.44,0-6.68v-2.06h22.08v60.62h-4.22V347.07C515.49,342.16,515.5,330.23,515.49,326.23ZM460,297.67H436.17a1.78,1.78,0,0,1-1.72-1.8,1.75,1.75,0,0,1,1.74-1.76c.75,0,1.51,0,2.27,0H460Zm35.9,27.51v37.26H484.57c0-.1,0-.2,0-.3V326.37c0-1.15,0-1.19,1.23-1.19Zm4.21,0h10.23c1,0,1.05,0,1.05,1.08v36.18H500.1Z"/><path class="cls-84" d="M470.9,321.07H447.45a4.9,4.9,0,0,0-5.25,5.15q0,7.44,0,14.86a4.85,4.85,0,0,0,5.22,5.18H471a4.83,4.83,0,0,0,5.2-5.19V326.31A4.88,4.88,0,0,0,470.9,321.07Zm-4.31,21c-1.39-3.57-4-5.52-7.43-5.52H459a7.79,7.79,0,0,0-7.22,5.6h-1c-1.19,0-2.38,0-3.56,0-.51,0-.84-.1-.84-1.19q0-4.24,0-8.49v-4c0-.75,0-1.49,0-2.23s.22-1,1-1H471c.87,0,1.07.2,1.07,1.05q0,7.42,0,14.86c0,.84-.21,1.05-1.05,1.06h-.17c-1.36,0-2.73,0-4.07,0l-.16-.06Zm-7.49-1.41a3.57,3.57,0,0,1,2.9,1.42h-5.64A3.39,3.39,0,0,1,459.1,340.66Z"/><path class="cls-85" d="M503.48,338.23a2.06,2.06,0,0,0-1.93,2.15c0,.81,0,1.62,0,2.43v2.06c0,.81,0,1.62,0,2.43a2,2,0,0,0,1.94,2.14h.1a2,2,0,0,0,1.4-.54,2.17,2.17,0,0,0,.65-1.57c0-2.33,0-4.67,0-7a2.16,2.16,0,0,0-.66-1.57A2.29,2.29,0,0,0,503.48,338.23Z"/><path class="cls-86" d="M487.91,291.19h-4.19c0-.16,0-.31,0-.46v-1.52c0-.93,0-1.86,0-2.79a3.19,3.19,0,0,0-3.4-3.36c-1,0-2,0-3,0a3.16,3.16,0,0,0-3.28,3.16c0,.39,0,.79,0,1.19v3.77h-1.61c-1.06,0-2.13,0-3.19,0a3.18,3.18,0,0,0-3.33,3.43c0,.91,0,1.81,0,2.72a3.21,3.21,0,0,0,3.49,3.55c1.47,0,2.95,0,4.42,0H474a1.23,1.23,0,0,1,0,.23c0,1.32,0,2.71,0,4.52a3.18,3.18,0,0,0,3.45,3.4h2.34c2.77,0,3.91-1.13,3.91-3.9v-4.23h1.08c1.29,0,2.53,0,3.77,0a3.16,3.16,0,0,0,3.28-3.37c0-.6,0-1.2,0-1.8v-.63C491.83,292.36,490.66,291.19,487.91,291.19Zm-8.32,11.26c0,.69,0,1.38,0,2.09v.35h-1.5v-4.25c0-.34,0-.68,0-1a2.62,2.62,0,0,0-2.86-2.81c-1.35,0-2.71,0-4.09,0H470v-1.51h.62c.9,0,1.78,0,2.65,0,1.94.06,3.27,0,4.06-.76s.81-2.14.76-4.1c0-.86,0-1.72,0-2.6v-.61h1.5v2.36c0,1,0,2,0,2.93a2.59,2.59,0,0,0,2.8,2.77c1.16,0,2.31,0,3.46,0h1.82v1.5h-2.49c-2.59-.05-4-.07-4.85.75S479.55,299.68,479.59,302.45Z"/><path class="cls-87" d="M490.33,347.24a2.06,2.06,0,0,0,2,2.21h.05a2,2,0,0,0,1.42-.56,2.18,2.18,0,0,0,.63-1.58q0-3.46,0-6.91a2.05,2.05,0,0,0-2.05-2.17h0a2.05,2.05,0,0,0-2,2.19c0,.8,0,1.6,0,2.41v2.06C490.32,345.67,490.32,346.46,490.33,347.24Z"/><path class="cls-88" d="M293.57,278.43v-7.7H248.76L213.22,247.1l-35.58,23.65v0H132.88v7.7h4.56v78.32h-4.56v7.7H293.57v-7.7h-4.71V278.43Zm-45.69-5.15v.06H248l8.44,5.61H170l.78-.52h.05v0l42.36-28.17Zm3.92,79.42h-5.23V289.07h5.23Zm3.65,9.14H172.17v-6.52h83.28Zm-18.8-9.14V289.07H244V352.7Zm-2.61,0h-5.22V289.07H234Zm-7.83,0H218.9V289.07h7.31Zm-9.92,0h-5.22V289.07h5.22Zm-7.83,0h-7.31V289.07h7.31Zm-9.92,0h-5.22V289.07h5.22Zm-7.84,0h-7.31V289.07h7.31Zm-9.92,0h-5.22V289.07h5.22ZM244,286.46H169.75V282h-2.61v-.39h92V282h-2.61v4.51H244ZM135.49,275.82v-2.48h38.27L170,275.82H135.49Zm0,83.54h4.56V278.43h26l-.79.52h-.78v5.61h2.61v4.51H173V352.7h-3.39v9.14H135.49Zm155.47,0v2.48h-32.9V352.7h-3.65V289.07h4.76v-4.51h2.61V279h-.65l-.78-.52h25.9v80.93Zm-3.4-83.54H256.42l-3.73-2.48H291v2.48Z"/><path class="cls-89" d="M294.22,365.1h-162v-9h4.56v-77h-4.56v-9h45.26l35.73-23.76L249,270.08h45.26v9h-4.71v77h4.71Zm-160.69-1.3H292.91v-6.4h-4.7V277.78h4.7v-6.4H248.57l-.17-.11-35.18-23.39L177,272v-.59H133.53v6.4h4.56V357.4h-4.56Zm158.08-1.31h-34.2v-9.13h-3.66V288.42h4.77v-4.51h2.61V279.6h-.2l-2.74-1.82H286.9v80.93h4.71Zm-32.9-1.3H290.3V360h-4.7V279.08H262.43v6.14h-2.61v4.5h-4.76v62.33h3.65Zm-2.61,1.3H171.52v-7.83H256.1Zm-83.28-1.3h82V356h-82Zm-2.61,1.3H134.84v-3.78h4.56V277.78h28.85l-2.74,1.82h-.33v4.31h2.61v4.51h5.81v64.94h-3.39Zm-34.07-1.3h32.77v-9.14h3.39V289.72h-5.81v-4.5h-2.61v-6.14H140.7V360h-4.56Zm116.31-7.83h-6.53V288.42h6.53Zm-5.22-1.31h3.91V289.72h-3.91Zm-2.62,1.31H236V288.42h8.61Zm-7.31-1.31h6V289.72h-6Zm-2.61,1.31h-6.52V288.42h6.52Zm-5.22-1.31h3.92V289.72h-3.92Zm-2.61,1.31h-8.61V288.42h8.61Zm-7.31-1.31h6V289.72h-6Zm-2.61,1.31h-6.52V288.42h6.52Zm-5.22-1.31h3.92V289.72h-3.92Zm-2.61,1.31H200.5V288.42h8.61Zm-7.31-1.31h6V289.72h-6Zm-2.61,1.31h-6.53V288.42h6.53ZM194,352.05h3.92V289.72H194Zm-2.61,1.31h-8.62V288.42h8.62Zm-7.31-1.31h6V289.72h-6Zm-2.62,1.31h-6.52V288.42h6.52Zm-5.22-1.31h3.92V289.72h-3.92Zm81-64.94H169.1v-4.5h-2.61v-1.7h93.33v1.7h-2.61Zm-86.81-1.3h85.51v-3.6H170.4Zm88.17-6.21h-90.7l45.35-30.15Zm-86.39-1.3h82.08L247.78,274h-.46l0-.33L213.22,251Zm119.43-1.83H256.22l-5.69-3.78h41.08Zm-35-1.3H290.3V274H254.84Zm-86.4,1.3H134.84v-3.78h41.07Zm-34.08-1.3h33.69L171.6,274H136.14Z"/><path class="cls-90" d="M144.71,323h10v-18.7h-10Zm2.61-16.09h4.83v13.48h-4.83Z"/><path class="cls-91" d="M155.42,323.68H144.06v-20h11.36Zm-10.06-1.3h8.75V305h-8.75Zm7.44-1.31h-6.13V306.29h6.13Zm-4.83-1.3h3.53V307.59H148Z"/><path class="cls-90" d="M156.9,323h10v-18.7h-10Zm2.61-16.09h4.83v13.48h-4.83Z"/><path class="cls-91" d="M167.6,323.68H156.24v-20H167.6Zm-10-1.3h8.74V305h-8.74Zm7.44-1.31h-6.14V306.29H165Zm-4.83-1.3h3.52V307.59h-3.52Z"/><path class="cls-92" d="M144.71,348h10v-18.7h-10Zm2.61-16.09h4.83v13.48h-4.83Z"/><path class="cls-93" d="M155.42,348.61H144.06v-20h11.36Zm-10.06-1.3h8.75v-17.4h-8.75ZM152.8,346h-6.13V331.22h6.13ZM148,344.7h3.53V332.52H148Z"/><path class="cls-92" d="M156.9,348h10v-18.7h-10Zm2.61-16.09h4.83v13.48h-4.83Z"/><path class="cls-93" d="M167.6,348.61H156.24v-20H167.6Zm-10-1.3h8.74v-17.4h-8.74ZM165,346h-6.14V331.22H165Zm-4.83-1.3h3.52V332.52h-3.52Z"/><path class="cls-90" d="M259.17,323h10.05v-18.7H259.17Zm2.61-16.09h4.83v13.48h-4.83Z"/><path class="cls-91" d="M269.87,323.68H258.52v-20h11.35Zm-10.05-1.3h8.75V305h-8.75Zm7.44-1.31h-6.13V306.29h6.13Zm-4.83-1.3H266V307.59h-3.53Z"/><path class="cls-90" d="M271.35,323h10.06v-18.7H271.35ZM274,306.94h4.83v13.48H274Z"/><path class="cls-91" d="M282.06,323.68H270.7v-20h11.36ZM272,322.38h8.75V305H272Zm7.45-1.31h-6.14V306.29h6.14Zm-4.83-1.3h3.52V307.59h-3.52Z"/><path class="cls-92" d="M259.17,348h10.05v-18.7H259.17Zm2.61-16.09h4.83v13.48h-4.83Z"/><path class="cls-93" d="M269.87,348.61H258.52v-20h11.35Zm-10.05-1.3h8.75v-17.4h-8.75Zm7.44-1.31h-6.13V331.22h6.13Zm-4.83-1.3H266V332.52h-3.53Z"/><path class="cls-92" d="M271.35,348h10.06v-18.7H271.35ZM274,331.87h4.83v13.48H274Z"/><path class="cls-93" d="M282.06,348.61H270.7v-20h11.36ZM272,347.31h8.75v-17.4H272Zm7.45-1.31h-6.14V331.22h6.14Zm-4.83-1.3h3.52V332.52h-3.52Z"/><path class="cls-94" d="M1145.51,109.61c0-1.31.71-2,2.12-2.1h2.78a1.86,1.86,0,0,1,2.1,2.1v18.2a1.85,1.85,0,0,1-2.1,2.08h-2.78a1.86,1.86,0,0,1-2.12-2.09Zm2.1,18.19h2.81V109.61h-2.8Z"/><path class="cls-95" d="M1150.41,130.54h-2.78a2.51,2.51,0,0,1-2.77-2.75V109.61a2.58,2.58,0,0,1,2.72-2.75h2.83a2.51,2.51,0,0,1,2.75,2.74v18.21A2.5,2.5,0,0,1,1150.41,130.54Zm-2.78-22.38c-1,.07-1.46.49-1.46,1.45v18.18c0,1,.41,1.45,1.46,1.45h2.78c1,0,1.44-.4,1.45-1.44V109.61c0-1-.42-1.45-1.45-1.45Zm3.45,20.29H1147V109h4.1Zm-2.82-1.31h1.51V110.26h-1.5Z"/><path class="cls-96" d="M1145.51,145.24c0-1.3.71-2,2.12-2.1h2.78a1.86,1.86,0,0,1,2.1,2.1v18.2a1.86,1.86,0,0,1-2.1,2.09h-2.78a1.87,1.87,0,0,1-2.12-2.1Zm2.1,18.19h2.81V145.24h-2.8Z"/><path class="cls-97" d="M1150.41,166.18h-2.78a2.51,2.51,0,0,1-2.77-2.75V145.24a2.58,2.58,0,0,1,2.72-2.75h2.83a2.51,2.51,0,0,1,2.75,2.75v18.2A2.51,2.51,0,0,1,1150.41,166.18Zm-2.78-22.39c-1,.08-1.46.5-1.46,1.45v18.19c0,1,.41,1.45,1.46,1.45h2.78c1,0,1.44-.41,1.45-1.44v-18.2c0-1-.42-1.45-1.45-1.45Zm3.45,20.29H1147V144.59h4.1Zm-2.82-1.3h1.51V145.89h-1.5Z"/><rect class="cls-98" x="1159.05" y="150.04" width="3.89" height="25.24"/><rect class="cls-99" x="1159.05" y="109.61" width="3.89" height="25.24"/><path class="cls-100" d="M1145.51,70.71c0-1.3.71-2,2.12-2.09h2.78a1.86,1.86,0,0,1,2.1,2.09v18.2a1.86,1.86,0,0,1-2.1,2.09h-2.78a1.87,1.87,0,0,1-2.12-2.1Zm2.1,18.19h2.81V70.71h-2.8Z"/><path class="cls-101" d="M1150.41,91.65h-2.78a2.51,2.51,0,0,1-2.77-2.75V70.71a2.57,2.57,0,0,1,2.72-2.74h2.83a2.51,2.51,0,0,1,2.75,2.75v18.2A2.51,2.51,0,0,1,1150.41,91.65Zm-2.78-22.38c-1,.07-1.46.49-1.46,1.44V88.9c0,1,.41,1.45,1.46,1.45h2.78c1,0,1.44-.41,1.45-1.44V70.71c0-1-.42-1.44-1.45-1.44Zm3.45,20.28H1147V70.06h4.1Zm-2.82-1.3h1.51V71.36h-1.5Z"/><rect class="cls-102" x="1159.05" y="70.71" width="3.89" height="25.24"/><path class="cls-103" d="M406.08,281.91a1.23,1.23,0,0,1,0-.18c0-6.28,0-12.56,0-18.84a1.78,1.78,0,0,0-1.92-1.94h-1.63v-1.71a1.79,1.79,0,0,0-2-2H306.62a1.8,1.8,0,0,0-2,2V261h-1.54a1.81,1.81,0,0,0-2,2v18.86a3.56,3.56,0,0,0-2.66,3.53,3.6,3.6,0,0,0,2.66,3.48V360.2a1.82,1.82,0,0,0,.86,1.64,2.06,2.06,0,0,0,1.17.26H404c1.44,0,2.11-.66,2.11-2.09V348.16q0-29.62,0-59.32a3.47,3.47,0,0,0,2.63-3.4A3.4,3.4,0,0,0,406.08,281.91ZM336,297.79v60.78H310l0-60.77ZM308.16,261v-.18H399V261H308.16Zm97,24.3-.08.21H302.19c-.16,0-.23,0-.25-.12s0-.14.19-.14H405A.48.48,0,0,1,405.18,285.25ZM304.59,264.48h98v17.2h-98Zm98,94.09H339.48V353h63.07c0,1.36,0,2.72,0,4.08Zm-96.12-62.41v53.32h-1.84c0-1.66,0-3.32,0-5V289h38.49v3.49q0,4.27,0,8.55a9.06,9.06,0,0,0,2,5.76,8.86,8.86,0,0,0,3,2.48q0,7.28,0,14.56v19.07a1.79,1.79,0,0,0,1.9,2h49.23a1.82,1.82,0,0,0,2-2V309.4h-.65l.75-.21a6.91,6.91,0,0,0,1.3-.83v41.12H339.48V296.35a2.43,2.43,0,0,0-.2-1.1,1.62,1.62,0,0,0-1.24-.93,6,6,0,0,0-.73-.06H308.59a3.85,3.85,0,0,0-.48,0A1.74,1.74,0,0,0,306.43,296.16Zm40.17.27c0-2.46,0-4.92,0-7.43H358v7.43H346.6Zm21.22,10.32a5.67,5.67,0,0,1-6.26-5,10,10,0,0,1,0-1.34V300h7.23c1.33,0,2.66,0,4.06,0,0,.2,0,.4,0,.59a7.72,7.72,0,0,1-.2,2.12A5.76,5.76,0,0,1,367.82,306.75Zm5-10.32H361.5c0-2.46,0-4.92,0-7.44,3.75,0,7.5,0,11.3,0C372.8,291.46,372.8,293.92,372.81,296.43Zm-5.66,13.88a8.83,8.83,0,0,0,7.43-3.8,8.8,8.8,0,0,0,5.91,3.67,8.91,8.91,0,0,0,9-3.66,8.29,8.29,0,0,0,1.4,1.54,8.89,8.89,0,0,0,6.75,2.22v31.09h-46V310.3a8.42,8.42,0,0,0,2.17-.1,9.07,9.07,0,0,0,6-3.68,8.77,8.77,0,0,0,7.38,3.79ZM382,306.8H382a5.7,5.7,0,0,1-5.56-5.08,10.86,10.86,0,0,1,0-1.14c0-.21,0-.41,0-.62h7.13c1.38,0,2.77,0,4.23,0,0,.17,0,.35,0,.53a8,8,0,0,1-.18,2A5.85,5.85,0,0,1,382,306.8Zm5.7-10.37H376.34c0-2.46,0-4.93,0-7.44,3.77,0,7.54,0,11.38,0C387.7,291.46,387.7,293.92,387.71,296.43Zm11.45,47.82ZM353.84,300c1.35,0,2.71,0,4.13,0,0,.24,0,.49,0,.73a8.34,8.34,0,0,1-.06,1.32,5.77,5.77,0,0,1-4.95,4.74A5.71,5.71,0,0,1,346.7,302a12.15,12.15,0,0,1-.1-2Zm-2.91,9.92Zm51.62-9.63a8.31,8.31,0,0,1-.25,2.51,5.78,5.78,0,0,1-4.74,4,5.7,5.7,0,0,1-6.2-4.55,9.22,9.22,0,0,1-.11-2V300h11.3Zm0-3.82H391.24c0-2.45,0-4.9,0-7.44,3.75,0,7.51,0,11.31,0C402.54,291.46,402.54,293.92,402.55,296.43Zm-96.12,62.14h-1.84c0-1.84,0-3.68,0-5.56.61,0,1.22,0,1.84,0,0,.68,0,1.35,0,2v1.6C306.42,357.27,306.42,357.91,306.43,358.57Z"/><path class="cls-104" d="M362.33,274.6c-.12-.23-.12-.36.1-.53a2.58,2.58,0,0,0,.93-1.56,5.51,5.51,0,0,0,.08-1.57,2.69,2.69,0,0,0-2.42-2.62,21.66,21.66,0,0,0-2.79-.06c-.58,0-.58,0-.58.55v8.55c0,.54,0,.54.56.54h.94c.5,0,.5,0,.5-.52,0-.77,0-1.54,0-2.3,0-.36.18-.39.45-.37s.26.18.33.33c.39.81.78,1.61,1.15,2.43a.64.64,0,0,0,.69.44c.41,0,.83,0,1.25,0s.45,0,.26-.42C363.29,276.52,362.82,275.55,362.33,274.6Zm-1.2-2.14a1.7,1.7,0,0,1-1.35.26c-.13-.07-.13-.18-.13-.29v-2c0-.14,0-.24.19-.28a1.38,1.38,0,0,1,1.42.48A1.83,1.83,0,0,1,361.13,272.46Z"/><path class="cls-105" d="M354.17,268.21c-1.75-.42-3.72.24-4,2.6a21.29,21.29,0,0,0,0,2.26h0c0,.67,0,1.34,0,2a2.86,2.86,0,0,0,1.91,2.8c1.66.52,4.05.08,4.27-2.61a22.49,22.49,0,0,0,0-4.64A2.66,2.66,0,0,0,354.17,268.21Zm.13,6.43a5.1,5.1,0,0,1-.08.67.92.92,0,0,1-.91.76.89.89,0,0,1-1-.68,1.77,1.77,0,0,1-.08-.56v-1.77h0c0-.65,0-1.29,0-1.93a1,1,0,0,1,1.12-1,.91.91,0,0,1,.85.73,2.52,2.52,0,0,1,.09.67Z"/><path class="cls-106" d="M340.9,272.1a4.19,4.19,0,0,1-1.15-.85.68.68,0,0,1,.21-1.15.75.75,0,0,1,1.08.53c.06.31.21.37.47.36h1.17c.43,0,.49-.07.43-.49a2.46,2.46,0,0,0-2.3-2.36,2.79,2.79,0,0,0-2.87,1,2.85,2.85,0,0,0,.67,3.8c.52.42,1.1.75,1.65,1.13a2.64,2.64,0,0,1,.79.7.83.83,0,0,1,0,.93.91.91,0,0,1-.95.4.68.68,0,0,1-.68-.56c0-.55-.38-.6-.8-.55H337.6c-.21,0-.33.08-.32.31a2.7,2.7,0,0,0,2,2.65,3.82,3.82,0,0,0,1.87,0,2.59,2.59,0,0,0,1.71-1.1,3,3,0,0,0-.41-3.72A7.25,7.25,0,0,0,340.9,272.1Z"/><path class="cls-107" d="M369.45,276c-.77,0-1.54,0-2.31,0-.3,0-.4-.1-.38-.39s0-.83,0-1.25.1-.37.38-.37c.64,0,1.28,0,1.92,0,.29,0,.38-.09.36-.37s0-.71,0-1.06,0-.49-.51-.49H367.1c-.24,0-.35-.08-.34-.33s0-.76,0-1.13.12-.41.42-.41c.69,0,1.38,0,2.08,0,.37,0,.49-.13.46-.49a5.79,5.79,0,0,1,0-1c0-.36-.12-.44-.45-.44q-2,0-4.08,0c-.35,0-.44.1-.43.43,0,1.46,0,2.92,0,4.39v4.38c0,.25,0,.45.35.45h4.42c.25,0,.34-.11.33-.35s0-.78,0-1.17S369.77,276,369.45,276Z"/><path class="cls-108" d="M349.16,268.26H344c-.22,0-.31.1-.31.32q0,.65,0,1.29c0,.25.11.33.35.32s.73,0,1.09,0,.45.13.45.46c0,1.14,0,2.27,0,3.41h0c0,1.16,0,2.32,0,3.48,0,.27.08.39.36.37s.74,0,1.1,0c.57,0,.57,0,.57-.56v-6.58c0-.57,0-.57.55-.57h1c.21,0,.3-.09.3-.29,0-.44,0-.89,0-1.33C349.49,268.35,349.39,268.26,349.16,268.26Z"/><path class="cls-109" d="M358.18,319.9a2.72,2.72,0,0,0-2.86,2.88v11.51a2.58,2.58,0,0,0,2.08,2.64h-.33a1.81,1.81,0,0,0-2,1.79,1.78,1.78,0,0,0,1.95,1.75h35.22a1.75,1.75,0,0,0,.32-3.48,3.28,3.28,0,0,0-.63-.05,2.33,2.33,0,0,0,1.86-2.4v-18a2.41,2.41,0,0,0-2.51-2.54H387a2.44,2.44,0,0,0-2.49,2.52v18a2.33,2.33,0,0,0,1.83,2.37h-4.56a2.66,2.66,0,0,0,2.16-2.63c0-2.44,0-4.88,0-7.32a2.76,2.76,0,0,0-2.85-2.76h-9.46a3,3,0,0,0-1.23.24,2.81,2.81,0,0,0-1.69,2.75q0,3.46,0,6.93a2.69,2.69,0,0,0,2.23,2.8h-5.32a2.73,2.73,0,0,0,1.95-2.79V322.91a2.83,2.83,0,0,0-3-3c-1.44,0-2.88,0-4.32,0Zm18.19,13.64h-.53c-1.2,0-2.4,0-3.66,0,0-1.93,0-3.87,0-5.85H375l2.29,0h3c0,1.91,0,3.83.07,5.8C379.1,333.52,377.73,333.53,376.37,333.54Zm11.62,0v-16h2.3c0,5.32,0,10.64,0,16H388Zm-29.14-10.09H364c0,3.35,0,6.7,0,10.09h-5.12c0-1.24,0-2.49,0-3.73v-2.62C358.86,325.94,358.86,324.72,358.85,323.43Z"/><path class="cls-110" d="M313.05,350h19.82a1.86,1.86,0,0,0,2.06-2.06V312a1.86,1.86,0,0,0-2.08-2.08H312.68a1.79,1.79,0,0,0-1.69,1.65,4.6,4.6,0,0,0,0,.55V347.9A1.84,1.84,0,0,0,313.05,350Zm18.35-3.53H314.51q0-6.85,0-13.72V313.45H331.4v23.41C331.39,340.05,331.39,343.24,331.4,346.45Z"/><path class="cls-111" d="M313.08,309.27h19.78a1.86,1.86,0,0,0,2.07-2V301a1.88,1.88,0,0,0-2.14-2.13H313a1.84,1.84,0,0,0-2,2v6.28A1.85,1.85,0,0,0,313.08,309.27Zm1.43-3.53c0-1.11,0-2.21,0-3.34h10.36c2.16,0,4.31,0,6.53,0,0,1.09,0,2.19,0,3.34H314.51Z"/></svg>