<?xml version="1.0" encoding="UTF-8"?>
<svg id="Capa_1" xmlns="http://www.w3.org/2000/svg" version="1.1" viewBox="0 0 55.47 41.64">
  <!-- Generator: Adobe Illustrator 29.6.1, SVG Export Plug-In . SVG Version: 2.1.1 Build 9)  -->
  <defs>
    <style>
      .st0 {
        fill: #fff;
      }
    </style>
  </defs>
  <path class="st0" d="M3.84,32.64c.04.23.3,2.31,4.09,4.17l.07.03c2.67,1.02,4.76,1.05,6.23.82.9-.11,1.75-.41,2.5-.86.29-.2.39-.54.26-.83-.22-.42-.22-.89,0-1.31,1.32-1.29,2.8-1.98,2.67-4.75.79.62,1.75,1.04,2.91.88l.09-.02c1.26-.19,2.24-1.06,2.4-2.14.9.22,1.88.02,2.58-.54.92-.76,1.13-1.84.64-2.93,1.12-.23,1.93-1.06,1.98-2.03l.13-11.98c0-.05,0-.1,0-.15-.04-1.07-1.11-1.87-2.38-1.79l-13.86.37s-.05,0-.07,0c-1.25.03-2.28.91-2.31,1.98l-.09,4.34c-1.35.54-3.97,1.36-4.76,1.7-1.11.56-1.86,1.54-2.05,2.62-.1.84.44,7.69.14,9.19-.37,1.89-1.04,2.79-1.04,2.79-.1.13-.15.29-.14.45h0ZM28.58,23.13c-.03.38-.4.67-.85.68l-6,.07c1.83-2.31,3.76-3.32,2.61-5.01-1.2-1.73-4.32-1.22-6.28.13-1.61,1.12-3.12,3.63-4.47,4.78-.14-.14-.3-.26-.47-.43l.28-11.82s0-.04,0-.05c.04-.3.35-.54.71-.52l13.92-.35s.08,0,.12,0c.35.02.61.27.57.57l-.15,11.96h0ZM25.68,27.27c-.39-.03-1.56-.29-3.02-1.98l3.81-.04c.32.46.72,1.26.02,1.83-.22.17-.52.24-.81.19h0ZM22.34,29.38c-.56.08-1.3-.05-2.53-1.55.16-.83.46-1.65.89-2.41.71,1,1.65,1.87,2.75,2.57,0,.02,0,.03.01.05.12.62-.37,1.22-1.1,1.34h-.02ZM8.71,35.54c-2.42-1.18-3.06-2.41-3.23-2.87.56-.97.93-2.01,1.11-3.08.34-1.68-.21-8.61-.13-9.3.12-.6.53-1.14,1.13-1.49.58-.24,2.71-.92,4.04-1.41l-.08,3.85c-.19-.09-.42-.11-.64-.04-.43.12-.67.52-.54.88.38.92.98,1.75,1.76,2.45-.61.17-1.25.25-1.88.25-.44-.02-.83.28-.86.67s.3.71.75.73c1.36.03,2.72-.29,3.9-.91,1.77-1.02,3.41-4.06,5.05-5.19,1.07-.74,3.24-1.38,3.84-.48.55.8-1.16,1.44-3.27,4.51-1.28,1.88-1.84,4.05-1.61,6.2.15,1.97-2.01,2.98-2.43,3.59-.39.61-.51,1.32-.33,2-.91.37-3.1.91-6.56-.36h-.02Z"/>
  <path class="st0" d="M45.27,21.63c-2.56-2.56-3.09-4.98-1.79-8.16.15-.38-.09-.78-.54-.89-.45-.12-.94.1-1.09.48-1.49,3.64-.85,6.57,2.08,9.51h0c.3.31.85.34,1.22.08.37-.26.42-.71.12-1.01Z"/>
  <path class="st0" d="M48.12,20.35c.35-.27.39-.71.08-1.01-1.41-1.27-1.81-3.1-1.05-4.73h0c.18-.38-.05-.79-.5-.93-.45-.13-.96.06-1.13.44-.99,2.13-.46,4.52,1.37,6.18.32.29.87.32,1.23.05h0Z"/>
  <path class="st0" d="M41.74,24.63c.38-.25.45-.7.16-1.02-3.17-3.49-3.85-6.65-2.36-10.89.13-.38-.13-.77-.58-.87-.45-.1-.93.13-1.06.51-1.64,4.67-.86,8.29,2.62,12.14.28.32.83.37,1.21.13,0,0,0,0,.01,0Z"/>
  <path class="st0" d="M38.34,26.6c.38-.25.45-.7.17-1.01-3.71-4.13-4.65-8.56-2.9-13.57h0c.13-.38-.12-.77-.57-.86-.45-.1-.92.13-1.05.51-1.88,5.38-.83,10.36,3.15,14.8,0,0,0,0,0,0,.28.32.82.37,1.2.13,0,0,0,0,0,0Z"/>
  <path class="st0" d="M21.18,32.96c-.44-.1-.9.13-1.02.52-.12.38.14.77.59.87,3.99.85,8.2.95,12.33.29,13-2.02,22.27-10.55,20.39-18.85-1.86-8.2-13.87-12.83-26.5-10.48-1.63.31-3.23.72-4.78,1.24-.06.01-.12.03-.17.06-.41.18-.58.6-.38.94.2.34.69.46,1.1.28,1.47-.49,2.98-.88,4.52-1.16,11.73-2.17,22.8,2,24.48,9.41,1.69,7.5-6.91,15.24-18.95,17.13-3.89.63-7.85.54-11.61-.25h.01Z"/>
</svg>