<?xml version="1.0" encoding="UTF-8"?>
<svg id="Capa_1" xmlns="http://www.w3.org/2000/svg" version="1.1" viewBox="0 0 224.6 65.96">
  <!-- Generator: Adobe Illustrator 29.6.1, SVG Export Plug-In . SVG Version: 2.1.1 Build 9)  -->
  <defs>
    <style>
      .st0 {
        isolation: isolate;
      }

      .st1 {
        fill: #fff;
      }
    </style>
  </defs>
  <g class="st0">
    <g class="st0">
      <path class="st1" d="M15.66,7.48c1.06,0,2.04.04,2.95.13.91.09,1.78.28,2.61.6.83.31,1.44.77,1.84,1.38.21.23.48.74.79,1.55.32.8.48,1.98.48,3.53v6.53c0,1.22-.12,2.17-.35,2.83-.23.67-.56,1.31-.98,1.92-.47.64-1.12,1.12-1.98,1.43-.85.31-1.73.5-2.63.57-.9.07-1.98.11-3.25.11-1.54,0-2.84-.11-3.9-.34-1.06-.22-1.92-.7-2.58-1.42-1.03-1.02-1.54-2.92-1.54-5.7v-5.54c0-1.17.08-2.22.23-3.13.15-.91.46-1.71.93-2.4.44-.62,1.07-1.07,1.88-1.38.81-.3,1.65-.49,2.52-.57.87-.07,1.86-.11,2.97-.11ZM15.72,10.8c-1.26,0-2.22.09-2.9.27-.68.18-1.13.53-1.36,1.05-.26.58-.44,1.49-.51,2.7.04.16.05.36.05.62v4.81c0,1.66.19,2.8.57,3.43.32.47.77.76,1.36.88.59.12,1.5.19,2.72.23,1.19-.03,2.08-.12,2.69-.27.61-.16,1.08-.43,1.41-.83.2-.29.36-.72.48-1.28.12-.56.19-1.16.19-1.8v-6.1c0-1.28-.22-2.2-.67-2.75-.44-.47-1.15-.77-2.11-.9-.59-.04-1.23-.05-1.92-.05Z"/>
      <path class="st1" d="M30.76,21.36v6.53h-3.89V7.64h8.86c1.59,0,2.95.15,4.08.45,1.13.3,1.97.96,2.5,1.99.49,1.12.73,2.6.73,4.42,0,2.5-.42,4.25-1.27,5.27-.41.51-1.1.91-2.07,1.18-.97.27-1.98.41-3.03.41h-5.91ZM30.76,18.04h4.92c1.44,0,2.34-.18,2.72-.54.36-.29.58-.62.65-.96.07-.35.13-.97.16-1.87,0-1.28-.14-2.18-.43-2.7-.22-.36-.56-.62-1.01-.77-.46-.15-1.12-.22-1.99-.22h-5.02v7.07Z"/>
      <path class="st1" d="M45.39,27.89V7.64h13.91v3.32h-10.02v5.08h9.51v3.16h-9.51v5.37h10.07v3.32h-13.96Z"/>
      <path class="st1" d="M72.23,7.64c2.62,0,4.39.51,5.32,1.54.81.91,1.22,2.41,1.22,4.48,0,2.25-.3,3.73-.9,4.43-.53.65-1.43,1.1-2.69,1.33v.08c1.18.12,2.08.52,2.69,1.21.49.78.73,1.92.73,3.43v3.75h-3.91v-3.05c0-.7-.03-1.29-.1-1.75-.07-.46-.24-.85-.52-1.16-.28-.31-.6-.51-.98-.6-.38-.09-.88-.13-1.51-.13h-5.43v6.7h-3.89V7.64h9.96ZM71.64,10.96h-5.48v6.91h5.59c.68,0,1.2-.05,1.56-.17.36-.11.69-.31.98-.61.38-.49.57-1.42.57-2.81,0-1.27-.15-2.14-.46-2.6-.25-.31-.6-.5-1.03-.59s-1.01-.13-1.72-.13Z"/>
      <path class="st1" d="M86.78,7.64h5.7l6.91,20.25h-3.97l-1.29-3.81h-8.78l-1.3,3.81h-4.02l4.64-14.04,2.11-6.21ZM86.21,21.14h6.99l-3.48-10.56h-.03l-3.48,10.56Z"/>
      <path class="st1" d="M113.1,14.44v-1.27c0-.82-.2-1.41-.59-1.79-.41-.4-1.54-.59-3.38-.59h-.57c-1.03,0-1.81.06-2.33.18s-.95.34-1.26.65c-.56.54-.84,1.67-.84,3.38v5.29c0,2.03.33,3.27,1,3.72.4.31.87.51,1.41.59.54.08,1.28.12,2.24.12,1.15,0,1.92-.02,2.32-.05.69-.14,1.22-.37,1.57-.71.16-.16.28-.36.37-.6.09-.24.14-.48.17-.72.03-.25.05-.56.07-.94s.03-.73.04-1.06h3.84v1.76c0,1.98-.5,3.42-1.49,4.32-.88.69-2.21,1.09-4,1.21-.63.05-1.4.09-2.32.11-.92.03-1.45.04-1.6.05-2.79,0-4.74-.55-5.84-1.65-.51-.52-.89-1.17-1.13-1.97-.24-.79-.38-1.66-.44-2.6s-.08-2.26-.08-3.96.02-3.06.07-3.95c.05-.89.17-1.7.38-2.43.21-.73.55-1.4,1.03-2.02.47-.57,1.08-1.01,1.86-1.31s1.59-.5,2.46-.6c.87-.1,1.8-.15,2.79-.15,1.13,0,2.04.02,2.76.06.71.04,1.4.16,2.07.34.67.18,1.23.47,1.68.87.48.44.84.99,1.07,1.64.23.65.37,1.29.42,1.92.05.63.08,1.34.08,2.14h-3.84Z"/>
      <path class="st1" d="M131.87,14.44v-1.27c0-.82-.2-1.41-.59-1.79-.41-.4-1.54-.59-3.38-.59h-.57c-1.03,0-1.81.06-2.33.18s-.95.34-1.26.65c-.56.54-.84,1.67-.84,3.38v5.29c0,2.03.33,3.27,1,3.72.4.31.87.51,1.41.59s1.28.12,2.24.12c1.15,0,1.92-.02,2.32-.05.69-.14,1.22-.37,1.57-.71.16-.16.28-.36.37-.6s.14-.48.17-.72c.03-.25.05-.56.07-.94.01-.38.03-.73.04-1.06h3.84v1.76c0,1.98-.5,3.42-1.49,4.32-.88.69-2.21,1.09-4,1.21-.63.05-1.4.09-2.32.11-.92.03-1.45.04-1.6.05-2.79,0-4.74-.55-5.84-1.65-.51-.52-.89-1.17-1.13-1.97-.24-.79-.38-1.66-.44-2.6s-.08-2.26-.08-3.96.02-3.06.07-3.95c.05-.89.17-1.7.38-2.43s.55-1.4,1.03-2.02c.47-.57,1.08-1.01,1.86-1.31s1.59-.5,2.46-.6,1.8-.15,2.79-.15c1.13,0,2.04.02,2.76.06.71.04,1.4.16,2.07.34.67.18,1.23.47,1.68.87.48.44.84.99,1.07,1.64.23.65.37,1.29.42,1.92.05.63.08,1.34.08,2.14h-3.84Z"/>
      <path class="st1" d="M138.54,7.64h3.92v20.25h-3.92V7.64Z"/>
      <path class="st1" d="M153.82,7.48c1.06,0,2.04.04,2.95.13s1.78.28,2.61.6c.83.31,1.44.77,1.84,1.38.21.23.48.74.79,1.55s.48,1.98.48,3.53v6.53c0,1.22-.12,2.17-.35,2.83-.23.67-.56,1.31-.98,1.92-.47.64-1.12,1.12-1.98,1.43-.85.31-1.73.5-2.63.57s-1.98.11-3.25.11c-1.54,0-2.84-.11-3.9-.34-1.06-.22-1.92-.7-2.58-1.42-1.03-1.02-1.54-2.92-1.54-5.7v-5.54c0-1.17.08-2.22.23-3.13s.46-1.71.93-2.4c.44-.62,1.07-1.07,1.88-1.38.81-.3,1.65-.49,2.52-.57.87-.07,1.86-.11,2.97-.11ZM153.87,10.8c-1.26,0-2.22.09-2.9.27-.68.18-1.13.53-1.36,1.05-.26.58-.44,1.49-.51,2.7.04.16.05.36.05.62v4.81c0,1.66.19,2.8.57,3.43.32.47.77.76,1.36.88.59.12,1.5.19,2.72.23,1.19-.03,2.08-.12,2.69-.27.61-.16,1.08-.43,1.41-.83.2-.29.36-.72.48-1.28.12-.56.19-1.16.19-1.8v-6.1c0-1.28-.22-2.2-.67-2.75-.44-.47-1.15-.77-2.11-.9-.59-.04-1.23-.05-1.92-.05Z"/>
      <path class="st1" d="M165.27,7.64h6.45l8.69,16.93h.11l-.32-16.93h3.92v20.25h-6.51l-8.59-16.93h-.16l.22,8.4.11,8.53h-3.92V7.64Z"/>
      <path class="st1" d="M187.33,27.89V7.64h13.91v3.32h-10.02v5.08h9.51v3.16h-9.51v5.37h10.07v3.32h-13.96Z"/>
      <path class="st1" d="M211.14,7.48c1.8,0,3.08.04,3.86.11,1.25.16,2.19.51,2.83,1.05.68.55,1.11,1.21,1.3,2s.29,1.77.29,2.97h-3.92v-.81c0-.76-.13-1.28-.4-1.57-.32-.36-1.13-.54-2.43-.54h-1.59c-1.54,0-2.54.18-2.99.54-.24.18-.42.42-.52.72s-.16.74-.16,1.33c.04.67.09,1.16.17,1.46s.28.53.61.71c.26.14.59.25.98.32.39.07.85.13,1.38.17.53.04,1.03.07,1.51.1,1.6.1,2.93.23,3.97.38,1.04.15,1.84.44,2.4.86.34.27.6.6.8.98s.33.77.42,1.19c.08.41.14.77.15,1.08.02.3.04.81.07,1.52,0,1.13-.16,2.12-.48,2.99-.32.87-.78,1.53-1.39,1.98-.95.7-2.89,1.05-5.81,1.05h-1.46c-1.3,0-2.41-.07-3.35-.21-.94-.14-1.74-.5-2.4-1.06-.48-.42-.84-.89-1.06-1.43-.22-.54-.36-1.09-.41-1.66-.05-.57-.08-1.31-.08-2.23h3.87c0,.23-.02.42-.05.57.03.62.08,1.1.16,1.42s.23.59.46.79c.26.24.6.4,1.04.48.43.08,1.04.14,1.83.17.38,0,.66.02.84.06.99-.04,1.73-.1,2.23-.16s.92-.19,1.25-.38c.6-.37.9-1.22.9-2.54,0-.93-.19-1.6-.57-2.01-.14-.13-.32-.23-.53-.31-.22-.08-.43-.14-.65-.17-.22-.03-.49-.06-.83-.08-.33-.02-.71-.04-1.13-.06-.72-.03-1.4-.06-2.04-.09-.64-.03-1.24-.08-1.82-.15s-1.15-.19-1.71-.37c-.57-.18-1.04-.41-1.42-.7-1.07-.78-1.63-2.26-1.7-4.43,0-2.27.51-3.85,1.54-4.75,1.06-.85,3.08-1.27,6.05-1.27Z"/>
    </g>
    <g class="st0">
      <path class="st1" d="M19.9,46.84v-1.27c0-.82-.2-1.41-.59-1.79-.41-.4-1.54-.59-3.38-.59h-.57c-1.03,0-1.81.06-2.33.18s-.95.34-1.26.65c-.56.54-.84,1.67-.84,3.38v5.29c0,2.03.33,3.27,1,3.72.4.31.87.51,1.41.59.54.08,1.28.12,2.24.12,1.15,0,1.92-.02,2.32-.05.69-.14,1.22-.37,1.57-.71.16-.16.28-.36.37-.6.09-.24.14-.48.17-.72s.05-.56.07-.94c.02-.38.03-.73.04-1.06h3.84v1.76c0,1.98-.5,3.42-1.49,4.32-.88.69-2.21,1.09-4,1.21-.63.05-1.4.09-2.32.11-.92.03-1.45.04-1.6.05-2.79,0-4.74-.55-5.84-1.65-.51-.52-.89-1.17-1.13-1.97-.24-.79-.38-1.66-.44-2.6s-.08-2.26-.08-3.96.02-3.06.07-3.95c.05-.89.17-1.7.38-2.43.21-.73.55-1.4,1.03-2.02.47-.57,1.08-1.01,1.86-1.31s1.59-.5,2.46-.6c.87-.1,1.8-.15,2.79-.15,1.13,0,2.04.02,2.76.06.71.04,1.4.16,2.07.34s1.23.47,1.68.87c.48.44.84.99,1.07,1.64.23.65.37,1.29.42,1.92.05.63.08,1.34.08,2.14h-3.84Z"/>
      <path class="st1" d="M34.43,39.88c1.06,0,2.04.04,2.95.13.91.09,1.78.28,2.61.6.83.31,1.44.77,1.84,1.38.21.23.48.74.79,1.55.32.8.48,1.98.48,3.53v6.53c0,1.22-.12,2.17-.35,2.83-.23.67-.56,1.31-.98,1.92-.47.64-1.12,1.12-1.98,1.43-.85.31-1.73.5-2.63.57-.9.07-1.98.11-3.25.11-1.54,0-2.84-.11-3.9-.34-1.06-.22-1.92-.7-2.58-1.42-1.03-1.02-1.54-2.92-1.54-5.7v-5.54c0-1.17.08-2.22.23-3.13.15-.91.46-1.71.93-2.4.44-.62,1.07-1.07,1.88-1.38.81-.3,1.65-.49,2.52-.57.87-.07,1.86-.11,2.97-.11ZM34.48,43.2c-1.26,0-2.22.09-2.9.27-.68.18-1.13.53-1.36,1.05-.26.58-.44,1.49-.51,2.7.04.16.05.36.05.62v4.81c0,1.66.19,2.8.57,3.43.32.47.77.76,1.36.88.59.12,1.5.19,2.72.23,1.19-.03,2.08-.12,2.69-.27.61-.16,1.08-.43,1.41-.83.2-.29.36-.72.48-1.28.12-.56.19-1.16.19-1.8v-6.1c0-1.28-.22-2.2-.67-2.75-.44-.47-1.15-.77-2.11-.9-.59-.04-1.23-.05-1.92-.05Z"/>
      <path class="st1" d="M45.88,60.29v-20.25h6.3l5.48,15.04h.11l5.43-15.04h6.37v20.25h-3.88l.32-17.09h-.11l-6.39,17.09h-3.49l-6.43-16.98h-.11l.22,7.53.11,9.45h-3.92Z"/>
      <path class="st1" d="M72.86,60.29v-20.25h13.91v3.32h-10.02v5.08h9.51v3.16h-9.51v5.37h10.07v3.32h-13.96Z"/>
      <path class="st1" d="M99.69,40.04c2.62,0,4.39.51,5.32,1.54.81.91,1.22,2.41,1.22,4.48,0,2.25-.3,3.73-.9,4.43-.53.65-1.43,1.1-2.69,1.33v.08c1.18.12,2.08.52,2.69,1.21.49.78.73,1.92.73,3.43v3.75h-3.91v-3.05c0-.7-.03-1.29-.1-1.75-.07-.46-.24-.85-.52-1.16-.28-.31-.6-.51-.98-.6-.38-.09-.88-.13-1.51-.13h-5.43v6.7h-3.89v-20.25h9.96ZM99.1,43.36h-5.48v6.91h5.59c.68,0,1.2-.05,1.56-.17.36-.11.69-.31.98-.61.38-.49.57-1.42.57-2.81,0-1.27-.15-2.14-.46-2.6-.25-.31-.6-.5-1.03-.59s-1.01-.13-1.72-.13Z"/>
      <path class="st1" d="M121.42,46.84v-1.27c0-.82-.2-1.41-.59-1.79-.41-.4-1.54-.59-3.38-.59h-.57c-1.03,0-1.81.06-2.33.18s-.95.34-1.26.65c-.56.54-.84,1.67-.84,3.38v5.29c0,2.03.33,3.27,1,3.72.4.31.87.51,1.41.59.54.08,1.28.12,2.24.12,1.15,0,1.92-.02,2.32-.05.69-.14,1.22-.37,1.57-.71.16-.16.28-.36.37-.6.09-.24.14-.48.17-.72.03-.25.05-.56.07-.94s.03-.73.04-1.06h3.84v1.76c0,1.98-.5,3.42-1.49,4.32-.88.69-2.21,1.09-4,1.21-.63.05-1.4.09-2.32.11s-1.45.04-1.6.05c-2.79,0-4.74-.55-5.84-1.65-.51-.52-.89-1.17-1.13-1.97-.24-.79-.38-1.66-.44-2.6s-.08-2.26-.08-3.96.02-3.06.07-3.95c.05-.89.17-1.7.38-2.43.21-.73.55-1.4,1.03-2.02.47-.57,1.08-1.01,1.86-1.31s1.59-.5,2.46-.6c.87-.1,1.8-.15,2.79-.15,1.12,0,2.04.02,2.76.06.71.04,1.4.16,2.07.34.67.18,1.23.47,1.68.87.48.44.84.99,1.07,1.64.23.65.37,1.29.42,1.92.05.63.08,1.34.08,2.14h-3.84Z"/>
      <path class="st1" d="M128.09,40.04h3.92v20.25h-3.92v-20.25Z"/>
      <path class="st1" d="M140.43,40.04h5.7l6.91,20.25h-3.97l-1.29-3.81h-8.78l-1.3,3.81h-4.02l4.64-14.04,2.11-6.21ZM139.86,53.54h6.99l-3.48-10.56h-.03l-3.48,10.56Z"/>
      <path class="st1" d="M154.66,40.04h3.92v16.93h9.51v3.32h-13.42v-20.25Z"/>
      <path class="st1" d="M169.64,60.29v-20.25h13.91v3.32h-10.02v5.08h9.51v3.16h-9.51v5.37h10.07v3.32h-13.96Z"/>
      <path class="st1" d="M193.46,39.88c1.8,0,3.08.04,3.86.11,1.25.16,2.19.51,2.83,1.05.68.55,1.11,1.21,1.31,2s.29,1.77.29,2.97h-3.92v-.81c0-.76-.13-1.28-.4-1.57-.32-.36-1.13-.54-2.43-.54h-1.6c-1.54,0-2.54.18-2.99.54-.24.18-.42.42-.52.72s-.16.74-.16,1.33c.03.67.09,1.16.17,1.46.08.3.29.53.61.71.26.14.59.25.98.32.39.07.85.13,1.38.17s1.03.07,1.51.1c1.6.1,2.93.23,3.97.38,1.04.15,1.84.44,2.4.86.34.27.6.6.8.98.19.38.33.77.42,1.19s.14.77.16,1.08c.02.3.04.81.07,1.52,0,1.13-.16,2.12-.48,2.99-.32.87-.78,1.53-1.39,1.98-.95.7-2.89,1.05-5.81,1.05h-1.46c-1.3,0-2.42-.07-3.35-.21-.94-.14-1.74-.5-2.4-1.06-.48-.42-.84-.89-1.06-1.43-.22-.54-.36-1.09-.41-1.66s-.08-1.31-.08-2.23h3.87c0,.23-.02.42-.05.57.03.62.08,1.1.16,1.42.08.32.23.59.46.79.26.24.6.4,1.04.48.43.08,1.04.14,1.83.17.38,0,.66.02.84.06.99-.04,1.73-.1,2.23-.16.5-.06.92-.19,1.25-.38.6-.37.9-1.22.9-2.54,0-.93-.19-1.6-.57-2.01-.14-.13-.32-.23-.53-.31-.22-.08-.43-.14-.65-.17-.22-.03-.49-.06-.83-.08-.33-.02-.71-.04-1.13-.06-.72-.03-1.4-.06-2.04-.09-.64-.03-1.24-.08-1.82-.15-.58-.07-1.15-.19-1.71-.37-.57-.18-1.04-.41-1.42-.7-1.06-.78-1.63-2.26-1.7-4.43,0-2.27.51-3.85,1.54-4.75,1.06-.85,3.08-1.27,6.05-1.27Z"/>
    </g>
  </g>
</svg>