<?xml version="1.0" encoding="UTF-8"?>
<svg id="Capa_1" xmlns="http://www.w3.org/2000/svg" version="1.1" viewBox="0 0 147.34 26.71">
  <!-- Generator: Adobe Illustrator 29.6.1, SVG Export Plug-In . SVG Version: 2.1.1 Build 9)  -->
  <defs>
    <style>
      .st0 {
        isolation: isolate;
      }

      .st1 {
        fill: #fff;
      }
    </style>
  </defs>
  <g class="st0">
    <g class="st0">
      <path class="st1" d="M10.59,16.6v3.39h-2.02v-10.5h4.59c.82,0,1.53.08,2.12.23.59.15,1.02.5,1.3,1.03.25.58.38,1.35.38,2.29,0,1.29-.22,2.21-.66,2.73-.21.27-.57.47-1.08.61-.5.14-1.03.21-1.57.21h-3.07ZM10.59,14.88h2.55c.75,0,1.22-.09,1.41-.28.19-.15.3-.32.34-.5.04-.18.07-.5.08-.97,0-.66-.07-1.13-.22-1.4-.11-.19-.29-.32-.52-.4-.24-.08-.58-.12-1.03-.12h-2.6v3.67Z"/>
      <path class="st1" d="M22.54,18.35c.17,0,.29,0,.37.03.49-.02.87-.05,1.13-.09.26-.05.48-.15.65-.3.15-.13.25-.28.29-.44.04-.17.06-.43.06-.8v-7.25h2.02v7.52c0,1.11-.31,1.91-.92,2.41-.37.29-.87.47-1.49.55s-1.38.11-2.26.11c-.65,0-1.2-.03-1.66-.09-.46-.06-.88-.19-1.26-.4-.39-.23-.68-.58-.87-1.04-.19-.47-.28-1-.28-1.59v-7.46h2.03v7.63c0,.25.03.44.08.57.06.13.16.25.32.35.2.13.43.22.7.25.27.04.63.05,1.11.05Z"/>
      <path class="st1" d="M28.85,9.49h3.35l4.51,8.78h.05l-.17-8.78h2.03v10.5h-3.37l-4.45-8.78h-.08l.11,4.35.05,4.42h-2.03v-10.5Z"/>
      <path class="st1" d="M42.62,19.99v-8.78h-3.07v-1.72h8.18v1.72h-3.09v8.78h-2.02Z"/>
      <path class="st1" d="M52.72,9.4c.55,0,1.06.02,1.53.07.47.04.92.15,1.35.31.43.16.75.4.95.72.11.12.25.39.41.8.17.42.25,1.03.25,1.83v3.39c0,.63-.06,1.12-.18,1.47s-.29.68-.51,1c-.24.33-.58.58-1.03.74-.44.16-.9.26-1.36.3-.47.04-1.03.05-1.69.05-.8,0-1.47-.06-2.02-.17s-.99-.36-1.34-.74c-.53-.53-.8-1.52-.8-2.95v-2.87c0-.61.04-1.15.12-1.62.08-.47.24-.89.48-1.24.23-.32.55-.56.97-.71.42-.16.86-.25,1.31-.29s.96-.06,1.54-.06ZM52.75,11.13c-.65,0-1.15.05-1.51.14s-.59.28-.71.54c-.14.3-.23.77-.27,1.4.02.08.03.19.03.32v2.49c0,.86.1,1.45.29,1.78.16.24.4.4.7.46s.78.1,1.41.12c.62-.01,1.08-.06,1.4-.14.32-.08.56-.22.73-.43.1-.15.19-.37.25-.66.06-.29.1-.6.1-.93v-3.17c0-.66-.12-1.14-.35-1.43-.23-.24-.59-.4-1.09-.46-.31-.02-.64-.03-.99-.03Z"/>
      <path class="st1" d="M62.22,9.4c.93,0,1.6.02,2,.06.65.08,1.14.27,1.47.55.35.29.58.63.68,1.04.1.41.15.92.15,1.54h-2.03v-.42c0-.39-.07-.66-.21-.81-.16-.19-.58-.28-1.26-.28h-.83c-.8,0-1.32.09-1.55.28-.13.09-.22.22-.27.37s-.08.39-.08.69c.02.35.05.6.09.76.04.16.15.28.32.37.14.07.31.13.51.17.2.04.44.07.71.09.27.02.54.04.78.05.83.05,1.52.12,2.06.2.54.08.96.23,1.24.44.18.14.31.31.41.51.1.2.17.4.22.62.04.21.07.4.08.56s.02.42.03.79c0,.58-.08,1.1-.25,1.55-.17.45-.41.79-.72,1.03-.49.37-1.5.55-3.01.55h-.76c-.67,0-1.25-.04-1.74-.11s-.9-.26-1.24-.55c-.25-.22-.43-.46-.55-.74-.12-.28-.19-.56-.21-.86-.03-.29-.04-.68-.04-1.16h2.01c0,.12,0,.22-.03.29.02.32.04.57.08.74.04.17.12.3.24.41.13.12.31.21.54.25.22.04.54.07.95.09.2,0,.34.01.43.03.51-.02.9-.05,1.16-.08.26-.03.47-.1.65-.2.31-.19.46-.63.46-1.32,0-.48-.1-.83-.29-1.04-.07-.07-.17-.12-.28-.16s-.22-.07-.34-.09c-.11-.02-.26-.03-.43-.04-.17-.01-.37-.02-.58-.03-.37-.02-.73-.03-1.06-.05-.33-.02-.65-.04-.94-.08-.3-.04-.6-.1-.89-.19-.29-.09-.54-.21-.74-.36-.55-.41-.85-1.17-.88-2.3,0-1.18.27-2,.8-2.46.55-.44,1.6-.66,3.14-.66Z"/>
      <path class="st1" d="M78.44,19.99h-5.46v-10.5h5.06c1.85,0,3.06.5,3.61,1.5.33.62.49,1.47.49,2.58v2.24c0,1.86-.53,3.1-1.58,3.73-.24.14-.57.25-.97.34-.41.08-.79.12-1.14.12ZM78.04,18.27c.4,0,.73-.05.98-.14s.48-.28.68-.58c.27-.38.41-1.05.41-2.02v-1.89c0-.62-.04-1.09-.12-1.42s-.28-.58-.6-.75c-.32-.18-.82-.26-1.49-.26h-2.9v7.05h3.04Z"/>
      <path class="st1" d="M83.45,19.99v-10.5h7.21v1.72h-5.2v2.63h4.93v1.64h-4.93v2.79h5.22v1.72h-7.24Z"/>
      <path class="st1" d="M102.51,19.99h-3.03l-3.37-10.5h2.06l2.81,8.84h.03l2.82-8.84h2.08l-3.4,10.5Z"/>
      <path class="st1" d="M106.54,19.99v-10.5h7.21v1.72h-5.2v2.63h4.93v1.64h-4.93v2.79h5.22v1.72h-7.24Z"/>
      <path class="st1" d="M115.33,9.49h3.35l4.51,8.78h.05l-.17-8.78h2.03v10.5h-3.37l-4.45-8.78h-.08l.11,4.35.05,4.42h-2.03v-10.5Z"/>
      <path class="st1" d="M129.09,19.99v-8.78h-3.07v-1.72h8.18v1.72h-3.09v8.78h-2.02Z"/>
      <path class="st1" d="M137.67,9.49h2.95l3.58,10.5h-2.06l-.67-1.98h-4.55l-.67,1.98h-2.09l2.41-7.28,1.09-3.22ZM137.38,16.49h3.62l-1.81-5.48h-.01l-1.81,5.48Z"/>
    </g>
  </g>
</svg>