<?xml version="1.0" encoding="UTF-8"?>
<svg id="Capa_1" xmlns="http://www.w3.org/2000/svg" version="1.1" viewBox="0 0 50.99 49.07">
  <!-- Generator: Adobe Illustrator 29.6.1, SVG Export Plug-In . SVG Version: 2.1.1 Build 9)  -->
  <defs>
    <style>
      .st0 {
        fill-rule: evenodd;
      }

      .st0, .st1 {
        fill: #fff;
      }
    </style>
  </defs>
  <path class="st1" d="M42.71,40.47l.49.87c.51.9.52,1.34.33,1.74-.19.4-.76.88-1.72,1.43l-4.31,2.47c-.96.55-1.67.8-2.1.76-.43-.04-.8-.27-1.31-1.17l-.51-.82,9.14-5.28ZM30.52,26.52l1.45,2.52c.45.78.3,1.77-.87,2.55l-3.75-3.76c.22-.05.45-.11.68-.21l2.49-1.1ZM20.65,24.34l1.59.23,13.67,13.72c.27.27.35.49.31.72-.08.55-.54.96-.97.96-.23,0-.45-.04-.72-.31l-8.37-8.4c-.58-1.91-1.27-3.06-2.09-3.71-.71-.56-1.51-.68-2.2-.59l-.99-1-.23-1.62ZM32.83,22.23l3.79,6.56c.44.76,1.58.1,1.14-.66l-1.53-2.66c1.09.57,2.4,1.29,3.25,1.85.87.57,1.27,1.29,1.4,2.45l.52,4.75c.15,1.37.06,3.23.7,4.79l-9.24,5.33c-.55-.8-1.12-1.34-1.91-1.95l-7.72-5.97c-.55-.42-.7-1.3-.65-2.36l.13-2.69-.32-3.25c.28,0,.55-.08.86.16.51.4,1.16,1.29,1.65,3.07.07.27.2.42.37.59l8.32,8.36c1.02,1.03,2.32.86,3.24,0,.97-.91.9-2.33,0-3.24l-4.79-4.81c1.43-1.12,1.83-2.85,1.07-4.16l-1.75-3.04c-.17-.29-.53-.41-.84-.28l-3.03,1.34c-1.04.46-1.42.17-1.64-.2-.27-.47-.11-.87.39-1.24l4.36-3.18c.94-.69,1.71-.47,2.23.44h0ZM29.82,20.72l-4.74,3.47c-.29.21-.47.48-.58.78l-1.48-1.48c-.1-.1-.23-.17-.37-.19l-2.68-.39c-.47-.07-.81.32-.75.74l.39,2.71c.02.14.08.27.18.37l1.24,1.24.37,3.67-.13,2.65c-.06,1.21.06,2.62,1.16,3.47l7.72,5.97c.91.7,1.32,1.12,1.92,2.12.28.46.57.91.86,1.36.61,1.09,1.41,1.76,2.35,1.85.94.08,1.83-.34,2.87-.93l4.31-2.47c1.03-.59,1.85-1.15,2.26-2,.41-.85.25-1.88-.36-2.97l-.82-1.45c-.69-1.2-.66-3.41-.82-4.87l-.52-4.75c-.16-1.44-.81-2.64-1.98-3.4-1.82-1.19-4.95-2.72-5.18-2.83l-1.05-1.82c-.99-1.7-2.58-1.99-4.15-.84h0Z"/>
  <path class="st0" d="M7.62,4.13h20.78c.84,0,1.5.66,1.5,1.5v1.98H6.13v-1.98c0-.84.65-1.5,1.5-1.5ZM7.62,2.82c-1.55,0-2.82,1.27-2.82,2.82v36.32c0,1.55,1.27,2.82,2.82,2.82h19.57c.37,0,.67-.29.67-.66s-.3-.67-.67-.66H7.62c-.85,0-1.5-.66-1.5-1.5v-2.17h14.41c.37,0,.67-.29.67-.66s-.3-.67-.67-.66H6.13V8.94h23.78v9.7c-.02.38.28.69.66.69s.67-.31.66-.69V5.63c0-1.55-1.27-2.82-2.82-2.82H7.62Z"/>
  <path class="st1" d="M14.15,15.71c-.72.43-1.43,1.2-2.16,2.1-1.46,1.78-2.88,4.07-3.14,5.88-.19,1.32.48,2.24,1.17,2.62.69.38,1.38.37,1.38.37.91.05.93-1.34.02-1.32,0,0-.42-.02-.77-.21-.35-.19-.63-.39-.5-1.28.18-1.24,1.49-3.59,2.85-5.24,1.45-1.76,2.63-2.81,2.28-.07-.12.93-.38,2.02-.66,3.06-.28,1.04-.57,2.03-.74,2.83-.23.89-.35,1.64.31,2.12.81.59,1.61.04,2.28-.46.67-.58,1.35-1.45,2.1-2.57.49-.73-.6-1.47-1.1-.74-.73,1.08-1.38,1.88-1.87,2.31-.64.56-.53.11-.43-.39.14-.73.44-1.71.72-2.77s.56-2.18.7-3.23c.14-1.04.26-2.06-.23-2.82-.6-.94-1.45-.67-2.22-.22h0Z"/>
</svg>