<?xml version="1.0" encoding="UTF-8"?>
<svg id="Capa_1" xmlns="http://www.w3.org/2000/svg" version="1.1" viewBox="0 0 117.86 20.82">
  <!-- Generator: Adobe Illustrator 29.6.1, SVG Export Plug-In . SVG Version: 2.1.1 Build 9)  -->
  <defs>
    <style>
      .st0 {
        isolation: isolate;
      }

      .st1 {
        fill: #fff;
      }
    </style>
  </defs>
  <g class="st0">
    <g class="st0">
      <path class="st1" d="M9.99,15.86V5.36h6.45v1.04h-5.28v3.7h5.15v.98h-5.15v4.79h-1.18Z"/>
      <path class="st1" d="M17.79,5.36h1.18v10.5h-1.18V5.36Z"/>
      <path class="st1" d="M25.97,5.36c1.17,0,1.99.26,2.46.77.41.43.62,1.22.62,2.35,0,.92-.14,1.58-.41,1.96-.3.39-.77.63-1.41.72v.03c.33.04.62.14.88.31.26.17.46.39.6.66.14.27.21.57.21.9v2.81h-1.2v-2.3c0-.69-.13-1.17-.39-1.46-.24-.29-.72-.43-1.44-.43h-3.78v4.19h-1.18V5.36h5.04ZM26,6.4h-3.86v4.21h3.72c.38,0,.7-.03.96-.1.26-.07.47-.2.65-.39.26-.28.39-.79.39-1.51v-.35c0-.69-.09-1.14-.28-1.37-.29-.33-.81-.49-1.58-.49Z"/>
      <path class="st1" d="M30.75,15.86V5.36h2.08l3.71,9,3.73-9h2.06v10.5h-1.18V6.26h-.03l-3.98,9.6h-1.18l-3.99-9.6h-.03v9.6h-1.2Z"/>
      <path class="st1" d="M47.21,5.36h1.67l3.95,10.5h-1.23l-.85-2.21h-5.31l-.81,2.21h-1.23l3.82-10.5ZM45.77,12.65h4.65l-2.35-6.31-2.3,6.31Z"/>
      <path class="st1" d="M64.07,15.86h-5.43V5.36h5.14c.8,0,1.45.13,1.93.4s.87.64,1.15,1.13c.34.63.51,1.49.51,2.58v2.24c0,1.91-.53,3.17-1.6,3.75-.43.27-.99.41-1.7.41ZM63.67,14.83c.49,0,.9-.06,1.22-.17.32-.11.58-.3.77-.57.22-.3.37-.68.43-1.13.07-.45.1-.97.1-1.54v-2.32c0-.45-.07-.88-.2-1.28-.13-.4-.36-.74-.69-1.01-.33-.27-.76-.4-1.31-.4h-4.16v8.43h3.84Z"/>
      <path class="st1" d="M69.04,5.36h1.18v10.5h-1.18V5.36Z"/>
      <path class="st1" d="M80.5,12.93c0,1.17-.27,1.97-.81,2.41-.25.19-.53.33-.84.42-.31.09-.65.14-1,.16-.36.02-.87.03-1.53.03h-.84c-.42,0-.79-.02-1.12-.05s-.63-.11-.92-.21-.54-.27-.75-.48c-.29-.28-.5-.65-.64-1.11-.14-.46-.21-1.05-.21-1.79v-3.45c0-1.25.28-2.18.83-2.79.25-.26.56-.46.95-.6.38-.14.82-.21,1.29-.21h2.84c.86,0,1.53.2,2.01.6s.72.99.72,1.75v.8h-1.17v-.45c0-.62-.1-1.02-.29-1.22-.15-.16-.35-.28-.6-.33-.25-.06-.55-.09-.88-.1s-.68-.01-1.04-.02c-.52,0-.96,0-1.31.01-.35,0-.65.03-.91.09-.26.06-.49.16-.68.32-.19.15-.33.39-.42.71-.09.33-.13.79-.13,1.39v3.81c0,.91.21,1.51.63,1.82.23.18.5.29.81.35.3.06.68.1,1.14.12.16-.02.37-.03.64-.03s.48,0,.61.03c.52-.02.95-.06,1.27-.11.32-.06.57-.16.77-.31.29-.21.43-.72.43-1.53v-1.32h-3.36v-1.06h4.54v2.32Z"/>
      <path class="st1" d="M81.97,5.36h1.18v10.5h-1.18V5.36Z"/>
      <path class="st1" d="M87.62,15.86V6.4h-3.39v-1.04h7.98v1.04h-3.39v9.47h-1.2Z"/>
      <path class="st1" d="M96.17,5.36h1.67l3.95,10.5h-1.23l-.85-2.21h-5.31l-.81,2.21h-1.23l3.82-10.5ZM94.72,12.65h4.65l-2.35-6.31-2.3,6.31Z"/>
      <path class="st1" d="M102.9,5.36h1.2v9.47h5.33v1.04h-6.54V5.36Z"/>
    </g>
  </g>
</svg>