<?xml version="1.0" encoding="UTF-8"?>
<svg id="Capa_1" xmlns="http://www.w3.org/2000/svg" version="1.1" viewBox="0 0 145.68 145.68">
  <!-- Generator: Adobe Illustrator 29.6.1, SVG Export Plug-In . SVG Version: 2.1.1 Build 9)  -->
  <defs>
    <style>
      .st0 {
        fill: #fff;
      }

      .st1 {
        fill: #5f40a2;
        opacity: .7;
      }
    </style>
  </defs>
  <rect class="st1" width="145.68" height="145.68" rx="13.63" ry="13.63"/>
  <path class="st0" d="M57.1,67.72c-.5,0-1-.06-1.49-.19-1.47-.39-2.71-1.34-3.46-2.64l-4.37-7.55c-.76-1.32-.95-2.84-.56-4.31s1.34-2.71,2.64-3.46l6.3-3.64c.24-.15.54-.17.82-.11s.52.26.65.5l8.98,15.54c.3.52.13,1.17-.39,1.47l-6.3,3.64c-.87.5-1.84.76-2.81.76h0ZM50.96,51.42c-.8.48-1.39,1.23-1.65,2.14s-.13,1.86.35,2.68l4.37,7.55c.48.8,1.23,1.39,2.14,1.65s1.86.13,2.68-.35l5.37-3.1-7.9-13.68s-5.37,3.1-5.37,3.1Z"/>
  <path class="st0" d="M65.7,63.45c-.58,0-1.06-.45-1.08-1.04,0-.58.45-1.08,1.04-1.1l27.58-.78-21.13-36.61-14.46,23.49c-.3.5-.97.67-1.47.35-.5-.3-.67-.97-.35-1.47l15.41-25.02c.19-.32.54-.52.93-.52s.74.22.91.54l22.95,39.74c.19.32.19.74,0,1.06s-.52.54-.91.54l-29.38.82h-.04Z"/>
  <path class="st0" d="M88.77,62.8c-.37,0-.74-.19-.93-.54l-19.94-34.53c-.3-.52-.13-1.17.39-1.47s1.17-.13,1.47.39l19.94,34.53c.3.52.13,1.17-.39,1.47-.17.09-.35.15-.54.15h0Z"/>
  <path class="st0" d="M95.07,62.63c-.37,0-.74-.19-.93-.54-.3-.52-.13-1.17.39-1.47l2.25-1.3c.35-.19.61-.52.71-.93s.04-.8-.15-1.15l-20.35-35.24c-.41-.74-1.34-.97-2.08-.56l-2.25,1.3c-.52.3-1.17.13-1.47-.39s-.13-1.17.39-1.47l2.25-1.3c1.75-1.02,4-.41,5.02,1.34l20.35,35.24c.5.84.63,1.84.37,2.79s-.87,1.73-1.71,2.23l-2.25,1.3c-.17.09-.35.15-.54.15Z"/>
  <path class="st0" d="M68.95,78.86c-1.52,0-2.97-.78-3.77-2.16l-6.06-10.5c-.3-.52-.13-1.17.39-1.47s1.17-.13,1.47.39l6.06,10.5c.61,1.04,1.95,1.41,3.01.8s1.41-1.95.8-3.01l-6.06-10.5c-.3-.52-.13-1.17.39-1.47s1.17-.13,1.47.39l6.06,10.5c1.19,2.08.48,4.74-1.6,5.95-.69.39-1.43.58-2.16.58h0Z"/>
  <path class="st0" d="M107.59,97.33H39.14c-4.03,0-7.3-3.27-7.3-7.3v-43.55c0-4.03,3.27-7.3,7.3-7.3h21.63c.58,0,1.08.48,1.08,1.08s-.48,1.08-1.08,1.08h-21.63c-2.84,0-5.15,2.32-5.15,5.15v43.55c0,2.84,2.32,5.15,5.15,5.15h68.45c2.84,0,5.15-2.32,5.15-5.15v-43.58c0-2.84-2.32-5.15-5.15-5.15h-18.83c-.58,0-1.08-.48-1.08-1.08s.48-1.08,1.08-1.08h18.83c4.03,0,7.3,3.27,7.3,7.3v43.55c0,4.03-3.27,7.3-7.3,7.3h0v.02Z"/>
  <path class="st0" d="M107.09,85.88c-.58,0-1.08-.48-1.08-1.08v-36.74h-13.33c-.58,0-1.08-.48-1.08-1.08s.48-1.08,1.08-1.08h14.42c.58,0,1.08.48,1.08,1.08v37.82c0,.61-.48,1.08-1.08,1.08ZM39.66,85.88c-.58,0-1.08-.48-1.08-1.08v-37.8c0-.58.48-1.08,1.08-1.08h16.8c.58,0,1.08.48,1.08,1.08s-.48,1.08-1.08,1.08h-15.72v36.74c0,.61-.48,1.08-1.08,1.08v-.02Z"/>
  <path class="st0" d="M113.82,85.88H32.92c-.58,0-1.08-.48-1.08-1.08s.48-1.08,1.08-1.08h80.9c.58,0,1.08.48,1.08,1.08s-.48,1.08-1.08,1.08h0Z"/>
  <path class="st0" d="M84.44,107.29c-.58,0-1.08-.48-1.08-1.08v-9.96c0-.58.48-1.08,1.08-1.08s1.08.48,1.08,1.08v9.96c0,.58-.48,1.08-1.08,1.08ZM62.3,107.29c-.58,0-1.08-.48-1.08-1.08v-9.96c0-.58.48-1.08,1.08-1.08s1.08.48,1.08,1.08v9.96c0,.58-.48,1.08-1.08,1.08Z"/>
  <path class="st0" d="M88.93,114.26h-31.11c-1.41,0-2.58-1.15-2.58-2.58v-1.99c0-2.51,2.03-4.57,4.57-4.57h27.12c2.51,0,4.57,2.03,4.57,4.57v1.99c0,1.43-1.15,2.58-2.58,2.58ZM59.81,107.29c-1.32,0-2.4,1.08-2.4,2.4v1.99c0,.22.19.41.41.41h31.11c.22,0,.41-.19.41-.41v-1.99c0-1.32-1.08-2.4-2.4-2.4h-27.12Z"/>
</svg>