<?xml version="1.0" encoding="UTF-8"?>
<svg id="Capa_1" xmlns="http://www.w3.org/2000/svg" version="1.1" viewBox="0 0 313.77 56.03">
  <!-- Generator: Adobe Illustrator 29.6.1, SVG Export Plug-In . SVG Version: 2.1.1 Build 9)  -->
  <defs>
    <style>
      .st0 {
        isolation: isolate;
      }

      .st1 {
        fill: #fff;
      }
    </style>
  </defs>
  <g class="st0">
    <g class="st0">
      <path class="st1" d="M34.64,42.97h-7.96l-8.87-27.62h5.41l7.4,23.24h.07l7.41-23.24h5.48l-8.94,27.62Z"/>
      <path class="st1" d="M45.24,42.97V15.35h18.97v4.53h-13.66v6.92h12.96v4.31h-12.96v7.33h13.74v4.53h-19.04Z"/>
      <path class="st1" d="M68.36,15.35h8.8l11.86,23.08h.14l-.44-23.08h5.34v27.62h-8.87l-11.71-23.08h-.22l.3,11.45.14,11.63h-5.34V15.35Z"/>
      <path class="st1" d="M104.55,42.97v-23.08h-8.06v-4.53h21.5v4.53h-8.14v23.08h-5.3Z"/>
      <path class="st1" d="M127.11,15.35h7.77l9.42,27.62h-5.41l-1.76-5.2h-11.97l-1.77,5.2h-5.49l6.33-19.15,2.88-8.47ZM126.34,33.76h9.53l-4.75-14.4h-.04l-4.75,14.4Z"/>
      <path class="st1" d="M173.73,42.97h-14.36V15.35h13.3c4.87,0,8.04,1.31,9.49,3.94.86,1.62,1.29,3.88,1.29,6.78v5.89c0,4.9-1.39,8.16-4.16,9.8-.64.37-1.5.67-2.56.89s-2.07.33-3,.33ZM172.67,38.44c1.06,0,1.92-.12,2.59-.36.67-.24,1.26-.75,1.79-1.52.71-1,1.07-2.77,1.07-5.3v-4.96c0-1.63-.11-2.87-.32-3.73-.21-.86-.74-1.52-1.58-1.98-.84-.46-2.15-.7-3.92-.7h-7.62v18.55h7.99Z"/>
      <path class="st1" d="M187.24,15.35h5.34v27.62h-5.34V15.35Z"/>
      <path class="st1" d="M220.34,33.69c0,1.73-.15,3.26-.45,4.6-.3,1.33-.95,2.37-1.94,3.1-1.12.86-2.88,1.41-5.27,1.65-.96.1-2.39.15-4.31.15-1.52,0-2.83-.04-3.92-.13s-2.15-.3-3.17-.62c-1.02-.33-1.88-.83-2.58-1.49-1.65-1.43-2.47-4.04-2.47-7.85v-6.89c0-1.51.09-2.81.27-3.9s.44-2.01.8-2.77c.35-.76.8-1.4,1.33-1.94.71-.72,1.59-1.26,2.64-1.62s2.15-.59,3.28-.7c1.13-.1,2.41-.15,3.84-.15h2.02c1.73,0,3.2.09,4.41.27,1.21.18,2.26.62,3.14,1.32,1.55,1.21,2.32,3.25,2.32,6.1v.89h-5.27c0-1.52-.33-2.57-.99-3.16-.43-.37-1.04-.61-1.86-.72-.81-.11-1.95-.17-3.41-.17-1.81,0-3.14.07-4,.22-.86.15-1.54.43-2.04.85-.76.76-1.14,2.44-1.14,5.04v6.62c0,2.59.36,4.3,1.07,5.12.58.53,1.48.89,2.72,1.07.69.05,1.72.07,3.09.07.86,0,1.48.02,1.88.07.92-.04,1.65-.13,2.17-.27.52-.14,1.03-.42,1.52-.83.42-.38.69-.95.81-1.69.12-.75.18-1.69.18-2.84v-.77h-6.96v-4.01h12.3v5.38Z"/>
      <path class="st1" d="M224.13,15.35h5.34v27.62h-5.34V15.35Z"/>
      <path class="st1" d="M240.03,42.97v-23.08h-8.06v-4.53h21.5v4.53h-8.14v23.08h-5.3Z"/>
      <path class="st1" d="M262.6,15.35h7.77l9.42,27.62h-5.41l-1.76-5.2h-11.97l-1.77,5.2h-5.49l6.33-19.15,2.88-8.47ZM261.83,33.76h9.53l-4.75-14.4h-.04l-4.75,14.4Z"/>
      <path class="st1" d="M282,15.35h5.34v23.08h12.96v4.53h-18.3V15.35Z"/>
    </g>
  </g>
</svg>