<?xml version="1.0" encoding="UTF-8"?>
<svg id="Capa_1" xmlns="http://www.w3.org/2000/svg" version="1.1" viewBox="0 0 145.68 145.68">
  <!-- Generator: Adobe Illustrator 29.6.1, SVG Export Plug-In . SVG Version: 2.1.1 Build 9)  -->
  <defs>
    <style>
      .st0 {
        fill: #fd7d70;
        opacity: .7;
      }

      .st1 {
        fill: #fff;
      }
    </style>
  </defs>
  <rect class="st0" width="145.68" height="145.68" rx="13.63" ry="13.63"/>
  <path class="st1" d="M99.03,54.05c-7.06-2.91-16.34-.7-21.84,5.54-2.05,2.34-3.98,4.82-5.89,7.26h0c-1.4,1.79-2.81,3.57-4.29,5.29-2.63,3.04-5.32,6.16-8.5,8.56-3.55,2.69-8.99,1.6-11.7-1.6-3.16-3.69-3.24-9.3-.21-12.87,2.59-3.04,7.47-3.74,11.45-1.33,1.72,1.05,3.24,2.42,5.11,3.98l6.46-7.35c-.16-.64-.45-1.27-.78-1.66-6.71-7.78-19.6-9.32-27.44-3.39-8.21,6.22-10.16,18.63-4.29,27.46,7.08,10.67,22.16,12.13,31.34,2.57,5.93-6.18,11.02-13.18,16.62-19.66,3.84-4.43,9.97-4.45,13.67-.27,2.75,3.12,3.06,7.88.84,11.39-3.71,5.89-11.72,5.27-15.39-.14-.31-.45-.6-.9-.96-1.48-.47-.72-1.5-.8-2.05-.14-1.46,1.72-2.77,3.24-4.06,4.78-2.69,3.16-1.66,3.45.1,5.36,5.13,5.58,14.2,8,21.34,5.48,7.63-2.71,13.18-10.22,13.36-18.16.21-8.68-4.8-16.29-12.87-19.64l-.04.02Z"/>
</svg>