<?xml version="1.0" encoding="UTF-8"?>
<svg id="Capa_1" xmlns="http://www.w3.org/2000/svg" version="1.1" viewBox="0 0 257.34 40.83">
  <!-- Generator: Adobe Illustrator 29.6.1, SVG Export Plug-In . SVG Version: 2.1.1 Build 9)  -->
  <defs>
    <style>
      .st0 {
        isolation: isolate;
      }

      .st1 {
        fill: #fff;
      }
    </style>
  </defs>
  <g class="st0">
    <g class="st0">
      <path class="st1" d="M9.21,4.59h7.77l9.42,27.62h-5.41l-1.76-5.2H7.25l-1.77,5.2H0L6.33,13.06l2.88-8.47ZM8.43,23h9.53l-4.75-14.4h-.04l-4.75,14.4Z"/>
      <path class="st1" d="M33.58,23.3v8.91h-5.3V4.59h12.08c2.16,0,4.02.2,5.56.61,1.55.4,2.68,1.31,3.42,2.71.67,1.53,1,3.54,1,6.03,0,3.4-.58,5.8-1.73,7.18-.56.7-1.51,1.24-2.83,1.61-1.32.37-2.7.56-4.13.56h-8.06ZM33.58,18.77h6.71c1.96,0,3.2-.25,3.71-.74.49-.4.79-.84.89-1.31.1-.47.17-1.32.22-2.55,0-1.74-.19-2.97-.58-3.69-.3-.5-.76-.85-1.38-1.05-.62-.2-1.52-.31-2.71-.31h-6.85v9.65Z"/>
      <path class="st1" d="M53.87,4.59h5.34v27.62h-5.34V4.59Z"/>
      <path class="st1" d="M93.45,13.87v-1.73c0-1.11-.27-1.93-.81-2.44-.56-.54-2.1-.81-4.6-.81h-.77c-1.4,0-2.46.08-3.18.25-.72.17-1.29.46-1.72.89-.76.74-1.14,2.27-1.14,4.6v7.22c0,2.77.46,4.46,1.37,5.08.55.43,1.19.69,1.92.8.73.11,1.75.16,3.05.16,1.57,0,2.62-.02,3.16-.07.95-.19,1.66-.51,2.14-.96.22-.22.38-.49.5-.82.12-.32.2-.65.24-.99.04-.34.07-.76.09-1.28.02-.52.04-1,.05-1.44h5.23v2.4c0,2.7-.68,4.66-2.03,5.89-1.19.94-3.01,1.49-5.45,1.65-.86.07-1.91.12-3.16.15s-1.98.06-2.18.07c-3.81,0-6.46-.75-7.96-2.25-.7-.71-1.21-1.6-1.54-2.68s-.52-2.26-.59-3.55c-.07-1.28-.11-3.08-.11-5.4s.03-4.17.09-5.38.24-2.32.52-3.31c.28-1,.75-1.92,1.41-2.76.64-.78,1.48-1.38,2.53-1.79,1.05-.41,2.17-.69,3.35-.82,1.18-.13,2.45-.2,3.8-.2,1.53,0,2.79.03,3.76.09.97.06,1.91.21,2.83.46.91.25,1.68.65,2.29,1.19.66.6,1.15,1.34,1.46,2.23.31.89.5,1.76.58,2.62.07.85.11,1.83.11,2.92h-5.23Z"/>
      <path class="st1" d="M113.26,4.37c1.44,0,2.78.06,4.02.18,1.24.12,2.43.39,3.56.81,1.13.42,1.96,1.05,2.51,1.89.29.31.65,1.01,1.08,2.11.43,1.09.65,2.7.65,4.81v8.91c0,1.67-.16,2.95-.47,3.87-.31.91-.76,1.78-1.33,2.62-.64.88-1.53,1.52-2.7,1.95-1.16.43-2.36.69-3.59.78s-2.71.14-4.43.14c-2.1,0-3.88-.15-5.32-.46-1.44-.31-2.61-.95-3.52-1.94-1.4-1.4-2.1-3.98-2.1-7.77v-7.55c0-1.6.1-3.02.31-4.27.21-1.25.63-2.34,1.27-3.27.6-.84,1.45-1.46,2.56-1.88,1.11-.41,2.26-.67,3.44-.77,1.18-.1,2.53-.15,4.05-.15ZM113.33,8.9c-1.71,0-3.03.12-3.96.37-.93.25-1.54.73-1.86,1.43-.36.8-.59,2.03-.7,3.69.05.22.07.5.07.84v6.55c0,2.27.26,3.82.77,4.67.43.64,1.05,1.04,1.85,1.2s2.04.26,3.71.31c1.62-.04,2.84-.16,3.67-.37.83-.21,1.47-.59,1.93-1.14.27-.4.49-.98.66-1.74.17-.76.26-1.58.26-2.46v-8.32c0-1.74-.31-2.99-.92-3.75-.61-.64-1.56-1.05-2.88-1.22-.81-.05-1.68-.07-2.62-.07Z"/>
      <path class="st1" d="M128.88,4.59h8.8l11.86,23.08h.14l-.44-23.08h5.34v27.62h-8.87l-11.71-23.08h-.22l.3,11.45.14,11.63h-5.34V4.59Z"/>
      <path class="st1" d="M159.29,4.59h8.8l11.86,23.08h.14l-.44-23.08h5.34v27.62h-8.87l-11.71-23.08h-.22l.3,11.45.14,11.63h-5.34V4.59Z"/>
      <path class="st1" d="M189.37,32.21V4.59h18.97v4.53h-13.66v6.92h12.96v4.31h-12.96v7.33h13.74v4.53h-19.04Z"/>
      <path class="st1" d="M228.98,13.87v-1.73c0-1.11-.27-1.93-.81-2.44-.56-.54-2.1-.81-4.6-.81h-.77c-1.4,0-2.46.08-3.18.25-.72.17-1.29.46-1.72.89-.76.74-1.14,2.27-1.14,4.6v7.22c0,2.77.46,4.46,1.37,5.08.55.43,1.19.69,1.92.8.73.11,1.75.16,3.05.16,1.57,0,2.62-.02,3.16-.07.95-.19,1.66-.51,2.14-.96.22-.22.38-.49.5-.82.12-.32.2-.65.24-.99.04-.34.07-.76.09-1.28.02-.52.04-1,.05-1.44h5.23v2.4c0,2.7-.68,4.66-2.03,5.89-1.19.94-3.01,1.49-5.45,1.65-.86.07-1.91.12-3.16.15s-1.98.06-2.18.07c-3.81,0-6.46-.75-7.96-2.25-.7-.71-1.21-1.6-1.54-2.68-.32-1.08-.52-2.26-.59-3.55-.07-1.28-.11-3.08-.11-5.4s.03-4.17.09-5.38c.06-1.21.24-2.32.52-3.31s.75-1.92,1.41-2.76c.64-.78,1.48-1.38,2.53-1.79,1.05-.41,2.17-.69,3.35-.82,1.18-.13,2.45-.2,3.8-.2,1.53,0,2.79.03,3.76.09.97.06,1.91.21,2.83.46.91.25,1.68.65,2.29,1.19.66.6,1.14,1.34,1.46,2.23.31.89.5,1.76.58,2.62.07.85.11,1.83.11,2.92h-5.23Z"/>
      <path class="st1" d="M243.86,32.21V9.13h-8.06v-4.53h21.5v4.53h-8.14v23.08h-5.3Z"/>
    </g>
  </g>
</svg>