<?xml version="1.0" encoding="UTF-8"?>
<svg id="Capa_1" xmlns="http://www.w3.org/2000/svg" version="1.1" viewBox="0 0 145.68 145.68">
  <!-- Generator: Adobe Illustrator 29.6.1, SVG Export Plug-In . SVG Version: 2.1.1 Build 9)  -->
  <defs>
    <style>
      .st0 {
        fill: #fd7d70;
        opacity: .7;
      }

      .st1 {
        fill-rule: evenodd;
      }

      .st1, .st2 {
        fill: #fff;
      }
    </style>
  </defs>
  <rect class="st0" width="145.68" height="145.68" rx="13.63" ry="13.63"/>
  <g>
    <path class="st2" d="M107.21,100.84l.94,1.68c.98,1.73,1,2.58.64,3.35s-1.46,1.7-3.31,2.76l-8.3,4.76c-1.85,1.06-3.22,1.54-4.05,1.46s-1.54-.52-2.52-2.25l-.98-1.58,17.61-10.17h-.02ZM83.72,73.96l2.79,4.86c.87,1.5.58,3.41-1.68,4.91l-7.23-7.24c.42-.1.87-.21,1.31-.4l4.8-2.12ZM64.7,69.76l3.06.44,26.34,26.44c.52.52.67.94.6,1.39-.15,1.06-1.04,1.85-1.87,1.85-.44,0-.87-.08-1.39-.6l-16.13-16.19c-1.12-3.68-2.45-5.9-4.03-7.15-1.37-1.08-2.91-1.31-4.24-1.14l-1.91-1.93s-.44-3.12-.44-3.12ZM88.17,65.69l7.3,12.64c.85,1.46,3.04.19,2.2-1.27l-2.95-5.13c2.1,1.1,4.62,2.49,6.26,3.56,1.68,1.1,2.45,2.49,2.7,4.72l1,9.15c.29,2.64.12,6.22,1.35,9.23l-17.8,10.27c-1.06-1.54-2.16-2.58-3.68-3.76l-14.87-11.5c-1.06-.81-1.35-2.5-1.25-4.55l.25-5.18-.62-6.26c.54,0,1.06-.15,1.66.31.98.77,2.24,2.49,3.18,5.92.13.52.39.81.71,1.14l16.03,16.11c1.97,1.98,4.47,1.66,6.24,0,1.87-1.75,1.73-4.49,0-6.24l-9.23-9.27c2.76-2.16,3.53-5.49,2.06-8.02l-3.37-5.86c-.33-.56-1.02-.79-1.62-.54l-5.84,2.58c-2,.89-2.74.33-3.16-.39-.52-.91-.21-1.68.75-2.39l8.4-6.13c1.81-1.33,3.29-.91,4.3.85h0ZM82.37,62.78l-9.13,6.69c-.56.4-.91.92-1.12,1.5l-2.85-2.85c-.19-.19-.44-.33-.71-.37l-5.16-.75c-.91-.13-1.56.62-1.45,1.43l.75,5.22c.04.27.15.52.35.71l2.39,2.39.71,7.07-.25,5.11c-.12,2.33.12,5.05,2.24,6.69l14.87,11.5c1.75,1.35,2.54,2.16,3.7,4.08.54.89,1.1,1.75,1.66,2.62,1.18,2.1,2.72,3.39,4.53,3.56,1.81.15,3.53-.66,5.53-1.79l8.3-4.76c1.98-1.14,3.56-2.22,4.35-3.85s.48-3.62-.69-5.72l-1.58-2.79c-1.33-2.31-1.27-6.57-1.58-9.38l-1-9.15c-.31-2.77-1.56-5.09-3.82-6.55-3.51-2.29-9.54-5.24-9.98-5.45l-2.02-3.51c-1.91-3.28-4.97-3.83-8-1.62h0l-.04-.02Z"/>
    <path class="st1" d="M39.6,30.82h40.04c1.62,0,2.89,1.27,2.89,2.89v3.82h-45.8v-3.82c0-1.62,1.25-2.89,2.89-2.89h-.02ZM39.6,28.29c-2.99,0-5.43,2.45-5.43,5.43v69.98c0,2.99,2.45,5.43,5.43,5.43h37.71c.71,0,1.29-.56,1.29-1.27s-.58-1.29-1.29-1.27h-37.71c-1.64,0-2.89-1.27-2.89-2.89v-4.18h27.77c.71,0,1.29-.56,1.29-1.27s-.58-1.29-1.29-1.27h-27.75v-56.9h45.82v18.69c-.04.73.54,1.33,1.27,1.33s1.29-.6,1.27-1.33v-25.07c0-2.99-2.45-5.43-5.43-5.43h-40.06v.02Z"/>
    <path class="st2" d="M52.18,53.13c-1.39.83-2.76,2.31-4.16,4.05-2.81,3.43-5.55,7.84-6.05,11.33-.37,2.54.92,4.32,2.25,5.05,1.33.73,2.66.71,2.66.71,1.75.1,1.79-2.58.04-2.54,0,0-.81-.04-1.48-.4-.67-.37-1.21-.75-.96-2.47.35-2.39,2.87-6.92,5.49-10.1,2.79-3.39,5.07-5.41,4.39-.13-.23,1.79-.73,3.89-1.27,5.9-.54,2-1.1,3.91-1.43,5.45-.44,1.71-.67,3.16.6,4.08,1.56,1.14,3.1.08,4.39-.89,1.29-1.12,2.6-2.79,4.05-4.95.94-1.41-1.16-2.83-2.12-1.43-1.41,2.08-2.66,3.62-3.6,4.45-1.23,1.08-1.02.21-.83-.75.27-1.41.85-3.29,1.39-5.34s1.08-4.2,1.35-6.22c.27-2,.5-3.97-.44-5.43-1.16-1.81-2.79-1.29-4.28-.42h0l.02.06Z"/>
  </g>
</svg>