<?xml version="1.0" encoding="UTF-8"?>
<svg id="Capa_1" xmlns="http://www.w3.org/2000/svg" version="1.1" viewBox="0 0 145.68 145.68">
  <!-- Generator: Adobe Illustrator 29.6.1, SVG Export Plug-In . SVG Version: 2.1.1 Build 9)  -->
  <defs>
    <style>
      .st0 {
        fill: #fff;
      }

      .st1 {
        fill: #5f40a2;
        opacity: .7;
      }
    </style>
  </defs>
  <rect class="st1" width="145.68" height="145.68" rx="13.63" ry="13.63"/>
  <path class="st0" d="M48.67,55.25v35.18c0,3.64,2.96,6.6,6.6,6.6h35.18c3.64,0,6.6-2.96,6.6-6.6v-35.18c0-3.64-2.96-6.6-6.6-6.6h-35.19c-3.64,0-6.6,2.96-6.6,6.6h.02ZM92.63,90.43c0,1.22-.98,2.2-2.2,2.2h-35.18c-1.22,0-2.2-.98-2.2-2.2v-2.2h39.58s0,2.2,0,2.2ZM58.37,83.83l10.73-10.73c.86-.86,2.25-.86,3.11,0h0l10.73,10.73h-24.57ZM92.63,55.25v28.58h-3.49l-13.82-13.82c-2.57-2.57-6.75-2.57-9.32,0h0l-12.93,12.93v-27.68c0-1.22.98-2.2,2.2-2.2h35.18c1.22,0,2.2.98,2.2,2.2h-.02ZM82.73,69.55c3.64,0,6.6-2.96,6.6-6.6s-2.96-6.6-6.6-6.6-6.6,2.96-6.6,6.6,2.96,6.6,6.6,6.6ZM82.73,60.75c1.22,0,2.2.98,2.2,2.2s-.98,2.2-2.2,2.2-2.2-.98-2.2-2.2.98-2.2,2.2-2.2ZM35.47,55.25v-8.8c0-6.07,4.92-11,11-11h8.8c1.22,0,2.2.98,2.2,2.2s-.98,2.2-2.2,2.2h-8.8c-3.64,0-6.6,2.96-6.6,6.6v8.8c0,1.22-.98,2.2-2.2,2.2s-2.2-.98-2.2-2.2ZM110.21,81.63c0,1.22-.98,2.2-2.2,2.2s-2.2-.98-2.2-2.2.98-2.2,2.2-2.2,2.2.98,2.2,2.2ZM110.21,46.47v8.8c0,1.22-.98,2.2-2.2,2.2s-2.2-.98-2.2-2.2v-8.8c0-3.64-2.96-6.6-6.6-6.6h-8.8c-1.22,0-2.2-.98-2.2-2.2s.98-2.2,2.2-2.2h8.8c6.07,0,11,4.92,11,11ZM35.47,64.05c0-1.22.98-2.2,2.2-2.2s2.2.98,2.2,2.2-.98,2.2-2.2,2.2-2.2-.98-2.2-2.2ZM110.21,64.05c0,1.22-.98,2.2-2.2,2.2s-2.2-.98-2.2-2.2.98-2.2,2.2-2.2,2.2.98,2.2,2.2ZM35.47,72.85c0-1.22.98-2.2,2.2-2.2s2.2.98,2.2,2.2-.98,2.2-2.2,2.2-2.2-.98-2.2-2.2ZM35.47,81.63c0-1.22.98-2.2,2.2-2.2s2.2.98,2.2,2.2-.98,2.2-2.2,2.2-2.2-.98-2.2-2.2ZM64.05,39.87c-1.22,0-2.2-.98-2.2-2.2s.98-2.2,2.2-2.2,2.2.98,2.2,2.2-.98,2.2-2.2,2.2ZM35.47,99.23v-8.8c0-1.22.98-2.2,2.2-2.2s2.2.98,2.2,2.2v8.8c0,3.64,2.96,6.6,6.6,6.6h8.8c1.22,0,2.2.98,2.2,2.2s-.98,2.2-2.2,2.2h-8.8c-6.07,0-11-4.92-11-11ZM110.21,72.85c0,1.22-.98,2.2-2.2,2.2s-2.2-.98-2.2-2.2.98-2.2,2.2-2.2,2.2.98,2.2,2.2ZM110.21,90.43v8.8c0,6.07-4.92,11-11,11h-8.8c-1.22,0-2.2-.98-2.2-2.2s.98-2.2,2.2-2.2h8.8c3.64,0,6.6-2.96,6.6-6.6v-8.8c0-1.22.98-2.2,2.2-2.2s2.2.98,2.2,2.2ZM81.63,39.87c-1.22,0-2.2-.98-2.2-2.2s.98-2.2,2.2-2.2,2.2.98,2.2,2.2-.98,2.2-2.2,2.2ZM72.85,39.87c-1.22,0-2.2-.98-2.2-2.2s.98-2.2,2.2-2.2,2.2.98,2.2,2.2-.98,2.2-2.2,2.2ZM72.85,105.81c1.22,0,2.2.98,2.2,2.2s-.98,2.2-2.2,2.2-2.2-.98-2.2-2.2.98-2.2,2.2-2.2ZM81.63,105.81c1.22,0,2.2.98,2.2,2.2s-.98,2.2-2.2,2.2-2.2-.98-2.2-2.2.98-2.2,2.2-2.2ZM64.05,105.81c1.22,0,2.2.98,2.2,2.2s-.98,2.2-2.2,2.2-2.2-.98-2.2-2.2.98-2.2,2.2-2.2Z"/>
</svg>