<?xml version="1.0" encoding="UTF-8"?>
<svg id="Capa_1" xmlns="http://www.w3.org/2000/svg" version="1.1" viewBox="0 0 347.76 86.7">
  <!-- Generator: Adobe Illustrator 29.6.1, SVG Export Plug-In . SVG Version: 2.1.1 Build 9)  -->
  <defs>
    <style>
      .st0 {
        isolation: isolate;
      }

      .st1 {
        fill: #fff;
      }
    </style>
  </defs>
  <g class="st0">
    <g class="st0">
      <path class="st1" d="M16.78,14.9c3.57,0,5.99.7,7.25,2.09,1.11,1.25,1.66,3.28,1.66,6.11,0,3.07-.41,5.08-1.22,6.04-.72.89-1.95,1.5-3.67,1.81v.11c1.62.16,2.84.71,3.67,1.65.66,1.06,1,2.62,1,4.68v5.12h-5.33v-4.16c0-.96-.05-1.75-.14-2.39-.09-.63-.33-1.16-.71-1.58-.38-.42-.82-.7-1.34-.82-.51-.12-1.2-.18-2.06-.18h-7.4v9.13H3.2V14.9h13.58ZM15.98,19.44h-7.48v9.42h7.63c.92,0,1.63-.07,2.13-.22.5-.15.94-.43,1.33-.84.52-.67.77-1.94.77-3.83,0-1.74-.21-2.92-.63-3.54-.34-.42-.81-.69-1.41-.81-.6-.12-1.38-.18-2.35-.18Z"/>
      <path class="st1" d="M29.59,42.52V14.9h18.97v4.53h-13.66v6.92h12.96v4.31h-12.96v7.33h13.74v4.53h-19.04Z"/>
      <path class="st1" d="M69.21,24.18v-1.73c0-1.11-.27-1.93-.81-2.44-.56-.54-2.1-.81-4.6-.81h-.77c-1.4,0-2.46.08-3.18.25-.72.17-1.29.46-1.72.89-.76.74-1.14,2.27-1.14,4.6v7.22c0,2.77.46,4.46,1.37,5.08.55.43,1.19.69,1.92.8.73.11,1.75.16,3.05.16,1.57,0,2.62-.02,3.16-.07.95-.19,1.66-.51,2.14-.96.22-.22.38-.49.5-.82.12-.32.2-.65.24-.99.04-.34.07-.76.09-1.28.02-.52.04-1,.05-1.44h5.23v2.4c0,2.7-.68,4.66-2.03,5.89-1.19.94-3.01,1.49-5.45,1.65-.86.07-1.91.12-3.16.15s-1.98.06-2.18.07c-3.81,0-6.46-.75-7.96-2.25-.7-.71-1.21-1.6-1.54-2.68s-.52-2.26-.59-3.55c-.07-1.28-.11-3.08-.11-5.4s.03-4.17.09-5.38.24-2.32.52-3.31c.28-1,.75-1.92,1.41-2.76.64-.78,1.48-1.38,2.53-1.79,1.05-.41,2.17-.69,3.35-.82,1.18-.13,2.45-.2,3.8-.2,1.53,0,2.79.03,3.76.09.97.06,1.91.21,2.83.46.91.25,1.68.65,2.29,1.19.66.6,1.15,1.34,1.46,2.23.31.89.5,1.76.58,2.62.07.85.11,1.83.11,2.92h-5.23Z"/>
      <path class="st1" d="M89.01,14.68c1.44,0,2.78.06,4.02.18,1.24.12,2.43.39,3.56.81,1.13.42,1.96,1.05,2.51,1.89.29.31.65,1.01,1.08,2.11.43,1.09.65,2.7.65,4.81v8.91c0,1.67-.16,2.95-.47,3.87-.31.91-.76,1.78-1.33,2.62-.64.88-1.53,1.52-2.7,1.95-1.16.43-2.36.69-3.59.78s-2.71.14-4.43.14c-2.1,0-3.88-.15-5.32-.46-1.44-.31-2.61-.95-3.52-1.94-1.4-1.4-2.1-3.98-2.1-7.77v-7.55c0-1.6.1-3.02.31-4.27.21-1.25.63-2.34,1.27-3.27.6-.84,1.45-1.46,2.56-1.88,1.11-.41,2.26-.67,3.44-.77,1.18-.1,2.53-.15,4.05-.15ZM89.09,19.21c-1.71,0-3.03.12-3.96.37-.93.25-1.54.73-1.86,1.43-.36.8-.59,2.03-.7,3.69.05.22.07.5.07.84v6.55c0,2.27.26,3.82.77,4.67.43.64,1.05,1.04,1.85,1.2s2.04.26,3.71.31c1.62-.04,2.84-.16,3.67-.37.83-.21,1.47-.59,1.93-1.14.27-.4.49-.98.66-1.74.17-.76.26-1.58.26-2.46v-8.32c0-1.74-.31-2.99-.92-3.75-.61-.64-1.56-1.05-2.88-1.22-.81-.05-1.68-.07-2.62-.07Z"/>
      <path class="st1" d="M104.63,14.9h8.8l11.86,23.08h.14l-.44-23.08h5.34v27.62h-8.87l-11.71-23.08h-.22l.3,11.45.14,11.63h-5.34V14.9Z"/>
      <path class="st1" d="M145.75,14.68c1.44,0,2.78.06,4.02.18,1.24.12,2.43.39,3.56.81,1.13.42,1.96,1.05,2.51,1.89.29.31.65,1.01,1.08,2.11.43,1.09.65,2.7.65,4.81v8.91c0,1.67-.16,2.95-.47,3.87-.31.91-.76,1.78-1.33,2.62-.64.88-1.53,1.52-2.7,1.95-1.16.43-2.36.69-3.59.78s-2.71.14-4.43.14c-2.1,0-3.88-.15-5.32-.46-1.44-.31-2.61-.95-3.52-1.94-1.4-1.4-2.1-3.98-2.1-7.77v-7.55c0-1.6.1-3.02.31-4.27.21-1.25.63-2.34,1.27-3.27.6-.84,1.45-1.46,2.56-1.88,1.11-.41,2.26-.67,3.44-.77,1.18-.1,2.53-.15,4.05-.15ZM145.83,19.21c-1.71,0-3.03.12-3.96.37-.93.25-1.54.73-1.86,1.43-.36.8-.59,2.03-.7,3.69.05.22.07.5.07.84v6.55c0,2.27.26,3.82.77,4.67.43.64,1.05,1.04,1.85,1.2s2.04.26,3.71.31c1.62-.04,2.84-.16,3.67-.37.83-.21,1.47-.59,1.93-1.14.27-.4.49-.98.66-1.74.17-.76.26-1.58.26-2.46v-8.32c0-1.74-.31-2.99-.92-3.75-.61-.64-1.56-1.05-2.88-1.22-.81-.05-1.68-.07-2.62-.07Z"/>
      <path class="st1" d="M177.87,24.18v-1.73c0-1.11-.27-1.93-.81-2.44-.56-.54-2.1-.81-4.6-.81h-.77c-1.4,0-2.46.08-3.18.25-.72.17-1.29.46-1.72.89-.76.74-1.14,2.27-1.14,4.6v7.22c0,2.77.46,4.46,1.37,5.08.55.43,1.19.69,1.92.8.73.11,1.75.16,3.05.16,1.57,0,2.62-.02,3.16-.07.95-.19,1.66-.51,2.14-.96.22-.22.38-.49.5-.82.12-.32.2-.65.24-.99.04-.34.07-.76.09-1.28.02-.52.04-1,.05-1.44h5.23v2.4c0,2.7-.68,4.66-2.03,5.89-1.19.94-3.01,1.49-5.45,1.65-.86.07-1.91.12-3.16.15s-1.98.06-2.18.07c-3.81,0-6.46-.75-7.96-2.25-.7-.71-1.21-1.6-1.54-2.68s-.52-2.26-.59-3.55c-.07-1.28-.11-3.08-.11-5.4s.03-4.17.09-5.38.24-2.32.52-3.31c.28-1,.75-1.92,1.41-2.76.64-.78,1.48-1.38,2.53-1.79,1.05-.41,2.17-.69,3.35-.82,1.18-.13,2.45-.2,3.8-.2,1.53,0,2.79.03,3.76.09.97.06,1.91.21,2.83.46.91.25,1.68.65,2.29,1.19.66.6,1.14,1.34,1.46,2.23.31.89.5,1.76.58,2.62.07.85.11,1.83.11,2.92h-5.23Z"/>
      <path class="st1" d="M186.96,14.9h5.34v27.62h-5.34V14.9Z"/>
      <path class="st1" d="M197.09,42.52V14.9h8.58l7.47,20.5h.14l7.41-20.5h8.68v27.62h-5.29l.44-23.31h-.15l-8.72,23.31h-4.76l-8.76-23.16h-.14l.3,10.27.14,12.89h-5.34Z"/>
      <path class="st1" d="M234.2,14.9h5.34v27.62h-5.34V14.9Z"/>
      <path class="st1" d="M243.99,42.52V14.9h18.97v4.53h-13.66v6.92h12.96v4.31h-12.96v7.33h13.74v4.53h-19.04Z"/>
      <path class="st1" d="M267.11,14.9h8.8l11.86,23.08h.14l-.44-23.08h5.34v27.62h-8.87l-11.71-23.08h-.22l.3,11.45.14,11.63h-5.34V14.9Z"/>
      <path class="st1" d="M303.3,42.52v-23.08h-8.06v-4.53h21.5v4.53h-8.14v23.08h-5.3Z"/>
      <path class="st1" d="M329.88,14.68c1.44,0,2.78.06,4.02.18,1.24.12,2.43.39,3.56.81,1.13.42,1.96,1.05,2.51,1.89.29.31.65,1.01,1.08,2.11s.65,2.7.65,4.81v8.91c0,1.67-.16,2.95-.47,3.87s-.76,1.78-1.33,2.62c-.64.88-1.53,1.52-2.7,1.95s-2.36.69-3.59.78-2.71.14-4.43.14c-2.1,0-3.88-.15-5.32-.46-1.44-.31-2.62-.95-3.52-1.94-1.4-1.4-2.1-3.98-2.1-7.77v-7.55c0-1.6.1-3.02.31-4.27.21-1.25.63-2.34,1.27-3.27.6-.84,1.45-1.46,2.56-1.88,1.11-.41,2.26-.67,3.44-.77,1.18-.1,2.54-.15,4.05-.15ZM329.96,19.21c-1.71,0-3.03.12-3.96.37-.93.25-1.54.73-1.86,1.43-.36.8-.59,2.03-.7,3.69.05.22.07.5.07.84v6.55c0,2.27.26,3.82.77,4.67.43.64,1.05,1.04,1.85,1.2.8.16,2.04.26,3.71.31,1.62-.04,2.84-.16,3.67-.37.83-.21,1.47-.59,1.93-1.14.27-.4.49-.98.66-1.74.17-.76.26-1.58.26-2.46v-8.32c0-1.74-.31-2.99-.92-3.75-.61-.64-1.56-1.05-2.88-1.22-.81-.05-1.68-.07-2.62-.07Z"/>
    </g>
    <g class="st0">
      <path class="st1" d="M17.55,86.7H3.2v-27.62h13.3c4.87,0,8.04,1.31,9.49,3.94.86,1.62,1.29,3.88,1.29,6.78v5.89c0,4.9-1.39,8.16-4.16,9.8-.64.37-1.5.67-2.56.89s-2.07.33-3,.33ZM16.49,82.17c1.06,0,1.92-.12,2.59-.36.67-.24,1.26-.75,1.79-1.52.71-1,1.07-2.77,1.07-5.3v-4.96c0-1.63-.11-2.87-.32-3.73-.21-.86-.74-1.52-1.58-1.98-.84-.46-2.15-.7-3.92-.7h-7.62v18.55h7.99Z"/>
      <path class="st1" d="M30.73,86.7v-27.62h18.97v4.53h-13.66v6.92h12.96v4.31h-12.96v7.33h13.74v4.53h-19.04Z"/>
      <path class="st1" d="M66.81,59.08h5.34v27.62h-5.34v-27.62Z"/>
      <path class="st1" d="M76.94,86.7v-27.62h8.58l7.47,20.5h.14l7.41-20.5h8.68v27.62h-5.29l.44-23.31h-.15l-8.72,23.31h-4.76l-8.76-23.16h-.14l.3,10.27.14,12.89h-5.34Z"/>
      <path class="st1" d="M120.75,59.08h7.77l9.42,27.62h-5.41l-1.76-5.2h-11.97l-1.77,5.2h-5.49l6.33-19.15,2.88-8.47ZM119.98,77.5h9.53l-4.75-14.4h-.04l-4.75,14.4ZM122.42,57.21l-1.03-1.88,6.55-4.31,1.66,3.01-7.17,3.17Z"/>
      <path class="st1" d="M163.13,77.42c0,1.73-.15,3.26-.45,4.6-.3,1.33-.95,2.37-1.94,3.1-1.12.86-2.88,1.41-5.27,1.65-.96.1-2.39.15-4.31.15-1.52,0-2.83-.04-3.92-.13-1.09-.09-2.15-.3-3.17-.62-1.02-.33-1.88-.83-2.58-1.49-1.65-1.43-2.47-4.04-2.47-7.85v-6.89c0-1.51.09-2.81.27-3.9s.44-2.01.8-2.77c.35-.76.8-1.4,1.33-1.94.71-.72,1.59-1.26,2.64-1.62s2.15-.59,3.28-.7c1.13-.1,2.41-.15,3.84-.15h2.02c1.73,0,3.2.09,4.41.27s2.26.62,3.14,1.32c1.55,1.21,2.32,3.25,2.32,6.1v.89h-5.27c0-1.52-.33-2.57-.99-3.16-.43-.37-1.04-.61-1.86-.72-.81-.11-1.95-.17-3.41-.17-1.81,0-3.14.07-4,.22s-1.54.43-2.04.85c-.76.76-1.14,2.44-1.14,5.04v6.62c0,2.59.36,4.3,1.07,5.12.58.53,1.48.89,2.72,1.07.69.05,1.72.07,3.09.07.86,0,1.48.02,1.88.07.92-.04,1.65-.13,2.17-.27.52-.14,1.03-.42,1.51-.83.42-.38.69-.95.81-1.69.12-.75.18-1.69.18-2.84v-.77h-6.96v-4.01h12.3v5.38Z"/>
      <path class="st1" d="M166.6,86.7v-27.62h18.97v4.53h-13.66v6.92h12.96v4.31h-12.96v7.33h13.74v4.53h-19.04Z"/>
      <path class="st1" d="M189.71,59.08h8.8l11.86,23.08h.14l-.44-23.08h5.34v27.62h-8.87l-11.71-23.08h-.22l.3,11.45.14,11.63h-5.34v-27.62Z"/>
      <path class="st1" d="M219.79,86.7v-27.62h18.97v4.53h-13.66v6.92h12.96v4.31h-12.96v7.33h13.74v4.53h-19.04Z"/>
      <path class="st1" d="M252.27,58.86c2.45,0,4.21.05,5.26.15,1.7.22,2.99.7,3.87,1.44.92.75,1.52,1.66,1.78,2.72.26,1.07.4,2.42.4,4.04h-5.34v-1.11c0-1.03-.18-1.75-.55-2.14-.43-.49-1.54-.74-3.32-.74h-2.18c-2.1,0-3.46.25-4.08.74-.33.25-.57.57-.71.98-.14.41-.22,1.01-.22,1.82.05.92.13,1.58.24,1.99.11.41.39.73.83.96.36.19.8.34,1.33.44.53.1,1.16.18,1.88.23.72.05,1.41.1,2.05.14,2.19.14,3.99.31,5.42.52,1.42.21,2.51.6,3.27,1.17.46.37.82.82,1.09,1.33.26.52.45,1.06.57,1.62.12.56.19,1.05.21,1.46.02.41.05,1.1.09,2.07,0,1.53-.22,2.89-.65,4.08-.43,1.19-1.07,2.09-1.89,2.7-1.29.96-3.94,1.44-7.92,1.44h-1.99c-1.77,0-3.29-.1-4.57-.29-1.28-.19-2.37-.67-3.27-1.44-.66-.57-1.14-1.22-1.44-1.95s-.49-1.48-.56-2.26c-.07-.78-.1-1.79-.1-3.04h5.28c0,.32-.02.58-.07.77.04.85.12,1.5.22,1.94.1.44.31.8.62,1.08.35.32.82.54,1.41.65.59.11,1.42.19,2.49.23.52,0,.9.03,1.14.08,1.35-.06,2.36-.13,3.04-.22s1.25-.26,1.7-.52c.82-.5,1.22-1.66,1.22-3.46,0-1.27-.26-2.18-.77-2.74-.19-.17-.43-.32-.73-.43-.29-.11-.59-.19-.89-.23-.3-.04-.67-.08-1.13-.1-.46-.03-.97-.06-1.54-.09-.98-.04-1.91-.08-2.78-.13s-1.7-.11-2.48-.21c-.79-.1-1.56-.26-2.34-.51s-1.42-.56-1.93-.96c-1.45-1.07-2.23-3.08-2.32-6.04,0-3.09.7-5.25,2.1-6.48,1.45-1.15,4.2-1.73,8.26-1.73Z"/>
    </g>
  </g>
</svg>