<?xml version="1.0" encoding="UTF-8"?>
<svg id="Capa_1" xmlns="http://www.w3.org/2000/svg" version="1.1" viewBox="0 0 145.68 145.68">
  <!-- Generator: Adobe Illustrator 29.6.1, SVG Export Plug-In . SVG Version: 2.1.1 Build 9)  -->
  <defs>
    <style>
      .st0 {
        fill: #fff;
      }

      .st1 {
        fill: #5f40a2;
        opacity: .7;
      }
    </style>
  </defs>
  <rect class="st1" width="145.68" height="145.68" rx="13.63" ry="13.63"/>
  <path class="st0" d="M127.31,71.38v19.31c0,4.84-3.94,8.78-8.78,8.78h-12.25c.34,2.99,1.93,5.59,4.31,7.37,1.34,1,.64,3.14-1.04,3.16-7.87.05-15.3-3.42-19.1-10.53h-19.97c-4.84,0-8.78-3.94-8.78-8.78,0-.97.79-1.76,1.76-1.76s1.76.79,1.76,1.76c0,2.9,2.36,5.27,5.27,5.27h21.06c.68,0,1.3.4,1.59,1.02,2.29,4.92,6.53,7.97,11.94,9.08-1.63-2.44-2.47-5.35-2.35-8.41.04-.94.81-1.68,1.75-1.68h14.06c2.9,0,5.27-2.36,5.27-5.27v-19.31c0-2.9-2.36-5.27-5.27-5.27h-22.16v9.22c0,4.84-3.94,8.78-8.78,8.78h-28.75c-3.76,7.02-11.08,10.59-19.1,10.53-1.67-.02-2.38-2.16-1.04-3.16,2.39-1.79,3.96-4.39,4.31-7.37h-12.25c-4.84,0-8.78-3.94-8.78-8.78v-36.86c0-4.84,3.94-8.78,8.78-8.78h56.83c4.84,0,8.78,3.94,8.78,8.78v14.48c0,.97-.79,1.76-1.76,1.76s-1.76-.79-1.76-1.76v-14.48c0-2.9-2.36-5.27-5.27-5.27H30.76c-2.9,0-5.27,2.36-5.27,5.27v36.86c0,2.9,2.36,5.27,5.27,5.27h14.06c.94,0,1.72.74,1.75,1.68.12,3.06-.72,5.98-2.35,8.41,5.43-1.11,9.66-4.18,11.94-9.08.29-.62.91-1.02,1.59-1.02h29.83c2.9,0,5.27-2.36,5.27-5.27v-10.97c0-.99.82-1.79,1.81-1.75.12,0,23.74,0,23.86,0,4.84,0,8.78,3.94,8.78,8.78h0ZM73.99,61.5c.97,0,1.76-.79,1.76-1.76v-10.09c0-2.9-2.36-5.27-5.27-5.27h-9.76v-3.07c0-.97-.79-1.76-1.76-1.76s-1.76.79-1.76,1.76v3.07h-9.54c-2.9,0-5.27,2.36-5.27,5.27v17.11c0,2.9,2.36,5.27,5.27,5.27h22.82c.97,0,1.76-.79,1.76-1.76s-.79-1.76-1.76-1.76h-22.82c-.97,0-1.76-.79-1.76-1.76v-17.11c0-.97.79-1.76,1.76-1.76h22.82c.97,0,1.76.79,1.76,1.76v10.09c0,.97.79,1.76,1.76,1.76ZM55.78,54.48v-1.54c0-.97-.79-1.76-1.76-1.76s-1.76.79-1.76,1.76v1.54c0,.97.79,1.76,1.76,1.76s1.76-.79,1.76-1.76ZM66.09,54.48v-1.54c0-.97-.79-1.76-1.76-1.76s-1.76.79-1.76,1.76v1.54c0,.97.79,1.76,1.76,1.76s1.76-.79,1.76-1.76ZM55.34,64.57h7.46c.97,0,1.76-.79,1.76-1.76s-.79-1.76-1.76-1.76h-7.46c-.97,0-1.76.79-1.76,1.76s.79,1.76,1.76,1.76Z"/>
</svg>