<?xml version="1.0" encoding="UTF-8"?>
<svg id="Capa_1" xmlns="http://www.w3.org/2000/svg" version="1.1" viewBox="0 0 145.68 145.68">
  <!-- Generator: Adobe Illustrator 29.6.1, SVG Export Plug-In . SVG Version: 2.1.1 Build 9)  -->
  <defs>
    <style>
      .st0 {
        fill: #fff;
      }

      .st1 {
        fill: #5f40a2;
        opacity: .7;
      }
    </style>
  </defs>
  <rect class="st1" width="145.68" height="145.68" rx="13.63" ry="13.63"/>
  <g>
    <path class="st0" d="M107.52,68.6c-1.41,0-2.53-1.14-2.53-2.53,0-9.73-3.79-18.85-10.66-25.74-.99-.99-.99-2.61,0-3.6s2.61-.99,3.6,0c7.82,7.82,12.15,18.24,12.15,29.32,0,1.41-1.14,2.53-2.53,2.53l-.02.02Z"/>
    <path class="st0" d="M38.14,68.6c-1.41,0-2.53-1.14-2.53-2.53,0-11.08,4.32-21.49,12.15-29.32.99-.99,2.61-.99,3.6,0s.99,2.61,0,3.6c-6.87,6.87-10.66,16.01-10.66,25.72,0,1.41-1.14,2.53-2.53,2.53h-.02Z"/>
    <path class="st0" d="M72.84,113.44c-7.01,0-12.7-5.69-12.7-12.7,0-1.41,1.14-2.53,2.53-2.53s2.53,1.14,2.53,2.53c0,4.21,3.41,7.61,7.61,7.61s7.61-3.41,7.61-7.61c0-1.41,1.14-2.53,2.53-2.53s2.53,1.14,2.53,2.53c0,7.01-5.69,12.7-12.7,12.7h.04Z"/>
    <path class="st0" d="M100.75,103.28h-55.83c-3.27,0-5.92-2.67-5.92-5.92,0-1.73.76-3.37,2.07-4.49,5.14-4.34,8.09-10.68,8.09-17.36v-9.44c0-13.06,10.62-23.7,23.7-23.7s23.7,10.62,23.7,23.7v9.44c0,6.7,2.93,13.02,8.05,17.34,1.35,1.14,2.11,2.8,2.11,4.53,0,3.27-2.67,5.92-5.92,5.92l-.06-.02ZM72.84,47.45c-10.26,0-18.62,8.36-18.62,18.62v9.44c0,8.19-3.6,15.93-9.84,21.23-.11.1-.3.3-.3.65,0,.46.38.84.84.84h55.85c.46,0,.84-.38.84-.84,0-.34-.19-.55-.3-.65-6.26-5.29-9.86-13.04-9.86-21.23v-9.44c0-10.26-8.36-18.62-18.62-18.62h.02Z"/>
    <path class="st0" d="M72.84,47.45c-1.41,0-2.53-1.14-2.53-2.53v-10.15c0-1.41,1.14-2.53,2.53-2.53s2.53,1.14,2.53,2.53v10.15c0,1.41-1.14,2.53-2.53,2.53Z"/>
  </g>
</svg>