<?xml version="1.0" encoding="UTF-8"?>
<svg id="Capa_1" xmlns="http://www.w3.org/2000/svg" version="1.1" viewBox="0 0 275.22 86.86">
  <!-- Generator: Adobe Illustrator 29.6.1, SVG Export Plug-In . SVG Version: 2.1.1 Build 9)  -->
  <defs>
    <style>
      .st0 {
        isolation: isolate;
      }

      .st1 {
        fill: #fff;
      }
    </style>
  </defs>
  <g class="st0">
    <g class="st0">
      <path class="st1" d="M14.4,35.67V8.05h8.58l7.47,20.5h.14l7.41-20.5h8.68v27.62h-5.29l.44-23.31h-.15l-8.72,23.31h-4.76l-8.76-23.16h-.14l.3,10.27.14,12.89h-5.34Z"/>
      <path class="st1" d="M51.18,35.67V8.05h18.97v4.53h-13.66v6.92h12.96v4.31h-12.96v7.33h13.74v4.53h-19.04Z"/>
      <path class="st1" d="M74.3,8.05h8.8l11.86,23.08h.14l-.44-23.08h5.34v27.62h-8.87l-11.71-23.08h-.22l.3,11.45.14,11.63h-5.34V8.05Z"/>
      <path class="st1" d="M114.07,7.83c2.45,0,4.21.05,5.26.15,1.7.22,2.99.7,3.87,1.44.92.75,1.52,1.66,1.78,2.72.26,1.07.4,2.42.4,4.04h-5.34v-1.11c0-1.03-.18-1.75-.55-2.14-.43-.49-1.54-.74-3.32-.74h-2.18c-2.1,0-3.46.25-4.08.74-.33.25-.57.57-.71.98-.14.41-.22,1.01-.22,1.82.05.92.13,1.58.24,1.99s.39.73.83.96c.36.19.8.34,1.33.44.53.1,1.16.18,1.88.23.72.05,1.41.1,2.05.14,2.19.14,3.99.31,5.42.52s2.51.6,3.27,1.17c.46.37.82.82,1.09,1.33.26.52.45,1.06.57,1.62s.19,1.05.21,1.46c.02.41.05,1.1.09,2.07,0,1.53-.22,2.89-.65,4.08-.43,1.19-1.07,2.09-1.89,2.7-1.3.96-3.94,1.44-7.92,1.44h-1.99c-1.77,0-3.29-.1-4.57-.29-1.28-.19-2.37-.67-3.27-1.44-.66-.57-1.14-1.22-1.44-1.95-.3-.73-.49-1.48-.56-2.26-.07-.78-.1-1.79-.1-3.04h5.28c0,.32-.02.58-.07.77.04.85.12,1.5.22,1.94.1.44.31.8.62,1.08.35.32.82.54,1.41.65s1.42.19,2.49.23c.52,0,.9.03,1.14.08,1.35-.06,2.36-.13,3.04-.22.68-.08,1.25-.26,1.7-.52.81-.5,1.22-1.66,1.22-3.46,0-1.27-.26-2.18-.77-2.74-.19-.17-.43-.32-.73-.43-.29-.11-.59-.19-.89-.23-.3-.04-.67-.08-1.13-.1-.46-.03-.97-.06-1.54-.09-.98-.04-1.91-.08-2.78-.13-.87-.04-1.7-.11-2.48-.21-.79-.1-1.56-.26-2.34-.51s-1.42-.56-1.93-.96c-1.45-1.07-2.23-3.08-2.32-6.04,0-3.09.7-5.25,2.1-6.48,1.45-1.15,4.2-1.73,8.26-1.73Z"/>
      <path class="st1" d="M136.23,8.05h7.77l9.42,27.62h-5.41l-1.76-5.2h-11.97l-1.77,5.2h-5.49l6.33-19.15,2.88-8.47ZM135.46,26.46h9.53l-4.75-14.4h-.04l-4.75,14.4Z"/>
      <path class="st1" d="M167.23,8.05h5.3v19.25c0,1.54-.13,2.92-.4,4.14-.26,1.22-.84,2.2-1.74,2.94-.57.44-1.18.77-1.84.99s-1.39.36-2.19.42c-.8.07-1.82.1-3.05.1s-2.36-.07-3.36-.2-1.87-.37-2.61-.71-1.32-.81-1.76-1.41c-.36-.46-.63-.97-.81-1.52-.18-.55-.31-1.17-.37-1.85-.06-.68-.11-1.67-.14-2.97.05-.52.07-1.3.07-2.36h5.12c0,1.57-.02,2.65-.07,3.24.07,1.28.34,2.14.81,2.58.26.28.59.46.97.54.39.08,1.07.12,2.04.12,1.22,0,2.04-.07,2.47-.2s.75-.34.95-.61c.26-.31.43-.71.49-1.2.06-.49.09-1.19.09-2.12V8.05Z"/>
      <path class="st1" d="M176.73,35.67V8.05h18.97v4.53h-13.66v6.92h12.96v4.31h-12.96v7.33h13.74v4.53h-19.04Z"/>
      <path class="st1" d="M213.33,8.05c3.57,0,5.99.7,7.25,2.09,1.11,1.25,1.66,3.28,1.66,6.11,0,3.07-.41,5.08-1.22,6.04-.72.89-1.95,1.5-3.67,1.81v.11c1.62.16,2.84.71,3.67,1.65.66,1.06,1,2.62,1,4.68v5.12h-5.33v-4.16c0-.96-.05-1.75-.14-2.39-.09-.63-.33-1.16-.71-1.58s-.82-.7-1.34-.82c-.51-.12-1.2-.18-2.06-.18h-7.4v9.13h-5.3V8.05h13.58ZM212.52,12.59h-7.48v9.42h7.63c.92,0,1.63-.07,2.13-.22.5-.15.94-.43,1.33-.84.52-.67.77-1.94.77-3.83,0-1.74-.21-2.92-.63-3.54-.34-.42-.81-.69-1.41-.81-.6-.12-1.38-.18-2.35-.18Z"/>
      <path class="st1" d="M226.14,6.18l-1.03-1.88L231.66,0l1.66,3.01-7.17,3.17ZM226.47,8.05h5.34v27.62h-5.34V8.05Z"/>
      <path class="st1" d="M243.29,8.05h7.77l9.42,27.62h-5.41l-1.76-5.2h-11.97l-1.77,5.2h-5.49l6.33-19.15,2.88-8.47ZM242.52,26.46h9.53l-4.75-14.4h-.04l-4.75,14.4Z"/>
    </g>
    <g class="st0">
      <path class="st1" d="M34.61,60.66h-4.53c-.05-1.33-.08-2.08-.1-2.28-.02-.2-.11-.49-.27-.89-.13-.43-.44-.74-.93-.91-.49-.18-1.39-.27-2.7-.27-1.66,0-2.69.17-3.09.51-.53.39-.82,1.09-.89,2.1,0,.6.06,1.1.19,1.5.13.4.32.75.57,1.04.26.29.76.75,1.51,1.37s1.17.96,1.25,1.03l7,6.12v-3.72h4.53v2.8c0,.71-.05,1.51-.16,2.39s-.25,1.5-.42,1.85l3.94,3.53-2.5,3.01-3.25-2.79c-.49.83-1.14,1.47-1.95,1.92-.81.45-1.73.74-2.76.88-1.03.14-2.23.21-3.6.21h-1.44c-2.16-.08-3.67-.16-4.55-.25-.88-.09-1.82-.38-2.84-.88-1.02-.5-1.83-1.35-2.46-2.54-.62-1.2-.93-2.83-.93-4.91,0-1.35.09-2.48.28-3.4.19-.92.48-1.66.89-2.22.41-.56.94-1,1.6-1.3.66-.3,1.5-.51,2.52-.62-.85-.67-1.45-1.35-1.81-2.05s-.54-1.5-.54-2.41c0-1.34.11-2.46.32-3.34s.64-1.66,1.26-2.33c.47-.49,1.09-.87,1.84-1.14s1.56-.45,2.43-.54,1.81-.13,2.84-.13c1.98,0,3.54.15,4.69.44,1.14.29,2,.76,2.59,1.41.58.65.98,1.5,1.18,2.55.2,1.05.31,2.47.31,4.25ZM22.24,66.41c-.98.16-1.68.42-2.12.78-.44.37-.71.85-.81,1.46-.1.61-.16,1.53-.16,2.77,0,.99.1,1.79.29,2.41.19.61.6,1.09,1.21,1.43.4.16.81.27,1.24.34.43.06.89.1,1.39.12s1.1.03,1.83.06c1.53-.04,2.58-.08,3.16-.12s1.12-.18,1.65-.41.98-.6,1.37-1.13l-9.04-7.7Z"/>
      <path class="st1" d="M62.81,52.23h7.77l9.42,27.62h-5.41l-1.76-5.2h-11.97l-1.77,5.2h-5.49l6.33-19.15,2.88-8.47ZM62.04,70.64h9.53l-4.75-14.4h-.04l-4.75,14.4Z"/>
      <path class="st1" d="M82.22,52.23h5.34v23.08h12.96v4.53h-18.3v-27.62Z"/>
      <path class="st1" d="M102.65,79.85v-27.62h18.97v4.53h-13.66v6.92h12.96v4.31h-12.96v7.33h13.74v4.53h-19.04Z"/>
      <path class="st1" d="M139.25,52.23c3.57,0,5.99.7,7.25,2.09,1.11,1.25,1.66,3.28,1.66,6.11,0,3.07-.41,5.08-1.22,6.04-.72.89-1.95,1.5-3.67,1.81v.11c1.62.16,2.84.71,3.67,1.65.66,1.06,1,2.62,1,4.68v5.12h-5.33v-4.16c0-.96-.05-1.75-.14-2.39-.09-.63-.33-1.16-.71-1.58-.38-.42-.82-.7-1.34-.82-.51-.12-1.2-.18-2.05-.18h-7.4v9.13h-5.3v-27.62h13.58ZM138.44,56.77h-7.48v9.42h7.63c.92,0,1.63-.07,2.13-.22.5-.15.94-.43,1.33-.84.52-.67.77-1.94.77-3.83,0-1.74-.21-2.92-.63-3.54-.34-.42-.81-.69-1.41-.81-.6-.12-1.38-.18-2.35-.18Z"/>
      <path class="st1" d="M158.17,79.85v-23.08h-8.06v-4.53h21.5v4.53h-8.14v23.08h-5.3Z"/>
      <path class="st1" d="M180.74,52.23h7.77l9.42,27.62h-5.41l-1.76-5.2h-11.97l-1.77,5.2h-5.49l6.33-19.15,2.88-8.47ZM179.96,70.64h9.53l-4.75-14.4h-.04l-4.75,14.4Z"/>
      <path class="st1" d="M209.5,52.01c2.45,0,4.21.05,5.26.15,1.7.22,2.99.7,3.87,1.44.92.75,1.52,1.66,1.78,2.72.26,1.07.4,2.42.4,4.04h-5.34v-1.11c0-1.03-.18-1.75-.55-2.14-.43-.49-1.54-.74-3.32-.74h-2.18c-2.1,0-3.46.25-4.08.74-.33.25-.57.57-.71.98-.14.41-.22,1.01-.22,1.82.05.92.13,1.58.24,1.99.11.41.39.73.83.96.36.19.8.34,1.33.44.53.1,1.16.18,1.88.23.72.05,1.41.1,2.05.14,2.19.14,3.99.31,5.42.52,1.42.21,2.51.6,3.27,1.17.46.37.82.82,1.09,1.33.26.52.45,1.06.57,1.62.12.56.19,1.05.21,1.46.02.41.05,1.1.09,2.07,0,1.53-.22,2.89-.65,4.08-.43,1.19-1.07,2.09-1.89,2.7-1.29.96-3.94,1.44-7.92,1.44h-1.99c-1.77,0-3.29-.1-4.57-.29-1.28-.19-2.37-.67-3.27-1.44-.66-.57-1.14-1.22-1.44-1.95s-.49-1.48-.56-2.26c-.07-.78-.1-1.79-.1-3.04h5.28c0,.32-.02.58-.07.77.04.85.12,1.5.22,1.94.1.44.31.8.62,1.08.35.32.82.54,1.41.65.59.11,1.42.19,2.49.23.52,0,.9.03,1.14.08,1.35-.06,2.36-.13,3.04-.22s1.25-.26,1.7-.52c.82-.5,1.22-1.66,1.22-3.46,0-1.27-.26-2.18-.77-2.74-.19-.17-.43-.32-.73-.43-.29-.11-.59-.19-.89-.23-.3-.04-.67-.08-1.13-.1-.46-.03-.97-.06-1.54-.09-.98-.04-1.91-.08-2.78-.13s-1.7-.11-2.48-.21c-.79-.1-1.56-.26-2.34-.51s-1.42-.56-1.93-.96c-1.45-1.07-2.23-3.08-2.32-6.04,0-3.09.7-5.25,2.1-6.48,1.45-1.15,4.2-1.73,8.26-1.73Z"/>
    </g>
  </g>
</svg>