<?xml version="1.0" encoding="UTF-8"?>
<svg id="Capa_1" xmlns="http://www.w3.org/2000/svg" version="1.1" viewBox="0 0 50.99 49.07">
  <!-- Generator: Adobe Illustrator 29.6.1, SVG Export Plug-In . SVG Version: 2.1.1 Build 9)  -->
  <defs>
    <style>
      .st0 {
        fill: #fff;
      }
    </style>
  </defs>
  <path class="st0" d="M10.6,13.4v20.79c0,2.15,1.75,3.9,3.9,3.9h20.79c2.15,0,3.9-1.75,3.9-3.9V13.4c0-2.15-1.75-3.9-3.9-3.9H14.49c-2.15,0-3.9,1.75-3.9,3.9ZM36.58,34.19c0,.72-.58,1.3-1.3,1.3H14.49c-.72,0-1.3-.58-1.3-1.3v-1.3h23.39v1.3ZM16.33,30.29l6.34-6.34c.51-.51,1.33-.51,1.84,0,0,0,0,0,0,0l6.34,6.34h-14.51ZM36.58,13.4v16.89h-2.06l-8.17-8.17c-1.52-1.52-3.99-1.52-5.51,0,0,0,0,0,0,0l-7.64,7.64V13.4c0-.72.58-1.3,1.3-1.3h20.79c.72,0,1.3.58,1.3,1.3ZM30.73,21.85c2.15,0,3.9-1.75,3.9-3.9s-1.75-3.9-3.9-3.9-3.9,1.75-3.9,3.9,1.75,3.9,3.9,3.9ZM30.73,16.65c.72,0,1.3.58,1.3,1.3s-.58,1.3-1.3,1.3-1.3-.58-1.3-1.3.58-1.3,1.3-1.3ZM2.8,13.4v-5.2c0-3.59,2.91-6.5,6.5-6.5h5.2c.72,0,1.3.58,1.3,1.3s-.58,1.3-1.3,1.3h-5.2c-2.15,0-3.9,1.75-3.9,3.9v5.2c0,.72-.58,1.3-1.3,1.3s-1.3-.58-1.3-1.3ZM46.97,28.99c0,.72-.58,1.3-1.3,1.3s-1.3-.58-1.3-1.3.58-1.3,1.3-1.3,1.3.58,1.3,1.3ZM46.97,8.21v5.2c0,.72-.58,1.3-1.3,1.3s-1.3-.58-1.3-1.3v-5.2c0-2.15-1.75-3.9-3.9-3.9h-5.2c-.72,0-1.3-.58-1.3-1.3s.58-1.3,1.3-1.3h5.2c3.59,0,6.5,2.91,6.5,6.5ZM2.8,18.6c0-.72.58-1.3,1.3-1.3s1.3.58,1.3,1.3-.58,1.3-1.3,1.3-1.3-.58-1.3-1.3ZM46.97,18.6c0,.72-.58,1.3-1.3,1.3s-1.3-.58-1.3-1.3.58-1.3,1.3-1.3,1.3.58,1.3,1.3ZM2.8,23.8c0-.72.58-1.3,1.3-1.3s1.3.58,1.3,1.3-.58,1.3-1.3,1.3-1.3-.58-1.3-1.3ZM2.8,28.99c0-.72.58-1.3,1.3-1.3s1.3.58,1.3,1.3-.58,1.3-1.3,1.3-1.3-.58-1.3-1.3ZM19.69,4.31c-.72,0-1.3-.58-1.3-1.3s.58-1.3,1.3-1.3,1.3.58,1.3,1.3-.58,1.3-1.3,1.3ZM2.8,39.39v-5.2c0-.72.58-1.3,1.3-1.3s1.3.58,1.3,1.3v5.2c0,2.15,1.75,3.9,3.9,3.9h5.2c.72,0,1.3.58,1.3,1.3s-.58,1.3-1.3,1.3h-5.2c-3.59,0-6.5-2.91-6.5-6.5ZM46.97,23.8c0,.72-.58,1.3-1.3,1.3s-1.3-.58-1.3-1.3.58-1.3,1.3-1.3,1.3.58,1.3,1.3ZM46.97,34.19v5.2c0,3.59-2.91,6.5-6.5,6.5h-5.2c-.72,0-1.3-.58-1.3-1.3s.58-1.3,1.3-1.3h5.2c2.15,0,3.9-1.75,3.9-3.9v-5.2c0-.72.58-1.3,1.3-1.3s1.3.58,1.3,1.3ZM30.08,4.31c-.72,0-1.3-.58-1.3-1.3s.58-1.3,1.3-1.3,1.3.58,1.3,1.3-.58,1.3-1.3,1.3ZM24.89,4.31c-.72,0-1.3-.58-1.3-1.3s.58-1.3,1.3-1.3,1.3.58,1.3,1.3-.58,1.3-1.3,1.3ZM24.89,43.28c.72,0,1.3.58,1.3,1.3s-.58,1.3-1.3,1.3-1.3-.58-1.3-1.3.58-1.3,1.3-1.3ZM30.08,43.28c.72,0,1.3.58,1.3,1.3s-.58,1.3-1.3,1.3-1.3-.58-1.3-1.3.58-1.3,1.3-1.3ZM19.69,43.28c.72,0,1.3.58,1.3,1.3s-.58,1.3-1.3,1.3-1.3-.58-1.3-1.3.58-1.3,1.3-1.3Z"/>
</svg>