<?xml version="1.0" encoding="UTF-8"?>
<svg id="Capa_1" xmlns="http://www.w3.org/2000/svg" version="1.1" viewBox="0 0 147.34 36.05">
  <!-- Generator: Adobe Illustrator 29.6.1, SVG Export Plug-In . SVG Version: 2.1.1 Build 9)  -->
  <defs>
    <style>
      .st0 {
        isolation: isolate;
      }

      .st1 {
        fill: #fff;
      }
    </style>
  </defs>
  <g class="st0">
    <g class="st0">
      <path class="st1" d="M15.96,4.89c1.17,0,1.99.26,2.46.77.41.43.62,1.22.62,2.35,0,.92-.14,1.58-.41,1.96-.3.39-.77.63-1.41.71v.03c.33.04.62.14.88.31.26.17.46.39.6.66.14.27.21.57.21.9v2.81h-1.2v-2.3c0-.69-.13-1.17-.39-1.46-.24-.29-.72-.43-1.44-.43h-3.78v4.19h-1.18V4.89h5.04ZM15.99,5.93h-3.86v4.21h3.72c.38,0,.7-.03.96-.1.26-.07.47-.2.65-.39.26-.28.39-.79.39-1.51v-.35c0-.69-.09-1.14-.28-1.37-.29-.33-.81-.49-1.58-.49Z"/>
      <path class="st1" d="M20.36,15.39V4.89h6.75v1.04h-5.57v3.59h5.34v.98h-5.34v3.86h5.57v1.04h-6.75Z"/>
      <path class="st1" d="M35.3,8.16v-.4c0-.79-.14-1.31-.43-1.56-.18-.15-.39-.25-.65-.3-.25-.04-.58-.07-.98-.07h-.24c-.2,0-.47.01-.82.02-.35,0-.66.03-.95.07-.28.04-.54.1-.77.18-.23.08-.41.2-.56.35-.31.36-.46.88-.46,1.54v3.45c0,.74.05,1.3.15,1.69s.25.67.45.85c.15.15.3.25.46.31.16.06.34.1.53.12.19.02.4.03.62.05.18-.02.42-.03.71-.03.71,0,1.21,0,1.5-.03.57-.06.97-.2,1.2-.42.21-.19.33-.51.36-.95.02-.25.03-.65.03-1.2h1.18v.6c0,.52-.04.97-.11,1.34-.08.37-.25.69-.52.95-.29.32-.66.52-1.1.61-.44.09-.97.14-1.59.14h-1.93c-.48,0-.89-.05-1.22-.16-.33-.1-.68-.32-1.06-.64-.24-.22-.44-.55-.6-.99s-.24-.93-.24-1.44v-4.13c0-1.01.21-1.76.63-2.27.37-.44.86-.73,1.45-.85.59-.12,1.31-.19,2.16-.19h.38c.64,0,1.09.01,1.37.03.6.06,1.08.23,1.42.52.34.28.56.63.67,1.06s.16.92.16,1.49v.26h-1.2Z"/>
      <path class="st1" d="M41.61,4.8c.57,0,1.06.02,1.48.05s.82.12,1.21.26c.39.14.69.37.9.67.09.09.2.34.34.75.14.41.2,1.09.2,2.02v3.61c0,.58-.05,1.03-.14,1.37-.09.33-.23.64-.4.93-.18.29-.44.51-.78.66-.34.15-.69.25-1.05.29s-.76.06-1.19.06h-1.2c-.61,0-1.14-.05-1.6-.16s-.86-.33-1.18-.67c-.46-.5-.69-1.34-.69-2.5v-3.73c0-.38,0-.71.03-1,.02-.28.07-.56.14-.84.08-.28.19-.53.34-.77.21-.3.48-.52.82-.67s.69-.24,1.06-.28.81-.06,1.33-.06h.38ZM41.58,5.84h-.43c-.39,0-.71.02-.98.05-.27.03-.51.1-.71.2-.21.1-.37.26-.49.46-.13.26-.21.58-.24.96-.02.38-.04.62-.04.74v3.84c0,.73.12,1.3.35,1.72.15.25.38.42.68.49s.72.12,1.24.14h.68c.75,0,1.31-.03,1.68-.09.37-.06.65-.21.84-.46.27-.36.4-.94.4-1.72v-4.04c0-.87-.15-1.47-.46-1.79-.21-.24-.55-.39-1.02-.45-.18-.02-.44-.03-.8-.04-.36,0-.59,0-.7-.02Z"/>
      <path class="st1" d="M47.27,4.89h1.97l5.88,9.6h.03V4.89h1.2v10.5h-1.95l-5.91-9.52h-.03v9.52h-1.2V4.89Z"/>
      <path class="st1" d="M61.98,4.8c.57,0,1.06.02,1.48.05s.82.12,1.21.26c.39.14.69.37.9.67.09.09.2.34.34.75.14.41.2,1.09.2,2.02v3.61c0,.58-.05,1.03-.14,1.37-.09.33-.23.64-.4.93-.18.29-.44.51-.78.66-.34.15-.69.25-1.05.29s-.76.06-1.19.06h-1.2c-.61,0-1.14-.05-1.6-.16s-.86-.33-1.18-.67c-.46-.5-.69-1.34-.69-2.5v-3.73c0-.38,0-.71.03-1,.02-.28.07-.56.14-.84.08-.28.19-.53.34-.77.21-.3.48-.52.82-.67s.69-.24,1.06-.28.81-.06,1.33-.06h.38ZM61.95,5.84h-.43c-.39,0-.71.02-.98.05-.27.03-.51.1-.71.2-.21.1-.37.26-.49.46-.13.26-.21.58-.24.96-.02.38-.04.62-.04.74v3.84c0,.73.12,1.3.35,1.72.15.25.38.42.68.49s.72.12,1.24.14h.68c.75,0,1.31-.03,1.68-.09.37-.06.65-.21.84-.46.27-.36.4-.94.4-1.72v-4.04c0-.87-.15-1.47-.46-1.79-.21-.24-.55-.39-1.02-.45-.18-.02-.44-.03-.8-.04-.36,0-.59,0-.7-.02Z"/>
      <path class="st1" d="M74.38,8.16v-.4c0-.79-.14-1.31-.43-1.56-.18-.15-.39-.25-.65-.3-.25-.04-.58-.07-.98-.07h-.24c-.2,0-.47.01-.82.02-.35,0-.66.03-.95.07-.28.04-.54.1-.77.18-.23.08-.41.2-.56.35-.31.36-.46.88-.46,1.54v3.45c0,.74.05,1.3.15,1.69s.25.67.45.85c.15.15.3.25.46.31.16.06.34.1.53.12.19.02.4.03.62.05.18-.02.42-.03.71-.03.71,0,1.21,0,1.5-.03.57-.06.97-.2,1.2-.42.21-.19.33-.51.36-.95.02-.25.03-.65.03-1.2h1.18v.6c0,.52-.04.97-.11,1.34s-.25.69-.52.95c-.29.32-.66.52-1.1.61-.44.09-.97.14-1.59.14h-1.93c-.48,0-.89-.05-1.22-.16-.33-.1-.68-.32-1.06-.64-.24-.22-.44-.55-.6-.99s-.24-.93-.24-1.44v-4.13c0-1.01.21-1.76.63-2.27.37-.44.86-.73,1.45-.85.59-.12,1.31-.19,2.16-.19h.38c.64,0,1.09.01,1.37.03.6.06,1.08.23,1.42.52.34.28.56.63.67,1.06.1.43.16.92.16,1.49v.26h-1.2Z"/>
      <path class="st1" d="M77.02,4.89h1.18v10.5h-1.18V4.89Z"/>
      <path class="st1" d="M80.17,15.39V4.89h2.08l3.71,9,3.73-9h2.06v10.5h-1.18V5.79h-.03l-3.98,9.6h-1.18l-3.99-9.6h-.03v9.6h-1.2Z"/>
      <path class="st1" d="M93.74,4.89h1.18v10.5h-1.18V4.89Z"/>
      <path class="st1" d="M96.51,15.39V4.89h6.75v1.04h-5.57v3.59h5.33v.98h-5.33v3.86h5.57v1.04h-6.75Z"/>
      <path class="st1" d="M104.72,4.89h1.97l5.88,9.6h.03V4.89h1.2v10.5h-1.95l-5.91-9.52h-.03v9.52h-1.2V4.89Z"/>
      <path class="st1" d="M118.2,15.39V5.93h-3.39v-1.04h7.98v1.04h-3.39v9.46h-1.2Z"/>
      <path class="st1" d="M127.52,4.8c.57,0,1.06.02,1.48.05.41.03.82.12,1.21.26.39.14.69.37.9.67.09.09.21.34.34.75.13.41.2,1.09.2,2.02v3.61c0,.58-.05,1.03-.14,1.37-.09.33-.23.64-.41.93-.18.29-.44.51-.78.66s-.69.25-1.05.29-.76.06-1.19.06h-1.2c-.61,0-1.14-.05-1.6-.16-.46-.11-.86-.33-1.18-.67-.46-.5-.69-1.34-.69-2.5v-3.73c0-.38,0-.71.03-1,.02-.28.07-.56.14-.84.08-.28.19-.53.34-.77.21-.3.48-.52.82-.67.34-.15.69-.24,1.06-.28.37-.04.81-.06,1.33-.06h.38ZM127.49,5.84h-.43c-.38,0-.71.02-.98.05-.27.03-.51.1-.71.2-.21.1-.37.26-.49.46-.13.26-.21.58-.24.96-.02.38-.04.62-.04.74v3.84c0,.73.12,1.3.35,1.72.15.25.38.42.68.49.3.07.72.12,1.24.14h.68c.75,0,1.31-.03,1.68-.09.37-.06.65-.21.84-.46.27-.36.4-.94.4-1.72v-4.04c0-.87-.15-1.47-.46-1.79-.21-.24-.55-.39-1.02-.45-.18-.02-.44-.03-.8-.04-.36,0-.59,0-.7-.02Z"/>
    </g>
    <g class="st0">
      <path class="st1" d="M16.28,32.19h-5.43v-10.5h5.14c.8,0,1.45.13,1.93.4.49.27.87.64,1.15,1.13.34.63.51,1.49.51,2.58v2.24c0,1.91-.53,3.17-1.6,3.75-.43.27-.99.41-1.7.41ZM15.88,31.16c.49,0,.9-.06,1.22-.17.32-.11.58-.3.77-.57.22-.3.37-.68.43-1.13s.1-.97.1-1.54v-2.32c0-.45-.07-.88-.2-1.28s-.36-.74-.69-1.01c-.33-.27-.76-.4-1.31-.4h-4.16v8.43h3.84Z"/>
      <path class="st1" d="M20.82,32.19v-10.5h6.75v1.04h-5.57v3.59h5.34v.98h-5.34v3.86h5.57v1.04h-6.75Z"/>
      <path class="st1" d="M33.95,21.69h1.18v10.5h-1.18v-10.5Z"/>
      <path class="st1" d="M37.1,32.19v-10.5h2.08l3.71,9,3.73-9h2.06v10.5h-1.18v-9.6h-.03l-3.98,9.6h-1.18l-3.99-9.6h-.03v9.6h-1.2Z"/>
      <path class="st1" d="M53.56,21.69h1.67l3.95,10.5h-1.23l-.85-2.21h-5.31l-.81,2.21h-1.23l3.82-10.5ZM52.12,28.98h4.65l-2.35-6.31-2.3,6.31ZM53.13,20.21l2.08-1.58.55.74-2.24,1.42-.39-.57Z"/>
      <path class="st1" d="M68.53,29.26c0,1.17-.27,1.97-.81,2.41-.25.19-.53.33-.84.42-.31.09-.65.14-1,.16-.36.02-.87.03-1.53.03h-.84c-.42,0-.79-.02-1.12-.05-.33-.04-.63-.11-.92-.21s-.54-.27-.75-.48c-.29-.28-.5-.65-.64-1.11s-.21-1.05-.21-1.79v-3.45c0-1.25.28-2.18.83-2.79.25-.26.56-.46.95-.6s.82-.21,1.29-.21h2.84c.86,0,1.53.2,2.01.6s.72.99.72,1.75v.8h-1.17v-.45c0-.62-.1-1.02-.29-1.22-.15-.16-.35-.28-.6-.33-.25-.06-.55-.09-.88-.1s-.68-.01-1.04-.02c-.52,0-.96,0-1.31.01-.35,0-.65.03-.91.09-.26.06-.49.16-.68.32-.19.15-.33.39-.42.71-.09.33-.13.79-.13,1.39v3.81c0,.91.21,1.51.63,1.82.23.18.5.29.81.35s.68.1,1.14.12c.16-.02.37-.03.64-.03s.48,0,.6.03c.52-.02.95-.06,1.27-.11.32-.06.57-.16.77-.31.29-.21.43-.72.43-1.53v-1.32h-3.36v-1.06h4.54v2.32Z"/>
      <path class="st1" d="M69.57,32.19v-10.5h6.75v1.04h-5.57v3.59h5.33v.98h-5.33v3.86h5.57v1.04h-6.75Z"/>
      <path class="st1" d="M77.78,21.69h1.97l5.88,9.6h.03v-9.6h1.2v10.5h-1.95l-5.91-9.52h-.03v9.52h-1.2v-10.5Z"/>
      <path class="st1" d="M88.38,32.19v-10.5h6.75v1.04h-5.57v3.59h5.34v.98h-5.34v3.86h5.57v1.04h-6.75Z"/>
      <path class="st1" d="M100.06,21.6c.74,0,1.36.04,1.86.13.51.09.89.23,1.15.44.49.42.74,1.11.74,2.09v.29h-1.18c-.02-.42-.05-.73-.08-.94-.03-.21-.11-.39-.24-.53-.11-.13-.26-.23-.46-.3-.2-.06-.44-.1-.71-.12-.27-.02-.63-.03-1.08-.03h-.29c-1.03,0-1.72.14-2.06.42-.13.11-.23.27-.28.5-.05.22-.07.51-.07.87,0,.85.2,1.38.6,1.6.19.11.42.18.69.22.27.04.56.06.86.06s.61,0,.94.01c.92.07,1.54.12,1.87.17.33.04.62.16.89.35.34.23.56.55.65.95.09.4.15.88.17,1.43,0,.6-.08,1.13-.22,1.57-.15.45-.38.78-.68,1-.34.22-.78.35-1.3.41-.52.06-1.18.08-1.97.08h-.43c-.55,0-1.04-.04-1.47-.12-.43-.08-.79-.24-1.08-.48-.28-.21-.47-.49-.58-.85-.11-.35-.17-.78-.19-1.28.02-.15.03-.36.03-.63h1.2c0,.08,0,.16-.03.24.02.47.05.84.11,1.12.05.28.16.49.33.63.2.17.5.28.91.31.25.02.64.03,1.15.03.35,0,.61.01.8.03.88-.04,1.46-.16,1.75-.37.2-.13.33-.33.39-.6.06-.26.1-.6.1-1.02v-.17c0-.65-.12-1.1-.36-1.33-.14-.15-.35-.25-.62-.29s-.67-.09-1.22-.13c-.34-.01-.67-.02-1-.03-.33-.01-.67-.04-1.03-.07-.36-.04-.68-.1-.97-.18-.29-.08-.54-.2-.74-.34-.26-.2-.45-.47-.55-.8-.11-.33-.17-.75-.19-1.24,0-1.21.26-2.03.77-2.46.32-.27.73-.44,1.22-.52.49-.08,1.13-.12,1.91-.12Z"/>
    </g>
  </g>
</svg>