<?xml version="1.0" encoding="UTF-8"?>
<svg id="Capa_1" xmlns="http://www.w3.org/2000/svg" version="1.1" viewBox="0 0 50.99 49.07">
  <!-- Generator: Adobe Illustrator 29.6.1, SVG Export Plug-In . SVG Version: 2.1.1 Build 9)  -->
  <defs>
    <style>
      .st0 {
        fill: #fff;
      }
    </style>
  </defs>
  <path class="st0" d="M43.76,33.7c-.24-.08-.48-.15-.72-.23v-2.36c1.29-1.18,2.18-2.81,2.18-4.27v-3.2c0-2.02-1.52-3.83-3.86-4.63-2.05-.7-4.09-.37-5.19.8-1.12.2-2.7,1.09-2.65,4.54,0,.03,0,.06,0,.08v2.06s0,0,0,0h0v.35c0,1.45.89,3.09,2.18,4.27v2.17h-9.93c-.13-.41-.3-.81-.5-1.19l.23-.23c.26-.26.4-.6.4-.97s-.14-.71-.4-.97l-1.67-1.67c-.26-.26-.6-.4-.97-.4s-.71.14-.97.4l-.23.23c-.39-.2-.8-.37-1.22-.51v-.32c0-.76-.61-1.37-1.37-1.37h-.52v-2.89h4.26c.62,0,1.12-.5,1.12-1.12v-3.1h5.69c.37,0,.66-.3.66-.66v-2.31c0-1.99-1.16-3.76-2.9-4.59.88-.91,1.43-2.15,1.43-3.52v-.38c0-1.69-.54-3.13-1.57-4.15-.92-.92-2.15-1.44-3.48-1.46,0,0-.01,0-.02,0-1.32.02-2.56.54-3.48,1.46-1.03,1.03-1.57,2.46-1.57,4.15v.38c0,1.37.55,2.61,1.43,3.52-.95.45-1.72,1.19-2.23,2.08-.51-.9-1.29-1.63-2.24-2.08.88-.91,1.43-2.15,1.43-3.52v-.38c0-1.69-.54-3.13-1.57-4.15-.92-.92-2.15-1.44-3.48-1.46,0,0-.01,0-.02,0-1.32.02-2.56.54-3.48,1.46-1.03,1.03-1.57,2.46-1.57,4.15v.38c0,1.37.54,2.61,1.43,3.52-1.73.83-2.9,2.59-2.9,4.59v2.31c0,.37.3.66.66.66h5.69v3.1c0,.62.5,1.12,1.12,1.12h4.26v2.89h-.52c-.76,0-1.37.61-1.37,1.37v.32c-.42.14-.83.31-1.22.51l-.23-.23c-.26-.26-.6-.4-.97-.4s-.71.14-.97.4l-1.67,1.67c-.53.53-.53,1.4,0,1.94l.23.23c-.2.39-.37.8-.51,1.22h-.32c-.76,0-1.37.61-1.37,1.37v2.37c0,.75.61,1.37,1.37,1.37h.32c.14.42.31.83.51,1.22l-.23.23c-.53.53-.53,1.4,0,1.94l1.67,1.67c.26.26.6.4.97.4s.71-.14.97-.4l.23-.23c.39.2.8.37,1.22.51v.32c0,.76.61,1.37,1.37,1.37h2.36c.76,0,1.37-.61,1.37-1.37v-.32c.42-.13.83-.3,1.22-.51l.23.23c.26.26.6.4.97.4s.71-.14.97-.4l1.67-1.67c.53-.53.53-1.4,0-1.94l-.23-.23c.19-.36.34-.74.47-1.13h5.54c.19,0,.34.16.34.34v6.57c0,1.05.85,1.9,1.9,1.9h4.95c.37,0,.66-.3.66-.66s-.3-.66-.66-.66h-4.95c-.32,0-.58-.27-.58-.58v-6.57c0-.92-.75-1.67-1.67-1.67h-7.61v-2.58h10.14l1.63,4.26c.07.19.23.34.43.4.06.02.12.03.19.03.14,0,.28-.04.39-.13l2.92-2.15,2.91,2.15c.12.08.25.13.39.13.06,0,.12,0,.19-.03.2-.06.36-.21.43-.4l1.33-3.48c2.31.83,3.67,1.83,3.67,5.69v4.34c0,.32-.27.58-.58.58h-1.11v-5.61c0-.37-.3-.66-.66-.66s-.66.3-.66.66v5.61h-3.74c-.37,0-.66.3-.66.66s.3.66.66.66h6.18c1.05,0,1.9-.85,1.9-1.9v-4.34c0-5.49-2.71-6.36-5.86-7.37h0ZM23.75,3.43c1.7.03,3.52,1.25,3.72,3.83-1.04.27-2.4-.08-3.72-.41-.95-.24-1.92-.49-2.79-.49-.28,0-.55.03-.81.09.47-2.03,2.08-2.99,3.59-3.02h0ZM20.01,7.97c.57-.51,1.73-.26,3.4.16,1.03.26,2.15.55,3.22.55.27,0,.54-.02.81-.06-.16,1.12-.81,2.08-1.73,2.66-.03.01-.05.03-.08.05-.55.33-1.2.51-1.89.51s-1.33-.19-1.88-.51c-.03-.02-.06-.04-.09-.06-1.06-.66-1.76-1.83-1.76-3.17v-.13h0ZM21.37,12.56c.71.38,1.52.59,2.37.59s1.67-.22,2.38-.59c1.65.42,2.83,1.92,2.83,3.64v1.64h-10.41v-1.64c0-1.72,1.18-3.21,2.83-3.64h0ZM12.02,3.43c1.7.03,3.52,1.25,3.72,3.83-1.04.27-2.4-.08-3.72-.41-.95-.24-1.92-.49-2.79-.49-.28,0-.55.03-.81.09.47-2.03,2.08-2.99,3.59-3.02ZM8.29,7.97c.57-.51,1.73-.26,3.4.16,1.03.26,2.15.55,3.22.55.27,0,.54-.02.81-.06-.16,1.12-.81,2.08-1.73,2.66-.03.01-.05.03-.08.05-.55.33-1.2.51-1.89.51s-1.33-.19-1.89-.52c-.02-.02-.05-.03-.08-.05-1.06-.66-1.77-1.83-1.77-3.17v-.13ZM9.64,12.56c.71.38,1.52.59,2.38.59s1.67-.22,2.38-.59c1.65.42,2.83,1.92,2.83,3.64v1.64H6.82v-1.64c0-1.72,1.17-3.21,2.83-3.64ZM13.17,19.17h9.43v2.9h-9.43v-2.9ZM36.56,21.09c.18-.02.35-.11.47-.26.8-1.04,2.53-1.04,3.9-.57,1.37.47,2.97,1.63,2.97,3.38v1.8h-.62c-1.24,0-2.23-.48-3.18-.94-.78-.38-1.57-.76-2.4-.76-.46,0-.92.12-1.41.41-.79.49-.89.56-1.28.87-.05.04-.1.08-.15.12v-.73s0-.06,0-.1c-.03-2.05.55-3.14,1.72-3.24h0ZM34.84,26.84v-.02c.51-.38.78-.6.98-.75.35-.28.41-.32,1.16-.78.71-.44,1.36-.16,2.54.41.98.48,2.2,1.07,3.75,1.07h.62v.07c0,1.62-1.65,3.7-3.46,4.37-.41.15-.74.22-1.07.22s-.66-.07-1.07-.22c-1.81-.67-3.46-2.75-3.46-4.37h0ZM37.84,32.45c.56.21,1.04.3,1.53.3s.97-.1,1.53-.3c.28-.1.55-.23.82-.38v1.54l-2.35,1.75-2.35-1.75v-1.54c.27.15.54.28.82.38ZM23.98,40.22l.58.58s.01.02.01.03,0,.02-.01.03l-1.67,1.67s-.05.02-.06,0l-.58-.58c-.21-.21-.55-.26-.81-.1-.57.34-1.19.59-1.82.76-.29.07-.5.34-.5.64v.82s-.02.05-.05.05h-2.36s-.05-.02-.05-.05v-.82c0-.3-.21-.57-.5-.64-.64-.16-1.25-.42-1.82-.76-.26-.15-.59-.11-.81.1l-.58.58s-.05.02-.06,0l-1.67-1.67s-.02-.05,0-.06l.58-.58c.21-.21.26-.55.1-.81-.34-.56-.59-1.18-.76-1.82-.08-.29-.34-.5-.64-.5h-.82s-.05-.02-.05-.04v-2.37s.02-.05.05-.05h.82c.3,0,.57-.2.64-.5.17-.65.42-1.26.76-1.82.16-.26.11-.59-.1-.81l-.58-.58s-.02-.05,0-.06l1.67-1.67s.05-.02.06,0l.58.58c.21.21.55.26.81.1.57-.34,1.18-.59,1.83-.76.29-.08.5-.34.5-.64v-.82s.02-.05.05-.05h2.36s.05.02.05.05v.82c0,.3.2.57.5.64.64.16,1.25.42,1.82.76.26.15.59.11.81-.1l.58-.58s.05-.02.06,0l1.67,1.67s.02.05,0,.06l-.58.58c-.21.21-.26.55-.1.81.18.31.34.64.48.97h-2.02c-.91-1.57-2.62-2.56-4.45-2.56-.91,0-1.8.24-2.58.69-.32.18-.42.59-.24.9.18.32.59.42.9.24.58-.34,1.24-.51,1.91-.51,1.08,0,2.1.47,2.81,1.24h-1c-1.44,0-2.61,1.17-2.61,2.61s1.17,2.61,2.61,2.61h.93c-.71.73-1.7,1.17-2.75,1.17-2.11,0-3.82-1.71-3.82-3.82,0-.46.08-.91.24-1.34.13-.34-.05-.72-.39-.85-.34-.13-.72.05-.85.39-.22.58-.32,1.18-.32,1.8,0,2.84,2.31,5.14,5.14,5.14,1.8,0,3.49-.97,4.41-2.5h2.04c-.13.31-.28.61-.45.9-.15.26-.11.59.1.81h0ZM22.1,34.61v2.57c-.13-.04-.27-.03-.39,0h-2.01c-.71,0-1.29-.58-1.29-1.29s.58-1.29,1.29-1.29h2.4ZM36.37,37.58l-1.13-2.97h.91l2.12,1.58-1.89,1.39ZM42.37,37.58l-1.89-1.39,2.02-1.5c.29.1.58.19.86.28,0,0,0,0,.01,0l-1,2.61Z"/>
</svg>