<?xml version="1.0" encoding="UTF-8"?>
<svg id="Capa_1" xmlns="http://www.w3.org/2000/svg" version="1.1" viewBox="0 0 115.62 26.71">
  <!-- Generator: Adobe Illustrator 29.6.1, SVG Export Plug-In . SVG Version: 2.1.1 Build 9)  -->
  <defs>
    <style>
      .st0 {
        isolation: isolate;
      }

      .st1 {
        fill: #fff;
      }
    </style>
  </defs>
  <g class="st0">
    <g class="st0">
      <path class="st1" d="M10.99,9.4c.57,0,1.06.02,1.48.05s.82.12,1.21.26c.39.14.69.37.9.67.09.09.2.34.34.75.14.41.2,1.09.2,2.02v3.61c0,.58-.05,1.03-.14,1.37-.09.33-.23.64-.4.93-.18.29-.44.51-.78.66-.34.15-.69.25-1.05.29s-.76.06-1.19.06h-1.2c-.61,0-1.14-.05-1.6-.16s-.86-.33-1.18-.67c-.46-.5-.69-1.34-.69-2.5v-3.73c0-.38,0-.71.03-1,.02-.28.07-.56.14-.84.08-.28.19-.53.34-.77.21-.3.48-.52.82-.67s.69-.24,1.06-.28.81-.06,1.33-.06h.38ZM10.96,10.44h-.43c-.39,0-.71.02-.98.05-.27.03-.51.1-.71.2-.21.1-.37.26-.49.46-.13.26-.21.58-.24.96-.02.38-.04.62-.04.74v3.84c0,.73.12,1.3.35,1.72.15.25.38.42.68.49s.72.12,1.24.14h.68c.75,0,1.31-.03,1.68-.09.37-.06.65-.21.84-.46.27-.36.4-.94.4-1.72v-4.04c0-.87-.15-1.47-.46-1.79-.21-.24-.55-.39-1.02-.45-.18-.02-.44-.03-.8-.04-.36,0-.59,0-.7-.02Z"/>
      <path class="st1" d="M16.65,9.49h1.97l5.88,9.6h.03v-9.6h1.2v10.5h-1.95l-5.91-9.52h-.03v9.52h-1.2v-10.5Z"/>
      <path class="st1" d="M33.05,9.49c.81,0,1.38.21,1.72.65.33.43.51,1.05.52,1.87,0,.55-.05.99-.16,1.32s-.25.58-.44.75c-.19.17-.43.31-.71.41.51.1.88.3,1.11.57.24.28.38.59.43.93s.08.79.08,1.35c-.01.51-.1.97-.25,1.36-.16.39-.42.71-.77.94s-.82.35-1.38.35h-5.66v-10.5h5.52ZM32.25,10.53h-3.54v3.55h3.6c.68,0,1.14-.13,1.4-.4.17-.18.27-.4.31-.67s.06-.6.06-.99c0-.51-.1-.87-.29-1.09-.14-.16-.33-.26-.56-.32-.23-.05-.56-.08-.99-.08ZM28.71,15.12v3.84h4.02c.38,0,.68-.05.92-.15s.4-.24.51-.41c.1-.17.17-.35.2-.55.03-.2.04-.45.04-.75,0-1.32-.5-1.97-1.51-1.97h-4.17Z"/>
      <path class="st1" d="M41.06,9.4c.57,0,1.06.02,1.48.05s.82.12,1.21.26c.39.14.69.37.9.67.09.09.2.34.34.75.14.41.2,1.09.2,2.02v3.61c0,.58-.05,1.03-.14,1.37-.09.33-.23.64-.4.93-.18.29-.44.51-.78.66-.34.15-.69.25-1.05.29s-.76.06-1.19.06h-1.2c-.61,0-1.14-.05-1.6-.16s-.86-.33-1.18-.67c-.46-.5-.69-1.34-.69-2.5v-3.73c0-.38,0-.71.03-1,.02-.28.07-.56.14-.84.08-.28.19-.53.34-.77.21-.3.48-.52.82-.67s.69-.24,1.06-.28.81-.06,1.33-.06h.38ZM41.03,10.44h-.43c-.39,0-.71.02-.98.05-.27.03-.51.1-.71.2-.21.1-.37.26-.49.46-.13.26-.21.58-.24.96-.02.38-.04.62-.04.74v3.84c0,.73.12,1.3.35,1.72.15.25.38.42.68.49s.72.12,1.24.14h.68c.75,0,1.31-.03,1.68-.09.37-.06.65-.21.84-.46.27-.36.4-.94.4-1.72v-4.04c0-.87-.15-1.47-.46-1.79-.21-.24-.55-.39-1.02-.45-.18-.02-.44-.03-.8-.04-.36,0-.59,0-.7-.02Z"/>
      <path class="st1" d="M49.7,9.49h1.67l3.95,10.5h-1.23l-.85-2.21h-5.31l-.81,2.21h-1.23l3.82-10.5ZM48.26,16.78h4.65l-2.35-6.31-2.3,6.31Z"/>
      <path class="st1" d="M61.39,9.49c1.17,0,1.99.26,2.46.77.41.43.62,1.22.62,2.35,0,.92-.14,1.58-.41,1.96-.3.39-.77.63-1.41.71v.03c.33.04.62.14.88.31s.46.39.6.66c.14.27.21.57.21.9v2.81h-1.2v-2.3c0-.69-.13-1.17-.39-1.46-.24-.29-.72-.43-1.44-.43h-3.78v4.19h-1.18v-10.5h5.04ZM61.42,10.53h-3.86v4.21h3.72c.38,0,.7-.03.96-.1.26-.07.47-.2.65-.39.26-.28.39-.79.39-1.51v-.35c0-.69-.09-1.14-.28-1.37-.29-.33-.81-.49-1.58-.49Z"/>
      <path class="st1" d="M71.52,19.99h-5.43v-10.5h5.14c.8,0,1.45.13,1.93.4.49.27.87.64,1.15,1.13.34.63.51,1.49.51,2.58v2.24c0,1.91-.53,3.17-1.6,3.75-.43.27-.99.41-1.7.41ZM71.12,18.96c.49,0,.9-.06,1.22-.17s.58-.3.77-.57c.22-.3.37-.68.43-1.13.07-.45.1-.97.1-1.54v-2.32c0-.45-.07-.88-.2-1.28-.13-.4-.36-.74-.69-1.01s-.76-.4-1.31-.4h-4.16v8.43h3.84Z"/>
      <path class="st1" d="M76.49,9.49h1.18v10.5h-1.18v-10.5Z"/>
      <path class="st1" d="M79.62,9.49h1.97l5.88,9.6h.03v-9.6h1.2v10.5h-1.95l-5.91-9.52h-.03v9.52h-1.2v-10.5Z"/>
      <path class="st1" d="M98.92,17.06c0,1.17-.27,1.97-.81,2.41-.25.19-.53.33-.84.42-.31.09-.65.14-1,.16-.36.02-.87.03-1.53.03h-.84c-.42,0-.79-.02-1.12-.05s-.63-.11-.92-.21-.54-.27-.75-.48c-.29-.28-.5-.65-.64-1.11-.14-.46-.21-1.05-.21-1.79v-3.45c0-1.25.28-2.18.83-2.79.25-.26.56-.46.95-.6.38-.14.82-.21,1.29-.21h2.84c.86,0,1.53.2,2.01.6s.72.99.72,1.75v.8h-1.17v-.45c0-.62-.1-1.02-.29-1.22-.15-.16-.35-.28-.6-.33-.25-.06-.55-.09-.88-.1s-.68-.01-1.04-.02c-.52,0-.96,0-1.31.01-.35,0-.65.03-.91.09-.26.06-.49.16-.68.32-.19.15-.33.39-.42.71-.09.33-.13.79-.13,1.39v3.81c0,.91.21,1.51.63,1.82.23.18.5.29.81.35.3.06.68.1,1.14.12.16-.02.37-.03.64-.03s.48,0,.61.03c.52-.02.95-.06,1.27-.11.32-.06.57-.16.77-.31.29-.21.43-.72.43-1.53v-1.32h-3.36v-1.06h4.54v2.32Z"/>
    </g>
  </g>
</svg>